<?xml version="1.0" encoding="utf-8" standalone="no"?>
<!DOCTYPE svg PUBLIC "-//W3C//DTD SVG 1.1//EN"
  "http://www.w3.org/Graphics/SVG/1.1/DTD/svg11.dtd">
<!-- Created with matplotlib (https://matplotlib.org/) -->
<svg height="720pt" version="1.1" viewBox="0 0 720 720" width="720pt" xmlns="http://www.w3.org/2000/svg" xmlns:xlink="http://www.w3.org/1999/xlink">
 <defs>
  <style type="text/css">
*{stroke-linecap:butt;stroke-linejoin:round;}
  </style>
 </defs>
 <g id="figure_1">
  <g id="patch_1">
   <path d="M 0 720 
L 720 720 
L 720 0 
L 0 0 
z
" style="fill:#ffffff;"/>
  </g>
  <g id="axes_1">
   <g id="patch_2">
    <path d="M 674.344141 387.472656 
C 674.344141 346.7973 666.331982 306.517461 650.766198 268.938332 
C 635.200413 231.359203 612.383716 197.211604 583.621896 168.449783 
C 554.860076 139.687963 520.712477 116.871267 483.133348 101.305482 
C 445.554219 85.739697 405.27438 77.727539 364.599023 77.727539 
C 323.923667 77.727539 283.643828 85.739697 246.064699 101.305482 
C 208.48557 116.871267 174.337971 139.687963 145.576151 168.449783 
C 116.814331 197.211604 93.997634 231.359203 78.431849 268.938332 
C 62.866064 306.517461 54.853906 346.7973 54.853906 387.472656 
C 54.853906 428.148012 62.866064 468.427852 78.431849 506.006981 
C 93.997634 543.58611 116.814331 577.733709 145.576151 606.495529 
C 174.337971 635.257349 208.48557 658.074045 246.064699 673.63983 
C 283.643828 689.205615 323.923667 697.217773 364.599023 697.217773 
C 405.27438 697.217773 445.554219 689.205615 483.133348 673.63983 
C 520.712477 658.074045 554.860076 635.257349 583.621896 606.495529 
C 612.383716 577.733709 635.200413 543.58611 650.766198 506.006981 
C 666.331982 468.427852 674.344141 428.148012 674.344141 387.472656 
M 364.599023 387.472656 
C 364.599023 387.472656 364.599023 387.472656 364.599023 387.472656 
C 364.599023 387.472656 364.599023 387.472656 364.599023 387.472656 
C 364.599023 387.472656 364.599023 387.472656 364.599023 387.472656 
C 364.599023 387.472656 364.599023 387.472656 364.599023 387.472656 
C 364.599023 387.472656 364.599023 387.472656 364.599023 387.472656 
C 364.599023 387.472656 364.599023 387.472656 364.599023 387.472656 
C 364.599023 387.472656 364.599023 387.472656 364.599023 387.472656 
C 364.599023 387.472656 364.599023 387.472656 364.599023 387.472656 
C 364.599023 387.472656 364.599023 387.472656 364.599023 387.472656 
C 364.599023 387.472656 364.599023 387.472656 364.599023 387.472656 
C 364.599023 387.472656 364.599023 387.472656 364.599023 387.472656 
C 364.599023 387.472656 364.599023 387.472656 364.599023 387.472656 
C 364.599023 387.472656 364.599023 387.472656 364.599023 387.472656 
C 364.599023 387.472656 364.599023 387.472656 364.599023 387.472656 
C 364.599023 387.472656 364.599023 387.472656 364.599023 387.472656 
C 364.599023 387.472656 364.599023 387.472656 364.599023 387.472656 
M 674.344141 387.472656 
z
" style="fill:#ffffff;"/>
   </g>
   <g id="patch_3">
    <path clip-path="url(#p989ceec48e)" d="M 660.264817 387.472656 
L 371.638685 375.279604 
L 357.559362 375.279604 
L 275.813085 387.472656 
L 285.726078 524.084604 
L 397.498667 444.456511 
z
" style="fill:#f4bec8;stroke:#f4bec8;stroke-linejoin:miter;"/>
   </g>
   <g id="matplotlib.axis_1">
    <g id="xtick_1">
     <g id="line2d_1">
      <path clip-path="url(#p989ceec48e)" d="M 364.599023 387.472656 
L 674.344141 387.472656 
" style="fill:none;stroke:#b0b0b0;stroke-linecap:square;stroke-width:0.8;"/>
     </g>
     <g id="text_1">
      <!-- Vida -->
      <defs>
       <path d="M 17.484375 67.671875 
L 39.015625 11.71875 
L 60.5 67.671875 
L 52.296875 67.671875 
L 52.296875 72.90625 
L 73.6875 72.90625 
L 73.6875 67.671875 
L 66.609375 67.671875 
L 40.578125 0 
L 32.171875 0 
L 6.296875 67.671875 
L -0.984375 67.671875 
L -0.984375 72.90625 
L 25.59375 72.90625 
L 25.59375 67.671875 
z
" id="DejaVuSerif-86"/>
       <path d="M 9.71875 68.015625 
Q 9.71875 70.265625 11.34375 71.921875 
Q 12.984375 73.578125 15.28125 73.578125 
Q 17.53125 73.578125 19.15625 71.921875 
Q 20.796875 70.265625 20.796875 68.015625 
Q 20.796875 65.71875 19.1875 64.109375 
Q 17.578125 62.5 15.28125 62.5 
Q 12.984375 62.5 11.34375 64.109375 
Q 9.71875 65.71875 9.71875 68.015625 
z
M 21.1875 5.171875 
L 29.6875 5.171875 
L 29.6875 0 
L 3.609375 0 
L 3.609375 5.171875 
L 12.203125 5.171875 
L 12.203125 46.6875 
L 3.609375 46.6875 
L 3.609375 51.90625 
L 21.1875 51.90625 
z
" id="DejaVuSerif-105"/>
       <path d="M 52.484375 5.171875 
L 61.078125 5.171875 
L 61.078125 0 
L 43.5 0 
L 43.5 8.109375 
Q 40.875 3.21875 36.796875 0.890625 
Q 32.71875 -1.421875 26.703125 -1.421875 
Q 17.140625 -1.421875 11.0625 6.171875 
Q 4.984375 13.765625 4.984375 25.984375 
Q 4.984375 38.1875 11.03125 45.75 
Q 17.09375 53.328125 26.703125 53.328125 
Q 32.71875 53.328125 36.796875 51 
Q 40.875 48.6875 43.5 43.796875 
L 43.5 70.796875 
L 35.015625 70.796875 
L 35.015625 75.984375 
L 52.484375 75.984375 
z
M 43.5 23.390625 
L 43.5 28.515625 
Q 43.5 37.84375 39.90625 42.765625 
Q 36.328125 47.703125 29.5 47.703125 
Q 22.5625 47.703125 19.015625 42.234375 
Q 15.484375 36.765625 15.484375 25.984375 
Q 15.484375 15.234375 19.015625 9.71875 
Q 22.5625 4.203125 29.5 4.203125 
Q 36.328125 4.203125 39.90625 9.109375 
Q 43.5 14.015625 43.5 23.390625 
z
" id="DejaVuSerif-100"/>
       <path d="M 39.796875 16.3125 
L 39.796875 27.296875 
L 28.21875 27.296875 
Q 21.53125 27.296875 18.25 24.40625 
Q 14.984375 21.53125 14.984375 15.578125 
Q 14.984375 10.15625 18.296875 6.984375 
Q 21.625 3.8125 27.296875 3.8125 
Q 32.90625 3.8125 36.34375 7.28125 
Q 39.796875 10.75 39.796875 16.3125 
z
M 48.78125 32.421875 
L 48.78125 5.171875 
L 56.78125 5.171875 
L 56.78125 0 
L 39.796875 0 
L 39.796875 5.609375 
Q 36.8125 2 32.90625 0.28125 
Q 29 -1.421875 23.78125 -1.421875 
Q 15.140625 -1.421875 10.0625 3.171875 
Q 4.984375 7.765625 4.984375 15.578125 
Q 4.984375 23.640625 10.796875 28.078125 
Q 16.609375 32.515625 27.203125 32.515625 
L 39.796875 32.515625 
L 39.796875 36.078125 
Q 39.796875 42 36.203125 45.234375 
Q 32.625 48.484375 26.125 48.484375 
Q 20.75 48.484375 17.578125 46.046875 
Q 14.40625 43.609375 13.625 38.8125 
L 8.984375 38.8125 
L 8.984375 49.3125 
Q 13.671875 51.3125 18.09375 52.3125 
Q 22.515625 53.328125 26.703125 53.328125 
Q 37.5 53.328125 43.140625 47.96875 
Q 48.78125 42.625 48.78125 32.421875 
z
" id="DejaVuSerif-97"/>
      </defs>
      <g transform="translate(677.757031 391.611719)scale(0.15 -0.15)">
       <use xlink:href="#DejaVuSerif-86"/>
       <use x="72.201172" xlink:href="#DejaVuSerif-105"/>
       <use x="104.183594" xlink:href="#DejaVuSerif-100"/>
       <use x="168.197266" xlink:href="#DejaVuSerif-97"/>
      </g>
     </g>
    </g>
    <g id="xtick_2">
     <g id="line2d_2">
      <path clip-path="url(#p989ceec48e)" d="M 364.599023 387.472656 
L 519.471582 119.225516 
" style="fill:none;stroke:#b0b0b0;stroke-linecap:square;stroke-width:0.8;"/>
     </g>
     <g id="text_2">
      <!-- Ataque -->
      <defs>
       <path d="M 20.015625 26.421875 
L 46.78125 26.421875 
L 33.40625 61.078125 
z
M -0.59375 0 
L -0.59375 5.171875 
L 5.8125 5.171875 
L 31.78125 72.90625 
L 39.984375 72.90625 
L 66.015625 5.171875 
L 73.1875 5.171875 
L 73.1875 0 
L 46.6875 0 
L 46.6875 5.171875 
L 54.78125 5.171875 
L 48.6875 21.1875 
L 18.015625 21.1875 
L 11.921875 5.171875 
L 19.921875 5.171875 
L 19.921875 0 
z
" id="DejaVuSerif-65"/>
       <path d="M 10.796875 46.6875 
L 2.875 46.6875 
L 2.875 51.90625 
L 10.796875 51.90625 
L 10.796875 68.015625 
L 19.828125 68.015625 
L 19.828125 51.90625 
L 36.71875 51.90625 
L 36.71875 46.6875 
L 19.828125 46.6875 
L 19.828125 13.71875 
Q 19.828125 7.125 21.09375 5.265625 
Q 22.359375 3.421875 25.78125 3.421875 
Q 29.296875 3.421875 30.90625 5.484375 
Q 32.515625 7.5625 32.625 12.203125 
L 39.40625 12.203125 
Q 39.015625 5.125 35.546875 1.84375 
Q 32.078125 -1.421875 25 -1.421875 
Q 17.234375 -1.421875 14.015625 2.015625 
Q 10.796875 5.46875 10.796875 13.71875 
z
" id="DejaVuSerif-116"/>
       <path d="M 52.484375 46.6875 
L 52.484375 -15.578125 
L 61.078125 -15.578125 
L 61.078125 -20.796875 
L 35.015625 -20.796875 
L 35.015625 -15.578125 
L 43.5 -15.578125 
L 43.5 8.109375 
Q 40.875 3.21875 36.796875 0.890625 
Q 32.71875 -1.421875 26.703125 -1.421875 
Q 17.140625 -1.421875 11.0625 6.171875 
Q 4.984375 13.765625 4.984375 25.984375 
Q 4.984375 38.1875 11.03125 45.75 
Q 17.09375 53.328125 26.703125 53.328125 
Q 32.71875 53.328125 36.796875 51 
Q 40.875 48.6875 43.5 43.796875 
L 43.5 51.90625 
L 61.078125 51.90625 
L 61.078125 46.6875 
z
M 43.5 28.515625 
Q 43.5 37.84375 39.90625 42.765625 
Q 36.328125 47.703125 29.5 47.703125 
Q 22.5625 47.703125 19.015625 42.234375 
Q 15.484375 36.765625 15.484375 25.984375 
Q 15.484375 15.234375 19.015625 9.71875 
Q 22.5625 4.203125 29.5 4.203125 
Q 36.328125 4.203125 39.90625 9.109375 
Q 43.5 14.015625 43.5 23.390625 
z
" id="DejaVuSerif-113"/>
       <path d="M 35.40625 51.90625 
L 52.203125 51.90625 
L 52.203125 5.171875 
L 60.6875 5.171875 
L 60.6875 0 
L 43.21875 0 
L 43.21875 9.1875 
Q 40.71875 4 36.765625 1.28125 
Q 32.8125 -1.421875 27.59375 -1.421875 
Q 18.953125 -1.421875 14.875 3.484375 
Q 10.796875 8.40625 10.796875 18.890625 
L 10.796875 46.6875 
L 2.6875 46.6875 
L 2.6875 51.90625 
L 19.828125 51.90625 
L 19.828125 21.6875 
Q 19.828125 12.203125 22.140625 8.6875 
Q 24.46875 5.171875 30.421875 5.171875 
Q 36.671875 5.171875 39.9375 9.765625 
Q 43.21875 14.359375 43.21875 23.09375 
L 43.21875 46.6875 
L 35.40625 46.6875 
z
" id="DejaVuSerif-117"/>
       <path d="M 54.203125 25 
L 15.484375 25 
L 15.484375 24.609375 
Q 15.484375 14.109375 19.4375 8.765625 
Q 23.390625 3.421875 31.109375 3.421875 
Q 37.015625 3.421875 40.796875 6.515625 
Q 44.578125 9.625 46.09375 15.71875 
L 53.328125 15.71875 
Q 51.171875 7.171875 45.375 2.875 
Q 39.59375 -1.421875 30.171875 -1.421875 
Q 18.796875 -1.421875 11.890625 6.078125 
Q 4.984375 13.578125 4.984375 25.984375 
Q 4.984375 38.28125 11.765625 45.796875 
Q 18.5625 53.328125 29.59375 53.328125 
Q 41.359375 53.328125 47.65625 46.0625 
Q 53.953125 38.8125 54.203125 25 
z
M 43.609375 30.171875 
Q 43.3125 39.265625 39.765625 43.875 
Q 36.234375 48.484375 29.59375 48.484375 
Q 23.390625 48.484375 19.828125 43.84375 
Q 16.265625 39.203125 15.484375 30.171875 
z
" id="DejaVuSerif-101"/>
      </defs>
      <g transform="translate(502.749707 105.611058)scale(0.15 -0.15)">
       <use xlink:href="#DejaVuSerif-65"/>
       <use x="72.201172" xlink:href="#DejaVuSerif-116"/>
       <use x="112.386719" xlink:href="#DejaVuSerif-97"/>
       <use x="172.005859" xlink:href="#DejaVuSerif-113"/>
       <use x="236.019531" xlink:href="#DejaVuSerif-117"/>
       <use x="300.423828" xlink:href="#DejaVuSerif-101"/>
      </g>
     </g>
    </g>
    <g id="xtick_3">
     <g id="line2d_3">
      <path clip-path="url(#p989ceec48e)" d="M 364.599023 387.472656 
L 209.726465 119.225516 
" style="fill:none;stroke:#b0b0b0;stroke-linecap:square;stroke-width:0.8;"/>
     </g>
     <g id="text_3">
      <!-- Defensa -->
      <defs>
       <path d="M 24.703125 5.171875 
L 33.796875 5.171875 
Q 48 5.171875 55.59375 13.28125 
Q 63.1875 21.390625 63.1875 36.53125 
Q 63.1875 51.65625 55.609375 59.65625 
Q 48.046875 67.671875 33.796875 67.671875 
L 24.703125 67.671875 
z
M 5.515625 0 
L 5.515625 5.171875 
L 14.796875 5.171875 
L 14.796875 67.671875 
L 5.515625 67.671875 
L 5.515625 72.90625 
L 34.515625 72.90625 
Q 53.375 72.90625 63.890625 63.28125 
Q 74.421875 53.65625 74.421875 36.53125 
Q 74.421875 19.34375 63.875 9.671875 
Q 53.328125 0 34.515625 0 
z
" id="DejaVuSerif-68"/>
       <path d="M 43.015625 63.71875 
L 38.28125 63.71875 
Q 38.234375 67.390625 36.203125 69.28125 
Q 34.1875 71.1875 30.328125 71.1875 
Q 25.296875 71.1875 23.234375 68.421875 
Q 21.1875 65.671875 21.1875 58.59375 
L 21.1875 51.90625 
L 35.6875 51.90625 
L 35.6875 46.6875 
L 21.1875 46.6875 
L 21.1875 5.171875 
L 32.71875 5.171875 
L 32.71875 0 
L 3.609375 0 
L 3.609375 5.171875 
L 12.203125 5.171875 
L 12.203125 46.6875 
L 3.609375 46.6875 
L 3.609375 51.90625 
L 12.203125 51.90625 
L 12.203125 58.40625 
Q 12.203125 67.09375 16.71875 71.53125 
Q 21.234375 75.984375 29.984375 75.984375 
Q 33.25 75.984375 36.515625 75.390625 
Q 39.796875 74.8125 43.015625 73.578125 
z
" id="DejaVuSerif-102"/>
       <path d="M 4.109375 0 
L 4.109375 5.171875 
L 12.203125 5.171875 
L 12.203125 46.6875 
L 3.609375 46.6875 
L 3.609375 51.90625 
L 21.1875 51.90625 
L 21.1875 42.671875 
Q 23.6875 47.953125 27.65625 50.640625 
Q 31.640625 53.328125 36.921875 53.328125 
Q 45.515625 53.328125 49.5625 48.390625 
Q 53.609375 43.453125 53.609375 33.015625 
L 53.609375 5.171875 
L 61.625 5.171875 
L 61.625 0 
L 36.8125 0 
L 36.8125 5.171875 
L 44.578125 5.171875 
L 44.578125 30.171875 
Q 44.578125 39.703125 42.234375 43.234375 
Q 39.890625 46.78125 33.984375 46.78125 
Q 27.734375 46.78125 24.453125 42.203125 
Q 21.1875 37.640625 21.1875 28.90625 
L 21.1875 5.171875 
L 29 5.171875 
L 29 0 
z
" id="DejaVuSerif-110"/>
       <path d="M 5.609375 2.875 
L 5.609375 14.984375 
L 10.796875 14.984375 
Q 10.984375 9.1875 14.421875 6.296875 
Q 17.875 3.421875 24.609375 3.421875 
Q 30.671875 3.421875 33.84375 5.6875 
Q 37.015625 7.953125 37.015625 12.3125 
Q 37.015625 15.71875 34.6875 17.8125 
Q 32.375 19.921875 24.90625 22.3125 
L 18.40625 24.515625 
Q 11.71875 26.65625 8.71875 29.875 
Q 5.71875 33.109375 5.71875 38.09375 
Q 5.71875 45.21875 10.9375 49.265625 
Q 16.15625 53.328125 25.390625 53.328125 
Q 29.5 53.328125 34.03125 52.25 
Q 38.578125 51.171875 43.40625 49.125 
L 43.40625 37.796875 
L 38.234375 37.796875 
Q 38.03125 42.828125 34.703125 45.65625 
Q 31.390625 48.484375 25.6875 48.484375 
Q 20.015625 48.484375 17.109375 46.484375 
Q 14.203125 44.484375 14.203125 40.484375 
Q 14.203125 37.203125 16.40625 35.21875 
Q 18.609375 33.25 25.203125 31.203125 
L 32.328125 29 
Q 39.703125 26.703125 42.9375 23.265625 
Q 46.1875 19.828125 46.1875 14.40625 
Q 46.1875 7.03125 40.546875 2.796875 
Q 34.90625 -1.421875 25 -1.421875 
Q 19.96875 -1.421875 15.1875 -0.34375 
Q 10.40625 0.734375 5.609375 2.875 
z
" id="DejaVuSerif-115"/>
      </defs>
      <g transform="translate(168.658496 105.611058)scale(0.15 -0.15)">
       <use xlink:href="#DejaVuSerif-68"/>
       <use x="80.175781" xlink:href="#DejaVuSerif-101"/>
       <use x="139.355469" xlink:href="#DejaVuSerif-102"/>
       <use x="176.367188" xlink:href="#DejaVuSerif-101"/>
       <use x="235.546875" xlink:href="#DejaVuSerif-110"/>
       <use x="299.951172" xlink:href="#DejaVuSerif-115"/>
       <use x="351.269531" xlink:href="#DejaVuSerif-97"/>
      </g>
     </g>
    </g>
    <g id="xtick_4">
     <g id="line2d_4">
      <path clip-path="url(#p989ceec48e)" d="M 364.599023 387.472656 
L 54.853906 387.472656 
" style="fill:none;stroke:#b0b0b0;stroke-linecap:square;stroke-width:0.8;"/>
     </g>
     <g id="text_4">
      <!-- At esp. -->
      <defs>
       <path id="DejaVuSerif-32"/>
       <path d="M 20.515625 28.515625 
L 20.515625 23.390625 
Q 20.515625 14.015625 24.09375 9.109375 
Q 27.6875 4.203125 34.515625 4.203125 
Q 41.40625 4.203125 44.9375 9.71875 
Q 48.484375 15.234375 48.484375 25.984375 
Q 48.484375 36.765625 44.9375 42.234375 
Q 41.40625 47.703125 34.515625 47.703125 
Q 27.6875 47.703125 24.09375 42.765625 
Q 20.515625 37.84375 20.515625 28.515625 
z
M 11.53125 46.6875 
L 2.875 46.6875 
L 2.875 51.90625 
L 20.515625 51.90625 
L 20.515625 43.796875 
Q 23.140625 48.6875 27.21875 51 
Q 31.296875 53.328125 37.3125 53.328125 
Q 46.875 53.328125 52.921875 45.75 
Q 58.984375 38.1875 58.984375 25.984375 
Q 58.984375 13.765625 52.921875 6.171875 
Q 46.875 -1.421875 37.3125 -1.421875 
Q 31.296875 -1.421875 27.21875 0.890625 
Q 23.140625 3.21875 20.515625 8.109375 
L 20.515625 -15.578125 
L 29 -15.578125 
L 29 -20.796875 
L 2.875 -20.796875 
L 2.875 -15.578125 
L 11.53125 -15.578125 
z
" id="DejaVuSerif-112"/>
       <path d="M 9.421875 5.078125 
Q 9.421875 7.8125 11.28125 9.71875 
Q 13.140625 11.625 15.921875 11.625 
Q 18.609375 11.625 20.5 9.71875 
Q 22.40625 7.8125 22.40625 5.078125 
Q 22.40625 2.390625 20.5 0.484375 
Q 18.609375 -1.421875 15.921875 -1.421875 
Q 13.140625 -1.421875 11.28125 0.453125 
Q 9.421875 2.34375 9.421875 5.078125 
z
" id="DejaVuSerif-46"/>
      </defs>
      <g transform="translate(8.06875 391.611719)scale(0.15 -0.15)">
       <use xlink:href="#DejaVuSerif-65"/>
       <use x="72.201172" xlink:href="#DejaVuSerif-116"/>
       <use x="112.386719" xlink:href="#DejaVuSerif-32"/>
       <use x="144.173828" xlink:href="#DejaVuSerif-101"/>
       <use x="203.353516" xlink:href="#DejaVuSerif-115"/>
       <use x="254.671875" xlink:href="#DejaVuSerif-112"/>
       <use x="318.685547" xlink:href="#DejaVuSerif-46"/>
      </g>
     </g>
    </g>
    <g id="xtick_5">
     <g id="line2d_5">
      <path clip-path="url(#p989ceec48e)" d="M 364.599023 387.472656 
L 209.726465 655.719796 
" style="fill:none;stroke:#b0b0b0;stroke-linecap:square;stroke-width:0.8;"/>
     </g>
     <g id="text_5">
      <!-- Def esp. -->
      <g transform="translate(168.39248 677.61238)scale(0.15 -0.15)">
       <use xlink:href="#DejaVuSerif-68"/>
       <use x="80.175781" xlink:href="#DejaVuSerif-101"/>
       <use x="139.355469" xlink:href="#DejaVuSerif-102"/>
       <use x="176.367188" xlink:href="#DejaVuSerif-32"/>
       <use x="208.154297" xlink:href="#DejaVuSerif-101"/>
       <use x="267.333984" xlink:href="#DejaVuSerif-115"/>
       <use x="318.652344" xlink:href="#DejaVuSerif-112"/>
       <use x="382.666016" xlink:href="#DejaVuSerif-46"/>
      </g>
     </g>
    </g>
    <g id="xtick_6">
     <g id="line2d_6">
      <path clip-path="url(#p989ceec48e)" d="M 364.599023 387.472656 
L 519.471582 655.719796 
" style="fill:none;stroke:#b0b0b0;stroke-linecap:square;stroke-width:0.8;"/>
     </g>
     <g id="text_6">
      <!-- Velocidad -->
      <defs>
       <path d="M 20.515625 5.171875 
L 29 5.171875 
L 29 0 
L 2.875 0 
L 2.875 5.171875 
L 11.53125 5.171875 
L 11.53125 70.796875 
L 2.875 70.796875 
L 2.875 75.984375 
L 20.515625 75.984375 
z
" id="DejaVuSerif-108"/>
       <path d="M 30.078125 3.421875 
Q 37.3125 3.421875 40.984375 9.125 
Q 44.671875 14.84375 44.671875 25.984375 
Q 44.671875 37.109375 40.984375 42.796875 
Q 37.3125 48.484375 30.078125 48.484375 
Q 22.859375 48.484375 19.171875 42.796875 
Q 15.484375 37.109375 15.484375 25.984375 
Q 15.484375 14.84375 19.1875 9.125 
Q 22.90625 3.421875 30.078125 3.421875 
z
M 30.078125 -1.421875 
Q 18.75 -1.421875 11.859375 6.078125 
Q 4.984375 13.578125 4.984375 25.984375 
Q 4.984375 38.375 11.84375 45.84375 
Q 18.703125 53.328125 30.078125 53.328125 
Q 41.453125 53.328125 48.3125 45.84375 
Q 55.171875 38.375 55.171875 25.984375 
Q 55.171875 13.578125 48.3125 6.078125 
Q 41.453125 -1.421875 30.078125 -1.421875 
z
" id="DejaVuSerif-111"/>
       <path d="M 51.421875 15.578125 
Q 49.515625 7.28125 44.09375 2.921875 
Q 38.671875 -1.421875 30.078125 -1.421875 
Q 18.75 -1.421875 11.859375 6.078125 
Q 4.984375 13.578125 4.984375 25.984375 
Q 4.984375 38.421875 11.859375 45.875 
Q 18.75 53.328125 30.078125 53.328125 
Q 35.015625 53.328125 39.890625 52.171875 
Q 44.78125 51.03125 49.703125 48.6875 
L 49.703125 35.40625 
L 44.484375 35.40625 
Q 43.453125 42.234375 40.015625 45.359375 
Q 36.578125 48.484375 30.171875 48.484375 
Q 22.90625 48.484375 19.1875 42.84375 
Q 15.484375 37.203125 15.484375 25.984375 
Q 15.484375 14.75 19.171875 9.078125 
Q 22.859375 3.421875 30.171875 3.421875 
Q 35.984375 3.421875 39.453125 6.4375 
Q 42.921875 9.46875 44.1875 15.578125 
z
" id="DejaVuSerif-99"/>
      </defs>
      <g transform="translate(492.289551 677.61238)scale(0.15 -0.15)">
       <use xlink:href="#DejaVuSerif-86"/>
       <use x="72.076172" xlink:href="#DejaVuSerif-101"/>
       <use x="131.255859" xlink:href="#DejaVuSerif-108"/>
       <use x="163.238281" xlink:href="#DejaVuSerif-111"/>
       <use x="223.443359" xlink:href="#DejaVuSerif-99"/>
       <use x="279.449219" xlink:href="#DejaVuSerif-105"/>
       <use x="311.431641" xlink:href="#DejaVuSerif-100"/>
       <use x="375.445312" xlink:href="#DejaVuSerif-97"/>
       <use x="435.064453" xlink:href="#DejaVuSerif-100"/>
      </g>
     </g>
    </g>
   </g>
   <g id="matplotlib.axis_2">
    <g id="ytick_1">
     <g id="line2d_7">
      <path clip-path="url(#p989ceec48e)" d="M 660.264817 387.472656 
L 660.084706 377.154069 
L 659.54459 366.848053 
L 658.645129 356.567165 
L 657.387418 346.323931 
L 655.772989 336.13083 
L 653.80381 326.000281 
L 651.482279 315.944627 
L 648.811226 305.976119 
L 645.793903 296.106901 
L 642.433988 286.348999 
L 638.735574 276.7143 
L 634.703166 267.214544 
L 630.341678 257.861303 
L 625.656424 248.665974 
L 620.653112 239.639759 
L 615.337837 230.793656 
L 609.717075 222.138443 
L 603.797675 213.684663 
L 597.586848 205.442618 
L 591.092162 197.422347 
L 584.321528 189.633624 
L 577.283196 182.085938 
L 569.985742 174.788483 
L 562.438055 167.750152 
L 554.649332 160.979518 
L 546.629062 154.484831 
L 538.387017 148.274005 
L 529.933237 142.354604 
L 521.278023 136.733843 
L 512.43192 131.418568 
L 503.405706 126.415255 
L 494.210376 121.730001 
L 484.857136 117.368513 
L 475.357379 113.336106 
L 465.722681 109.637692 
L 455.964778 106.277777 
L 446.095561 103.260454 
L 436.127053 100.5894 
L 426.071399 98.26787 
L 415.94085 96.29869 
L 405.747749 94.684262 
L 395.504514 93.426551 
L 385.223627 92.52709 
L 374.917611 91.986974 
L 364.599023 91.806863 
L 354.280436 91.986974 
L 343.97442 92.52709 
L 333.693532 93.426551 
L 323.450298 94.684262 
L 313.257197 96.29869 
L 303.126648 98.26787 
L 293.070994 100.5894 
L 283.102486 103.260454 
L 273.233269 106.277777 
L 263.475366 109.637692 
L 253.840668 113.336106 
L 244.340911 117.368513 
L 234.98767 121.730001 
L 225.792341 126.415255 
L 216.766127 131.418568 
L 207.920024 136.733843 
L 199.26481 142.354604 
L 190.81103 148.274005 
L 182.568985 154.484831 
L 174.548715 160.979518 
L 166.759992 167.750152 
L 159.212305 174.788483 
L 151.91485 182.085938 
L 144.876519 189.633624 
L 138.105885 197.422347 
L 131.611199 205.442618 
L 125.400372 213.684663 
L 119.480972 222.138443 
L 113.86021 230.793656 
L 108.544935 239.639759 
L 103.541623 248.665974 
L 98.856368 257.861303 
L 94.494881 267.214544 
L 90.462473 276.7143 
L 86.764059 286.348999 
L 83.404144 296.106901 
L 80.386821 305.976119 
L 77.715767 315.944627 
L 75.394237 326.000281 
L 73.425058 336.13083 
L 71.810629 346.323931 
L 70.552918 356.567165 
L 69.653457 366.848053 
L 69.113341 377.154069 
L 68.93323 387.472656 
L 69.113341 397.791244 
L 69.653457 408.097259 
L 70.552918 418.378147 
L 71.810629 428.621382 
L 73.425058 438.814483 
L 75.394237 448.945031 
L 77.715767 459.000686 
L 80.386821 468.969194 
L 83.404144 478.838411 
L 86.764059 488.596313 
L 90.462473 498.231012 
L 94.494881 507.730769 
L 98.856368 517.084009 
L 103.541623 526.279338 
L 108.544935 535.305553 
L 113.86021 544.151656 
L 119.480972 552.80687 
L 125.400372 561.260649 
L 131.611199 569.502695 
L 138.105885 577.522965 
L 144.876519 585.311688 
L 151.91485 592.859375 
L 159.212305 600.156829 
L 166.759992 607.195161 
L 174.548715 613.965795 
L 182.568985 620.460481 
L 190.81103 626.671308 
L 199.26481 632.590708 
L 207.920024 638.21147 
L 216.766127 643.526745 
L 225.792341 648.530057 
L 234.98767 653.215311 
L 244.340911 657.576799 
L 253.840668 661.609206 
L 263.475366 665.307621 
L 273.233269 668.667536 
L 283.102486 671.684859 
L 293.070994 674.355912 
L 303.126648 676.677443 
L 313.257197 678.646622 
L 323.450298 680.261051 
L 333.693532 681.518762 
L 343.97442 682.418223 
L 354.280436 682.958338 
L 364.599023 683.13845 
L 374.917611 682.958338 
L 385.223627 682.418223 
L 395.504514 681.518762 
L 405.747749 680.261051 
L 415.94085 678.646622 
L 426.071399 676.677443 
L 436.127053 674.355912 
L 446.095561 671.684859 
L 455.964778 668.667536 
L 465.722681 665.307621 
L 475.357379 661.609206 
L 484.857136 657.576799 
L 494.210376 653.215311 
L 503.405706 648.530057 
L 512.43192 643.526745 
L 521.278023 638.21147 
L 529.933237 632.590708 
L 538.387017 626.671308 
L 546.629062 620.460481 
L 554.649332 613.965795 
L 562.438055 607.195161 
L 569.985742 600.156829 
L 577.283196 592.859375 
L 584.321528 585.311688 
L 591.092162 577.522965 
L 597.586848 569.502695 
L 603.797675 561.260649 
L 609.717075 552.80687 
L 615.337837 544.151656 
L 620.653112 535.305553 
L 625.656424 526.279338 
L 630.341678 517.084009 
L 634.703166 507.730769 
L 638.735574 498.231012 
L 642.433988 488.596313 
L 645.793903 478.838411 
L 648.811226 468.969194 
L 651.482279 459.000686 
L 653.80381 448.945031 
L 655.772989 438.814483 
L 657.387418 428.621382 
L 658.645129 418.378147 
L 659.54459 408.097259 
L 660.084706 397.791244 
L 660.264817 387.472656 
L 660.264817 387.472656 
" style="fill:none;stroke:#b0b0b0;stroke-linecap:square;stroke-width:0.8;"/>
     </g>
     <g id="text_7">
      <!-- 255 -->
      <defs>
       <path d="M 12.796875 55.515625 
L 7.328125 55.515625 
L 7.328125 68.5 
Q 12.546875 71.296875 17.84375 72.75 
Q 23.140625 74.21875 28.21875 74.21875 
Q 39.59375 74.21875 46.1875 68.703125 
Q 52.78125 63.1875 52.78125 53.71875 
Q 52.78125 43.015625 37.84375 28.125 
Q 36.671875 27 36.078125 26.421875 
L 17.671875 8.015625 
L 48.09375 8.015625 
L 48.09375 17 
L 53.8125 17 
L 53.8125 0 
L 6.78125 0 
L 6.78125 5.328125 
L 28.90625 27.390625 
Q 36.234375 34.71875 39.359375 40.84375 
Q 42.484375 46.96875 42.484375 53.71875 
Q 42.484375 61.078125 38.640625 65.234375 
Q 34.8125 69.390625 28.078125 69.390625 
Q 21.09375 69.390625 17.28125 65.921875 
Q 13.484375 62.453125 12.796875 55.515625 
z
" id="DejaVuSerif-50"/>
       <path d="M 50.296875 72.90625 
L 50.296875 64.890625 
L 16.890625 64.890625 
L 16.890625 44 
Q 19.4375 45.75 22.828125 46.625 
Q 26.21875 47.515625 30.421875 47.515625 
Q 42.234375 47.515625 49.0625 40.96875 
Q 55.90625 34.421875 55.90625 23.09375 
Q 55.90625 11.53125 49 5.046875 
Q 42.09375 -1.421875 29.59375 -1.421875 
Q 24.5625 -1.421875 19.28125 -0.1875 
Q 14.015625 1.03125 8.5 3.515625 
L 8.5 17.671875 
L 14.015625 17.671875 
Q 14.453125 10.75 18.421875 7.078125 
Q 22.40625 3.421875 29.59375 3.421875 
Q 37.3125 3.421875 41.453125 8.5 
Q 45.609375 13.578125 45.609375 23.09375 
Q 45.609375 32.5625 41.484375 37.609375 
Q 37.359375 42.671875 29.59375 42.671875 
Q 25.203125 42.671875 21.84375 41.109375 
Q 18.5 39.546875 15.921875 36.28125 
L 11.71875 36.28125 
L 11.71875 72.90625 
z
" id="DejaVuSerif-53"/>
      </defs>
      <g transform="translate(637.758599 272.246568)scale(0.1 -0.1)">
       <use xlink:href="#DejaVuSerif-50"/>
       <use x="63.623047" xlink:href="#DejaVuSerif-53"/>
       <use x="127.246094" xlink:href="#DejaVuSerif-53"/>
      </g>
     </g>
    </g>
    <g id="ytick_2">
     <g id="line2d_8">
      <path clip-path="url(#p989ceec48e)" d="M 378.678347 387.472656 
L 378.541328 385.513193 
L 378.132938 383.591869 
L 377.461125 381.746079 
L 376.538967 380.011751 
L 375.384411 378.422642 
L 374.01993 377.00968 
L 372.472081 375.800368 
L 370.770993 374.818244 
L 368.949774 374.082424 
L 367.043872 373.607229 
L 365.090385 373.401909 
L 363.127333 373.470461 
L 361.192927 373.811549 
L 359.324816 374.418535 
L 357.559362 375.279604 
L 355.930926 376.377998 
L 354.471206 377.692336 
L 353.208611 379.197038 
L 352.167719 380.862814 
L 351.368787 382.657244 
L 350.827367 384.5454 
L 350.553996 386.490532 
L 350.553996 388.45478 
L 350.827367 390.399912 
L 351.368787 392.288068 
L 352.167719 394.082498 
L 353.208611 395.748275 
L 354.471206 397.252976 
L 355.930926 398.567315 
L 357.559362 399.665708 
L 359.324816 400.526778 
L 361.192927 401.133764 
L 363.127333 401.474852 
L 365.090385 401.543403 
L 367.043872 401.338083 
L 368.949774 400.862889 
L 370.770993 400.127068 
L 372.472081 399.144944 
L 374.01993 397.935633 
L 375.384411 396.522671 
L 376.538967 394.933561 
L 377.461125 393.199233 
L 378.132938 391.353444 
L 378.541328 389.432119 
L 378.678347 387.472656 
L 378.678347 387.472656 
" style="fill:none;stroke:#b0b0b0;stroke-linecap:square;stroke-width:0.8;"/>
     </g>
     <g id="text_8">
      <!-- 10 -->
      <defs>
       <path d="M 14.203125 0 
L 14.203125 5.171875 
L 26.90625 5.171875 
L 26.90625 65.828125 
L 12.203125 56.296875 
L 12.203125 62.703125 
L 29.984375 74.21875 
L 36.71875 74.21875 
L 36.71875 5.171875 
L 49.421875 5.171875 
L 49.421875 0 
z
" id="DejaVuSerif-49"/>
       <path d="M 31.78125 3.421875 
Q 39.265625 3.421875 42.96875 11.625 
Q 46.6875 19.828125 46.6875 36.375 
Q 46.6875 52.984375 42.96875 61.1875 
Q 39.265625 69.390625 31.78125 69.390625 
Q 24.3125 69.390625 20.59375 61.1875 
Q 16.890625 52.984375 16.890625 36.375 
Q 16.890625 19.828125 20.59375 11.625 
Q 24.3125 3.421875 31.78125 3.421875 
z
M 31.78125 -1.421875 
Q 19.921875 -1.421875 13.25 8.53125 
Q 6.59375 18.5 6.59375 36.375 
Q 6.59375 54.296875 13.25 64.25 
Q 19.921875 74.21875 31.78125 74.21875 
Q 43.703125 74.21875 50.34375 64.25 
Q 56.984375 54.296875 56.984375 36.375 
Q 56.984375 18.5 50.34375 8.53125 
Q 43.703125 -1.421875 31.78125 -1.421875 
z
" id="DejaVuSerif-48"/>
      </defs>
      <g transform="translate(377.606622 380.005045)scale(0.1 -0.1)">
       <use xlink:href="#DejaVuSerif-49"/>
       <use x="63.623047" xlink:href="#DejaVuSerif-48"/>
      </g>
     </g>
    </g>
    <g id="ytick_3">
     <g id="line2d_9">
      <path clip-path="url(#p989ceec48e)" d="M 378.678347 387.472656 
L 378.541328 385.513193 
L 378.132938 383.591869 
L 377.461125 381.746079 
L 376.538967 380.011751 
L 375.384411 378.422642 
L 374.01993 377.00968 
L 372.472081 375.800368 
L 370.770993 374.818244 
L 368.949774 374.082424 
L 367.043872 373.607229 
L 365.090385 373.401909 
L 363.127333 373.470461 
L 361.192927 373.811549 
L 359.324816 374.418535 
L 357.559362 375.279604 
L 355.930926 376.377998 
L 354.471206 377.692336 
L 353.208611 379.197038 
L 352.167719 380.862814 
L 351.368787 382.657244 
L 350.827367 384.5454 
L 350.553996 386.490532 
L 350.553996 388.45478 
L 350.827367 390.399912 
L 351.368787 392.288068 
L 352.167719 394.082498 
L 353.208611 395.748275 
L 354.471206 397.252976 
L 355.930926 398.567315 
L 357.559362 399.665708 
L 359.324816 400.526778 
L 361.192927 401.133764 
L 363.127333 401.474852 
L 365.090385 401.543403 
L 367.043872 401.338083 
L 368.949774 400.862889 
L 370.770993 400.127068 
L 372.472081 399.144944 
L 374.01993 397.935633 
L 375.384411 396.522671 
L 376.538967 394.933561 
L 377.461125 393.199233 
L 378.132938 391.353444 
L 378.541328 389.432119 
L 378.678347 387.472656 
L 378.678347 387.472656 
" style="fill:none;stroke:#b0b0b0;stroke-linecap:square;stroke-width:0.8;"/>
     </g>
     <g id="text_9">
      <!-- 10 -->
      <g transform="translate(377.606622 380.005045)scale(0.1 -0.1)">
       <use xlink:href="#DejaVuSerif-49"/>
       <use x="63.623047" xlink:href="#DejaVuSerif-48"/>
      </g>
     </g>
    </g>
    <g id="ytick_4">
     <g id="line2d_10">
      <path clip-path="url(#p989ceec48e)" d="M 453.384961 387.472656 
L 453.168683 381.279262 
L 452.520903 375.116042 
L 451.444776 369.013022 
L 449.945545 362.999935 
L 448.030514 357.106077 
L 445.709014 351.360162 
L 442.992354 345.790183 
L 439.893769 340.423277 
L 436.428356 335.285591 
L 432.612998 330.402155 
L 428.466282 325.796761 
L 424.008412 321.491846 
L 419.261105 317.508382 
L 414.24749 313.865778 
L 408.991992 310.581778 
L 403.520217 307.672384 
L 397.858821 305.151768 
L 392.035387 303.032211 
L 386.078286 301.32404 
L 380.01654 300.035576 
L 373.879681 299.173097 
L 367.697608 298.740804 
L 361.500439 298.740804 
L 355.318366 299.173097 
L 349.181507 300.035576 
L 343.119761 301.32404 
L 337.16266 303.032211 
L 331.339226 305.151768 
L 325.67783 307.672384 
L 320.206054 310.581778 
L 314.950557 313.865778 
L 309.936942 317.508382 
L 305.189635 321.491846 
L 300.731764 325.796761 
L 296.585049 330.402155 
L 292.769691 335.285591 
L 289.304278 340.423277 
L 286.205693 345.790183 
L 283.489033 351.360162 
L 281.167533 357.106077 
L 279.252502 362.999935 
L 277.753271 369.013022 
L 276.677144 375.116042 
L 276.029363 381.279262 
L 275.813085 387.472656 
L 276.029363 393.66605 
L 276.677144 399.829271 
L 277.753271 405.932291 
L 279.252502 411.945377 
L 281.167533 417.839236 
L 283.489033 423.585151 
L 286.205693 429.155129 
L 289.304278 434.522035 
L 292.769691 439.659721 
L 296.585049 444.543157 
L 300.731764 449.148551 
L 305.189635 453.453467 
L 309.936942 457.43693 
L 314.950557 461.079535 
L 320.206054 464.363534 
L 325.67783 467.272929 
L 331.339226 469.793545 
L 337.16266 471.913101 
L 343.119761 473.621272 
L 349.181507 474.909736 
L 355.318366 475.772216 
L 361.500439 476.204508 
L 367.697608 476.204508 
L 373.879681 475.772216 
L 380.01654 474.909736 
L 386.078286 473.621272 
L 392.035387 471.913101 
L 397.858821 469.793545 
L 403.520217 467.272929 
L 408.991992 464.363534 
L 414.24749 461.079535 
L 419.261105 457.43693 
L 424.008412 453.453467 
L 428.466282 449.148551 
L 432.612998 444.543157 
L 436.428356 439.659721 
L 439.893769 434.522035 
L 442.992354 429.155129 
L 445.709014 423.585151 
L 448.030514 417.839236 
L 449.945545 411.945377 
L 451.444776 405.932291 
L 452.520903 399.829271 
L 453.168683 393.66605 
L 453.384961 387.472656 
L 453.384961 387.472656 
" style="fill:none;stroke:#b0b0b0;stroke-linecap:square;stroke-width:0.8;"/>
     </g>
     <g id="text_10">
      <!-- 75 -->
      <defs>
       <path d="M 56.390625 67.921875 
L 27.875 0 
L 20.609375 0 
L 47.796875 64.890625 
L 14.109375 64.890625 
L 14.109375 55.90625 
L 8.40625 55.90625 
L 8.40625 72.90625 
L 56.390625 72.90625 
z
" id="DejaVuSerif-55"/>
      </defs>
      <g transform="translate(446.626534 351.416061)scale(0.1 -0.1)">
       <use xlink:href="#DejaVuSerif-55"/>
       <use x="63.623047" xlink:href="#DejaVuSerif-53"/>
      </g>
     </g>
    </g>
    <g id="ytick_5">
     <g id="line2d_11">
      <path clip-path="url(#p989ceec48e)" d="M 522.344913 387.472656 
L 522.248819 381.967404 
L 521.960652 376.468859 
L 521.480765 370.983721 
L 520.809741 365.518672 
L 519.948399 360.08037 
L 518.897787 354.675442 
L 517.659186 349.310472 
L 516.234105 343.991996 
L 514.62428 338.726495 
L 512.831672 333.520384 
L 510.858466 328.380006 
L 508.707065 323.311623 
L 506.38009 318.32141 
L 503.880377 313.415447 
L 501.210971 308.599711 
L 498.375125 303.88007 
L 495.376293 299.262274 
L 492.218129 294.751949 
L 488.904481 290.354589 
L 485.439386 286.075553 
L 481.827065 281.920053 
L 478.07192 277.893153 
L 474.178526 273.999759 
L 470.151626 270.244614 
L 465.996127 266.632294 
L 461.717091 263.167199 
L 457.319731 259.853551 
L 452.809406 256.695387 
L 448.191609 253.696555 
L 443.471968 250.860708 
L 438.656233 248.191302 
L 433.75027 245.69159 
L 428.760057 243.364615 
L 423.691674 241.213214 
L 418.551295 239.240008 
L 413.345184 237.4474 
L 408.079683 235.837575 
L 402.761208 234.412493 
L 397.396238 233.173892 
L 391.99131 232.123281 
L 386.553008 231.261938 
L 381.087959 230.590915 
L 375.60282 230.111027 
L 370.104276 229.822861 
L 364.599023 229.726766 
L 359.093771 229.822861 
L 353.595226 230.111027 
L 348.110088 230.590915 
L 342.645039 231.261938 
L 337.206737 232.123281 
L 331.801809 233.173892 
L 326.436839 234.412493 
L 321.118363 235.837575 
L 315.852863 237.4474 
L 310.646752 239.240008 
L 305.506373 241.213214 
L 300.43799 243.364615 
L 295.447777 245.69159 
L 290.541814 248.191302 
L 285.726078 250.860708 
L 281.006438 253.696555 
L 276.388641 256.695387 
L 271.878316 259.853551 
L 267.480956 263.167199 
L 263.20192 266.632294 
L 259.04642 270.244614 
L 255.019521 273.999759 
L 251.126126 277.893153 
L 247.370982 281.920053 
L 243.758661 286.075553 
L 240.293566 290.354589 
L 236.979918 294.751949 
L 233.821754 299.262274 
L 230.822922 303.88007 
L 227.987075 308.599711 
L 225.31767 313.415447 
L 222.817957 318.32141 
L 220.490982 323.311623 
L 218.339581 328.380006 
L 216.366375 333.520384 
L 214.573767 338.726495 
L 212.963942 343.991996 
L 211.538861 349.310472 
L 210.30026 354.675442 
L 209.249648 360.08037 
L 208.388306 365.518672 
L 207.717282 370.983721 
L 207.237395 376.468859 
L 206.949228 381.967404 
L 206.853134 387.472656 
L 206.949228 392.977908 
L 207.237395 398.476453 
L 207.717282 403.961592 
L 208.388306 409.426641 
L 209.249648 414.864943 
L 210.30026 420.269871 
L 211.538861 425.634841 
L 212.963942 430.953316 
L 214.573767 436.218817 
L 216.366375 441.424928 
L 218.339581 446.565307 
L 220.490982 451.63369 
L 222.817957 456.623903 
L 225.31767 461.529866 
L 227.987075 466.345601 
L 230.822922 471.065242 
L 233.821754 475.683038 
L 236.979918 480.193364 
L 240.293566 484.590724 
L 243.758661 488.86976 
L 247.370982 493.025259 
L 251.126126 497.052159 
L 255.019521 500.945553 
L 259.04642 504.700698 
L 263.20192 508.313019 
L 267.480956 511.778114 
L 271.878316 515.091762 
L 276.388641 518.249926 
L 281.006438 521.248758 
L 285.726078 524.084604 
L 290.541814 526.75401 
L 295.447777 529.253723 
L 300.43799 531.580697 
L 305.506373 533.732099 
L 310.646752 535.705305 
L 315.852863 537.497913 
L 321.118363 539.107738 
L 326.436839 540.532819 
L 331.801809 541.77142 
L 337.206737 542.822032 
L 342.645039 543.683374 
L 348.110088 544.354398 
L 353.595226 544.834285 
L 359.093771 545.122452 
L 364.599023 545.218546 
L 370.104276 545.122452 
L 375.60282 544.834285 
L 381.087959 544.354398 
L 386.553008 543.683374 
L 391.99131 542.822032 
L 397.396238 541.77142 
L 402.761208 540.532819 
L 408.079683 539.107738 
L 413.345184 537.497913 
L 418.551295 535.705305 
L 423.691674 533.732099 
L 428.760057 531.580697 
L 433.75027 529.253723 
L 438.656233 526.75401 
L 443.471968 524.084604 
L 448.191609 521.248758 
L 452.809406 518.249926 
L 457.319731 515.091762 
L 461.717091 511.778114 
L 465.996127 508.313019 
L 470.151626 504.700698 
L 474.178526 500.945553 
L 478.07192 497.052159 
L 481.827065 493.025259 
L 485.439386 488.86976 
L 488.904481 484.590724 
L 492.218129 480.193364 
L 495.376293 475.683038 
L 498.375125 471.065242 
L 501.210971 466.345601 
L 503.880377 461.529866 
L 506.38009 456.623903 
L 508.707065 451.63369 
L 510.858466 446.565307 
L 512.831672 441.424928 
L 514.62428 436.218817 
L 516.234105 430.953316 
L 517.659186 425.634841 
L 518.897787 420.269871 
L 519.948399 414.864943 
L 520.809741 409.426641 
L 521.480765 403.961592 
L 521.960652 398.476453 
L 522.248819 392.977908 
L 522.344913 387.472656 
L 522.344913 387.472656 
" style="fill:none;stroke:#b0b0b0;stroke-linecap:square;stroke-width:0.8;"/>
     </g>
     <g id="text_11">
      <!-- 135 -->
      <defs>
       <path d="M 9.71875 69.828125 
Q 15.4375 71.96875 20.671875 73.09375 
Q 25.921875 74.21875 30.515625 74.21875 
Q 41.21875 74.21875 47.21875 69.59375 
Q 53.21875 64.984375 53.21875 56.78125 
Q 53.21875 50.203125 49.0625 45.78125 
Q 44.921875 41.359375 37.3125 39.796875 
Q 46.296875 38.53125 51.25 33.28125 
Q 56.203125 28.03125 56.203125 19.671875 
Q 56.203125 9.46875 49.34375 4.015625 
Q 42.484375 -1.421875 29.59375 -1.421875 
Q 23.875 -1.421875 18.421875 -0.1875 
Q 12.984375 1.03125 7.625 3.515625 
L 7.625 17.671875 
L 13.09375 17.671875 
Q 13.578125 10.640625 17.828125 7.03125 
Q 22.078125 3.421875 29.78125 3.421875 
Q 37.25 3.421875 41.578125 7.734375 
Q 45.90625 12.0625 45.90625 19.578125 
Q 45.90625 28.171875 41.453125 32.59375 
Q 37.015625 37.015625 28.421875 37.015625 
L 23.78125 37.015625 
L 23.78125 42 
L 26.21875 42 
Q 34.765625 42 39.03125 45.53125 
Q 43.3125 49.078125 43.3125 56.203125 
Q 43.3125 62.59375 39.796875 65.984375 
Q 36.28125 69.390625 29.6875 69.390625 
Q 23.09375 69.390625 19.453125 66.265625 
Q 15.828125 63.140625 15.1875 56.984375 
L 9.71875 56.984375 
z
" id="DejaVuSerif-51"/>
      </defs>
      <g transform="translate(510.337222 325.02623)scale(0.1 -0.1)">
       <use xlink:href="#DejaVuSerif-49"/>
       <use x="63.623047" xlink:href="#DejaVuSerif-51"/>
       <use x="127.246094" xlink:href="#DejaVuSerif-53"/>
      </g>
     </g>
    </g>
    <g id="ytick_6">
     <g id="line2d_12">
      <path clip-path="url(#p989ceec48e)" d="M 430.398311 387.472656 
L 430.238027 382.88273 
L 429.757957 378.315165 
L 428.960439 373.792215 
L 427.849358 369.335915 
L 426.430128 364.967975 
L 424.709664 360.709675 
L 422.696346 356.581762 
L 420.399984 352.604346 
L 417.831765 348.796805 
L 415.004202 345.17769 
L 411.93107 341.76463 
L 408.627341 338.574256 
L 405.10911 335.62211 
L 401.393518 332.922575 
L 397.498667 330.488802 
L 393.443533 328.332648 
L 389.24787 326.464619 
L 384.932121 324.893815 
L 380.517312 323.627889 
L 376.02495 322.673008 
L 371.476922 322.033824 
L 366.895385 321.713452 
L 362.302661 321.713452 
L 357.721125 322.033824 
L 353.173097 322.673008 
L 348.680735 323.627889 
L 344.265925 324.893815 
L 339.950177 326.464619 
L 335.754514 328.332648 
L 331.69938 330.488802 
L 327.804529 332.922575 
L 324.088937 335.62211 
L 320.570706 338.574256 
L 317.266977 341.76463 
L 314.193845 345.17769 
L 311.366282 348.796805 
L 308.798063 352.604346 
L 306.501701 356.581762 
L 304.488383 360.709675 
L 302.767919 364.967975 
L 301.348689 369.335915 
L 300.237608 373.792215 
L 299.44009 378.315165 
L 298.96002 382.88273 
L 298.799736 387.472656 
L 298.96002 392.062583 
L 299.44009 396.630147 
L 300.237608 401.153097 
L 301.348689 405.609398 
L 302.767919 409.977338 
L 304.488383 414.235638 
L 306.501701 418.363551 
L 308.798063 422.340966 
L 311.366282 426.148507 
L 314.193845 429.767623 
L 317.266977 433.180682 
L 320.570706 436.371056 
L 324.088937 439.323202 
L 327.804529 442.022738 
L 331.69938 444.456511 
L 335.754514 446.612664 
L 339.950177 448.480693 
L 344.265925 450.051497 
L 348.680735 451.317424 
L 353.173097 452.272305 
L 357.721125 452.911488 
L 362.302661 453.231861 
L 366.895385 453.231861 
L 371.476922 452.911488 
L 376.02495 452.272305 
L 380.517312 451.317424 
L 384.932121 450.051497 
L 389.24787 448.480693 
L 393.443533 446.612664 
L 397.498667 444.456511 
L 401.393518 442.022738 
L 405.10911 439.323202 
L 408.627341 436.371056 
L 411.93107 433.180682 
L 415.004202 429.767623 
L 417.831765 426.148507 
L 420.399984 422.340966 
L 422.696346 418.363551 
L 424.709664 414.235638 
L 426.430128 409.977338 
L 427.849358 405.609398 
L 428.960439 401.153097 
L 429.757957 396.630147 
L 430.238027 392.062583 
L 430.398311 387.472656 
L 430.398311 387.472656 
" style="fill:none;stroke:#b0b0b0;stroke-linecap:square;stroke-width:0.8;"/>
     </g>
     <g id="text_12">
      <!-- 55 -->
      <g transform="translate(425.389638 360.212672)scale(0.1 -0.1)">
       <use xlink:href="#DejaVuSerif-53"/>
       <use x="63.623047" xlink:href="#DejaVuSerif-53"/>
      </g>
     </g>
    </g>
    <g id="ytick_7">
     <g id="line2d_13">
      <path clip-path="url(#p989ceec48e)" d="M 660.264817 387.472656 
L 660.084706 377.154069 
L 659.54459 366.848053 
L 658.645129 356.567165 
L 657.387418 346.323931 
L 655.772989 336.13083 
L 653.80381 326.000281 
L 651.482279 315.944627 
L 648.811226 305.976119 
L 645.793903 296.106901 
L 642.433988 286.348999 
L 638.735574 276.7143 
L 634.703166 267.214544 
L 630.341678 257.861303 
L 625.656424 248.665974 
L 620.653112 239.639759 
L 615.337837 230.793656 
L 609.717075 222.138443 
L 603.797675 213.684663 
L 597.586848 205.442618 
L 591.092162 197.422347 
L 584.321528 189.633624 
L 577.283196 182.085938 
L 569.985742 174.788483 
L 562.438055 167.750152 
L 554.649332 160.979518 
L 546.629062 154.484831 
L 538.387017 148.274005 
L 529.933237 142.354604 
L 521.278023 136.733843 
L 512.43192 131.418568 
L 503.405706 126.415255 
L 494.210376 121.730001 
L 484.857136 117.368513 
L 475.357379 113.336106 
L 465.722681 109.637692 
L 455.964778 106.277777 
L 446.095561 103.260454 
L 436.127053 100.5894 
L 426.071399 98.26787 
L 415.94085 96.29869 
L 405.747749 94.684262 
L 395.504514 93.426551 
L 385.223627 92.52709 
L 374.917611 91.986974 
L 364.599023 91.806863 
L 354.280436 91.986974 
L 343.97442 92.52709 
L 333.693532 93.426551 
L 323.450298 94.684262 
L 313.257197 96.29869 
L 303.126648 98.26787 
L 293.070994 100.5894 
L 283.102486 103.260454 
L 273.233269 106.277777 
L 263.475366 109.637692 
L 253.840668 113.336106 
L 244.340911 117.368513 
L 234.98767 121.730001 
L 225.792341 126.415255 
L 216.766127 131.418568 
L 207.920024 136.733843 
L 199.26481 142.354604 
L 190.81103 148.274005 
L 182.568985 154.484831 
L 174.548715 160.979518 
L 166.759992 167.750152 
L 159.212305 174.788483 
L 151.91485 182.085938 
L 144.876519 189.633624 
L 138.105885 197.422347 
L 131.611199 205.442618 
L 125.400372 213.684663 
L 119.480972 222.138443 
L 113.86021 230.793656 
L 108.544935 239.639759 
L 103.541623 248.665974 
L 98.856368 257.861303 
L 94.494881 267.214544 
L 90.462473 276.7143 
L 86.764059 286.348999 
L 83.404144 296.106901 
L 80.386821 305.976119 
L 77.715767 315.944627 
L 75.394237 326.000281 
L 73.425058 336.13083 
L 71.810629 346.323931 
L 70.552918 356.567165 
L 69.653457 366.848053 
L 69.113341 377.154069 
L 68.93323 387.472656 
L 69.113341 397.791244 
L 69.653457 408.097259 
L 70.552918 418.378147 
L 71.810629 428.621382 
L 73.425058 438.814483 
L 75.394237 448.945031 
L 77.715767 459.000686 
L 80.386821 468.969194 
L 83.404144 478.838411 
L 86.764059 488.596313 
L 90.462473 498.231012 
L 94.494881 507.730769 
L 98.856368 517.084009 
L 103.541623 526.279338 
L 108.544935 535.305553 
L 113.86021 544.151656 
L 119.480972 552.80687 
L 125.400372 561.260649 
L 131.611199 569.502695 
L 138.105885 577.522965 
L 144.876519 585.311688 
L 151.91485 592.859375 
L 159.212305 600.156829 
L 166.759992 607.195161 
L 174.548715 613.965795 
L 182.568985 620.460481 
L 190.81103 626.671308 
L 199.26481 632.590708 
L 207.920024 638.21147 
L 216.766127 643.526745 
L 225.792341 648.530057 
L 234.98767 653.215311 
L 244.340911 657.576799 
L 253.840668 661.609206 
L 263.475366 665.307621 
L 273.233269 668.667536 
L 283.102486 671.684859 
L 293.070994 674.355912 
L 303.126648 676.677443 
L 313.257197 678.646622 
L 323.450298 680.261051 
L 333.693532 681.518762 
L 343.97442 682.418223 
L 354.280436 682.958338 
L 364.599023 683.13845 
L 374.917611 682.958338 
L 385.223627 682.418223 
L 395.504514 681.518762 
L 405.747749 680.261051 
L 415.94085 678.646622 
L 426.071399 676.677443 
L 436.127053 674.355912 
L 446.095561 671.684859 
L 455.964778 668.667536 
L 465.722681 665.307621 
L 475.357379 661.609206 
L 484.857136 657.576799 
L 494.210376 653.215311 
L 503.405706 648.530057 
L 512.43192 643.526745 
L 521.278023 638.21147 
L 529.933237 632.590708 
L 538.387017 626.671308 
L 546.629062 620.460481 
L 554.649332 613.965795 
L 562.438055 607.195161 
L 569.985742 600.156829 
L 577.283196 592.859375 
L 584.321528 585.311688 
L 591.092162 577.522965 
L 597.586848 569.502695 
L 603.797675 561.260649 
L 609.717075 552.80687 
L 615.337837 544.151656 
L 620.653112 535.305553 
L 625.656424 526.279338 
L 630.341678 517.084009 
L 634.703166 507.730769 
L 638.735574 498.231012 
L 642.433988 488.596313 
L 645.793903 478.838411 
L 648.811226 468.969194 
L 651.482279 459.000686 
L 653.80381 448.945031 
L 655.772989 438.814483 
L 657.387418 428.621382 
L 658.645129 418.378147 
L 659.54459 408.097259 
L 660.084706 397.791244 
L 660.264817 387.472656 
L 660.264817 387.472656 
" style="fill:none;stroke:#b0b0b0;stroke-linecap:square;stroke-width:0.8;"/>
     </g>
     <g id="text_13">
      <!-- 255 -->
      <g transform="translate(637.758599 272.246568)scale(0.1 -0.1)">
       <use xlink:href="#DejaVuSerif-50"/>
       <use x="63.623047" xlink:href="#DejaVuSerif-53"/>
       <use x="127.246094" xlink:href="#DejaVuSerif-53"/>
      </g>
     </g>
    </g>
   </g>
   <g id="line2d_14">
    <path clip-path="url(#p989ceec48e)" d="M 660.264817 387.472656 
L 371.638685 375.279604 
L 357.559362 375.279604 
L 275.813085 387.472656 
L 285.726078 524.084604 
L 397.498667 444.456511 
L 660.264817 387.472656 
" style="fill:none;stroke:#f0a3ba;stroke-linecap:square;stroke-width:4;"/>
   </g>
   <g id="patch_4">
    <path d="M 674.344141 387.472656 
C 674.344141 346.7973 666.331982 306.517461 650.766198 268.938332 
C 635.200413 231.359203 612.383716 197.211604 583.621896 168.449783 
C 554.860076 139.687963 520.712477 116.871267 483.133348 101.305482 
C 445.554219 85.739697 405.27438 77.727539 364.599023 77.727539 
C 323.923667 77.727539 283.643828 85.739697 246.064699 101.305482 
C 208.48557 116.871267 174.337971 139.687963 145.576151 168.449783 
C 116.814331 197.211604 93.997634 231.359203 78.431849 268.938332 
C 62.866064 306.517461 54.853906 346.7973 54.853906 387.472656 
C 54.853906 428.148012 62.866064 468.427852 78.431849 506.006981 
C 93.997634 543.58611 116.814331 577.733709 145.576151 606.495529 
C 174.337971 635.257349 208.48557 658.074045 246.064699 673.63983 
C 283.643828 689.205615 323.923667 697.217773 364.599023 697.217773 
C 405.27438 697.217773 445.554219 689.205615 483.133348 673.63983 
C 520.712477 658.074045 554.860076 635.257349 583.621896 606.495529 
C 612.383716 577.733709 635.200413 543.58611 650.766198 506.006981 
C 666.331982 468.427852 674.344141 428.148012 674.344141 387.472656 
" style="fill:none;stroke:#000000;stroke-linecap:square;stroke-linejoin:miter;stroke-width:0.8;"/>
   </g>
   <g id="text_14">
    <!-- Blissey -->
    <defs>
     <path d="M 24.703125 5.171875 
L 39.3125 5.171875 
Q 48.09375 5.171875 52.140625 8.984375 
Q 56.203125 12.796875 56.203125 21.09375 
Q 56.203125 29.34375 52.171875 33.125 
Q 48.140625 36.921875 39.3125 36.921875 
L 24.703125 36.921875 
z
M 24.703125 42.09375 
L 37.109375 42.09375 
Q 45.125 42.09375 48.796875 45.171875 
Q 52.484375 48.25 52.484375 54.890625 
Q 52.484375 61.578125 48.796875 64.625 
Q 45.125 67.671875 37.109375 67.671875 
L 24.703125 67.671875 
z
M 5.515625 0 
L 5.515625 5.171875 
L 14.796875 5.171875 
L 14.796875 67.671875 
L 5.515625 67.671875 
L 5.515625 72.90625 
L 41.5 72.90625 
Q 52.546875 72.90625 58.125 68.390625 
Q 63.71875 63.875 63.71875 54.890625 
Q 63.71875 48.390625 59.828125 44.53125 
Q 55.953125 40.671875 48.484375 39.796875 
Q 57.765625 38.625 62.578125 33.859375 
Q 67.390625 29.109375 67.390625 21.09375 
Q 67.390625 10.25 60.546875 5.125 
Q 53.71875 0 39.203125 0 
z
" id="DejaVuSerif-66"/>
     <path d="M 21.578125 -9.515625 
L 25 -0.875 
L 5.609375 46.6875 
L -0.296875 46.6875 
L -0.296875 51.90625 
L 23.578125 51.90625 
L 23.578125 46.6875 
L 15.28125 46.6875 
L 29.890625 10.984375 
L 44.484375 46.6875 
L 36.71875 46.6875 
L 36.71875 51.90625 
L 56.203125 51.90625 
L 56.203125 46.6875 
L 50.390625 46.6875 
L 26.609375 -11.71875 
Q 24.171875 -17.78125 21.1875 -20 
Q 18.21875 -22.21875 12.796875 -22.21875 
Q 10.5 -22.21875 8.078125 -21.828125 
Q 5.671875 -21.4375 3.21875 -20.703125 
L 3.21875 -10.796875 
L 7.8125 -10.796875 
Q 8.109375 -14.109375 9.5 -15.546875 
Q 10.890625 -17 13.8125 -17 
Q 16.5 -17 18.140625 -15.5 
Q 19.78125 -14.015625 21.578125 -9.515625 
z
" id="DejaVuSerif-121"/>
    </defs>
    <g transform="translate(311.23418 40.753027)scale(0.3 -0.3)">
     <use xlink:href="#DejaVuSerif-66"/>
     <use x="73.486328" xlink:href="#DejaVuSerif-108"/>
     <use x="105.46875" xlink:href="#DejaVuSerif-105"/>
     <use x="137.451172" xlink:href="#DejaVuSerif-115"/>
     <use x="188.769531" xlink:href="#DejaVuSerif-115"/>
     <use x="240.087891" xlink:href="#DejaVuSerif-101"/>
     <use x="299.267578" xlink:href="#DejaVuSerif-121"/>
    </g>
   </g>
  </g>
 </g>
 <defs>
  <clipPath id="p989ceec48e">
   <path d="M 674.344141 387.472656 
C 674.344141 346.7973 666.331982 306.517461 650.766198 268.938332 
C 635.200413 231.359203 612.383716 197.211604 583.621896 168.449783 
C 554.860076 139.687963 520.712477 116.871267 483.133348 101.305482 
C 445.554219 85.739697 405.27438 77.727539 364.599023 77.727539 
C 323.923667 77.727539 283.643828 85.739697 246.064699 101.305482 
C 208.48557 116.871267 174.337971 139.687963 145.576151 168.449783 
C 116.814331 197.211604 93.997634 231.359203 78.431849 268.938332 
C 62.866064 306.517461 54.853906 346.7973 54.853906 387.472656 
C 54.853906 428.148012 62.866064 468.427852 78.431849 506.006981 
C 93.997634 543.58611 116.814331 577.733709 145.576151 606.495529 
C 174.337971 635.257349 208.48557 658.074045 246.064699 673.63983 
C 283.643828 689.205615 323.923667 697.217773 364.599023 697.217773 
C 405.27438 697.217773 445.554219 689.205615 483.133348 673.63983 
C 520.712477 658.074045 554.860076 635.257349 583.621896 606.495529 
C 612.383716 577.733709 635.200413 543.58611 650.766198 506.006981 
C 666.331982 468.427852 674.344141 428.148012 674.344141 387.472656 
M 364.599023 387.472656 
C 364.599023 387.472656 364.599023 387.472656 364.599023 387.472656 
C 364.599023 387.472656 364.599023 387.472656 364.599023 387.472656 
C 364.599023 387.472656 364.599023 387.472656 364.599023 387.472656 
C 364.599023 387.472656 364.599023 387.472656 364.599023 387.472656 
C 364.599023 387.472656 364.599023 387.472656 364.599023 387.472656 
C 364.599023 387.472656 364.599023 387.472656 364.599023 387.472656 
C 364.599023 387.472656 364.599023 387.472656 364.599023 387.472656 
C 364.599023 387.472656 364.599023 387.472656 364.599023 387.472656 
C 364.599023 387.472656 364.599023 387.472656 364.599023 387.472656 
C 364.599023 387.472656 364.599023 387.472656 364.599023 387.472656 
C 364.599023 387.472656 364.599023 387.472656 364.599023 387.472656 
C 364.599023 387.472656 364.599023 387.472656 364.599023 387.472656 
C 364.599023 387.472656 364.599023 387.472656 364.599023 387.472656 
C 364.599023 387.472656 364.599023 387.472656 364.599023 387.472656 
C 364.599023 387.472656 364.599023 387.472656 364.599023 387.472656 
C 364.599023 387.472656 364.599023 387.472656 364.599023 387.472656 
M 674.344141 387.472656 
z
"/>
  </clipPath>
 </defs>
</svg>
