<?xml version="1.0" encoding="utf-8" standalone="no"?>
<!DOCTYPE svg PUBLIC "-//W3C//DTD SVG 1.1//EN"
  "http://www.w3.org/Graphics/SVG/1.1/DTD/svg11.dtd">
<!-- Created with matplotlib (https://matplotlib.org/) -->
<svg height="720pt" version="1.1" viewBox="0 0 720 720" width="720pt" xmlns="http://www.w3.org/2000/svg" xmlns:xlink="http://www.w3.org/1999/xlink">
 <defs>
  <style type="text/css">
*{stroke-linecap:butt;stroke-linejoin:round;}
  </style>
 </defs>
 <g id="figure_1">
  <g id="patch_1">
   <path d="M 0 720 
L 720 720 
L 720 0 
L 0 0 
z
" style="fill:#ffffff;"/>
  </g>
  <g id="axes_1">
   <g id="patch_2">
    <path d="M 674.344141 387.472656 
C 674.344141 346.7973 666.331982 306.517461 650.766198 268.938332 
C 635.200413 231.359203 612.383716 197.211604 583.621896 168.449783 
C 554.860076 139.687963 520.712477 116.871267 483.133348 101.305482 
C 445.554219 85.739697 405.27438 77.727539 364.599023 77.727539 
C 323.923667 77.727539 283.643828 85.739697 246.064699 101.305482 
C 208.48557 116.871267 174.337971 139.687963 145.576151 168.449783 
C 116.814331 197.211604 93.997634 231.359203 78.431849 268.938332 
C 62.866064 306.517461 54.853906 346.7973 54.853906 387.472656 
C 54.853906 428.148012 62.866064 468.427852 78.431849 506.006981 
C 93.997634 543.58611 116.814331 577.733709 145.576151 606.495529 
C 174.337971 635.257349 208.48557 658.074045 246.064699 673.63983 
C 283.643828 689.205615 323.923667 697.217773 364.599023 697.217773 
C 405.27438 697.217773 445.554219 689.205615 483.133348 673.63983 
C 520.712477 658.074045 554.860076 635.257349 583.621896 606.495529 
C 612.383716 577.733709 635.200413 543.58611 650.766198 506.006981 
C 666.331982 468.427852 674.344141 428.148012 674.344141 387.472656 
M 364.599023 387.472656 
C 364.599023 387.472656 364.599023 387.472656 364.599023 387.472656 
C 364.599023 387.472656 364.599023 387.472656 364.599023 387.472656 
C 364.599023 387.472656 364.599023 387.472656 364.599023 387.472656 
C 364.599023 387.472656 364.599023 387.472656 364.599023 387.472656 
C 364.599023 387.472656 364.599023 387.472656 364.599023 387.472656 
C 364.599023 387.472656 364.599023 387.472656 364.599023 387.472656 
C 364.599023 387.472656 364.599023 387.472656 364.599023 387.472656 
C 364.599023 387.472656 364.599023 387.472656 364.599023 387.472656 
C 364.599023 387.472656 364.599023 387.472656 364.599023 387.472656 
C 364.599023 387.472656 364.599023 387.472656 364.599023 387.472656 
C 364.599023 387.472656 364.599023 387.472656 364.599023 387.472656 
C 364.599023 387.472656 364.599023 387.472656 364.599023 387.472656 
C 364.599023 387.472656 364.599023 387.472656 364.599023 387.472656 
C 364.599023 387.472656 364.599023 387.472656 364.599023 387.472656 
C 364.599023 387.472656 364.599023 387.472656 364.599023 387.472656 
C 364.599023 387.472656 364.599023 387.472656 364.599023 387.472656 
M 674.344141 387.472656 
z
" style="fill:#ffffff;"/>
   </g>
   <g id="patch_3">
    <path clip-path="url(#p27f7be8937)" d="M 447.64061 387.472656 
L 443.48853 250.832022 
L 289.861596 258.023634 
L 206.820009 387.472656 
L 289.861596 516.921678 
L 514.073879 646.3707 
z
" style="fill:#ce7e57;stroke:#ce7e57;stroke-linejoin:miter;"/>
   </g>
   <g id="matplotlib.axis_1">
    <g id="xtick_1">
     <g id="line2d_1">
      <path clip-path="url(#p27f7be8937)" d="M 364.599023 387.472656 
L 674.344141 387.472656 
" style="fill:none;stroke:#b0b0b0;stroke-linecap:square;stroke-width:0.8;"/>
     </g>
     <g id="text_1">
      <!-- Vida -->
      <defs>
       <path d="M 17.484375 67.671875 
L 39.015625 11.71875 
L 60.5 67.671875 
L 52.296875 67.671875 
L 52.296875 72.90625 
L 73.6875 72.90625 
L 73.6875 67.671875 
L 66.609375 67.671875 
L 40.578125 0 
L 32.171875 0 
L 6.296875 67.671875 
L -0.984375 67.671875 
L -0.984375 72.90625 
L 25.59375 72.90625 
L 25.59375 67.671875 
z
" id="DejaVuSerif-86"/>
       <path d="M 9.71875 68.015625 
Q 9.71875 70.265625 11.34375 71.921875 
Q 12.984375 73.578125 15.28125 73.578125 
Q 17.53125 73.578125 19.15625 71.921875 
Q 20.796875 70.265625 20.796875 68.015625 
Q 20.796875 65.71875 19.1875 64.109375 
Q 17.578125 62.5 15.28125 62.5 
Q 12.984375 62.5 11.34375 64.109375 
Q 9.71875 65.71875 9.71875 68.015625 
z
M 21.1875 5.171875 
L 29.6875 5.171875 
L 29.6875 0 
L 3.609375 0 
L 3.609375 5.171875 
L 12.203125 5.171875 
L 12.203125 46.6875 
L 3.609375 46.6875 
L 3.609375 51.90625 
L 21.1875 51.90625 
z
" id="DejaVuSerif-105"/>
       <path d="M 52.484375 5.171875 
L 61.078125 5.171875 
L 61.078125 0 
L 43.5 0 
L 43.5 8.109375 
Q 40.875 3.21875 36.796875 0.890625 
Q 32.71875 -1.421875 26.703125 -1.421875 
Q 17.140625 -1.421875 11.0625 6.171875 
Q 4.984375 13.765625 4.984375 25.984375 
Q 4.984375 38.1875 11.03125 45.75 
Q 17.09375 53.328125 26.703125 53.328125 
Q 32.71875 53.328125 36.796875 51 
Q 40.875 48.6875 43.5 43.796875 
L 43.5 70.796875 
L 35.015625 70.796875 
L 35.015625 75.984375 
L 52.484375 75.984375 
z
M 43.5 23.390625 
L 43.5 28.515625 
Q 43.5 37.84375 39.90625 42.765625 
Q 36.328125 47.703125 29.5 47.703125 
Q 22.5625 47.703125 19.015625 42.234375 
Q 15.484375 36.765625 15.484375 25.984375 
Q 15.484375 15.234375 19.015625 9.71875 
Q 22.5625 4.203125 29.5 4.203125 
Q 36.328125 4.203125 39.90625 9.109375 
Q 43.5 14.015625 43.5 23.390625 
z
" id="DejaVuSerif-100"/>
       <path d="M 39.796875 16.3125 
L 39.796875 27.296875 
L 28.21875 27.296875 
Q 21.53125 27.296875 18.25 24.40625 
Q 14.984375 21.53125 14.984375 15.578125 
Q 14.984375 10.15625 18.296875 6.984375 
Q 21.625 3.8125 27.296875 3.8125 
Q 32.90625 3.8125 36.34375 7.28125 
Q 39.796875 10.75 39.796875 16.3125 
z
M 48.78125 32.421875 
L 48.78125 5.171875 
L 56.78125 5.171875 
L 56.78125 0 
L 39.796875 0 
L 39.796875 5.609375 
Q 36.8125 2 32.90625 0.28125 
Q 29 -1.421875 23.78125 -1.421875 
Q 15.140625 -1.421875 10.0625 3.171875 
Q 4.984375 7.765625 4.984375 15.578125 
Q 4.984375 23.640625 10.796875 28.078125 
Q 16.609375 32.515625 27.203125 32.515625 
L 39.796875 32.515625 
L 39.796875 36.078125 
Q 39.796875 42 36.203125 45.234375 
Q 32.625 48.484375 26.125 48.484375 
Q 20.75 48.484375 17.578125 46.046875 
Q 14.40625 43.609375 13.625 38.8125 
L 8.984375 38.8125 
L 8.984375 49.3125 
Q 13.671875 51.3125 18.09375 52.3125 
Q 22.515625 53.328125 26.703125 53.328125 
Q 37.5 53.328125 43.140625 47.96875 
Q 48.78125 42.625 48.78125 32.421875 
z
" id="DejaVuSerif-97"/>
      </defs>
      <g transform="translate(677.757031 391.611719)scale(0.15 -0.15)">
       <use xlink:href="#DejaVuSerif-86"/>
       <use x="72.201172" xlink:href="#DejaVuSerif-105"/>
       <use x="104.183594" xlink:href="#DejaVuSerif-100"/>
       <use x="168.197266" xlink:href="#DejaVuSerif-97"/>
      </g>
     </g>
    </g>
    <g id="xtick_2">
     <g id="line2d_2">
      <path clip-path="url(#p27f7be8937)" d="M 364.599023 387.472656 
L 519.471582 119.225516 
" style="fill:none;stroke:#b0b0b0;stroke-linecap:square;stroke-width:0.8;"/>
     </g>
     <g id="text_2">
      <!-- Ataque -->
      <defs>
       <path d="M 20.015625 26.421875 
L 46.78125 26.421875 
L 33.40625 61.078125 
z
M -0.59375 0 
L -0.59375 5.171875 
L 5.8125 5.171875 
L 31.78125 72.90625 
L 39.984375 72.90625 
L 66.015625 5.171875 
L 73.1875 5.171875 
L 73.1875 0 
L 46.6875 0 
L 46.6875 5.171875 
L 54.78125 5.171875 
L 48.6875 21.1875 
L 18.015625 21.1875 
L 11.921875 5.171875 
L 19.921875 5.171875 
L 19.921875 0 
z
" id="DejaVuSerif-65"/>
       <path d="M 10.796875 46.6875 
L 2.875 46.6875 
L 2.875 51.90625 
L 10.796875 51.90625 
L 10.796875 68.015625 
L 19.828125 68.015625 
L 19.828125 51.90625 
L 36.71875 51.90625 
L 36.71875 46.6875 
L 19.828125 46.6875 
L 19.828125 13.71875 
Q 19.828125 7.125 21.09375 5.265625 
Q 22.359375 3.421875 25.78125 3.421875 
Q 29.296875 3.421875 30.90625 5.484375 
Q 32.515625 7.5625 32.625 12.203125 
L 39.40625 12.203125 
Q 39.015625 5.125 35.546875 1.84375 
Q 32.078125 -1.421875 25 -1.421875 
Q 17.234375 -1.421875 14.015625 2.015625 
Q 10.796875 5.46875 10.796875 13.71875 
z
" id="DejaVuSerif-116"/>
       <path d="M 52.484375 46.6875 
L 52.484375 -15.578125 
L 61.078125 -15.578125 
L 61.078125 -20.796875 
L 35.015625 -20.796875 
L 35.015625 -15.578125 
L 43.5 -15.578125 
L 43.5 8.109375 
Q 40.875 3.21875 36.796875 0.890625 
Q 32.71875 -1.421875 26.703125 -1.421875 
Q 17.140625 -1.421875 11.0625 6.171875 
Q 4.984375 13.765625 4.984375 25.984375 
Q 4.984375 38.1875 11.03125 45.75 
Q 17.09375 53.328125 26.703125 53.328125 
Q 32.71875 53.328125 36.796875 51 
Q 40.875 48.6875 43.5 43.796875 
L 43.5 51.90625 
L 61.078125 51.90625 
L 61.078125 46.6875 
z
M 43.5 28.515625 
Q 43.5 37.84375 39.90625 42.765625 
Q 36.328125 47.703125 29.5 47.703125 
Q 22.5625 47.703125 19.015625 42.234375 
Q 15.484375 36.765625 15.484375 25.984375 
Q 15.484375 15.234375 19.015625 9.71875 
Q 22.5625 4.203125 29.5 4.203125 
Q 36.328125 4.203125 39.90625 9.109375 
Q 43.5 14.015625 43.5 23.390625 
z
" id="DejaVuSerif-113"/>
       <path d="M 35.40625 51.90625 
L 52.203125 51.90625 
L 52.203125 5.171875 
L 60.6875 5.171875 
L 60.6875 0 
L 43.21875 0 
L 43.21875 9.1875 
Q 40.71875 4 36.765625 1.28125 
Q 32.8125 -1.421875 27.59375 -1.421875 
Q 18.953125 -1.421875 14.875 3.484375 
Q 10.796875 8.40625 10.796875 18.890625 
L 10.796875 46.6875 
L 2.6875 46.6875 
L 2.6875 51.90625 
L 19.828125 51.90625 
L 19.828125 21.6875 
Q 19.828125 12.203125 22.140625 8.6875 
Q 24.46875 5.171875 30.421875 5.171875 
Q 36.671875 5.171875 39.9375 9.765625 
Q 43.21875 14.359375 43.21875 23.09375 
L 43.21875 46.6875 
L 35.40625 46.6875 
z
" id="DejaVuSerif-117"/>
       <path d="M 54.203125 25 
L 15.484375 25 
L 15.484375 24.609375 
Q 15.484375 14.109375 19.4375 8.765625 
Q 23.390625 3.421875 31.109375 3.421875 
Q 37.015625 3.421875 40.796875 6.515625 
Q 44.578125 9.625 46.09375 15.71875 
L 53.328125 15.71875 
Q 51.171875 7.171875 45.375 2.875 
Q 39.59375 -1.421875 30.171875 -1.421875 
Q 18.796875 -1.421875 11.890625 6.078125 
Q 4.984375 13.578125 4.984375 25.984375 
Q 4.984375 38.28125 11.765625 45.796875 
Q 18.5625 53.328125 29.59375 53.328125 
Q 41.359375 53.328125 47.65625 46.0625 
Q 53.953125 38.8125 54.203125 25 
z
M 43.609375 30.171875 
Q 43.3125 39.265625 39.765625 43.875 
Q 36.234375 48.484375 29.59375 48.484375 
Q 23.390625 48.484375 19.828125 43.84375 
Q 16.265625 39.203125 15.484375 30.171875 
z
" id="DejaVuSerif-101"/>
      </defs>
      <g transform="translate(502.749707 105.611058)scale(0.15 -0.15)">
       <use xlink:href="#DejaVuSerif-65"/>
       <use x="72.201172" xlink:href="#DejaVuSerif-116"/>
       <use x="112.386719" xlink:href="#DejaVuSerif-97"/>
       <use x="172.005859" xlink:href="#DejaVuSerif-113"/>
       <use x="236.019531" xlink:href="#DejaVuSerif-117"/>
       <use x="300.423828" xlink:href="#DejaVuSerif-101"/>
      </g>
     </g>
    </g>
    <g id="xtick_3">
     <g id="line2d_3">
      <path clip-path="url(#p27f7be8937)" d="M 364.599023 387.472656 
L 209.726465 119.225516 
" style="fill:none;stroke:#b0b0b0;stroke-linecap:square;stroke-width:0.8;"/>
     </g>
     <g id="text_3">
      <!-- Defensa -->
      <defs>
       <path d="M 24.703125 5.171875 
L 33.796875 5.171875 
Q 48 5.171875 55.59375 13.28125 
Q 63.1875 21.390625 63.1875 36.53125 
Q 63.1875 51.65625 55.609375 59.65625 
Q 48.046875 67.671875 33.796875 67.671875 
L 24.703125 67.671875 
z
M 5.515625 0 
L 5.515625 5.171875 
L 14.796875 5.171875 
L 14.796875 67.671875 
L 5.515625 67.671875 
L 5.515625 72.90625 
L 34.515625 72.90625 
Q 53.375 72.90625 63.890625 63.28125 
Q 74.421875 53.65625 74.421875 36.53125 
Q 74.421875 19.34375 63.875 9.671875 
Q 53.328125 0 34.515625 0 
z
" id="DejaVuSerif-68"/>
       <path d="M 43.015625 63.71875 
L 38.28125 63.71875 
Q 38.234375 67.390625 36.203125 69.28125 
Q 34.1875 71.1875 30.328125 71.1875 
Q 25.296875 71.1875 23.234375 68.421875 
Q 21.1875 65.671875 21.1875 58.59375 
L 21.1875 51.90625 
L 35.6875 51.90625 
L 35.6875 46.6875 
L 21.1875 46.6875 
L 21.1875 5.171875 
L 32.71875 5.171875 
L 32.71875 0 
L 3.609375 0 
L 3.609375 5.171875 
L 12.203125 5.171875 
L 12.203125 46.6875 
L 3.609375 46.6875 
L 3.609375 51.90625 
L 12.203125 51.90625 
L 12.203125 58.40625 
Q 12.203125 67.09375 16.71875 71.53125 
Q 21.234375 75.984375 29.984375 75.984375 
Q 33.25 75.984375 36.515625 75.390625 
Q 39.796875 74.8125 43.015625 73.578125 
z
" id="DejaVuSerif-102"/>
       <path d="M 4.109375 0 
L 4.109375 5.171875 
L 12.203125 5.171875 
L 12.203125 46.6875 
L 3.609375 46.6875 
L 3.609375 51.90625 
L 21.1875 51.90625 
L 21.1875 42.671875 
Q 23.6875 47.953125 27.65625 50.640625 
Q 31.640625 53.328125 36.921875 53.328125 
Q 45.515625 53.328125 49.5625 48.390625 
Q 53.609375 43.453125 53.609375 33.015625 
L 53.609375 5.171875 
L 61.625 5.171875 
L 61.625 0 
L 36.8125 0 
L 36.8125 5.171875 
L 44.578125 5.171875 
L 44.578125 30.171875 
Q 44.578125 39.703125 42.234375 43.234375 
Q 39.890625 46.78125 33.984375 46.78125 
Q 27.734375 46.78125 24.453125 42.203125 
Q 21.1875 37.640625 21.1875 28.90625 
L 21.1875 5.171875 
L 29 5.171875 
L 29 0 
z
" id="DejaVuSerif-110"/>
       <path d="M 5.609375 2.875 
L 5.609375 14.984375 
L 10.796875 14.984375 
Q 10.984375 9.1875 14.421875 6.296875 
Q 17.875 3.421875 24.609375 3.421875 
Q 30.671875 3.421875 33.84375 5.6875 
Q 37.015625 7.953125 37.015625 12.3125 
Q 37.015625 15.71875 34.6875 17.8125 
Q 32.375 19.921875 24.90625 22.3125 
L 18.40625 24.515625 
Q 11.71875 26.65625 8.71875 29.875 
Q 5.71875 33.109375 5.71875 38.09375 
Q 5.71875 45.21875 10.9375 49.265625 
Q 16.15625 53.328125 25.390625 53.328125 
Q 29.5 53.328125 34.03125 52.25 
Q 38.578125 51.171875 43.40625 49.125 
L 43.40625 37.796875 
L 38.234375 37.796875 
Q 38.03125 42.828125 34.703125 45.65625 
Q 31.390625 48.484375 25.6875 48.484375 
Q 20.015625 48.484375 17.109375 46.484375 
Q 14.203125 44.484375 14.203125 40.484375 
Q 14.203125 37.203125 16.40625 35.21875 
Q 18.609375 33.25 25.203125 31.203125 
L 32.328125 29 
Q 39.703125 26.703125 42.9375 23.265625 
Q 46.1875 19.828125 46.1875 14.40625 
Q 46.1875 7.03125 40.546875 2.796875 
Q 34.90625 -1.421875 25 -1.421875 
Q 19.96875 -1.421875 15.1875 -0.34375 
Q 10.40625 0.734375 5.609375 2.875 
z
" id="DejaVuSerif-115"/>
      </defs>
      <g transform="translate(168.658496 105.611058)scale(0.15 -0.15)">
       <use xlink:href="#DejaVuSerif-68"/>
       <use x="80.175781" xlink:href="#DejaVuSerif-101"/>
       <use x="139.355469" xlink:href="#DejaVuSerif-102"/>
       <use x="176.367188" xlink:href="#DejaVuSerif-101"/>
       <use x="235.546875" xlink:href="#DejaVuSerif-110"/>
       <use x="299.951172" xlink:href="#DejaVuSerif-115"/>
       <use x="351.269531" xlink:href="#DejaVuSerif-97"/>
      </g>
     </g>
    </g>
    <g id="xtick_4">
     <g id="line2d_4">
      <path clip-path="url(#p27f7be8937)" d="M 364.599023 387.472656 
L 54.853906 387.472656 
" style="fill:none;stroke:#b0b0b0;stroke-linecap:square;stroke-width:0.8;"/>
     </g>
     <g id="text_4">
      <!-- At esp. -->
      <defs>
       <path id="DejaVuSerif-32"/>
       <path d="M 20.515625 28.515625 
L 20.515625 23.390625 
Q 20.515625 14.015625 24.09375 9.109375 
Q 27.6875 4.203125 34.515625 4.203125 
Q 41.40625 4.203125 44.9375 9.71875 
Q 48.484375 15.234375 48.484375 25.984375 
Q 48.484375 36.765625 44.9375 42.234375 
Q 41.40625 47.703125 34.515625 47.703125 
Q 27.6875 47.703125 24.09375 42.765625 
Q 20.515625 37.84375 20.515625 28.515625 
z
M 11.53125 46.6875 
L 2.875 46.6875 
L 2.875 51.90625 
L 20.515625 51.90625 
L 20.515625 43.796875 
Q 23.140625 48.6875 27.21875 51 
Q 31.296875 53.328125 37.3125 53.328125 
Q 46.875 53.328125 52.921875 45.75 
Q 58.984375 38.1875 58.984375 25.984375 
Q 58.984375 13.765625 52.921875 6.171875 
Q 46.875 -1.421875 37.3125 -1.421875 
Q 31.296875 -1.421875 27.21875 0.890625 
Q 23.140625 3.21875 20.515625 8.109375 
L 20.515625 -15.578125 
L 29 -15.578125 
L 29 -20.796875 
L 2.875 -20.796875 
L 2.875 -15.578125 
L 11.53125 -15.578125 
z
" id="DejaVuSerif-112"/>
       <path d="M 9.421875 5.078125 
Q 9.421875 7.8125 11.28125 9.71875 
Q 13.140625 11.625 15.921875 11.625 
Q 18.609375 11.625 20.5 9.71875 
Q 22.40625 7.8125 22.40625 5.078125 
Q 22.40625 2.390625 20.5 0.484375 
Q 18.609375 -1.421875 15.921875 -1.421875 
Q 13.140625 -1.421875 11.28125 0.453125 
Q 9.421875 2.34375 9.421875 5.078125 
z
" id="DejaVuSerif-46"/>
      </defs>
      <g transform="translate(8.06875 391.611719)scale(0.15 -0.15)">
       <use xlink:href="#DejaVuSerif-65"/>
       <use x="72.201172" xlink:href="#DejaVuSerif-116"/>
       <use x="112.386719" xlink:href="#DejaVuSerif-32"/>
       <use x="144.173828" xlink:href="#DejaVuSerif-101"/>
       <use x="203.353516" xlink:href="#DejaVuSerif-115"/>
       <use x="254.671875" xlink:href="#DejaVuSerif-112"/>
       <use x="318.685547" xlink:href="#DejaVuSerif-46"/>
      </g>
     </g>
    </g>
    <g id="xtick_5">
     <g id="line2d_5">
      <path clip-path="url(#p27f7be8937)" d="M 364.599023 387.472656 
L 209.726465 655.719796 
" style="fill:none;stroke:#b0b0b0;stroke-linecap:square;stroke-width:0.8;"/>
     </g>
     <g id="text_5">
      <!-- Def esp. -->
      <g transform="translate(168.39248 677.61238)scale(0.15 -0.15)">
       <use xlink:href="#DejaVuSerif-68"/>
       <use x="80.175781" xlink:href="#DejaVuSerif-101"/>
       <use x="139.355469" xlink:href="#DejaVuSerif-102"/>
       <use x="176.367188" xlink:href="#DejaVuSerif-32"/>
       <use x="208.154297" xlink:href="#DejaVuSerif-101"/>
       <use x="267.333984" xlink:href="#DejaVuSerif-115"/>
       <use x="318.652344" xlink:href="#DejaVuSerif-112"/>
       <use x="382.666016" xlink:href="#DejaVuSerif-46"/>
      </g>
     </g>
    </g>
    <g id="xtick_6">
     <g id="line2d_6">
      <path clip-path="url(#p27f7be8937)" d="M 364.599023 387.472656 
L 519.471582 655.719796 
" style="fill:none;stroke:#b0b0b0;stroke-linecap:square;stroke-width:0.8;"/>
     </g>
     <g id="text_6">
      <!-- Velocidad -->
      <defs>
       <path d="M 20.515625 5.171875 
L 29 5.171875 
L 29 0 
L 2.875 0 
L 2.875 5.171875 
L 11.53125 5.171875 
L 11.53125 70.796875 
L 2.875 70.796875 
L 2.875 75.984375 
L 20.515625 75.984375 
z
" id="DejaVuSerif-108"/>
       <path d="M 30.078125 3.421875 
Q 37.3125 3.421875 40.984375 9.125 
Q 44.671875 14.84375 44.671875 25.984375 
Q 44.671875 37.109375 40.984375 42.796875 
Q 37.3125 48.484375 30.078125 48.484375 
Q 22.859375 48.484375 19.171875 42.796875 
Q 15.484375 37.109375 15.484375 25.984375 
Q 15.484375 14.84375 19.1875 9.125 
Q 22.90625 3.421875 30.078125 3.421875 
z
M 30.078125 -1.421875 
Q 18.75 -1.421875 11.859375 6.078125 
Q 4.984375 13.578125 4.984375 25.984375 
Q 4.984375 38.375 11.84375 45.84375 
Q 18.703125 53.328125 30.078125 53.328125 
Q 41.453125 53.328125 48.3125 45.84375 
Q 55.171875 38.375 55.171875 25.984375 
Q 55.171875 13.578125 48.3125 6.078125 
Q 41.453125 -1.421875 30.078125 -1.421875 
z
" id="DejaVuSerif-111"/>
       <path d="M 51.421875 15.578125 
Q 49.515625 7.28125 44.09375 2.921875 
Q 38.671875 -1.421875 30.078125 -1.421875 
Q 18.75 -1.421875 11.859375 6.078125 
Q 4.984375 13.578125 4.984375 25.984375 
Q 4.984375 38.421875 11.859375 45.875 
Q 18.75 53.328125 30.078125 53.328125 
Q 35.015625 53.328125 39.890625 52.171875 
Q 44.78125 51.03125 49.703125 48.6875 
L 49.703125 35.40625 
L 44.484375 35.40625 
Q 43.453125 42.234375 40.015625 45.359375 
Q 36.578125 48.484375 30.171875 48.484375 
Q 22.90625 48.484375 19.1875 42.84375 
Q 15.484375 37.203125 15.484375 25.984375 
Q 15.484375 14.75 19.171875 9.078125 
Q 22.859375 3.421875 30.171875 3.421875 
Q 35.984375 3.421875 39.453125 6.4375 
Q 42.921875 9.46875 44.1875 15.578125 
z
" id="DejaVuSerif-99"/>
      </defs>
      <g transform="translate(492.289551 677.61238)scale(0.15 -0.15)">
       <use xlink:href="#DejaVuSerif-86"/>
       <use x="72.076172" xlink:href="#DejaVuSerif-101"/>
       <use x="131.255859" xlink:href="#DejaVuSerif-108"/>
       <use x="163.238281" xlink:href="#DejaVuSerif-111"/>
       <use x="223.443359" xlink:href="#DejaVuSerif-99"/>
       <use x="279.449219" xlink:href="#DejaVuSerif-105"/>
       <use x="311.431641" xlink:href="#DejaVuSerif-100"/>
       <use x="375.445312" xlink:href="#DejaVuSerif-97"/>
       <use x="435.064453" xlink:href="#DejaVuSerif-100"/>
      </g>
     </g>
    </g>
   </g>
   <g id="matplotlib.axis_2">
    <g id="ytick_1">
     <g id="line2d_7">
      <path clip-path="url(#p27f7be8937)" d="M 447.64061 387.472656 
L 447.438325 381.679968 
L 446.832455 375.915501 
L 445.825952 370.20734 
L 444.42372 364.583293 
L 442.632589 359.070761 
L 440.461287 353.6966 
L 437.920392 348.486993 
L 435.022283 343.46732 
L 431.781078 338.662036 
L 428.212569 334.094553 
L 424.334142 329.787123 
L 420.16469 325.760731 
L 415.724529 322.034993 
L 411.035289 318.628061 
L 406.119817 315.556533 
L 401.002059 312.835373 
L 395.706949 310.477838 
L 390.260285 308.495414 
L 384.688601 306.89776 
L 379.019044 305.692658 
L 373.279233 304.88598 
L 367.497133 304.481657 
L 361.700914 304.481657 
L 355.918814 304.88598 
L 350.179003 305.692658 
L 344.509445 306.89776 
L 338.937762 308.495414 
L 333.491098 310.477838 
L 328.195988 312.835373 
L 323.07823 315.556533 
L 318.162758 318.628061 
L 313.473518 322.034993 
L 309.033356 325.760731 
L 304.863905 329.787123 
L 300.985478 334.094553 
L 297.416969 338.662036 
L 294.175764 343.46732 
L 291.277655 348.486993 
L 288.736759 353.6966 
L 286.565458 359.070761 
L 284.774327 364.583293 
L 283.372095 370.20734 
L 282.365592 375.915501 
L 281.759722 381.679968 
L 281.557437 387.472656 
L 281.759722 393.265344 
L 282.365592 399.029811 
L 283.372095 404.737973 
L 284.774327 410.36202 
L 286.565458 415.874552 
L 288.736759 421.248712 
L 291.277655 426.45832 
L 294.175764 431.477993 
L 297.416969 436.283276 
L 300.985478 440.850759 
L 304.863905 445.158189 
L 309.033356 449.184581 
L 313.473518 452.910319 
L 318.162758 456.317251 
L 323.07823 459.38878 
L 328.195988 462.10994 
L 333.491098 464.467474 
L 338.937762 466.449898 
L 344.509445 468.047553 
L 350.179003 469.252654 
L 355.918814 470.059332 
L 361.700914 470.463656 
L 367.497133 470.463656 
L 373.279233 470.059332 
L 379.019044 469.252654 
L 384.688601 468.047553 
L 390.260285 466.449898 
L 395.706949 464.467474 
L 401.002059 462.10994 
L 406.119817 459.38878 
L 411.035289 456.317251 
L 415.724529 452.910319 
L 420.16469 449.184581 
L 424.334142 445.158189 
L 428.212569 440.850759 
L 431.781078 436.283276 
L 435.022283 431.477993 
L 437.920392 426.45832 
L 440.461287 421.248712 
L 442.632589 415.874552 
L 444.42372 410.36202 
L 445.825952 404.737973 
L 446.832455 399.029811 
L 447.438325 393.265344 
L 447.64061 387.472656 
L 447.64061 387.472656 
" style="fill:none;stroke:#b0b0b0;stroke-linecap:square;stroke-width:0.8;"/>
     </g>
     <g id="text_7">
      <!-- 50 -->
      <defs>
       <path d="M 50.296875 72.90625 
L 50.296875 64.890625 
L 16.890625 64.890625 
L 16.890625 44 
Q 19.4375 45.75 22.828125 46.625 
Q 26.21875 47.515625 30.421875 47.515625 
Q 42.234375 47.515625 49.0625 40.96875 
Q 55.90625 34.421875 55.90625 23.09375 
Q 55.90625 11.53125 49 5.046875 
Q 42.09375 -1.421875 29.59375 -1.421875 
Q 24.5625 -1.421875 19.28125 -0.1875 
Q 14.015625 1.03125 8.5 3.515625 
L 8.5 17.671875 
L 14.015625 17.671875 
Q 14.453125 10.75 18.421875 7.078125 
Q 22.40625 3.421875 29.59375 3.421875 
Q 37.3125 3.421875 41.453125 8.5 
Q 45.609375 13.578125 45.609375 23.09375 
Q 45.609375 32.5625 41.484375 37.609375 
Q 37.359375 42.671875 29.59375 42.671875 
Q 25.203125 42.671875 21.84375 41.109375 
Q 18.5 39.546875 15.921875 36.28125 
L 11.71875 36.28125 
L 11.71875 72.90625 
z
" id="DejaVuSerif-53"/>
       <path d="M 31.78125 3.421875 
Q 39.265625 3.421875 42.96875 11.625 
Q 46.6875 19.828125 46.6875 36.375 
Q 46.6875 52.984375 42.96875 61.1875 
Q 39.265625 69.390625 31.78125 69.390625 
Q 24.3125 69.390625 20.59375 61.1875 
Q 16.890625 52.984375 16.890625 36.375 
Q 16.890625 19.828125 20.59375 11.625 
Q 24.3125 3.421875 31.78125 3.421875 
z
M 31.78125 -1.421875 
Q 19.921875 -1.421875 13.25 8.53125 
Q 6.59375 18.5 6.59375 36.375 
Q 6.59375 54.296875 13.25 64.25 
Q 19.921875 74.21875 31.78125 74.21875 
Q 43.703125 74.21875 50.34375 64.25 
Q 56.984375 54.296875 56.984375 36.375 
Q 56.984375 18.5 50.34375 8.53125 
Q 43.703125 -1.421875 31.78125 -1.421875 
z
" id="DejaVuSerif-48"/>
      </defs>
      <g transform="translate(441.319445 353.614329)scale(0.1 -0.1)">
       <use xlink:href="#DejaVuSerif-53"/>
       <use x="63.623047" xlink:href="#DejaVuSerif-48"/>
      </g>
     </g>
    </g>
    <g id="ytick_2">
     <g id="line2d_8">
      <path clip-path="url(#p27f7be8937)" d="M 522.378038 387.472656 
L 522.281923 381.966248 
L 521.993696 376.466549 
L 521.513708 370.980258 
L 520.842543 365.514062 
L 519.98102 360.074618 
L 518.930188 354.668555 
L 517.691327 349.302458 
L 516.265946 343.982866 
L 514.655783 338.71626 
L 512.862799 333.509055 
L 510.889178 328.367597 
L 508.737325 323.29815 
L 506.409862 318.306889 
L 503.909624 313.399896 
L 501.239658 308.583149 
L 498.403216 303.862517 
L 495.403754 299.243751 
L 492.244927 294.732479 
L 488.930583 290.334196 
L 485.46476 286.054261 
L 481.851681 281.897889 
L 478.095748 277.870143 
L 474.201536 273.975932 
L 470.173791 270.219998 
L 466.017419 266.606919 
L 461.737484 263.141096 
L 457.339201 259.826752 
L 452.827928 256.667925 
L 448.209163 253.668464 
L 443.48853 250.832022 
L 438.671784 248.162056 
L 433.764791 245.661818 
L 428.77353 243.334355 
L 423.704082 241.182502 
L 418.562624 239.208881 
L 413.35542 237.415897 
L 408.088814 235.805734 
L 402.769222 234.380353 
L 397.403125 233.141492 
L 391.997062 232.09066 
L 386.557618 231.229137 
L 381.091421 230.557972 
L 375.605131 230.077984 
L 370.105432 229.789757 
L 364.599023 229.693642 
L 359.092615 229.789757 
L 353.592916 230.077984 
L 348.106626 230.557972 
L 342.640429 231.229137 
L 337.200985 232.09066 
L 331.794922 233.141492 
L 326.428825 234.380353 
L 321.109233 235.805734 
L 315.842627 237.415897 
L 310.635422 239.208881 
L 305.493964 241.182502 
L 300.424517 243.334355 
L 295.433256 245.661818 
L 290.526263 248.162056 
L 285.709516 250.832022 
L 280.988884 253.668464 
L 276.370118 256.667925 
L 271.858846 259.826752 
L 267.460563 263.141096 
L 263.180628 266.606919 
L 259.024256 270.219998 
L 254.996511 273.975932 
L 251.102299 277.870143 
L 247.346366 281.897889 
L 243.733286 286.054261 
L 240.267464 290.334196 
L 236.95312 294.732479 
L 233.794293 299.243751 
L 230.794831 303.862517 
L 227.958389 308.583149 
L 225.288423 313.399896 
L 222.788185 318.306889 
L 220.460722 323.29815 
L 218.308869 328.367597 
L 216.335248 333.509055 
L 214.542264 338.71626 
L 212.932101 343.982866 
L 211.50672 349.302458 
L 210.267859 354.668555 
L 209.217027 360.074618 
L 208.355504 365.514062 
L 207.684339 370.980258 
L 207.204351 376.466549 
L 206.916124 381.966248 
L 206.820009 387.472656 
L 206.916124 392.979064 
L 207.204351 398.478764 
L 207.684339 403.965054 
L 208.355504 409.431251 
L 209.217027 414.870695 
L 210.267859 420.276758 
L 211.50672 425.642854 
L 212.932101 430.962447 
L 214.542264 436.229053 
L 216.335248 441.436257 
L 218.308869 446.577715 
L 220.460722 451.647163 
L 222.788185 456.638424 
L 225.288423 461.545417 
L 227.958389 466.362163 
L 230.794831 471.082795 
L 233.794293 475.701561 
L 236.95312 480.212834 
L 240.267464 484.611117 
L 243.733286 488.891052 
L 247.346366 493.047424 
L 251.102299 497.075169 
L 254.996511 500.969381 
L 259.024256 504.725314 
L 263.180628 508.338393 
L 267.460563 511.804216 
L 271.858846 515.11856 
L 276.370118 518.277387 
L 280.988884 521.276849 
L 285.709516 524.113291 
L 290.526263 526.783257 
L 295.433256 529.283495 
L 300.424517 531.610958 
L 305.493964 533.762811 
L 310.635422 535.736432 
L 315.842627 537.529416 
L 321.109233 539.139579 
L 326.428825 540.564959 
L 331.794922 541.80382 
L 337.200985 542.854653 
L 342.640429 543.716176 
L 348.106626 544.38734 
L 353.592916 544.867329 
L 359.092615 545.155556 
L 364.599023 545.25167 
L 370.105432 545.155556 
L 375.605131 544.867329 
L 381.091421 544.38734 
L 386.557618 543.716176 
L 391.997062 542.854653 
L 397.403125 541.80382 
L 402.769222 540.564959 
L 408.088814 539.139579 
L 413.35542 537.529416 
L 418.562624 535.736432 
L 423.704082 533.762811 
L 428.77353 531.610958 
L 433.764791 529.283495 
L 438.671784 526.783257 
L 443.48853 524.113291 
L 448.209163 521.276849 
L 452.827928 518.277387 
L 457.339201 515.11856 
L 461.737484 511.804216 
L 466.017419 508.338393 
L 470.173791 504.725314 
L 474.201536 500.969381 
L 478.095748 497.075169 
L 481.851681 493.047424 
L 485.46476 488.891052 
L 488.930583 484.611117 
L 492.244927 480.212834 
L 495.403754 475.701561 
L 498.403216 471.082795 
L 501.239658 466.362163 
L 503.909624 461.545417 
L 506.409862 456.638424 
L 508.737325 451.647163 
L 510.889178 446.577715 
L 512.862799 441.436257 
L 514.655783 436.229053 
L 516.265946 430.962447 
L 517.691327 425.642854 
L 518.930188 420.276758 
L 519.98102 414.870695 
L 520.842543 409.431251 
L 521.513708 403.965054 
L 521.993696 398.478764 
L 522.281923 392.979064 
L 522.378038 387.472656 
L 522.378038 387.472656 
" style="fill:none;stroke:#b0b0b0;stroke-linecap:square;stroke-width:0.8;"/>
     </g>
     <g id="text_8">
      <!-- 95 -->
      <defs>
       <path d="M 46.78125 32.671875 
Q 43.5 29 39.25 27.1875 
Q 35.015625 25.390625 29.6875 25.390625 
Q 18.84375 25.390625 12.5625 31.9375 
Q 6.296875 38.484375 6.296875 49.8125 
Q 6.296875 60.890625 13.109375 67.546875 
Q 19.921875 74.21875 31.296875 74.21875 
Q 43.65625 74.21875 50.265625 65.015625 
Q 56.890625 55.8125 56.890625 38.71875 
Q 56.890625 19.578125 49.015625 9.078125 
Q 41.15625 -1.421875 26.90625 -1.421875 
Q 23.046875 -1.421875 18.796875 -0.6875 
Q 14.546875 0.046875 10.109375 1.515625 
L 10.109375 13.625 
L 15.578125 13.625 
Q 16.21875 8.6875 19.390625 6.046875 
Q 22.5625 3.421875 27.875 3.421875 
Q 37.359375 3.421875 41.984375 10.5625 
Q 46.625 17.71875 46.78125 32.671875 
z
M 30.90625 69.390625 
Q 23.96875 69.390625 20.28125 64.328125 
Q 16.609375 59.28125 16.609375 49.8125 
Q 16.609375 40.328125 20.28125 35.25 
Q 23.96875 30.171875 30.90625 30.171875 
Q 37.84375 30.171875 41.53125 35.078125 
Q 45.21875 39.984375 45.21875 49.21875 
Q 45.21875 58.9375 41.5 64.15625 
Q 37.796875 69.390625 30.90625 69.390625 
z
" id="DejaVuSerif-57"/>
      </defs>
      <g transform="translate(510.367825 325.013554)scale(0.1 -0.1)">
       <use xlink:href="#DejaVuSerif-57"/>
       <use x="63.623047" xlink:href="#DejaVuSerif-53"/>
      </g>
     </g>
    </g>
    <g id="ytick_3">
     <g id="line2d_9">
      <path clip-path="url(#p27f7be8937)" d="M 514.073879 387.472656 
L 513.982823 382.256059 
L 513.709766 377.045817 
L 513.25504 371.848279 
L 512.6192 366.669777 
L 511.80302 361.51662 
L 510.807495 356.395086 
L 509.633837 351.311416 
L 508.283477 346.271802 
L 506.758059 341.282386 
L 505.059442 336.349245 
L 503.189696 331.47839 
L 501.151099 326.675755 
L 498.946134 321.947192 
L 496.577487 317.298462 
L 494.048046 312.735229 
L 491.36089 308.263051 
L 488.519295 303.887378 
L 485.526722 299.613541 
L 482.386817 295.446746 
L 479.103406 291.392071 
L 475.680489 287.454456 
L 472.122236 283.638697 
L 468.432983 279.949444 
L 464.617224 276.391191 
L 460.679608 272.968274 
L 456.624933 269.684863 
L 452.458139 266.544958 
L 448.184302 263.552385 
L 443.808629 260.71079 
L 439.336451 258.023634 
L 434.773217 255.494192 
L 430.124487 253.125546 
L 425.395924 250.920581 
L 420.59329 248.881984 
L 415.722435 247.012238 
L 410.789294 245.313621 
L 405.799877 243.788203 
L 400.760264 242.437843 
L 395.676593 241.264185 
L 390.55506 240.26866 
L 385.401903 239.45248 
L 380.2234 238.81664 
L 375.025862 238.361914 
L 369.815621 238.088857 
L 364.599023 237.997801 
L 359.382426 238.088857 
L 354.172185 238.361914 
L 348.974646 238.81664 
L 343.796144 239.45248 
L 338.642987 240.26866 
L 333.521454 241.264185 
L 328.437783 242.437843 
L 323.39817 243.788203 
L 318.408753 245.313621 
L 313.475612 247.012238 
L 308.604757 248.881984 
L 303.802122 250.920581 
L 299.07356 253.125546 
L 294.424829 255.494192 
L 289.861596 258.023634 
L 285.389418 260.71079 
L 281.013745 263.552385 
L 276.739908 266.544958 
L 272.573113 269.684863 
L 268.518438 272.968274 
L 264.580823 276.391191 
L 260.765064 279.949444 
L 257.075811 283.638697 
L 253.517558 287.454456 
L 250.094641 291.392071 
L 246.81123 295.446746 
L 243.671325 299.613541 
L 240.678752 303.887378 
L 237.837157 308.263051 
L 235.150001 312.735229 
L 232.62056 317.298462 
L 230.251913 321.947192 
L 228.046948 326.675755 
L 226.008351 331.47839 
L 224.138605 336.349245 
L 222.439988 341.282386 
L 220.91457 346.271802 
L 219.56421 351.311416 
L 218.390552 356.395086 
L 217.395027 361.51662 
L 216.578847 366.669777 
L 215.943007 371.848279 
L 215.488281 377.045817 
L 215.215224 382.256059 
L 215.124168 387.472656 
L 215.215224 392.689253 
L 215.488281 397.899495 
L 215.943007 403.097033 
L 216.578847 408.275535 
L 217.395027 413.428693 
L 218.390552 418.550226 
L 219.56421 423.633897 
L 220.91457 428.67351 
L 222.439988 433.662927 
L 224.138605 438.596068 
L 226.008351 443.466923 
L 228.046948 448.269557 
L 230.251913 452.99812 
L 232.62056 457.64685 
L 235.150001 462.210084 
L 237.837157 466.682262 
L 240.678752 471.057935 
L 243.671325 475.331772 
L 246.81123 479.498566 
L 250.094641 483.553241 
L 253.517558 487.490857 
L 257.075811 491.306616 
L 260.765064 494.995869 
L 264.580823 498.554122 
L 268.518438 501.977039 
L 272.573113 505.26045 
L 276.739908 508.400355 
L 281.013745 511.392928 
L 285.389418 514.234523 
L 289.861596 516.921678 
L 294.424829 519.45112 
L 299.07356 521.819766 
L 303.802122 524.024732 
L 308.604757 526.063329 
L 313.475612 527.933075 
L 318.408753 529.631692 
L 323.39817 531.157109 
L 328.437783 532.50747 
L 333.521454 533.681128 
L 338.642987 534.676653 
L 343.796144 535.492833 
L 348.974646 536.128673 
L 354.172185 536.583398 
L 359.382426 536.856456 
L 364.599023 536.947512 
L 369.815621 536.856456 
L 375.025862 536.583398 
L 380.2234 536.128673 
L 385.401903 535.492833 
L 390.55506 534.676653 
L 395.676593 533.681128 
L 400.760264 532.50747 
L 405.799877 531.157109 
L 410.789294 529.631692 
L 415.722435 527.933075 
L 420.59329 526.063329 
L 425.395924 524.024732 
L 430.124487 521.819766 
L 434.773217 519.45112 
L 439.336451 516.921678 
L 443.808629 514.234523 
L 448.184302 511.392928 
L 452.458139 508.400355 
L 456.624933 505.26045 
L 460.679608 501.977039 
L 464.617224 498.554122 
L 468.432983 494.995869 
L 472.122236 491.306616 
L 475.680489 487.490857 
L 479.103406 483.553241 
L 482.386817 479.498566 
L 485.526722 475.331772 
L 488.519295 471.057935 
L 491.36089 466.682262 
L 494.048046 462.210084 
L 496.577487 457.64685 
L 498.946134 452.99812 
L 501.151099 448.269557 
L 503.189696 443.466923 
L 505.059442 438.596068 
L 506.758059 433.662927 
L 508.283477 428.67351 
L 509.633837 423.633897 
L 510.807495 418.550226 
L 511.80302 413.428693 
L 512.6192 408.275535 
L 513.25504 403.097033 
L 513.709766 397.899495 
L 513.982823 392.689253 
L 514.073879 387.472656 
L 514.073879 387.472656 
" style="fill:none;stroke:#b0b0b0;stroke-linecap:square;stroke-width:0.8;"/>
     </g>
     <g id="text_9">
      <!-- 90 -->
      <g transform="translate(502.695783 328.191418)scale(0.1 -0.1)">
       <use xlink:href="#DejaVuSerif-57"/>
       <use x="63.623047" xlink:href="#DejaVuSerif-48"/>
      </g>
     </g>
    </g>
    <g id="ytick_4">
     <g id="line2d_10">
      <path clip-path="url(#p27f7be8937)" d="M 522.378038 387.472656 
L 522.281923 381.966248 
L 521.993696 376.466549 
L 521.513708 370.980258 
L 520.842543 365.514062 
L 519.98102 360.074618 
L 518.930188 354.668555 
L 517.691327 349.302458 
L 516.265946 343.982866 
L 514.655783 338.71626 
L 512.862799 333.509055 
L 510.889178 328.367597 
L 508.737325 323.29815 
L 506.409862 318.306889 
L 503.909624 313.399896 
L 501.239658 308.583149 
L 498.403216 303.862517 
L 495.403754 299.243751 
L 492.244927 294.732479 
L 488.930583 290.334196 
L 485.46476 286.054261 
L 481.851681 281.897889 
L 478.095748 277.870143 
L 474.201536 273.975932 
L 470.173791 270.219998 
L 466.017419 266.606919 
L 461.737484 263.141096 
L 457.339201 259.826752 
L 452.827928 256.667925 
L 448.209163 253.668464 
L 443.48853 250.832022 
L 438.671784 248.162056 
L 433.764791 245.661818 
L 428.77353 243.334355 
L 423.704082 241.182502 
L 418.562624 239.208881 
L 413.35542 237.415897 
L 408.088814 235.805734 
L 402.769222 234.380353 
L 397.403125 233.141492 
L 391.997062 232.09066 
L 386.557618 231.229137 
L 381.091421 230.557972 
L 375.605131 230.077984 
L 370.105432 229.789757 
L 364.599023 229.693642 
L 359.092615 229.789757 
L 353.592916 230.077984 
L 348.106626 230.557972 
L 342.640429 231.229137 
L 337.200985 232.09066 
L 331.794922 233.141492 
L 326.428825 234.380353 
L 321.109233 235.805734 
L 315.842627 237.415897 
L 310.635422 239.208881 
L 305.493964 241.182502 
L 300.424517 243.334355 
L 295.433256 245.661818 
L 290.526263 248.162056 
L 285.709516 250.832022 
L 280.988884 253.668464 
L 276.370118 256.667925 
L 271.858846 259.826752 
L 267.460563 263.141096 
L 263.180628 266.606919 
L 259.024256 270.219998 
L 254.996511 273.975932 
L 251.102299 277.870143 
L 247.346366 281.897889 
L 243.733286 286.054261 
L 240.267464 290.334196 
L 236.95312 294.732479 
L 233.794293 299.243751 
L 230.794831 303.862517 
L 227.958389 308.583149 
L 225.288423 313.399896 
L 222.788185 318.306889 
L 220.460722 323.29815 
L 218.308869 328.367597 
L 216.335248 333.509055 
L 214.542264 338.71626 
L 212.932101 343.982866 
L 211.50672 349.302458 
L 210.267859 354.668555 
L 209.217027 360.074618 
L 208.355504 365.514062 
L 207.684339 370.980258 
L 207.204351 376.466549 
L 206.916124 381.966248 
L 206.820009 387.472656 
L 206.916124 392.979064 
L 207.204351 398.478764 
L 207.684339 403.965054 
L 208.355504 409.431251 
L 209.217027 414.870695 
L 210.267859 420.276758 
L 211.50672 425.642854 
L 212.932101 430.962447 
L 214.542264 436.229053 
L 216.335248 441.436257 
L 218.308869 446.577715 
L 220.460722 451.647163 
L 222.788185 456.638424 
L 225.288423 461.545417 
L 227.958389 466.362163 
L 230.794831 471.082795 
L 233.794293 475.701561 
L 236.95312 480.212834 
L 240.267464 484.611117 
L 243.733286 488.891052 
L 247.346366 493.047424 
L 251.102299 497.075169 
L 254.996511 500.969381 
L 259.024256 504.725314 
L 263.180628 508.338393 
L 267.460563 511.804216 
L 271.858846 515.11856 
L 276.370118 518.277387 
L 280.988884 521.276849 
L 285.709516 524.113291 
L 290.526263 526.783257 
L 295.433256 529.283495 
L 300.424517 531.610958 
L 305.493964 533.762811 
L 310.635422 535.736432 
L 315.842627 537.529416 
L 321.109233 539.139579 
L 326.428825 540.564959 
L 331.794922 541.80382 
L 337.200985 542.854653 
L 342.640429 543.716176 
L 348.106626 544.38734 
L 353.592916 544.867329 
L 359.092615 545.155556 
L 364.599023 545.25167 
L 370.105432 545.155556 
L 375.605131 544.867329 
L 381.091421 544.38734 
L 386.557618 543.716176 
L 391.997062 542.854653 
L 397.403125 541.80382 
L 402.769222 540.564959 
L 408.088814 539.139579 
L 413.35542 537.529416 
L 418.562624 535.736432 
L 423.704082 533.762811 
L 428.77353 531.610958 
L 433.764791 529.283495 
L 438.671784 526.783257 
L 443.48853 524.113291 
L 448.209163 521.276849 
L 452.827928 518.277387 
L 457.339201 515.11856 
L 461.737484 511.804216 
L 466.017419 508.338393 
L 470.173791 504.725314 
L 474.201536 500.969381 
L 478.095748 497.075169 
L 481.851681 493.047424 
L 485.46476 488.891052 
L 488.930583 484.611117 
L 492.244927 480.212834 
L 495.403754 475.701561 
L 498.403216 471.082795 
L 501.239658 466.362163 
L 503.909624 461.545417 
L 506.409862 456.638424 
L 508.737325 451.647163 
L 510.889178 446.577715 
L 512.862799 441.436257 
L 514.655783 436.229053 
L 516.265946 430.962447 
L 517.691327 425.642854 
L 518.930188 420.276758 
L 519.98102 414.870695 
L 520.842543 409.431251 
L 521.513708 403.965054 
L 521.993696 398.478764 
L 522.281923 392.979064 
L 522.378038 387.472656 
L 522.378038 387.472656 
" style="fill:none;stroke:#b0b0b0;stroke-linecap:square;stroke-width:0.8;"/>
     </g>
     <g id="text_10">
      <!-- 95 -->
      <g transform="translate(510.367825 325.013554)scale(0.1 -0.1)">
       <use xlink:href="#DejaVuSerif-57"/>
       <use x="63.623047" xlink:href="#DejaVuSerif-53"/>
      </g>
     </g>
    </g>
    <g id="ytick_5">
     <g id="line2d_11">
      <path clip-path="url(#p27f7be8937)" d="M 514.073879 387.472656 
L 513.982823 382.256059 
L 513.709766 377.045817 
L 513.25504 371.848279 
L 512.6192 366.669777 
L 511.80302 361.51662 
L 510.807495 356.395086 
L 509.633837 351.311416 
L 508.283477 346.271802 
L 506.758059 341.282386 
L 505.059442 336.349245 
L 503.189696 331.47839 
L 501.151099 326.675755 
L 498.946134 321.947192 
L 496.577487 317.298462 
L 494.048046 312.735229 
L 491.36089 308.263051 
L 488.519295 303.887378 
L 485.526722 299.613541 
L 482.386817 295.446746 
L 479.103406 291.392071 
L 475.680489 287.454456 
L 472.122236 283.638697 
L 468.432983 279.949444 
L 464.617224 276.391191 
L 460.679608 272.968274 
L 456.624933 269.684863 
L 452.458139 266.544958 
L 448.184302 263.552385 
L 443.808629 260.71079 
L 439.336451 258.023634 
L 434.773217 255.494192 
L 430.124487 253.125546 
L 425.395924 250.920581 
L 420.59329 248.881984 
L 415.722435 247.012238 
L 410.789294 245.313621 
L 405.799877 243.788203 
L 400.760264 242.437843 
L 395.676593 241.264185 
L 390.55506 240.26866 
L 385.401903 239.45248 
L 380.2234 238.81664 
L 375.025862 238.361914 
L 369.815621 238.088857 
L 364.599023 237.997801 
L 359.382426 238.088857 
L 354.172185 238.361914 
L 348.974646 238.81664 
L 343.796144 239.45248 
L 338.642987 240.26866 
L 333.521454 241.264185 
L 328.437783 242.437843 
L 323.39817 243.788203 
L 318.408753 245.313621 
L 313.475612 247.012238 
L 308.604757 248.881984 
L 303.802122 250.920581 
L 299.07356 253.125546 
L 294.424829 255.494192 
L 289.861596 258.023634 
L 285.389418 260.71079 
L 281.013745 263.552385 
L 276.739908 266.544958 
L 272.573113 269.684863 
L 268.518438 272.968274 
L 264.580823 276.391191 
L 260.765064 279.949444 
L 257.075811 283.638697 
L 253.517558 287.454456 
L 250.094641 291.392071 
L 246.81123 295.446746 
L 243.671325 299.613541 
L 240.678752 303.887378 
L 237.837157 308.263051 
L 235.150001 312.735229 
L 232.62056 317.298462 
L 230.251913 321.947192 
L 228.046948 326.675755 
L 226.008351 331.47839 
L 224.138605 336.349245 
L 222.439988 341.282386 
L 220.91457 346.271802 
L 219.56421 351.311416 
L 218.390552 356.395086 
L 217.395027 361.51662 
L 216.578847 366.669777 
L 215.943007 371.848279 
L 215.488281 377.045817 
L 215.215224 382.256059 
L 215.124168 387.472656 
L 215.215224 392.689253 
L 215.488281 397.899495 
L 215.943007 403.097033 
L 216.578847 408.275535 
L 217.395027 413.428693 
L 218.390552 418.550226 
L 219.56421 423.633897 
L 220.91457 428.67351 
L 222.439988 433.662927 
L 224.138605 438.596068 
L 226.008351 443.466923 
L 228.046948 448.269557 
L 230.251913 452.99812 
L 232.62056 457.64685 
L 235.150001 462.210084 
L 237.837157 466.682262 
L 240.678752 471.057935 
L 243.671325 475.331772 
L 246.81123 479.498566 
L 250.094641 483.553241 
L 253.517558 487.490857 
L 257.075811 491.306616 
L 260.765064 494.995869 
L 264.580823 498.554122 
L 268.518438 501.977039 
L 272.573113 505.26045 
L 276.739908 508.400355 
L 281.013745 511.392928 
L 285.389418 514.234523 
L 289.861596 516.921678 
L 294.424829 519.45112 
L 299.07356 521.819766 
L 303.802122 524.024732 
L 308.604757 526.063329 
L 313.475612 527.933075 
L 318.408753 529.631692 
L 323.39817 531.157109 
L 328.437783 532.50747 
L 333.521454 533.681128 
L 338.642987 534.676653 
L 343.796144 535.492833 
L 348.974646 536.128673 
L 354.172185 536.583398 
L 359.382426 536.856456 
L 364.599023 536.947512 
L 369.815621 536.856456 
L 375.025862 536.583398 
L 380.2234 536.128673 
L 385.401903 535.492833 
L 390.55506 534.676653 
L 395.676593 533.681128 
L 400.760264 532.50747 
L 405.799877 531.157109 
L 410.789294 529.631692 
L 415.722435 527.933075 
L 420.59329 526.063329 
L 425.395924 524.024732 
L 430.124487 521.819766 
L 434.773217 519.45112 
L 439.336451 516.921678 
L 443.808629 514.234523 
L 448.184302 511.392928 
L 452.458139 508.400355 
L 456.624933 505.26045 
L 460.679608 501.977039 
L 464.617224 498.554122 
L 468.432983 494.995869 
L 472.122236 491.306616 
L 475.680489 487.490857 
L 479.103406 483.553241 
L 482.386817 479.498566 
L 485.526722 475.331772 
L 488.519295 471.057935 
L 491.36089 466.682262 
L 494.048046 462.210084 
L 496.577487 457.64685 
L 498.946134 452.99812 
L 501.151099 448.269557 
L 503.189696 443.466923 
L 505.059442 438.596068 
L 506.758059 433.662927 
L 508.283477 428.67351 
L 509.633837 423.633897 
L 510.807495 418.550226 
L 511.80302 413.428693 
L 512.6192 408.275535 
L 513.25504 403.097033 
L 513.709766 397.899495 
L 513.982823 392.689253 
L 514.073879 387.472656 
L 514.073879 387.472656 
" style="fill:none;stroke:#b0b0b0;stroke-linecap:square;stroke-width:0.8;"/>
     </g>
     <g id="text_11">
      <!-- 90 -->
      <g transform="translate(502.695783 328.191418)scale(0.1 -0.1)">
       <use xlink:href="#DejaVuSerif-57"/>
       <use x="63.623047" xlink:href="#DejaVuSerif-48"/>
      </g>
     </g>
    </g>
    <g id="ytick_6">
     <g id="line2d_12">
      <path clip-path="url(#p27f7be8937)" d="M 663.548734 387.472656 
L 663.366622 377.039462 
L 662.820508 366.618979 
L 661.911057 356.223902 
L 660.639376 345.866898 
L 659.007017 335.560584 
L 657.015966 325.317516 
L 654.66865 315.150175 
L 651.96793 305.070948 
L 648.917094 295.092115 
L 645.519861 285.225833 
L 641.780369 275.484123 
L 637.703174 265.878854 
L 633.293244 256.421729 
L 628.555951 247.124268 
L 623.497068 237.997801 
L 618.122757 229.053445 
L 612.439566 220.302099 
L 606.45442 211.754425 
L 600.17461 203.420836 
L 593.607788 195.311486 
L 586.761954 187.436255 
L 579.645449 179.804737 
L 572.266943 172.426231 
L 564.635425 165.309725 
L 556.760194 158.463891 
L 548.650844 151.897069 
L 540.317255 145.61726 
L 531.76958 139.632114 
L 523.018234 133.948923 
L 514.073879 128.574612 
L 504.947411 123.515729 
L 495.649951 118.778436 
L 486.192825 114.368506 
L 476.587556 110.291311 
L 466.845846 106.551819 
L 456.979565 103.154586 
L 447.000731 100.10375 
L 436.921504 97.403029 
L 426.754163 95.055714 
L 416.511096 93.064663 
L 406.204782 91.432303 
L 395.847777 90.160623 
L 385.452701 89.251172 
L 375.032218 88.705057 
L 364.599023 88.522945 
L 354.165829 88.705057 
L 343.745346 89.251172 
L 333.35027 90.160623 
L 322.993265 91.432303 
L 312.686951 93.064663 
L 302.443884 95.055714 
L 292.276543 97.403029 
L 282.197316 100.10375 
L 272.218482 103.154586 
L 262.3522 106.551819 
L 252.610491 110.291311 
L 243.005222 114.368506 
L 233.548096 118.778436 
L 224.250635 123.515729 
L 215.124168 128.574612 
L 206.179813 133.948923 
L 197.428467 139.632114 
L 188.880792 145.61726 
L 180.547203 151.897069 
L 172.437853 158.463891 
L 164.562622 165.309725 
L 156.931104 172.426231 
L 149.552598 179.804737 
L 142.436093 187.436255 
L 135.590259 195.311486 
L 129.023436 203.420836 
L 122.743627 211.754425 
L 116.758481 220.302099 
L 111.07529 229.053445 
L 105.700979 237.997801 
L 100.642096 247.124268 
L 95.904803 256.421729 
L 91.494873 265.878854 
L 87.417678 275.484123 
L 83.678186 285.225833 
L 80.280953 295.092115 
L 77.230117 305.070948 
L 74.529397 315.150175 
L 72.182081 325.317516 
L 70.19103 335.560584 
L 68.558671 345.866898 
L 67.28699 356.223902 
L 66.377539 366.618979 
L 65.831425 377.039462 
L 65.649312 387.472656 
L 65.831425 397.905851 
L 66.377539 408.326334 
L 67.28699 418.72141 
L 68.558671 429.078415 
L 70.19103 439.384729 
L 72.182081 449.627796 
L 74.529397 459.795137 
L 77.230117 469.874364 
L 80.280953 479.853197 
L 83.678186 489.719479 
L 87.417678 499.461189 
L 91.494873 509.066458 
L 95.904803 518.523584 
L 100.642096 527.821044 
L 105.700979 536.947512 
L 111.07529 545.891867 
L 116.758481 554.643213 
L 122.743627 563.190888 
L 129.023436 571.524476 
L 135.590259 579.633826 
L 142.436093 587.509058 
L 149.552598 595.140575 
L 156.931104 602.519082 
L 164.562622 609.635587 
L 172.437853 616.481421 
L 180.547203 623.048243 
L 188.880792 629.328053 
L 197.428467 635.313199 
L 206.179813 640.996389 
L 215.124168 646.3707 
L 224.250635 651.429584 
L 233.548096 656.166877 
L 243.005222 660.576807 
L 252.610491 664.654002 
L 262.3522 668.393494 
L 272.218482 671.790727 
L 282.197316 674.841562 
L 292.276543 677.542283 
L 302.443884 679.889599 
L 312.686951 681.880649 
L 322.993265 683.513009 
L 333.35027 684.784689 
L 343.745346 685.694141 
L 354.165829 686.240255 
L 364.599023 686.422367 
L 375.032218 686.240255 
L 385.452701 685.694141 
L 395.847777 684.784689 
L 406.204782 683.513009 
L 416.511096 681.880649 
L 426.754163 679.889599 
L 436.921504 677.542283 
L 447.000731 674.841562 
L 456.979565 671.790727 
L 466.845846 668.393494 
L 476.587556 664.654002 
L 486.192825 660.576807 
L 495.649951 656.166877 
L 504.947411 651.429584 
L 514.073879 646.3707 
L 523.018234 640.996389 
L 531.76958 635.313199 
L 540.317255 629.328053 
L 548.650844 623.048243 
L 556.760194 616.481421 
L 564.635425 609.635587 
L 572.266943 602.519082 
L 579.645449 595.140575 
L 586.761954 587.509058 
L 593.607788 579.633826 
L 600.17461 571.524476 
L 606.45442 563.190888 
L 612.439566 554.643213 
L 618.122757 545.891867 
L 623.497068 536.947512 
L 628.555951 527.821044 
L 633.293244 518.523584 
L 637.703174 509.066458 
L 641.780369 499.461189 
L 645.519861 489.719479 
L 648.917094 479.853197 
L 651.96793 469.874364 
L 654.66865 459.795137 
L 657.015966 449.627796 
L 659.007017 439.384729 
L 660.639376 429.078415 
L 661.911057 418.72141 
L 662.820508 408.326334 
L 663.366622 397.905851 
L 663.548734 387.472656 
L 663.548734 387.472656 
" style="fill:none;stroke:#b0b0b0;stroke-linecap:square;stroke-width:0.8;"/>
     </g>
     <g id="text_12">
      <!-- 180 -->
      <defs>
       <path d="M 14.203125 0 
L 14.203125 5.171875 
L 26.90625 5.171875 
L 26.90625 65.828125 
L 12.203125 56.296875 
L 12.203125 62.703125 
L 29.984375 74.21875 
L 36.71875 74.21875 
L 36.71875 5.171875 
L 49.421875 5.171875 
L 49.421875 0 
z
" id="DejaVuSerif-49"/>
       <path d="M 46.578125 19.921875 
Q 46.578125 27.734375 42.6875 32.046875 
Q 38.8125 36.375 31.78125 36.375 
Q 24.75 36.375 20.875 32.046875 
Q 17 27.734375 17 19.921875 
Q 17 12.0625 20.875 7.734375 
Q 24.75 3.421875 31.78125 3.421875 
Q 38.8125 3.421875 42.6875 7.734375 
Q 46.578125 12.0625 46.578125 19.921875 
z
M 44.578125 55.328125 
Q 44.578125 61.96875 41.203125 65.671875 
Q 37.84375 69.390625 31.78125 69.390625 
Q 25.78125 69.390625 22.390625 65.671875 
Q 19 61.96875 19 55.328125 
Q 19 48.640625 22.390625 44.921875 
Q 25.78125 41.21875 31.78125 41.21875 
Q 37.84375 41.21875 41.203125 44.921875 
Q 44.578125 48.640625 44.578125 55.328125 
z
M 39.3125 38.8125 
Q 47.609375 37.703125 52.25 32.6875 
Q 56.890625 27.6875 56.890625 19.921875 
Q 56.890625 9.671875 50.390625 4.125 
Q 43.890625 -1.421875 31.78125 -1.421875 
Q 19.734375 -1.421875 13.203125 4.125 
Q 6.6875 9.671875 6.6875 19.921875 
Q 6.6875 27.6875 11.328125 32.6875 
Q 15.96875 37.703125 24.3125 38.8125 
Q 16.9375 40.140625 13 44.40625 
Q 9.078125 48.6875 9.078125 55.328125 
Q 9.078125 64.109375 15.125 69.15625 
Q 21.1875 74.21875 31.78125 74.21875 
Q 42.390625 74.21875 48.4375 69.15625 
Q 54.5 64.109375 54.5 55.328125 
Q 54.5 48.6875 50.5625 44.40625 
Q 46.625 40.140625 39.3125 38.8125 
z
" id="DejaVuSerif-56"/>
      </defs>
      <g transform="translate(640.792543 270.989867)scale(0.1 -0.1)">
       <use xlink:href="#DejaVuSerif-49"/>
       <use x="63.623047" xlink:href="#DejaVuSerif-56"/>
       <use x="127.246094" xlink:href="#DejaVuSerif-48"/>
      </g>
     </g>
    </g>
    <g id="ytick_7">
     <g id="line2d_13">
      <path clip-path="url(#p27f7be8937)" d="M 447.64061 387.472656 
L 447.438325 381.679968 
L 446.832455 375.915501 
L 445.825952 370.20734 
L 444.42372 364.583293 
L 442.632589 359.070761 
L 440.461287 353.6966 
L 437.920392 348.486993 
L 435.022283 343.46732 
L 431.781078 338.662036 
L 428.212569 334.094553 
L 424.334142 329.787123 
L 420.16469 325.760731 
L 415.724529 322.034993 
L 411.035289 318.628061 
L 406.119817 315.556533 
L 401.002059 312.835373 
L 395.706949 310.477838 
L 390.260285 308.495414 
L 384.688601 306.89776 
L 379.019044 305.692658 
L 373.279233 304.88598 
L 367.497133 304.481657 
L 361.700914 304.481657 
L 355.918814 304.88598 
L 350.179003 305.692658 
L 344.509445 306.89776 
L 338.937762 308.495414 
L 333.491098 310.477838 
L 328.195988 312.835373 
L 323.07823 315.556533 
L 318.162758 318.628061 
L 313.473518 322.034993 
L 309.033356 325.760731 
L 304.863905 329.787123 
L 300.985478 334.094553 
L 297.416969 338.662036 
L 294.175764 343.46732 
L 291.277655 348.486993 
L 288.736759 353.6966 
L 286.565458 359.070761 
L 284.774327 364.583293 
L 283.372095 370.20734 
L 282.365592 375.915501 
L 281.759722 381.679968 
L 281.557437 387.472656 
L 281.759722 393.265344 
L 282.365592 399.029811 
L 283.372095 404.737973 
L 284.774327 410.36202 
L 286.565458 415.874552 
L 288.736759 421.248712 
L 291.277655 426.45832 
L 294.175764 431.477993 
L 297.416969 436.283276 
L 300.985478 440.850759 
L 304.863905 445.158189 
L 309.033356 449.184581 
L 313.473518 452.910319 
L 318.162758 456.317251 
L 323.07823 459.38878 
L 328.195988 462.10994 
L 333.491098 464.467474 
L 338.937762 466.449898 
L 344.509445 468.047553 
L 350.179003 469.252654 
L 355.918814 470.059332 
L 361.700914 470.463656 
L 367.497133 470.463656 
L 373.279233 470.059332 
L 379.019044 469.252654 
L 384.688601 468.047553 
L 390.260285 466.449898 
L 395.706949 464.467474 
L 401.002059 462.10994 
L 406.119817 459.38878 
L 411.035289 456.317251 
L 415.724529 452.910319 
L 420.16469 449.184581 
L 424.334142 445.158189 
L 428.212569 440.850759 
L 431.781078 436.283276 
L 435.022283 431.477993 
L 437.920392 426.45832 
L 440.461287 421.248712 
L 442.632589 415.874552 
L 444.42372 410.36202 
L 445.825952 404.737973 
L 446.832455 399.029811 
L 447.438325 393.265344 
L 447.64061 387.472656 
L 447.64061 387.472656 
" style="fill:none;stroke:#b0b0b0;stroke-linecap:square;stroke-width:0.8;"/>
     </g>
     <g id="text_13">
      <!-- 50 -->
      <g transform="translate(441.319445 353.614329)scale(0.1 -0.1)">
       <use xlink:href="#DejaVuSerif-53"/>
       <use x="63.623047" xlink:href="#DejaVuSerif-48"/>
      </g>
     </g>
    </g>
   </g>
   <g id="line2d_14">
    <path clip-path="url(#p27f7be8937)" d="M 447.64061 387.472656 
L 443.48853 250.832022 
L 289.861596 258.023634 
L 206.820009 387.472656 
L 289.861596 516.921678 
L 514.073879 646.3707 
L 447.64061 387.472656 
" style="fill:none;stroke:#a66245;stroke-linecap:square;stroke-width:4;"/>
   </g>
   <g id="patch_4">
    <path d="M 674.344141 387.472656 
C 674.344141 346.7973 666.331982 306.517461 650.766198 268.938332 
C 635.200413 231.359203 612.383716 197.211604 583.621896 168.449783 
C 554.860076 139.687963 520.712477 116.871267 483.133348 101.305482 
C 445.554219 85.739697 405.27438 77.727539 364.599023 77.727539 
C 323.923667 77.727539 283.643828 85.739697 246.064699 101.305482 
C 208.48557 116.871267 174.337971 139.687963 145.576151 168.449783 
C 116.814331 197.211604 93.997634 231.359203 78.431849 268.938332 
C 62.866064 306.517461 54.853906 346.7973 54.853906 387.472656 
C 54.853906 428.148012 62.866064 468.427852 78.431849 506.006981 
C 93.997634 543.58611 116.814331 577.733709 145.576151 606.495529 
C 174.337971 635.257349 208.48557 658.074045 246.064699 673.63983 
C 283.643828 689.205615 323.923667 697.217773 364.599023 697.217773 
C 405.27438 697.217773 445.554219 689.205615 483.133348 673.63983 
C 520.712477 658.074045 554.860076 635.257349 583.621896 606.495529 
C 612.383716 577.733709 635.200413 543.58611 650.766198 506.006981 
C 666.331982 468.427852 674.344141 428.148012 674.344141 387.472656 
" style="fill:none;stroke:#000000;stroke-linecap:square;stroke-linejoin:miter;stroke-width:0.8;"/>
   </g>
   <g id="text_14">
    <!-- DeoxysSpeedForme -->
    <defs>
     <path d="M 29.109375 31.6875 
L 39.984375 46.6875 
L 33.015625 46.6875 
L 33.015625 51.90625 
L 52.984375 51.90625 
L 52.984375 46.6875 
L 46.09375 46.6875 
L 32.171875 27.484375 
L 48.390625 5.171875 
L 55.171875 5.171875 
L 55.171875 0 
L 31.203125 0 
L 31.203125 5.171875 
L 37.796875 5.171875 
L 26.515625 20.703125 
L 15.1875 5.171875 
L 21.921875 5.171875 
L 21.921875 0 
L 2.203125 0 
L 2.203125 5.171875 
L 9.078125 5.171875 
L 23.390625 24.90625 
L 7.625 46.6875 
L 1.21875 46.6875 
L 1.21875 51.90625 
L 24.421875 51.90625 
L 24.421875 46.6875 
L 18.21875 46.6875 
z
" id="DejaVuSerif-120"/>
     <path d="M 21.578125 -9.515625 
L 25 -0.875 
L 5.609375 46.6875 
L -0.296875 46.6875 
L -0.296875 51.90625 
L 23.578125 51.90625 
L 23.578125 46.6875 
L 15.28125 46.6875 
L 29.890625 10.984375 
L 44.484375 46.6875 
L 36.71875 46.6875 
L 36.71875 51.90625 
L 56.203125 51.90625 
L 56.203125 46.6875 
L 50.390625 46.6875 
L 26.609375 -11.71875 
Q 24.171875 -17.78125 21.1875 -20 
Q 18.21875 -22.21875 12.796875 -22.21875 
Q 10.5 -22.21875 8.078125 -21.828125 
Q 5.671875 -21.4375 3.21875 -20.703125 
L 3.21875 -10.796875 
L 7.8125 -10.796875 
Q 8.109375 -14.109375 9.5 -15.546875 
Q 10.890625 -17 13.8125 -17 
Q 16.5 -17 18.140625 -15.5 
Q 19.78125 -14.015625 21.578125 -9.515625 
z
" id="DejaVuSerif-121"/>
     <path d="M 9.28125 3.515625 
L 9.28125 20.125 
L 14.890625 20.0625 
Q 15.140625 11.765625 19.703125 7.78125 
Q 24.265625 3.8125 33.59375 3.8125 
Q 42.28125 3.8125 46.84375 7.25 
Q 51.421875 10.6875 51.421875 17.28125 
Q 51.421875 22.5625 48.65625 25.390625 
Q 45.90625 28.21875 37.015625 30.90625 
L 27.390625 33.796875 
Q 16.9375 36.96875 12.671875 41.703125 
Q 8.40625 46.4375 8.40625 54.6875 
Q 8.40625 63.96875 14.984375 69.09375 
Q 21.578125 74.21875 33.5 74.21875 
Q 38.578125 74.21875 44.625 73.109375 
Q 50.6875 72.015625 57.515625 69.921875 
L 57.515625 54.390625 
L 52 54.390625 
Q 51.171875 62.109375 46.84375 65.546875 
Q 42.53125 69 33.6875 69 
Q 25.984375 69 21.953125 65.84375 
Q 17.921875 62.703125 17.921875 56.6875 
Q 17.921875 51.46875 20.9375 48.484375 
Q 23.96875 45.515625 33.796875 42.578125 
L 42.828125 39.890625 
Q 52.734375 36.921875 56.953125 32.296875 
Q 61.1875 27.6875 61.1875 19.921875 
Q 61.1875 9.328125 54.390625 3.953125 
Q 47.609375 -1.421875 34.1875 -1.421875 
Q 28.171875 -1.421875 21.9375 -0.1875 
Q 15.71875 1.03125 9.28125 3.515625 
z
" id="DejaVuSerif-83"/>
     <path d="M 5.515625 0 
L 5.515625 5.171875 
L 14.796875 5.171875 
L 14.796875 67.671875 
L 5.515625 67.671875 
L 5.515625 72.90625 
L 65.1875 72.90625 
L 65.1875 56.6875 
L 59.1875 56.6875 
L 59.1875 66.890625 
L 24.703125 66.890625 
L 24.703125 42.484375 
L 49.609375 42.484375 
L 49.609375 51.609375 
L 55.609375 51.609375 
L 55.609375 27.390625 
L 49.609375 27.390625 
L 49.609375 36.53125 
L 24.703125 36.53125 
L 24.703125 5.171875 
L 36.375 5.171875 
L 36.375 0 
z
" id="DejaVuSerif-70"/>
     <path d="M 47.796875 52 
L 47.796875 39.015625 
L 42.625 39.015625 
Q 42.390625 42.875 40.484375 44.78125 
Q 38.578125 46.6875 34.90625 46.6875 
Q 28.265625 46.6875 24.71875 42.09375 
Q 21.1875 37.5 21.1875 28.90625 
L 21.1875 5.171875 
L 31.59375 5.171875 
L 31.59375 0 
L 4.109375 0 
L 4.109375 5.171875 
L 12.203125 5.171875 
L 12.203125 46.78125 
L 3.609375 46.78125 
L 3.609375 51.90625 
L 21.1875 51.90625 
L 21.1875 42.671875 
Q 23.828125 48.09375 27.96875 50.703125 
Q 32.125 53.328125 38.09375 53.328125 
Q 40.28125 53.328125 42.703125 52.984375 
Q 45.125 52.640625 47.796875 52 
z
" id="DejaVuSerif-114"/>
     <path d="M 51.8125 41.796875 
Q 54.390625 47.515625 58.421875 50.421875 
Q 62.453125 53.328125 67.828125 53.328125 
Q 75.984375 53.328125 79.984375 48.265625 
Q 83.984375 43.21875 83.984375 33.015625 
L 83.984375 5.171875 
L 92.09375 5.171875 
L 92.09375 0 
L 67.1875 0 
L 67.1875 5.171875 
L 75 5.171875 
L 75 31.984375 
Q 75 39.9375 72.65625 43.3125 
Q 70.3125 46.6875 64.890625 46.6875 
Q 58.890625 46.6875 55.734375 42.140625 
Q 52.59375 37.59375 52.59375 28.90625 
L 52.59375 5.171875 
L 60.40625 5.171875 
L 60.40625 0 
L 35.796875 0 
L 35.796875 5.171875 
L 43.609375 5.171875 
L 43.609375 32.328125 
Q 43.609375 40.09375 41.265625 43.390625 
Q 38.921875 46.6875 33.5 46.6875 
Q 27.484375 46.6875 24.328125 42.140625 
Q 21.1875 37.59375 21.1875 28.90625 
L 21.1875 5.171875 
L 29 5.171875 
L 29 0 
L 4.109375 0 
L 4.109375 5.171875 
L 12.203125 5.171875 
L 12.203125 46.78125 
L 3.609375 46.78125 
L 3.609375 51.90625 
L 21.1875 51.90625 
L 21.1875 42.671875 
Q 23.6875 47.859375 27.53125 50.59375 
Q 31.390625 53.328125 36.28125 53.328125 
Q 42.328125 53.328125 46.375 50.3125 
Q 50.4375 47.3125 51.8125 41.796875 
z
" id="DejaVuSerif-109"/>
    </defs>
    <g transform="translate(213.099023 40.753027)scale(0.3 -0.3)">
     <use xlink:href="#DejaVuSerif-68"/>
     <use x="80.175781" xlink:href="#DejaVuSerif-101"/>
     <use x="139.355469" xlink:href="#DejaVuSerif-111"/>
     <use x="199.560547" xlink:href="#DejaVuSerif-120"/>
     <use x="255.957031" xlink:href="#DejaVuSerif-121"/>
     <use x="312.451172" xlink:href="#DejaVuSerif-115"/>
     <use x="363.769531" xlink:href="#DejaVuSerif-83"/>
     <use x="432.275391" xlink:href="#DejaVuSerif-112"/>
     <use x="496.289062" xlink:href="#DejaVuSerif-101"/>
     <use x="555.46875" xlink:href="#DejaVuSerif-101"/>
     <use x="614.648438" xlink:href="#DejaVuSerif-100"/>
     <use x="678.662109" xlink:href="#DejaVuSerif-70"/>
     <use x="747.96875" xlink:href="#DejaVuSerif-111"/>
     <use x="808.173828" xlink:href="#DejaVuSerif-114"/>
     <use x="855.976562" xlink:href="#DejaVuSerif-109"/>
     <use x="950.800781" xlink:href="#DejaVuSerif-101"/>
    </g>
   </g>
  </g>
 </g>
 <defs>
  <clipPath id="p27f7be8937">
   <path d="M 674.344141 387.472656 
C 674.344141 346.7973 666.331982 306.517461 650.766198 268.938332 
C 635.200413 231.359203 612.383716 197.211604 583.621896 168.449783 
C 554.860076 139.687963 520.712477 116.871267 483.133348 101.305482 
C 445.554219 85.739697 405.27438 77.727539 364.599023 77.727539 
C 323.923667 77.727539 283.643828 85.739697 246.064699 101.305482 
C 208.48557 116.871267 174.337971 139.687963 145.576151 168.449783 
C 116.814331 197.211604 93.997634 231.359203 78.431849 268.938332 
C 62.866064 306.517461 54.853906 346.7973 54.853906 387.472656 
C 54.853906 428.148012 62.866064 468.427852 78.431849 506.006981 
C 93.997634 543.58611 116.814331 577.733709 145.576151 606.495529 
C 174.337971 635.257349 208.48557 658.074045 246.064699 673.63983 
C 283.643828 689.205615 323.923667 697.217773 364.599023 697.217773 
C 405.27438 697.217773 445.554219 689.205615 483.133348 673.63983 
C 520.712477 658.074045 554.860076 635.257349 583.621896 606.495529 
C 612.383716 577.733709 635.200413 543.58611 650.766198 506.006981 
C 666.331982 468.427852 674.344141 428.148012 674.344141 387.472656 
M 364.599023 387.472656 
C 364.599023 387.472656 364.599023 387.472656 364.599023 387.472656 
C 364.599023 387.472656 364.599023 387.472656 364.599023 387.472656 
C 364.599023 387.472656 364.599023 387.472656 364.599023 387.472656 
C 364.599023 387.472656 364.599023 387.472656 364.599023 387.472656 
C 364.599023 387.472656 364.599023 387.472656 364.599023 387.472656 
C 364.599023 387.472656 364.599023 387.472656 364.599023 387.472656 
C 364.599023 387.472656 364.599023 387.472656 364.599023 387.472656 
C 364.599023 387.472656 364.599023 387.472656 364.599023 387.472656 
C 364.599023 387.472656 364.599023 387.472656 364.599023 387.472656 
C 364.599023 387.472656 364.599023 387.472656 364.599023 387.472656 
C 364.599023 387.472656 364.599023 387.472656 364.599023 387.472656 
C 364.599023 387.472656 364.599023 387.472656 364.599023 387.472656 
C 364.599023 387.472656 364.599023 387.472656 364.599023 387.472656 
C 364.599023 387.472656 364.599023 387.472656 364.599023 387.472656 
C 364.599023 387.472656 364.599023 387.472656 364.599023 387.472656 
C 364.599023 387.472656 364.599023 387.472656 364.599023 387.472656 
M 674.344141 387.472656 
z
"/>
  </clipPath>
 </defs>
</svg>
