<?xml version="1.0" encoding="utf-8" standalone="no"?>
<!DOCTYPE svg PUBLIC "-//W3C//DTD SVG 1.1//EN"
  "http://www.w3.org/Graphics/SVG/1.1/DTD/svg11.dtd">
<!-- Created with matplotlib (https://matplotlib.org/) -->
<svg height="720pt" version="1.1" viewBox="0 0 720 720" width="720pt" xmlns="http://www.w3.org/2000/svg" xmlns:xlink="http://www.w3.org/1999/xlink">
 <defs>
  <style type="text/css">
*{stroke-linecap:butt;stroke-linejoin:round;}
  </style>
 </defs>
 <g id="figure_1">
  <g id="patch_1">
   <path d="M 0 720 
L 720 720 
L 720 0 
L 0 0 
z
" style="fill:#ffffff;"/>
  </g>
  <g id="axes_1">
   <g id="patch_2">
    <path d="M 674.344141 387.472656 
C 674.344141 346.7973 666.331982 306.517461 650.766198 268.938332 
C 635.200413 231.359203 612.383716 197.211604 583.621896 168.449783 
C 554.860076 139.687963 520.712477 116.871267 483.133348 101.305482 
C 445.554219 85.739697 405.27438 77.727539 364.599023 77.727539 
C 323.923667 77.727539 283.643828 85.739697 246.064699 101.305482 
C 208.48557 116.871267 174.337971 139.687963 145.576151 168.449783 
C 116.814331 197.211604 93.997634 231.359203 78.431849 268.938332 
C 62.866064 306.517461 54.853906 346.7973 54.853906 387.472656 
C 54.853906 428.148012 62.866064 468.427852 78.431849 506.006981 
C 93.997634 543.58611 116.814331 577.733709 145.576151 606.495529 
C 174.337971 635.257349 208.48557 658.074045 246.064699 673.63983 
C 283.643828 689.205615 323.923667 697.217773 364.599023 697.217773 
C 405.27438 697.217773 445.554219 689.205615 483.133348 673.63983 
C 520.712477 658.074045 554.860076 635.257349 583.621896 606.495529 
C 612.383716 577.733709 635.200413 543.58611 650.766198 506.006981 
C 666.331982 468.427852 674.344141 428.148012 674.344141 387.472656 
M 364.599023 387.472656 
C 364.599023 387.472656 364.599023 387.472656 364.599023 387.472656 
C 364.599023 387.472656 364.599023 387.472656 364.599023 387.472656 
C 364.599023 387.472656 364.599023 387.472656 364.599023 387.472656 
C 364.599023 387.472656 364.599023 387.472656 364.599023 387.472656 
C 364.599023 387.472656 364.599023 387.472656 364.599023 387.472656 
C 364.599023 387.472656 364.599023 387.472656 364.599023 387.472656 
C 364.599023 387.472656 364.599023 387.472656 364.599023 387.472656 
C 364.599023 387.472656 364.599023 387.472656 364.599023 387.472656 
C 364.599023 387.472656 364.599023 387.472656 364.599023 387.472656 
C 364.599023 387.472656 364.599023 387.472656 364.599023 387.472656 
C 364.599023 387.472656 364.599023 387.472656 364.599023 387.472656 
C 364.599023 387.472656 364.599023 387.472656 364.599023 387.472656 
C 364.599023 387.472656 364.599023 387.472656 364.599023 387.472656 
C 364.599023 387.472656 364.599023 387.472656 364.599023 387.472656 
C 364.599023 387.472656 364.599023 387.472656 364.599023 387.472656 
C 364.599023 387.472656 364.599023 387.472656 364.599023 387.472656 
M 674.344141 387.472656 
z
" style="fill:#ffffff;"/>
   </g>
   <g id="patch_3">
    <path clip-path="url(#p4681a2adce)" d="M 666.068508 387.472656 
L 432.577437 269.730591 
L 216.819864 131.511645 
L 216.819864 387.472656 
L 216.819864 643.433668 
L 441.444186 520.572382 
z
" style="fill:#495188;stroke:#495188;stroke-linejoin:miter;"/>
   </g>
   <g id="matplotlib.axis_1">
    <g id="xtick_1">
     <g id="line2d_1">
      <path clip-path="url(#p4681a2adce)" d="M 364.599023 387.472656 
L 674.344141 387.472656 
" style="fill:none;stroke:#b0b0b0;stroke-linecap:square;stroke-width:0.8;"/>
     </g>
     <g id="text_1">
      <!-- Vida -->
      <defs>
       <path d="M 17.484375 67.671875 
L 39.015625 11.71875 
L 60.5 67.671875 
L 52.296875 67.671875 
L 52.296875 72.90625 
L 73.6875 72.90625 
L 73.6875 67.671875 
L 66.609375 67.671875 
L 40.578125 0 
L 32.171875 0 
L 6.296875 67.671875 
L -0.984375 67.671875 
L -0.984375 72.90625 
L 25.59375 72.90625 
L 25.59375 67.671875 
z
" id="DejaVuSerif-86"/>
       <path d="M 9.71875 68.015625 
Q 9.71875 70.265625 11.34375 71.921875 
Q 12.984375 73.578125 15.28125 73.578125 
Q 17.53125 73.578125 19.15625 71.921875 
Q 20.796875 70.265625 20.796875 68.015625 
Q 20.796875 65.71875 19.1875 64.109375 
Q 17.578125 62.5 15.28125 62.5 
Q 12.984375 62.5 11.34375 64.109375 
Q 9.71875 65.71875 9.71875 68.015625 
z
M 21.1875 5.171875 
L 29.6875 5.171875 
L 29.6875 0 
L 3.609375 0 
L 3.609375 5.171875 
L 12.203125 5.171875 
L 12.203125 46.6875 
L 3.609375 46.6875 
L 3.609375 51.90625 
L 21.1875 51.90625 
z
" id="DejaVuSerif-105"/>
       <path d="M 52.484375 5.171875 
L 61.078125 5.171875 
L 61.078125 0 
L 43.5 0 
L 43.5 8.109375 
Q 40.875 3.21875 36.796875 0.890625 
Q 32.71875 -1.421875 26.703125 -1.421875 
Q 17.140625 -1.421875 11.0625 6.171875 
Q 4.984375 13.765625 4.984375 25.984375 
Q 4.984375 38.1875 11.03125 45.75 
Q 17.09375 53.328125 26.703125 53.328125 
Q 32.71875 53.328125 36.796875 51 
Q 40.875 48.6875 43.5 43.796875 
L 43.5 70.796875 
L 35.015625 70.796875 
L 35.015625 75.984375 
L 52.484375 75.984375 
z
M 43.5 23.390625 
L 43.5 28.515625 
Q 43.5 37.84375 39.90625 42.765625 
Q 36.328125 47.703125 29.5 47.703125 
Q 22.5625 47.703125 19.015625 42.234375 
Q 15.484375 36.765625 15.484375 25.984375 
Q 15.484375 15.234375 19.015625 9.71875 
Q 22.5625 4.203125 29.5 4.203125 
Q 36.328125 4.203125 39.90625 9.109375 
Q 43.5 14.015625 43.5 23.390625 
z
" id="DejaVuSerif-100"/>
       <path d="M 39.796875 16.3125 
L 39.796875 27.296875 
L 28.21875 27.296875 
Q 21.53125 27.296875 18.25 24.40625 
Q 14.984375 21.53125 14.984375 15.578125 
Q 14.984375 10.15625 18.296875 6.984375 
Q 21.625 3.8125 27.296875 3.8125 
Q 32.90625 3.8125 36.34375 7.28125 
Q 39.796875 10.75 39.796875 16.3125 
z
M 48.78125 32.421875 
L 48.78125 5.171875 
L 56.78125 5.171875 
L 56.78125 0 
L 39.796875 0 
L 39.796875 5.609375 
Q 36.8125 2 32.90625 0.28125 
Q 29 -1.421875 23.78125 -1.421875 
Q 15.140625 -1.421875 10.0625 3.171875 
Q 4.984375 7.765625 4.984375 15.578125 
Q 4.984375 23.640625 10.796875 28.078125 
Q 16.609375 32.515625 27.203125 32.515625 
L 39.796875 32.515625 
L 39.796875 36.078125 
Q 39.796875 42 36.203125 45.234375 
Q 32.625 48.484375 26.125 48.484375 
Q 20.75 48.484375 17.578125 46.046875 
Q 14.40625 43.609375 13.625 38.8125 
L 8.984375 38.8125 
L 8.984375 49.3125 
Q 13.671875 51.3125 18.09375 52.3125 
Q 22.515625 53.328125 26.703125 53.328125 
Q 37.5 53.328125 43.140625 47.96875 
Q 48.78125 42.625 48.78125 32.421875 
z
" id="DejaVuSerif-97"/>
      </defs>
      <g transform="translate(677.757031 391.611719)scale(0.15 -0.15)">
       <use xlink:href="#DejaVuSerif-86"/>
       <use x="72.201172" xlink:href="#DejaVuSerif-105"/>
       <use x="104.183594" xlink:href="#DejaVuSerif-100"/>
       <use x="168.197266" xlink:href="#DejaVuSerif-97"/>
      </g>
     </g>
    </g>
    <g id="xtick_2">
     <g id="line2d_2">
      <path clip-path="url(#p4681a2adce)" d="M 364.599023 387.472656 
L 519.471582 119.225516 
" style="fill:none;stroke:#b0b0b0;stroke-linecap:square;stroke-width:0.8;"/>
     </g>
     <g id="text_2">
      <!-- Ataque -->
      <defs>
       <path d="M 20.015625 26.421875 
L 46.78125 26.421875 
L 33.40625 61.078125 
z
M -0.59375 0 
L -0.59375 5.171875 
L 5.8125 5.171875 
L 31.78125 72.90625 
L 39.984375 72.90625 
L 66.015625 5.171875 
L 73.1875 5.171875 
L 73.1875 0 
L 46.6875 0 
L 46.6875 5.171875 
L 54.78125 5.171875 
L 48.6875 21.1875 
L 18.015625 21.1875 
L 11.921875 5.171875 
L 19.921875 5.171875 
L 19.921875 0 
z
" id="DejaVuSerif-65"/>
       <path d="M 10.796875 46.6875 
L 2.875 46.6875 
L 2.875 51.90625 
L 10.796875 51.90625 
L 10.796875 68.015625 
L 19.828125 68.015625 
L 19.828125 51.90625 
L 36.71875 51.90625 
L 36.71875 46.6875 
L 19.828125 46.6875 
L 19.828125 13.71875 
Q 19.828125 7.125 21.09375 5.265625 
Q 22.359375 3.421875 25.78125 3.421875 
Q 29.296875 3.421875 30.90625 5.484375 
Q 32.515625 7.5625 32.625 12.203125 
L 39.40625 12.203125 
Q 39.015625 5.125 35.546875 1.84375 
Q 32.078125 -1.421875 25 -1.421875 
Q 17.234375 -1.421875 14.015625 2.015625 
Q 10.796875 5.46875 10.796875 13.71875 
z
" id="DejaVuSerif-116"/>
       <path d="M 52.484375 46.6875 
L 52.484375 -15.578125 
L 61.078125 -15.578125 
L 61.078125 -20.796875 
L 35.015625 -20.796875 
L 35.015625 -15.578125 
L 43.5 -15.578125 
L 43.5 8.109375 
Q 40.875 3.21875 36.796875 0.890625 
Q 32.71875 -1.421875 26.703125 -1.421875 
Q 17.140625 -1.421875 11.0625 6.171875 
Q 4.984375 13.765625 4.984375 25.984375 
Q 4.984375 38.1875 11.03125 45.75 
Q 17.09375 53.328125 26.703125 53.328125 
Q 32.71875 53.328125 36.796875 51 
Q 40.875 48.6875 43.5 43.796875 
L 43.5 51.90625 
L 61.078125 51.90625 
L 61.078125 46.6875 
z
M 43.5 28.515625 
Q 43.5 37.84375 39.90625 42.765625 
Q 36.328125 47.703125 29.5 47.703125 
Q 22.5625 47.703125 19.015625 42.234375 
Q 15.484375 36.765625 15.484375 25.984375 
Q 15.484375 15.234375 19.015625 9.71875 
Q 22.5625 4.203125 29.5 4.203125 
Q 36.328125 4.203125 39.90625 9.109375 
Q 43.5 14.015625 43.5 23.390625 
z
" id="DejaVuSerif-113"/>
       <path d="M 35.40625 51.90625 
L 52.203125 51.90625 
L 52.203125 5.171875 
L 60.6875 5.171875 
L 60.6875 0 
L 43.21875 0 
L 43.21875 9.1875 
Q 40.71875 4 36.765625 1.28125 
Q 32.8125 -1.421875 27.59375 -1.421875 
Q 18.953125 -1.421875 14.875 3.484375 
Q 10.796875 8.40625 10.796875 18.890625 
L 10.796875 46.6875 
L 2.6875 46.6875 
L 2.6875 51.90625 
L 19.828125 51.90625 
L 19.828125 21.6875 
Q 19.828125 12.203125 22.140625 8.6875 
Q 24.46875 5.171875 30.421875 5.171875 
Q 36.671875 5.171875 39.9375 9.765625 
Q 43.21875 14.359375 43.21875 23.09375 
L 43.21875 46.6875 
L 35.40625 46.6875 
z
" id="DejaVuSerif-117"/>
       <path d="M 54.203125 25 
L 15.484375 25 
L 15.484375 24.609375 
Q 15.484375 14.109375 19.4375 8.765625 
Q 23.390625 3.421875 31.109375 3.421875 
Q 37.015625 3.421875 40.796875 6.515625 
Q 44.578125 9.625 46.09375 15.71875 
L 53.328125 15.71875 
Q 51.171875 7.171875 45.375 2.875 
Q 39.59375 -1.421875 30.171875 -1.421875 
Q 18.796875 -1.421875 11.890625 6.078125 
Q 4.984375 13.578125 4.984375 25.984375 
Q 4.984375 38.28125 11.765625 45.796875 
Q 18.5625 53.328125 29.59375 53.328125 
Q 41.359375 53.328125 47.65625 46.0625 
Q 53.953125 38.8125 54.203125 25 
z
M 43.609375 30.171875 
Q 43.3125 39.265625 39.765625 43.875 
Q 36.234375 48.484375 29.59375 48.484375 
Q 23.390625 48.484375 19.828125 43.84375 
Q 16.265625 39.203125 15.484375 30.171875 
z
" id="DejaVuSerif-101"/>
      </defs>
      <g transform="translate(502.749707 105.611058)scale(0.15 -0.15)">
       <use xlink:href="#DejaVuSerif-65"/>
       <use x="72.201172" xlink:href="#DejaVuSerif-116"/>
       <use x="112.386719" xlink:href="#DejaVuSerif-97"/>
       <use x="172.005859" xlink:href="#DejaVuSerif-113"/>
       <use x="236.019531" xlink:href="#DejaVuSerif-117"/>
       <use x="300.423828" xlink:href="#DejaVuSerif-101"/>
      </g>
     </g>
    </g>
    <g id="xtick_3">
     <g id="line2d_3">
      <path clip-path="url(#p4681a2adce)" d="M 364.599023 387.472656 
L 209.726465 119.225516 
" style="fill:none;stroke:#b0b0b0;stroke-linecap:square;stroke-width:0.8;"/>
     </g>
     <g id="text_3">
      <!-- Defensa -->
      <defs>
       <path d="M 24.703125 5.171875 
L 33.796875 5.171875 
Q 48 5.171875 55.59375 13.28125 
Q 63.1875 21.390625 63.1875 36.53125 
Q 63.1875 51.65625 55.609375 59.65625 
Q 48.046875 67.671875 33.796875 67.671875 
L 24.703125 67.671875 
z
M 5.515625 0 
L 5.515625 5.171875 
L 14.796875 5.171875 
L 14.796875 67.671875 
L 5.515625 67.671875 
L 5.515625 72.90625 
L 34.515625 72.90625 
Q 53.375 72.90625 63.890625 63.28125 
Q 74.421875 53.65625 74.421875 36.53125 
Q 74.421875 19.34375 63.875 9.671875 
Q 53.328125 0 34.515625 0 
z
" id="DejaVuSerif-68"/>
       <path d="M 43.015625 63.71875 
L 38.28125 63.71875 
Q 38.234375 67.390625 36.203125 69.28125 
Q 34.1875 71.1875 30.328125 71.1875 
Q 25.296875 71.1875 23.234375 68.421875 
Q 21.1875 65.671875 21.1875 58.59375 
L 21.1875 51.90625 
L 35.6875 51.90625 
L 35.6875 46.6875 
L 21.1875 46.6875 
L 21.1875 5.171875 
L 32.71875 5.171875 
L 32.71875 0 
L 3.609375 0 
L 3.609375 5.171875 
L 12.203125 5.171875 
L 12.203125 46.6875 
L 3.609375 46.6875 
L 3.609375 51.90625 
L 12.203125 51.90625 
L 12.203125 58.40625 
Q 12.203125 67.09375 16.71875 71.53125 
Q 21.234375 75.984375 29.984375 75.984375 
Q 33.25 75.984375 36.515625 75.390625 
Q 39.796875 74.8125 43.015625 73.578125 
z
" id="DejaVuSerif-102"/>
       <path d="M 4.109375 0 
L 4.109375 5.171875 
L 12.203125 5.171875 
L 12.203125 46.6875 
L 3.609375 46.6875 
L 3.609375 51.90625 
L 21.1875 51.90625 
L 21.1875 42.671875 
Q 23.6875 47.953125 27.65625 50.640625 
Q 31.640625 53.328125 36.921875 53.328125 
Q 45.515625 53.328125 49.5625 48.390625 
Q 53.609375 43.453125 53.609375 33.015625 
L 53.609375 5.171875 
L 61.625 5.171875 
L 61.625 0 
L 36.8125 0 
L 36.8125 5.171875 
L 44.578125 5.171875 
L 44.578125 30.171875 
Q 44.578125 39.703125 42.234375 43.234375 
Q 39.890625 46.78125 33.984375 46.78125 
Q 27.734375 46.78125 24.453125 42.203125 
Q 21.1875 37.640625 21.1875 28.90625 
L 21.1875 5.171875 
L 29 5.171875 
L 29 0 
z
" id="DejaVuSerif-110"/>
       <path d="M 5.609375 2.875 
L 5.609375 14.984375 
L 10.796875 14.984375 
Q 10.984375 9.1875 14.421875 6.296875 
Q 17.875 3.421875 24.609375 3.421875 
Q 30.671875 3.421875 33.84375 5.6875 
Q 37.015625 7.953125 37.015625 12.3125 
Q 37.015625 15.71875 34.6875 17.8125 
Q 32.375 19.921875 24.90625 22.3125 
L 18.40625 24.515625 
Q 11.71875 26.65625 8.71875 29.875 
Q 5.71875 33.109375 5.71875 38.09375 
Q 5.71875 45.21875 10.9375 49.265625 
Q 16.15625 53.328125 25.390625 53.328125 
Q 29.5 53.328125 34.03125 52.25 
Q 38.578125 51.171875 43.40625 49.125 
L 43.40625 37.796875 
L 38.234375 37.796875 
Q 38.03125 42.828125 34.703125 45.65625 
Q 31.390625 48.484375 25.6875 48.484375 
Q 20.015625 48.484375 17.109375 46.484375 
Q 14.203125 44.484375 14.203125 40.484375 
Q 14.203125 37.203125 16.40625 35.21875 
Q 18.609375 33.25 25.203125 31.203125 
L 32.328125 29 
Q 39.703125 26.703125 42.9375 23.265625 
Q 46.1875 19.828125 46.1875 14.40625 
Q 46.1875 7.03125 40.546875 2.796875 
Q 34.90625 -1.421875 25 -1.421875 
Q 19.96875 -1.421875 15.1875 -0.34375 
Q 10.40625 0.734375 5.609375 2.875 
z
" id="DejaVuSerif-115"/>
      </defs>
      <g transform="translate(168.658496 105.611058)scale(0.15 -0.15)">
       <use xlink:href="#DejaVuSerif-68"/>
       <use x="80.175781" xlink:href="#DejaVuSerif-101"/>
       <use x="139.355469" xlink:href="#DejaVuSerif-102"/>
       <use x="176.367188" xlink:href="#DejaVuSerif-101"/>
       <use x="235.546875" xlink:href="#DejaVuSerif-110"/>
       <use x="299.951172" xlink:href="#DejaVuSerif-115"/>
       <use x="351.269531" xlink:href="#DejaVuSerif-97"/>
      </g>
     </g>
    </g>
    <g id="xtick_4">
     <g id="line2d_4">
      <path clip-path="url(#p4681a2adce)" d="M 364.599023 387.472656 
L 54.853906 387.472656 
" style="fill:none;stroke:#b0b0b0;stroke-linecap:square;stroke-width:0.8;"/>
     </g>
     <g id="text_4">
      <!-- At esp. -->
      <defs>
       <path id="DejaVuSerif-32"/>
       <path d="M 20.515625 28.515625 
L 20.515625 23.390625 
Q 20.515625 14.015625 24.09375 9.109375 
Q 27.6875 4.203125 34.515625 4.203125 
Q 41.40625 4.203125 44.9375 9.71875 
Q 48.484375 15.234375 48.484375 25.984375 
Q 48.484375 36.765625 44.9375 42.234375 
Q 41.40625 47.703125 34.515625 47.703125 
Q 27.6875 47.703125 24.09375 42.765625 
Q 20.515625 37.84375 20.515625 28.515625 
z
M 11.53125 46.6875 
L 2.875 46.6875 
L 2.875 51.90625 
L 20.515625 51.90625 
L 20.515625 43.796875 
Q 23.140625 48.6875 27.21875 51 
Q 31.296875 53.328125 37.3125 53.328125 
Q 46.875 53.328125 52.921875 45.75 
Q 58.984375 38.1875 58.984375 25.984375 
Q 58.984375 13.765625 52.921875 6.171875 
Q 46.875 -1.421875 37.3125 -1.421875 
Q 31.296875 -1.421875 27.21875 0.890625 
Q 23.140625 3.21875 20.515625 8.109375 
L 20.515625 -15.578125 
L 29 -15.578125 
L 29 -20.796875 
L 2.875 -20.796875 
L 2.875 -15.578125 
L 11.53125 -15.578125 
z
" id="DejaVuSerif-112"/>
       <path d="M 9.421875 5.078125 
Q 9.421875 7.8125 11.28125 9.71875 
Q 13.140625 11.625 15.921875 11.625 
Q 18.609375 11.625 20.5 9.71875 
Q 22.40625 7.8125 22.40625 5.078125 
Q 22.40625 2.390625 20.5 0.484375 
Q 18.609375 -1.421875 15.921875 -1.421875 
Q 13.140625 -1.421875 11.28125 0.453125 
Q 9.421875 2.34375 9.421875 5.078125 
z
" id="DejaVuSerif-46"/>
      </defs>
      <g transform="translate(8.06875 391.611719)scale(0.15 -0.15)">
       <use xlink:href="#DejaVuSerif-65"/>
       <use x="72.201172" xlink:href="#DejaVuSerif-116"/>
       <use x="112.386719" xlink:href="#DejaVuSerif-32"/>
       <use x="144.173828" xlink:href="#DejaVuSerif-101"/>
       <use x="203.353516" xlink:href="#DejaVuSerif-115"/>
       <use x="254.671875" xlink:href="#DejaVuSerif-112"/>
       <use x="318.685547" xlink:href="#DejaVuSerif-46"/>
      </g>
     </g>
    </g>
    <g id="xtick_5">
     <g id="line2d_5">
      <path clip-path="url(#p4681a2adce)" d="M 364.599023 387.472656 
L 209.726465 655.719796 
" style="fill:none;stroke:#b0b0b0;stroke-linecap:square;stroke-width:0.8;"/>
     </g>
     <g id="text_5">
      <!-- Def esp. -->
      <g transform="translate(168.39248 677.61238)scale(0.15 -0.15)">
       <use xlink:href="#DejaVuSerif-68"/>
       <use x="80.175781" xlink:href="#DejaVuSerif-101"/>
       <use x="139.355469" xlink:href="#DejaVuSerif-102"/>
       <use x="176.367188" xlink:href="#DejaVuSerif-32"/>
       <use x="208.154297" xlink:href="#DejaVuSerif-101"/>
       <use x="267.333984" xlink:href="#DejaVuSerif-115"/>
       <use x="318.652344" xlink:href="#DejaVuSerif-112"/>
       <use x="382.666016" xlink:href="#DejaVuSerif-46"/>
      </g>
     </g>
    </g>
    <g id="xtick_6">
     <g id="line2d_6">
      <path clip-path="url(#p4681a2adce)" d="M 364.599023 387.472656 
L 519.471582 655.719796 
" style="fill:none;stroke:#b0b0b0;stroke-linecap:square;stroke-width:0.8;"/>
     </g>
     <g id="text_6">
      <!-- Velocidad -->
      <defs>
       <path d="M 20.515625 5.171875 
L 29 5.171875 
L 29 0 
L 2.875 0 
L 2.875 5.171875 
L 11.53125 5.171875 
L 11.53125 70.796875 
L 2.875 70.796875 
L 2.875 75.984375 
L 20.515625 75.984375 
z
" id="DejaVuSerif-108"/>
       <path d="M 30.078125 3.421875 
Q 37.3125 3.421875 40.984375 9.125 
Q 44.671875 14.84375 44.671875 25.984375 
Q 44.671875 37.109375 40.984375 42.796875 
Q 37.3125 48.484375 30.078125 48.484375 
Q 22.859375 48.484375 19.171875 42.796875 
Q 15.484375 37.109375 15.484375 25.984375 
Q 15.484375 14.84375 19.1875 9.125 
Q 22.90625 3.421875 30.078125 3.421875 
z
M 30.078125 -1.421875 
Q 18.75 -1.421875 11.859375 6.078125 
Q 4.984375 13.578125 4.984375 25.984375 
Q 4.984375 38.375 11.84375 45.84375 
Q 18.703125 53.328125 30.078125 53.328125 
Q 41.453125 53.328125 48.3125 45.84375 
Q 55.171875 38.375 55.171875 25.984375 
Q 55.171875 13.578125 48.3125 6.078125 
Q 41.453125 -1.421875 30.078125 -1.421875 
z
" id="DejaVuSerif-111"/>
       <path d="M 51.421875 15.578125 
Q 49.515625 7.28125 44.09375 2.921875 
Q 38.671875 -1.421875 30.078125 -1.421875 
Q 18.75 -1.421875 11.859375 6.078125 
Q 4.984375 13.578125 4.984375 25.984375 
Q 4.984375 38.421875 11.859375 45.875 
Q 18.75 53.328125 30.078125 53.328125 
Q 35.015625 53.328125 39.890625 52.171875 
Q 44.78125 51.03125 49.703125 48.6875 
L 49.703125 35.40625 
L 44.484375 35.40625 
Q 43.453125 42.234375 40.015625 45.359375 
Q 36.578125 48.484375 30.171875 48.484375 
Q 22.90625 48.484375 19.1875 42.84375 
Q 15.484375 37.203125 15.484375 25.984375 
Q 15.484375 14.75 19.171875 9.078125 
Q 22.859375 3.421875 30.171875 3.421875 
Q 35.984375 3.421875 39.453125 6.4375 
Q 42.921875 9.46875 44.1875 15.578125 
z
" id="DejaVuSerif-99"/>
      </defs>
      <g transform="translate(492.289551 677.61238)scale(0.15 -0.15)">
       <use xlink:href="#DejaVuSerif-86"/>
       <use x="72.076172" xlink:href="#DejaVuSerif-101"/>
       <use x="131.255859" xlink:href="#DejaVuSerif-108"/>
       <use x="163.238281" xlink:href="#DejaVuSerif-111"/>
       <use x="223.443359" xlink:href="#DejaVuSerif-99"/>
       <use x="279.449219" xlink:href="#DejaVuSerif-105"/>
       <use x="311.431641" xlink:href="#DejaVuSerif-100"/>
       <use x="375.445312" xlink:href="#DejaVuSerif-97"/>
       <use x="435.064453" xlink:href="#DejaVuSerif-100"/>
      </g>
     </g>
    </g>
   </g>
   <g id="matplotlib.axis_2">
    <g id="ytick_1">
     <g id="line2d_7">
      <path clip-path="url(#p4681a2adce)" d="M 666.068508 387.472656 
L 665.884861 376.951523 
L 665.334143 366.443208 
L 664.417026 355.960514 
L 663.134627 345.516213 
L 661.488509 335.12303 
L 659.480676 324.793626 
L 657.113576 314.540587 
L 654.390091 304.376405 
L 651.313541 294.313462 
L 647.887673 284.36402 
L 644.116662 274.5402 
L 640.005101 264.85397 
L 635.558001 255.317133 
L 630.780779 245.941306 
L 625.679255 236.737914 
L 620.259646 227.718169 
L 614.528553 218.89306 
L 608.49296 210.273339 
L 602.160219 201.869509 
L 595.538047 193.691807 
L 588.634511 185.750197 
L 581.458022 178.054356 
L 574.017324 170.613658 
L 566.321482 163.437169 
L 558.379873 156.533633 
L 550.202171 149.911461 
L 541.79834 143.57872 
L 533.17862 137.543127 
L 524.353511 131.812034 
L 515.333766 126.392424 
L 506.130373 121.290901 
L 496.754547 116.513679 
L 487.217709 112.066578 
L 477.53148 107.955018 
L 467.70766 104.184006 
L 457.758217 100.758139 
L 447.695275 97.681589 
L 437.531093 94.958104 
L 427.278054 92.591004 
L 416.94865 90.583171 
L 406.555466 88.937052 
L 396.111165 87.654653 
L 385.628472 86.737536 
L 375.120157 86.186819 
L 364.599023 86.003172 
L 354.07789 86.186819 
L 343.569575 86.737536 
L 333.086882 87.654653 
L 322.64258 88.937052 
L 312.249397 90.583171 
L 301.919993 92.591004 
L 291.666954 94.958104 
L 281.502772 97.681589 
L 271.43983 100.758139 
L 261.490387 104.184006 
L 251.666567 107.955018 
L 241.980337 112.066578 
L 232.4435 116.513679 
L 223.067674 121.290901 
L 213.864281 126.392424 
L 204.844536 131.812034 
L 196.019427 137.543127 
L 187.399707 143.57872 
L 178.995876 149.911461 
L 170.818174 156.533633 
L 162.876565 163.437169 
L 155.180723 170.613658 
L 147.740025 178.054356 
L 140.563536 185.750197 
L 133.66 193.691807 
L 127.037828 201.869509 
L 120.705087 210.273339 
L 114.669494 218.89306 
L 108.938401 227.718169 
L 103.518792 236.737914 
L 98.417268 245.941306 
L 93.640046 255.317133 
L 89.192945 264.85397 
L 85.081385 274.5402 
L 81.310374 284.36402 
L 77.884506 294.313462 
L 74.807956 304.376405 
L 72.084471 314.540587 
L 69.717371 324.793626 
L 67.709538 335.12303 
L 66.063419 345.516213 
L 64.781021 355.960514 
L 63.863904 366.443208 
L 63.313186 376.951523 
L 63.129539 387.472656 
L 63.313186 397.99379 
L 63.863904 408.502104 
L 64.781021 418.984798 
L 66.063419 429.429099 
L 67.709538 439.822283 
L 69.717371 450.151686 
L 72.084471 460.404725 
L 74.807956 470.568908 
L 77.884506 480.63185 
L 81.310374 490.581292 
L 85.081385 500.405113 
L 89.192945 510.091342 
L 93.640046 519.62818 
L 98.417268 529.004006 
L 103.518792 538.207398 
L 108.938401 547.227144 
L 114.669494 556.052252 
L 120.705087 564.671973 
L 127.037828 573.075804 
L 133.66 581.253505 
L 140.563536 589.195115 
L 147.740025 596.890957 
L 155.180723 604.331655 
L 162.876565 611.508144 
L 170.818174 618.411679 
L 178.995876 625.033852 
L 187.399707 631.366592 
L 196.019427 637.402186 
L 204.844536 643.133278 
L 213.864281 648.552888 
L 223.067674 653.654412 
L 232.4435 658.431634 
L 241.980337 662.878734 
L 251.666567 666.990295 
L 261.490387 670.761306 
L 271.43983 674.187174 
L 281.502772 677.263724 
L 291.666954 679.987208 
L 301.919993 682.354309 
L 312.249397 684.362142 
L 322.64258 686.00826 
L 333.086882 687.290659 
L 343.569575 688.207776 
L 354.07789 688.758493 
L 364.599023 688.942141 
L 375.120157 688.758493 
L 385.628472 688.207776 
L 396.111165 687.290659 
L 406.555466 686.00826 
L 416.94865 684.362142 
L 427.278054 682.354309 
L 437.531093 679.987208 
L 447.695275 677.263724 
L 457.758217 674.187174 
L 467.70766 670.761306 
L 477.53148 666.990295 
L 487.217709 662.878734 
L 496.754547 658.431634 
L 506.130373 653.654412 
L 515.333766 648.552888 
L 524.353511 643.133278 
L 533.17862 637.402186 
L 541.79834 631.366592 
L 550.202171 625.033852 
L 558.379873 618.411679 
L 566.321482 611.508144 
L 574.017324 604.331655 
L 581.458022 596.890957 
L 588.634511 589.195115 
L 595.538047 581.253505 
L 602.160219 573.075804 
L 608.49296 564.671973 
L 614.528553 556.052252 
L 620.259646 547.227144 
L 625.679255 538.207398 
L 630.780779 529.004006 
L 635.558001 519.62818 
L 640.005101 510.091342 
L 644.116662 500.405113 
L 647.887673 490.581292 
L 651.313541 480.63185 
L 654.390091 470.568908 
L 657.113576 460.404725 
L 659.480676 450.151686 
L 661.488509 439.822283 
L 663.134627 429.429099 
L 664.417026 418.984798 
L 665.334143 408.502104 
L 665.884861 397.99379 
L 666.068508 387.472656 
L 666.068508 387.472656 
" style="fill:none;stroke:#b0b0b0;stroke-linecap:square;stroke-width:0.8;"/>
     </g>
     <g id="text_7">
      <!-- 255 -->
      <defs>
       <path d="M 12.796875 55.515625 
L 7.328125 55.515625 
L 7.328125 68.5 
Q 12.546875 71.296875 17.84375 72.75 
Q 23.140625 74.21875 28.21875 74.21875 
Q 39.59375 74.21875 46.1875 68.703125 
Q 52.78125 63.1875 52.78125 53.71875 
Q 52.78125 43.015625 37.84375 28.125 
Q 36.671875 27 36.078125 26.421875 
L 17.671875 8.015625 
L 48.09375 8.015625 
L 48.09375 17 
L 53.8125 17 
L 53.8125 0 
L 6.78125 0 
L 6.78125 5.328125 
L 28.90625 27.390625 
Q 36.234375 34.71875 39.359375 40.84375 
Q 42.484375 46.96875 42.484375 53.71875 
Q 42.484375 61.078125 38.640625 65.234375 
Q 34.8125 69.390625 28.078125 69.390625 
Q 21.09375 69.390625 17.28125 65.921875 
Q 13.484375 62.453125 12.796875 55.515625 
z
" id="DejaVuSerif-50"/>
       <path d="M 50.296875 72.90625 
L 50.296875 64.890625 
L 16.890625 64.890625 
L 16.890625 44 
Q 19.4375 45.75 22.828125 46.625 
Q 26.21875 47.515625 30.421875 47.515625 
Q 42.234375 47.515625 49.0625 40.96875 
Q 55.90625 34.421875 55.90625 23.09375 
Q 55.90625 11.53125 49 5.046875 
Q 42.09375 -1.421875 29.59375 -1.421875 
Q 24.5625 -1.421875 19.28125 -0.1875 
Q 14.015625 1.03125 8.5 3.515625 
L 8.5 17.671875 
L 14.015625 17.671875 
Q 14.453125 10.75 18.421875 7.078125 
Q 22.40625 3.421875 29.59375 3.421875 
Q 37.3125 3.421875 41.453125 8.5 
Q 45.609375 13.578125 45.609375 23.09375 
Q 45.609375 32.5625 41.484375 37.609375 
Q 37.359375 42.671875 29.59375 42.671875 
Q 25.203125 42.671875 21.84375 41.109375 
Q 18.5 39.546875 15.921875 36.28125 
L 11.71875 36.28125 
L 11.71875 72.90625 
z
" id="DejaVuSerif-53"/>
      </defs>
      <g transform="translate(643.12051 270.025592)scale(0.1 -0.1)">
       <use xlink:href="#DejaVuSerif-50"/>
       <use x="63.623047" xlink:href="#DejaVuSerif-53"/>
       <use x="127.246094" xlink:href="#DejaVuSerif-53"/>
      </g>
     </g>
    </g>
    <g id="ytick_2">
     <g id="line2d_8">
      <path clip-path="url(#p4681a2adce)" d="M 500.55585 387.472656 
L 500.473028 382.727831 
L 500.224666 377.988787 
L 499.811064 373.261298 
L 499.232727 368.551123 
L 498.49036 363.864001 
L 497.584867 359.205643 
L 496.517351 354.581723 
L 495.289113 349.997876 
L 493.901649 345.459686 
L 492.35665 340.972683 
L 490.655998 336.542333 
L 488.801764 332.174033 
L 486.796209 327.873106 
L 484.641776 323.644793 
L 482.341089 319.494243 
L 479.896951 315.426515 
L 477.312341 311.446564 
L 474.590406 307.559239 
L 471.734465 303.769276 
L 468.747995 300.081293 
L 465.634635 296.499783 
L 462.39818 293.029109 
L 459.042571 289.6735 
L 455.571897 286.437044 
L 451.990387 283.323685 
L 448.302404 280.337215 
L 444.512441 277.481273 
L 440.625116 274.759339 
L 436.645165 272.174729 
L 432.577437 269.730591 
L 428.426887 267.429904 
L 424.198573 265.27547 
L 419.897647 263.269915 
L 415.529347 261.415682 
L 411.098997 259.71503 
L 406.611993 258.170031 
L 402.073804 256.782567 
L 397.489957 255.554329 
L 392.866037 254.486813 
L 388.207679 253.58132 
L 383.520557 252.838952 
L 378.810382 252.260616 
L 374.082892 251.847014 
L 369.343848 251.598651 
L 364.599023 251.51583 
L 359.854199 251.598651 
L 355.115155 251.847014 
L 350.387665 252.260616 
L 345.67749 252.838952 
L 340.990368 253.58132 
L 336.33201 254.486813 
L 331.70809 255.554329 
L 327.124243 256.782567 
L 322.586054 258.170031 
L 318.09905 259.71503 
L 313.6687 261.415682 
L 309.3004 263.269915 
L 304.999474 265.27547 
L 300.77116 267.429904 
L 296.62061 269.730591 
L 292.552882 272.174729 
L 288.572931 274.759339 
L 284.685606 277.481273 
L 280.895643 280.337215 
L 277.20766 283.323685 
L 273.62615 286.437044 
L 270.155476 289.6735 
L 266.799867 293.029109 
L 263.563412 296.499783 
L 260.450052 300.081293 
L 257.463582 303.769276 
L 254.607641 307.559239 
L 251.885706 311.446564 
L 249.301096 315.426515 
L 246.856958 319.494243 
L 244.556271 323.644793 
L 242.401837 327.873106 
L 240.396282 332.174033 
L 238.542049 336.542333 
L 236.841397 340.972683 
L 235.296398 345.459686 
L 233.908934 349.997876 
L 232.680696 354.581723 
L 231.61318 359.205643 
L 230.707687 363.864001 
L 229.96532 368.551123 
L 229.386983 373.261298 
L 228.973381 377.988787 
L 228.725018 382.727831 
L 228.642197 387.472656 
L 228.725018 392.217481 
L 228.973381 396.956525 
L 229.386983 401.684014 
L 229.96532 406.394189 
L 230.707687 411.081311 
L 231.61318 415.73967 
L 232.680696 420.363589 
L 233.908934 424.947436 
L 235.296398 429.485626 
L 236.841397 433.972629 
L 238.542049 438.40298 
L 240.396282 442.771279 
L 242.401837 447.072206 
L 244.556271 451.30052 
L 246.856958 455.451069 
L 249.301096 459.518798 
L 251.885706 463.498749 
L 254.607641 467.386074 
L 257.463582 471.176036 
L 260.450052 474.86402 
L 263.563412 478.44553 
L 266.799867 481.916204 
L 270.155476 485.271812 
L 273.62615 488.508268 
L 277.20766 491.621628 
L 280.895643 494.608097 
L 284.685606 497.464039 
L 288.572931 500.185973 
L 292.552882 502.770584 
L 296.62061 505.214722 
L 300.77116 507.515409 
L 304.999474 509.669842 
L 309.3004 511.675397 
L 313.6687 513.52963 
L 318.09905 515.230283 
L 322.586054 516.775282 
L 327.124243 518.162746 
L 331.70809 519.390984 
L 336.33201 520.4585 
L 340.990368 521.363993 
L 345.67749 522.10636 
L 350.387665 522.684697 
L 355.115155 523.098299 
L 359.854199 523.346661 
L 364.599023 523.429482 
L 369.343848 523.346661 
L 374.082892 523.098299 
L 378.810382 522.684697 
L 383.520557 522.10636 
L 388.207679 521.363993 
L 392.866037 520.4585 
L 397.489957 519.390984 
L 402.073804 518.162746 
L 406.611993 516.775282 
L 411.098997 515.230283 
L 415.529347 513.52963 
L 419.897647 511.675397 
L 424.198573 509.669842 
L 428.426887 507.515409 
L 432.577437 505.214722 
L 436.645165 502.770584 
L 440.625116 500.185973 
L 444.512441 497.464039 
L 448.302404 494.608097 
L 451.990387 491.621628 
L 455.571897 488.508268 
L 459.042571 485.271812 
L 462.39818 481.916204 
L 465.634635 478.44553 
L 468.747995 474.86402 
L 471.734465 471.176036 
L 474.590406 467.386074 
L 477.312341 463.498749 
L 479.896951 459.518798 
L 482.341089 455.451069 
L 484.641776 451.30052 
L 486.796209 447.072206 
L 488.801764 442.771279 
L 490.655998 438.40298 
L 492.35665 433.972629 
L 493.901649 429.485626 
L 495.289113 424.947436 
L 496.517351 420.363589 
L 497.584867 415.73967 
L 498.49036 411.081311 
L 499.232727 406.394189 
L 499.811064 401.684014 
L 500.224666 396.956525 
L 500.473028 392.217481 
L 500.55585 387.472656 
L 500.55585 387.472656 
" style="fill:none;stroke:#b0b0b0;stroke-linecap:square;stroke-width:0.8;"/>
     </g>
     <g id="text_8">
      <!-- 115 -->
      <defs>
       <path d="M 14.203125 0 
L 14.203125 5.171875 
L 26.90625 5.171875 
L 26.90625 65.828125 
L 12.203125 56.296875 
L 12.203125 62.703125 
L 29.984375 74.21875 
L 36.71875 74.21875 
L 36.71875 5.171875 
L 49.421875 5.171875 
L 49.421875 0 
z
" id="DejaVuSerif-49"/>
      </defs>
      <g transform="translate(490.206753 333.364544)scale(0.1 -0.1)">
       <use xlink:href="#DejaVuSerif-49"/>
       <use x="63.623047" xlink:href="#DejaVuSerif-49"/>
       <use x="127.246094" xlink:href="#DejaVuSerif-53"/>
      </g>
     </g>
    </g>
    <g id="ytick_3">
     <g id="line2d_9">
      <path clip-path="url(#p4681a2adce)" d="M 660.157341 387.472656 
L 659.977295 377.15782 
L 659.437376 366.85555 
L 658.538242 356.578399 
L 657.280988 346.338889 
L 655.667146 336.149493 
L 653.698683 326.022627 
L 651.377996 315.970628 
L 648.707913 306.005743 
L 645.691688 296.140113 
L 642.332994 286.385758 
L 638.635924 276.754562 
L 634.604982 267.258258 
L 630.24508 257.908417 
L 625.561529 248.716431 
L 620.560035 239.693497 
L 615.246692 230.85061 
L 609.627974 222.198542 
L 603.710725 213.747836 
L 597.502156 205.508786 
L 591.009831 197.491432 
L 584.241658 189.70554 
L 577.205885 182.160597 
L 569.911083 174.865795 
L 562.36614 167.830022 
L 554.580248 161.061849 
L 546.562893 154.569523 
L 538.323844 148.360954 
L 529.873137 142.443706 
L 521.22107 136.824987 
L 512.378182 131.511645 
L 503.355249 126.510151 
L 494.163262 121.8266 
L 484.813422 117.466697 
L 475.317118 113.435756 
L 465.685922 109.738686 
L 455.931567 106.379992 
L 446.065937 103.363766 
L 436.101052 100.693684 
L 426.049053 98.372997 
L 415.922187 96.404533 
L 405.732791 94.790692 
L 395.49328 93.533438 
L 385.216129 92.634304 
L 374.91386 92.094384 
L 364.599023 91.914338 
L 354.284187 92.094384 
L 343.981917 92.634304 
L 333.704767 93.533438 
L 323.465256 94.790692 
L 313.27586 96.404533 
L 303.148994 98.372997 
L 293.096995 100.693684 
L 283.13211 103.363766 
L 273.26648 106.379992 
L 263.512125 109.738686 
L 253.880929 113.435756 
L 244.384625 117.466697 
L 235.034785 121.8266 
L 225.842798 126.510151 
L 216.819864 131.511645 
L 207.976977 136.824987 
L 199.324909 142.443706 
L 190.874203 148.360954 
L 182.635153 154.569523 
L 174.617799 161.061849 
L 166.831907 167.830022 
L 159.286964 174.865795 
L 151.992162 182.160597 
L 144.956389 189.70554 
L 138.188216 197.491432 
L 131.695891 205.508786 
L 125.487321 213.747836 
L 119.570073 222.198542 
L 113.951355 230.85061 
L 108.638012 239.693497 
L 103.636518 248.716431 
L 98.952967 257.908417 
L 94.593065 267.258258 
L 90.562123 276.754562 
L 86.865053 286.385758 
L 83.506359 296.140113 
L 80.490133 306.005743 
L 77.820051 315.970628 
L 75.499364 326.022627 
L 73.5309 336.149493 
L 71.917059 346.338889 
L 70.659805 356.578399 
L 69.760671 366.85555 
L 69.220752 377.15782 
L 69.040706 387.472656 
L 69.220752 397.787493 
L 69.760671 408.089762 
L 70.659805 418.366913 
L 71.917059 428.606424 
L 73.5309 438.79582 
L 75.499364 448.922686 
L 77.820051 458.974685 
L 80.490133 468.939569 
L 83.506359 478.805199 
L 86.865053 488.559555 
L 90.562123 498.190751 
L 94.593065 507.687054 
L 98.952967 517.036895 
L 103.636518 526.228882 
L 108.638012 535.251815 
L 113.951355 544.094703 
L 119.570073 552.74677 
L 125.487321 561.197477 
L 131.695891 569.436526 
L 138.188216 577.453881 
L 144.956389 585.239773 
L 151.992162 592.784716 
L 159.286964 600.079518 
L 166.831907 607.115291 
L 174.617799 613.883463 
L 182.635153 620.375789 
L 190.874203 626.584358 
L 199.324909 632.501607 
L 207.976977 638.120325 
L 216.819864 643.433668 
L 225.842798 648.435162 
L 235.034785 653.118713 
L 244.384625 657.478615 
L 253.880929 661.509557 
L 263.512125 665.206627 
L 273.26648 668.56532 
L 283.13211 671.581546 
L 293.096995 674.251629 
L 303.148994 676.572316 
L 313.27586 678.540779 
L 323.465256 680.154621 
L 333.704767 681.411875 
L 343.981917 682.311009 
L 354.284187 682.850928 
L 364.599023 683.030974 
L 374.91386 682.850928 
L 385.216129 682.311009 
L 395.49328 681.411875 
L 405.732791 680.154621 
L 415.922187 678.540779 
L 426.049053 676.572316 
L 436.101052 674.251629 
L 446.065937 671.581546 
L 455.931567 668.56532 
L 465.685922 665.206627 
L 475.317118 661.509557 
L 484.813422 657.478615 
L 494.163262 653.118713 
L 503.355249 648.435162 
L 512.378182 643.433668 
L 521.22107 638.120325 
L 529.873137 632.501607 
L 538.323844 626.584358 
L 546.562893 620.375789 
L 554.580248 613.883463 
L 562.36614 607.115291 
L 569.911083 600.079518 
L 577.205885 592.784716 
L 584.241658 585.239773 
L 591.009831 577.453881 
L 597.502156 569.436526 
L 603.710725 561.197477 
L 609.627974 552.74677 
L 615.246692 544.094703 
L 620.560035 535.251815 
L 625.561529 526.228882 
L 630.24508 517.036895 
L 634.604982 507.687054 
L 638.635924 498.190751 
L 642.332994 488.559555 
L 645.691688 478.805199 
L 648.707913 468.939569 
L 651.377996 458.974685 
L 653.698683 448.922686 
L 655.667146 438.79582 
L 657.280988 428.606424 
L 658.538242 418.366913 
L 659.437376 408.089762 
L 659.977295 397.787493 
L 660.157341 387.472656 
L 660.157341 387.472656 
" style="fill:none;stroke:#b0b0b0;stroke-linecap:square;stroke-width:0.8;"/>
     </g>
     <g id="text_9">
      <!-- 250 -->
      <defs>
       <path d="M 31.78125 3.421875 
Q 39.265625 3.421875 42.96875 11.625 
Q 46.6875 19.828125 46.6875 36.375 
Q 46.6875 52.984375 42.96875 61.1875 
Q 39.265625 69.390625 31.78125 69.390625 
Q 24.3125 69.390625 20.59375 61.1875 
Q 16.890625 52.984375 16.890625 36.375 
Q 16.890625 19.828125 20.59375 11.625 
Q 24.3125 3.421875 31.78125 3.421875 
z
M 31.78125 -1.421875 
Q 19.921875 -1.421875 13.25 8.53125 
Q 6.59375 18.5 6.59375 36.375 
Q 6.59375 54.296875 13.25 64.25 
Q 19.921875 74.21875 31.78125 74.21875 
Q 43.703125 74.21875 50.34375 64.25 
Q 56.984375 54.296875 56.984375 36.375 
Q 56.984375 18.5 50.34375 8.53125 
Q 43.703125 -1.421875 31.78125 -1.421875 
z
" id="DejaVuSerif-48"/>
      </defs>
      <g transform="translate(637.659304 272.287697)scale(0.1 -0.1)">
       <use xlink:href="#DejaVuSerif-50"/>
       <use x="63.623047" xlink:href="#DejaVuSerif-53"/>
       <use x="127.246094" xlink:href="#DejaVuSerif-48"/>
      </g>
     </g>
    </g>
    <g id="ytick_4">
     <g id="line2d_10">
      <path clip-path="url(#p4681a2adce)" d="M 512.378182 387.472656 
L 512.288159 382.315238 
L 512.0182 377.164103 
L 511.568633 372.025528 
L 510.940006 366.905772 
L 510.133085 361.811075 
L 509.148853 356.747641 
L 507.98851 351.721642 
L 506.653468 346.7392 
L 505.145356 341.806385 
L 503.466009 336.929207 
L 501.617474 332.113609 
L 499.602003 327.365457 
L 497.422052 322.690537 
L 495.080276 318.094544 
L 492.579529 313.583077 
L 489.922858 309.161633 
L 487.113499 304.835599 
L 484.154874 300.610246 
L 481.05059 296.490721 
L 477.804427 292.482044 
L 474.420341 288.589098 
L 470.902454 284.816626 
L 467.255053 281.169226 
L 463.482582 277.651339 
L 459.589636 274.267253 
L 455.580958 271.02109 
L 451.461434 267.916805 
L 447.23608 264.958181 
L 442.910047 262.148822 
L 438.488603 259.49215 
L 433.977136 256.991404 
L 429.381143 254.649628 
L 424.706222 252.469677 
L 419.958071 250.454206 
L 415.142473 248.605671 
L 410.265295 246.926324 
L 405.33248 245.418211 
L 400.350038 244.08317 
L 395.324038 242.922826 
L 390.260605 241.938595 
L 385.165907 241.131674 
L 380.046152 240.503047 
L 374.907576 240.05348 
L 369.756442 239.78352 
L 364.599023 239.693497 
L 359.441605 239.78352 
L 354.29047 240.05348 
L 349.151895 240.503047 
L 344.03214 241.131674 
L 338.937442 241.938595 
L 333.874009 242.922826 
L 328.848009 244.08317 
L 323.865567 245.418211 
L 318.932752 246.926324 
L 314.055574 248.605671 
L 309.239976 250.454206 
L 304.491824 252.469677 
L 299.816904 254.649628 
L 295.220911 256.991404 
L 290.709444 259.49215 
L 286.288 262.148822 
L 281.961966 264.958181 
L 277.736613 267.916805 
L 273.617088 271.02109 
L 269.608411 274.267253 
L 265.715465 277.651339 
L 261.942994 281.169226 
L 258.295593 284.816626 
L 254.777706 288.589098 
L 251.39362 292.482044 
L 248.147457 296.490721 
L 245.043172 300.610246 
L 242.084548 304.835599 
L 239.275189 309.161633 
L 236.618518 313.583077 
L 234.117771 318.094544 
L 231.775995 322.690537 
L 229.596044 327.365457 
L 227.580573 332.113609 
L 225.732038 336.929207 
L 224.052691 341.806385 
L 222.544578 346.7392 
L 221.209537 351.721642 
L 220.049194 356.747641 
L 219.064962 361.811075 
L 218.258041 366.905772 
L 217.629414 372.025528 
L 217.179847 377.164103 
L 216.909888 382.315238 
L 216.819864 387.472656 
L 216.909888 392.630075 
L 217.179847 397.781209 
L 217.629414 402.919785 
L 218.258041 408.03954 
L 219.064962 413.134238 
L 220.049194 418.197671 
L 221.209537 423.223671 
L 222.544578 428.206113 
L 224.052691 433.138928 
L 225.732038 438.016105 
L 227.580573 442.831704 
L 229.596044 447.579855 
L 231.775995 452.254776 
L 234.117771 456.850769 
L 236.618518 461.362236 
L 239.275189 465.783679 
L 242.084548 470.109713 
L 245.043172 474.335066 
L 248.147457 478.454591 
L 251.39362 482.463269 
L 254.777706 486.356214 
L 258.295593 490.128686 
L 261.942994 493.776087 
L 265.715465 497.293974 
L 269.608411 500.67806 
L 273.617088 503.924223 
L 277.736613 507.028507 
L 281.961966 509.987131 
L 286.288 512.796491 
L 290.709444 515.453162 
L 295.220911 517.953909 
L 299.816904 520.295684 
L 304.491824 522.475636 
L 309.239976 524.491106 
L 314.055574 526.339641 
L 318.932752 528.018988 
L 323.865567 529.527101 
L 328.848009 530.862143 
L 333.874009 532.022486 
L 338.937442 533.006718 
L 344.03214 533.813639 
L 349.151895 534.442266 
L 354.29047 534.891833 
L 359.441605 535.161792 
L 364.599023 535.251815 
L 369.756442 535.161792 
L 374.907576 534.891833 
L 380.046152 534.442266 
L 385.165907 533.813639 
L 390.260605 533.006718 
L 395.324038 532.022486 
L 400.350038 530.862143 
L 405.33248 529.527101 
L 410.265295 528.018988 
L 415.142473 526.339641 
L 419.958071 524.491106 
L 424.706222 522.475636 
L 429.381143 520.295684 
L 433.977136 517.953909 
L 438.488603 515.453162 
L 442.910047 512.796491 
L 447.23608 509.987131 
L 451.461434 507.028507 
L 455.580958 503.924223 
L 459.589636 500.67806 
L 463.482582 497.293974 
L 467.255053 493.776087 
L 470.902454 490.128686 
L 474.420341 486.356214 
L 477.804427 482.463269 
L 481.05059 478.454591 
L 484.154874 474.335066 
L 487.113499 470.109713 
L 489.922858 465.783679 
L 492.579529 461.362236 
L 495.080276 456.850769 
L 497.422052 452.254776 
L 499.602003 447.579855 
L 501.617474 442.831704 
L 503.466009 438.016105 
L 505.145356 433.138928 
L 506.653468 428.206113 
L 507.98851 423.223671 
L 509.148853 418.197671 
L 510.133085 413.134238 
L 510.940006 408.03954 
L 511.568633 402.919785 
L 512.0182 397.781209 
L 512.288159 392.630075 
L 512.378182 387.472656 
L 512.378182 387.472656 
" style="fill:none;stroke:#b0b0b0;stroke-linecap:square;stroke-width:0.8;"/>
     </g>
     <g id="text_10">
      <!-- 125 -->
      <g transform="translate(501.129164 328.840333)scale(0.1 -0.1)">
       <use xlink:href="#DejaVuSerif-49"/>
       <use x="63.623047" xlink:href="#DejaVuSerif-50"/>
       <use x="127.246094" xlink:href="#DejaVuSerif-53"/>
      </g>
     </g>
    </g>
    <g id="ytick_5">
     <g id="line2d_11">
      <path clip-path="url(#p4681a2adce)" d="M 660.157341 387.472656 
L 659.977295 377.15782 
L 659.437376 366.85555 
L 658.538242 356.578399 
L 657.280988 346.338889 
L 655.667146 336.149493 
L 653.698683 326.022627 
L 651.377996 315.970628 
L 648.707913 306.005743 
L 645.691688 296.140113 
L 642.332994 286.385758 
L 638.635924 276.754562 
L 634.604982 267.258258 
L 630.24508 257.908417 
L 625.561529 248.716431 
L 620.560035 239.693497 
L 615.246692 230.85061 
L 609.627974 222.198542 
L 603.710725 213.747836 
L 597.502156 205.508786 
L 591.009831 197.491432 
L 584.241658 189.70554 
L 577.205885 182.160597 
L 569.911083 174.865795 
L 562.36614 167.830022 
L 554.580248 161.061849 
L 546.562893 154.569523 
L 538.323844 148.360954 
L 529.873137 142.443706 
L 521.22107 136.824987 
L 512.378182 131.511645 
L 503.355249 126.510151 
L 494.163262 121.8266 
L 484.813422 117.466697 
L 475.317118 113.435756 
L 465.685922 109.738686 
L 455.931567 106.379992 
L 446.065937 103.363766 
L 436.101052 100.693684 
L 426.049053 98.372997 
L 415.922187 96.404533 
L 405.732791 94.790692 
L 395.49328 93.533438 
L 385.216129 92.634304 
L 374.91386 92.094384 
L 364.599023 91.914338 
L 354.284187 92.094384 
L 343.981917 92.634304 
L 333.704767 93.533438 
L 323.465256 94.790692 
L 313.27586 96.404533 
L 303.148994 98.372997 
L 293.096995 100.693684 
L 283.13211 103.363766 
L 273.26648 106.379992 
L 263.512125 109.738686 
L 253.880929 113.435756 
L 244.384625 117.466697 
L 235.034785 121.8266 
L 225.842798 126.510151 
L 216.819864 131.511645 
L 207.976977 136.824987 
L 199.324909 142.443706 
L 190.874203 148.360954 
L 182.635153 154.569523 
L 174.617799 161.061849 
L 166.831907 167.830022 
L 159.286964 174.865795 
L 151.992162 182.160597 
L 144.956389 189.70554 
L 138.188216 197.491432 
L 131.695891 205.508786 
L 125.487321 213.747836 
L 119.570073 222.198542 
L 113.951355 230.85061 
L 108.638012 239.693497 
L 103.636518 248.716431 
L 98.952967 257.908417 
L 94.593065 267.258258 
L 90.562123 276.754562 
L 86.865053 286.385758 
L 83.506359 296.140113 
L 80.490133 306.005743 
L 77.820051 315.970628 
L 75.499364 326.022627 
L 73.5309 336.149493 
L 71.917059 346.338889 
L 70.659805 356.578399 
L 69.760671 366.85555 
L 69.220752 377.15782 
L 69.040706 387.472656 
L 69.220752 397.787493 
L 69.760671 408.089762 
L 70.659805 418.366913 
L 71.917059 428.606424 
L 73.5309 438.79582 
L 75.499364 448.922686 
L 77.820051 458.974685 
L 80.490133 468.939569 
L 83.506359 478.805199 
L 86.865053 488.559555 
L 90.562123 498.190751 
L 94.593065 507.687054 
L 98.952967 517.036895 
L 103.636518 526.228882 
L 108.638012 535.251815 
L 113.951355 544.094703 
L 119.570073 552.74677 
L 125.487321 561.197477 
L 131.695891 569.436526 
L 138.188216 577.453881 
L 144.956389 585.239773 
L 151.992162 592.784716 
L 159.286964 600.079518 
L 166.831907 607.115291 
L 174.617799 613.883463 
L 182.635153 620.375789 
L 190.874203 626.584358 
L 199.324909 632.501607 
L 207.976977 638.120325 
L 216.819864 643.433668 
L 225.842798 648.435162 
L 235.034785 653.118713 
L 244.384625 657.478615 
L 253.880929 661.509557 
L 263.512125 665.206627 
L 273.26648 668.56532 
L 283.13211 671.581546 
L 293.096995 674.251629 
L 303.148994 676.572316 
L 313.27586 678.540779 
L 323.465256 680.154621 
L 333.704767 681.411875 
L 343.981917 682.311009 
L 354.284187 682.850928 
L 364.599023 683.030974 
L 374.91386 682.850928 
L 385.216129 682.311009 
L 395.49328 681.411875 
L 405.732791 680.154621 
L 415.922187 678.540779 
L 426.049053 676.572316 
L 436.101052 674.251629 
L 446.065937 671.581546 
L 455.931567 668.56532 
L 465.685922 665.206627 
L 475.317118 661.509557 
L 484.813422 657.478615 
L 494.163262 653.118713 
L 503.355249 648.435162 
L 512.378182 643.433668 
L 521.22107 638.120325 
L 529.873137 632.501607 
L 538.323844 626.584358 
L 546.562893 620.375789 
L 554.580248 613.883463 
L 562.36614 607.115291 
L 569.911083 600.079518 
L 577.205885 592.784716 
L 584.241658 585.239773 
L 591.009831 577.453881 
L 597.502156 569.436526 
L 603.710725 561.197477 
L 609.627974 552.74677 
L 615.246692 544.094703 
L 620.560035 535.251815 
L 625.561529 526.228882 
L 630.24508 517.036895 
L 634.604982 507.687054 
L 638.635924 498.190751 
L 642.332994 488.559555 
L 645.691688 478.805199 
L 648.707913 468.939569 
L 651.377996 458.974685 
L 653.698683 448.922686 
L 655.667146 438.79582 
L 657.280988 428.606424 
L 658.538242 418.366913 
L 659.437376 408.089762 
L 659.977295 397.787493 
L 660.157341 387.472656 
L 660.157341 387.472656 
" style="fill:none;stroke:#b0b0b0;stroke-linecap:square;stroke-width:0.8;"/>
     </g>
     <g id="text_11">
      <!-- 250 -->
      <g transform="translate(637.659304 272.287697)scale(0.1 -0.1)">
       <use xlink:href="#DejaVuSerif-50"/>
       <use x="63.623047" xlink:href="#DejaVuSerif-53"/>
       <use x="127.246094" xlink:href="#DejaVuSerif-48"/>
      </g>
     </g>
    </g>
    <g id="ytick_6">
     <g id="line2d_12">
      <path clip-path="url(#p4681a2adce)" d="M 518.289349 387.472656 
L 518.195725 382.108941 
L 517.914967 376.751761 
L 517.447417 371.407643 
L 516.793645 366.083097 
L 515.954447 360.784611 
L 514.930846 355.518641 
L 513.724089 350.291601 
L 512.335646 345.109861 
L 510.767209 339.979734 
L 509.020688 334.907469 
L 507.098212 329.899247 
L 505.002122 324.961169 
L 502.734973 320.099252 
L 500.299526 315.319419 
L 497.698749 310.627494 
L 494.935811 306.029192 
L 492.014078 301.530117 
L 488.937108 297.13575 
L 485.708653 292.851444 
L 482.332643 288.682419 
L 478.813193 284.633756 
L 475.154591 280.710385 
L 471.361294 276.917088 
L 467.437924 273.258486 
L 463.38926 269.739037 
L 459.220236 266.363027 
L 454.93593 263.134571 
L 450.541563 260.057602 
L 446.042488 257.135868 
L 441.444186 254.37293 
L 436.752261 251.772153 
L 431.972428 249.336707 
L 427.11051 247.069558 
L 422.172433 244.973468 
L 417.164211 243.050992 
L 412.091946 241.304471 
L 406.961818 239.736033 
L 401.780078 238.34759 
L 396.553039 237.140833 
L 391.287068 236.117232 
L 385.988583 235.278035 
L 380.664037 234.624263 
L 375.319919 234.156713 
L 369.962738 233.875955 
L 364.599023 233.782331 
L 359.235308 233.875955 
L 353.878128 234.156713 
L 348.53401 234.624263 
L 343.209464 235.278035 
L 337.910979 236.117232 
L 332.645008 237.140833 
L 327.417969 238.34759 
L 322.236229 239.736033 
L 317.106101 241.304471 
L 312.033836 243.050992 
L 307.025614 244.973468 
L 302.087536 247.069558 
L 297.225619 249.336707 
L 292.445786 251.772153 
L 287.753861 254.37293 
L 283.155559 257.135868 
L 278.656484 260.057602 
L 274.262117 263.134571 
L 269.977811 266.363027 
L 265.808787 269.739037 
L 261.760123 273.258486 
L 257.836752 276.917088 
L 254.043456 280.710385 
L 250.384853 284.633756 
L 246.865404 288.682419 
L 243.489394 292.851444 
L 240.260938 297.13575 
L 237.183969 301.530117 
L 234.262236 306.029192 
L 231.499297 310.627494 
L 228.898521 315.319419 
L 226.463074 320.099252 
L 224.195925 324.961169 
L 222.099835 329.899247 
L 220.177359 334.907469 
L 218.430838 339.979734 
L 216.862401 345.109861 
L 215.473958 350.291601 
L 214.2672 355.518641 
L 213.243599 360.784611 
L 212.404402 366.083097 
L 211.75063 371.407643 
L 211.28308 376.751761 
L 211.002322 382.108941 
L 210.908698 387.472656 
L 211.002322 392.836371 
L 211.28308 398.193551 
L 211.75063 403.53767 
L 212.404402 408.862215 
L 213.243599 414.160701 
L 214.2672 419.426672 
L 215.473958 424.653711 
L 216.862401 429.835451 
L 218.430838 434.965579 
L 220.177359 440.037843 
L 222.099835 445.046065 
L 224.195925 449.984143 
L 226.463074 454.84606 
L 228.898521 459.625893 
L 231.499297 464.317819 
L 234.262236 468.91612 
L 237.183969 473.415196 
L 240.260938 477.809563 
L 243.489394 482.093869 
L 246.865404 486.262893 
L 250.384853 490.311557 
L 254.043456 494.234927 
L 257.836752 498.028224 
L 261.760123 501.686826 
L 265.808787 505.206276 
L 269.977811 508.582285 
L 274.262117 511.810741 
L 278.656484 514.88771 
L 283.155559 517.809444 
L 287.753861 520.572382 
L 292.445786 523.173159 
L 297.225619 525.608606 
L 302.087536 527.875755 
L 307.025614 529.971844 
L 312.033836 531.894321 
L 317.106101 533.640842 
L 322.236229 535.209279 
L 327.417969 536.597722 
L 332.645008 537.804479 
L 337.910979 538.82808 
L 343.209464 539.667278 
L 348.53401 540.32105 
L 353.878128 540.7886 
L 359.235308 541.069358 
L 364.599023 541.162982 
L 369.962738 541.069358 
L 375.319919 540.7886 
L 380.664037 540.32105 
L 385.988583 539.667278 
L 391.287068 538.82808 
L 396.553039 537.804479 
L 401.780078 536.597722 
L 406.961818 535.209279 
L 412.091946 533.640842 
L 417.164211 531.894321 
L 422.172433 529.971844 
L 427.11051 527.875755 
L 431.972428 525.608606 
L 436.752261 523.173159 
L 441.444186 520.572382 
L 446.042488 517.809444 
L 450.541563 514.88771 
L 454.93593 511.810741 
L 459.220236 508.582285 
L 463.38926 505.206276 
L 467.437924 501.686826 
L 471.361294 498.028224 
L 475.154591 494.234927 
L 478.813193 490.311557 
L 482.332643 486.262893 
L 485.708653 482.093869 
L 488.937108 477.809563 
L 492.014078 473.415196 
L 494.935811 468.91612 
L 497.698749 464.317819 
L 500.299526 459.625893 
L 502.734973 454.84606 
L 505.002122 449.984143 
L 507.098212 445.046065 
L 509.020688 440.037843 
L 510.767209 434.965579 
L 512.335646 429.835451 
L 513.724089 424.653711 
L 514.930846 419.426672 
L 515.954447 414.160701 
L 516.793645 408.862215 
L 517.447417 403.53767 
L 517.914967 398.193551 
L 518.195725 392.836371 
L 518.289349 387.472656 
L 518.289349 387.472656 
" style="fill:none;stroke:#b0b0b0;stroke-linecap:square;stroke-width:0.8;"/>
     </g>
     <g id="text_12">
      <!-- 130 -->
      <defs>
       <path d="M 9.71875 69.828125 
Q 15.4375 71.96875 20.671875 73.09375 
Q 25.921875 74.21875 30.515625 74.21875 
Q 41.21875 74.21875 47.21875 69.59375 
Q 53.21875 64.984375 53.21875 56.78125 
Q 53.21875 50.203125 49.0625 45.78125 
Q 44.921875 41.359375 37.3125 39.796875 
Q 46.296875 38.53125 51.25 33.28125 
Q 56.203125 28.03125 56.203125 19.671875 
Q 56.203125 9.46875 49.34375 4.015625 
Q 42.484375 -1.421875 29.59375 -1.421875 
Q 23.875 -1.421875 18.421875 -0.1875 
Q 12.984375 1.03125 7.625 3.515625 
L 7.625 17.671875 
L 13.09375 17.671875 
Q 13.578125 10.640625 17.828125 7.03125 
Q 22.078125 3.421875 29.78125 3.421875 
Q 37.25 3.421875 41.578125 7.734375 
Q 45.90625 12.0625 45.90625 19.578125 
Q 45.90625 28.171875 41.453125 32.59375 
Q 37.015625 37.015625 28.421875 37.015625 
L 23.78125 37.015625 
L 23.78125 42 
L 26.21875 42 
Q 34.765625 42 39.03125 45.53125 
Q 43.3125 49.078125 43.3125 56.203125 
Q 43.3125 62.59375 39.796875 65.984375 
Q 36.28125 69.390625 29.6875 69.390625 
Q 23.09375 69.390625 19.453125 66.265625 
Q 15.828125 63.140625 15.1875 56.984375 
L 9.71875 56.984375 
z
" id="DejaVuSerif-51"/>
      </defs>
      <g transform="translate(506.590369 326.578228)scale(0.1 -0.1)">
       <use xlink:href="#DejaVuSerif-49"/>
       <use x="63.623047" xlink:href="#DejaVuSerif-51"/>
       <use x="127.246094" xlink:href="#DejaVuSerif-48"/>
      </g>
     </g>
    </g>
    <g id="ytick_7">
     <g id="line2d_13">
      <path clip-path="url(#p4681a2adce)" d="M 666.068508 387.472656 
L 665.884861 376.951523 
L 665.334143 366.443208 
L 664.417026 355.960514 
L 663.134627 345.516213 
L 661.488509 335.12303 
L 659.480676 324.793626 
L 657.113576 314.540587 
L 654.390091 304.376405 
L 651.313541 294.313462 
L 647.887673 284.36402 
L 644.116662 274.5402 
L 640.005101 264.85397 
L 635.558001 255.317133 
L 630.780779 245.941306 
L 625.679255 236.737914 
L 620.259646 227.718169 
L 614.528553 218.89306 
L 608.49296 210.273339 
L 602.160219 201.869509 
L 595.538047 193.691807 
L 588.634511 185.750197 
L 581.458022 178.054356 
L 574.017324 170.613658 
L 566.321482 163.437169 
L 558.379873 156.533633 
L 550.202171 149.911461 
L 541.79834 143.57872 
L 533.17862 137.543127 
L 524.353511 131.812034 
L 515.333766 126.392424 
L 506.130373 121.290901 
L 496.754547 116.513679 
L 487.217709 112.066578 
L 477.53148 107.955018 
L 467.70766 104.184006 
L 457.758217 100.758139 
L 447.695275 97.681589 
L 437.531093 94.958104 
L 427.278054 92.591004 
L 416.94865 90.583171 
L 406.555466 88.937052 
L 396.111165 87.654653 
L 385.628472 86.737536 
L 375.120157 86.186819 
L 364.599023 86.003172 
L 354.07789 86.186819 
L 343.569575 86.737536 
L 333.086882 87.654653 
L 322.64258 88.937052 
L 312.249397 90.583171 
L 301.919993 92.591004 
L 291.666954 94.958104 
L 281.502772 97.681589 
L 271.43983 100.758139 
L 261.490387 104.184006 
L 251.666567 107.955018 
L 241.980337 112.066578 
L 232.4435 116.513679 
L 223.067674 121.290901 
L 213.864281 126.392424 
L 204.844536 131.812034 
L 196.019427 137.543127 
L 187.399707 143.57872 
L 178.995876 149.911461 
L 170.818174 156.533633 
L 162.876565 163.437169 
L 155.180723 170.613658 
L 147.740025 178.054356 
L 140.563536 185.750197 
L 133.66 193.691807 
L 127.037828 201.869509 
L 120.705087 210.273339 
L 114.669494 218.89306 
L 108.938401 227.718169 
L 103.518792 236.737914 
L 98.417268 245.941306 
L 93.640046 255.317133 
L 89.192945 264.85397 
L 85.081385 274.5402 
L 81.310374 284.36402 
L 77.884506 294.313462 
L 74.807956 304.376405 
L 72.084471 314.540587 
L 69.717371 324.793626 
L 67.709538 335.12303 
L 66.063419 345.516213 
L 64.781021 355.960514 
L 63.863904 366.443208 
L 63.313186 376.951523 
L 63.129539 387.472656 
L 63.313186 397.99379 
L 63.863904 408.502104 
L 64.781021 418.984798 
L 66.063419 429.429099 
L 67.709538 439.822283 
L 69.717371 450.151686 
L 72.084471 460.404725 
L 74.807956 470.568908 
L 77.884506 480.63185 
L 81.310374 490.581292 
L 85.081385 500.405113 
L 89.192945 510.091342 
L 93.640046 519.62818 
L 98.417268 529.004006 
L 103.518792 538.207398 
L 108.938401 547.227144 
L 114.669494 556.052252 
L 120.705087 564.671973 
L 127.037828 573.075804 
L 133.66 581.253505 
L 140.563536 589.195115 
L 147.740025 596.890957 
L 155.180723 604.331655 
L 162.876565 611.508144 
L 170.818174 618.411679 
L 178.995876 625.033852 
L 187.399707 631.366592 
L 196.019427 637.402186 
L 204.844536 643.133278 
L 213.864281 648.552888 
L 223.067674 653.654412 
L 232.4435 658.431634 
L 241.980337 662.878734 
L 251.666567 666.990295 
L 261.490387 670.761306 
L 271.43983 674.187174 
L 281.502772 677.263724 
L 291.666954 679.987208 
L 301.919993 682.354309 
L 312.249397 684.362142 
L 322.64258 686.00826 
L 333.086882 687.290659 
L 343.569575 688.207776 
L 354.07789 688.758493 
L 364.599023 688.942141 
L 375.120157 688.758493 
L 385.628472 688.207776 
L 396.111165 687.290659 
L 406.555466 686.00826 
L 416.94865 684.362142 
L 427.278054 682.354309 
L 437.531093 679.987208 
L 447.695275 677.263724 
L 457.758217 674.187174 
L 467.70766 670.761306 
L 477.53148 666.990295 
L 487.217709 662.878734 
L 496.754547 658.431634 
L 506.130373 653.654412 
L 515.333766 648.552888 
L 524.353511 643.133278 
L 533.17862 637.402186 
L 541.79834 631.366592 
L 550.202171 625.033852 
L 558.379873 618.411679 
L 566.321482 611.508144 
L 574.017324 604.331655 
L 581.458022 596.890957 
L 588.634511 589.195115 
L 595.538047 581.253505 
L 602.160219 573.075804 
L 608.49296 564.671973 
L 614.528553 556.052252 
L 620.259646 547.227144 
L 625.679255 538.207398 
L 630.780779 529.004006 
L 635.558001 519.62818 
L 640.005101 510.091342 
L 644.116662 500.405113 
L 647.887673 490.581292 
L 651.313541 480.63185 
L 654.390091 470.568908 
L 657.113576 460.404725 
L 659.480676 450.151686 
L 661.488509 439.822283 
L 663.134627 429.429099 
L 664.417026 418.984798 
L 665.334143 408.502104 
L 665.884861 397.99379 
L 666.068508 387.472656 
L 666.068508 387.472656 
" style="fill:none;stroke:#b0b0b0;stroke-linecap:square;stroke-width:0.8;"/>
     </g>
     <g id="text_13">
      <!-- 255 -->
      <g transform="translate(643.12051 270.025592)scale(0.1 -0.1)">
       <use xlink:href="#DejaVuSerif-50"/>
       <use x="63.623047" xlink:href="#DejaVuSerif-53"/>
       <use x="127.246094" xlink:href="#DejaVuSerif-53"/>
      </g>
     </g>
    </g>
   </g>
   <g id="line2d_14">
    <path clip-path="url(#p4681a2adce)" d="M 666.068508 387.472656 
L 432.577437 269.730591 
L 216.819864 131.511645 
L 216.819864 387.472656 
L 216.819864 643.433668 
L 441.444186 520.572382 
L 666.068508 387.472656 
" style="fill:none;stroke:#e86597;stroke-linecap:square;stroke-width:4;"/>
   </g>
   <g id="patch_4">
    <path d="M 674.344141 387.472656 
C 674.344141 346.7973 666.331982 306.517461 650.766198 268.938332 
C 635.200413 231.359203 612.383716 197.211604 583.621896 168.449783 
C 554.860076 139.687963 520.712477 116.871267 483.133348 101.305482 
C 445.554219 85.739697 405.27438 77.727539 364.599023 77.727539 
C 323.923667 77.727539 283.643828 85.739697 246.064699 101.305482 
C 208.48557 116.871267 174.337971 139.687963 145.576151 168.449783 
C 116.814331 197.211604 93.997634 231.359203 78.431849 268.938332 
C 62.866064 306.517461 54.853906 346.7973 54.853906 387.472656 
C 54.853906 428.148012 62.866064 468.427852 78.431849 506.006981 
C 93.997634 543.58611 116.814331 577.733709 145.576151 606.495529 
C 174.337971 635.257349 208.48557 658.074045 246.064699 673.63983 
C 283.643828 689.205615 323.923667 697.217773 364.599023 697.217773 
C 405.27438 697.217773 445.554219 689.205615 483.133348 673.63983 
C 520.712477 658.074045 554.860076 635.257349 583.621896 606.495529 
C 612.383716 577.733709 635.200413 543.58611 650.766198 506.006981 
C 666.331982 468.427852 674.344141 428.148012 674.344141 387.472656 
" style="fill:none;stroke:#000000;stroke-linecap:square;stroke-linejoin:miter;stroke-width:0.8;"/>
   </g>
   <g id="text_14">
    <!-- EternatusEternamax -->
    <defs>
     <path d="M 5.515625 0 
L 5.515625 5.171875 
L 14.796875 5.171875 
L 14.796875 67.671875 
L 5.515625 67.671875 
L 5.515625 72.90625 
L 64.203125 72.90625 
L 64.203125 56.6875 
L 58.203125 56.6875 
L 58.203125 66.890625 
L 24.703125 66.890625 
L 24.703125 42.484375 
L 48.578125 42.484375 
L 48.578125 51.609375 
L 54.59375 51.609375 
L 54.59375 27.390625 
L 48.578125 27.390625 
L 48.578125 36.53125 
L 24.703125 36.53125 
L 24.703125 6 
L 58.984375 6 
L 58.984375 16.21875 
L 64.984375 16.21875 
L 64.984375 0 
z
" id="DejaVuSerif-69"/>
     <path d="M 47.796875 52 
L 47.796875 39.015625 
L 42.625 39.015625 
Q 42.390625 42.875 40.484375 44.78125 
Q 38.578125 46.6875 34.90625 46.6875 
Q 28.265625 46.6875 24.71875 42.09375 
Q 21.1875 37.5 21.1875 28.90625 
L 21.1875 5.171875 
L 31.59375 5.171875 
L 31.59375 0 
L 4.109375 0 
L 4.109375 5.171875 
L 12.203125 5.171875 
L 12.203125 46.78125 
L 3.609375 46.78125 
L 3.609375 51.90625 
L 21.1875 51.90625 
L 21.1875 42.671875 
Q 23.828125 48.09375 27.96875 50.703125 
Q 32.125 53.328125 38.09375 53.328125 
Q 40.28125 53.328125 42.703125 52.984375 
Q 45.125 52.640625 47.796875 52 
z
" id="DejaVuSerif-114"/>
     <path d="M 51.8125 41.796875 
Q 54.390625 47.515625 58.421875 50.421875 
Q 62.453125 53.328125 67.828125 53.328125 
Q 75.984375 53.328125 79.984375 48.265625 
Q 83.984375 43.21875 83.984375 33.015625 
L 83.984375 5.171875 
L 92.09375 5.171875 
L 92.09375 0 
L 67.1875 0 
L 67.1875 5.171875 
L 75 5.171875 
L 75 31.984375 
Q 75 39.9375 72.65625 43.3125 
Q 70.3125 46.6875 64.890625 46.6875 
Q 58.890625 46.6875 55.734375 42.140625 
Q 52.59375 37.59375 52.59375 28.90625 
L 52.59375 5.171875 
L 60.40625 5.171875 
L 60.40625 0 
L 35.796875 0 
L 35.796875 5.171875 
L 43.609375 5.171875 
L 43.609375 32.328125 
Q 43.609375 40.09375 41.265625 43.390625 
Q 38.921875 46.6875 33.5 46.6875 
Q 27.484375 46.6875 24.328125 42.140625 
Q 21.1875 37.59375 21.1875 28.90625 
L 21.1875 5.171875 
L 29 5.171875 
L 29 0 
L 4.109375 0 
L 4.109375 5.171875 
L 12.203125 5.171875 
L 12.203125 46.78125 
L 3.609375 46.78125 
L 3.609375 51.90625 
L 21.1875 51.90625 
L 21.1875 42.671875 
Q 23.6875 47.859375 27.53125 50.59375 
Q 31.390625 53.328125 36.28125 53.328125 
Q 42.328125 53.328125 46.375 50.3125 
Q 50.4375 47.3125 51.8125 41.796875 
z
" id="DejaVuSerif-109"/>
     <path d="M 29.109375 31.6875 
L 39.984375 46.6875 
L 33.015625 46.6875 
L 33.015625 51.90625 
L 52.984375 51.90625 
L 52.984375 46.6875 
L 46.09375 46.6875 
L 32.171875 27.484375 
L 48.390625 5.171875 
L 55.171875 5.171875 
L 55.171875 0 
L 31.203125 0 
L 31.203125 5.171875 
L 37.796875 5.171875 
L 26.515625 20.703125 
L 15.1875 5.171875 
L 21.921875 5.171875 
L 21.921875 0 
L 2.203125 0 
L 2.203125 5.171875 
L 9.078125 5.171875 
L 23.390625 24.90625 
L 7.625 46.6875 
L 1.21875 46.6875 
L 1.21875 51.90625 
L 24.421875 51.90625 
L 24.421875 46.6875 
L 18.21875 46.6875 
z
" id="DejaVuSerif-120"/>
    </defs>
    <g transform="translate(206.325586 40.753027)scale(0.3 -0.3)">
     <use xlink:href="#DejaVuSerif-69"/>
     <use x="72.998047" xlink:href="#DejaVuSerif-116"/>
     <use x="113.183594" xlink:href="#DejaVuSerif-101"/>
     <use x="172.363281" xlink:href="#DejaVuSerif-114"/>
     <use x="220.166016" xlink:href="#DejaVuSerif-110"/>
     <use x="284.570312" xlink:href="#DejaVuSerif-97"/>
     <use x="344.189453" xlink:href="#DejaVuSerif-116"/>
     <use x="384.375" xlink:href="#DejaVuSerif-117"/>
     <use x="448.779297" xlink:href="#DejaVuSerif-115"/>
     <use x="500.097656" xlink:href="#DejaVuSerif-69"/>
     <use x="573.095703" xlink:href="#DejaVuSerif-116"/>
     <use x="613.28125" xlink:href="#DejaVuSerif-101"/>
     <use x="672.460938" xlink:href="#DejaVuSerif-114"/>
     <use x="720.263672" xlink:href="#DejaVuSerif-110"/>
     <use x="784.667969" xlink:href="#DejaVuSerif-97"/>
     <use x="844.287109" xlink:href="#DejaVuSerif-109"/>
     <use x="939.111328" xlink:href="#DejaVuSerif-97"/>
     <use x="998.730469" xlink:href="#DejaVuSerif-120"/>
    </g>
   </g>
  </g>
 </g>
 <defs>
  <clipPath id="p4681a2adce">
   <path d="M 674.344141 387.472656 
C 674.344141 346.7973 666.331982 306.517461 650.766198 268.938332 
C 635.200413 231.359203 612.383716 197.211604 583.621896 168.449783 
C 554.860076 139.687963 520.712477 116.871267 483.133348 101.305482 
C 445.554219 85.739697 405.27438 77.727539 364.599023 77.727539 
C 323.923667 77.727539 283.643828 85.739697 246.064699 101.305482 
C 208.48557 116.871267 174.337971 139.687963 145.576151 168.449783 
C 116.814331 197.211604 93.997634 231.359203 78.431849 268.938332 
C 62.866064 306.517461 54.853906 346.7973 54.853906 387.472656 
C 54.853906 428.148012 62.866064 468.427852 78.431849 506.006981 
C 93.997634 543.58611 116.814331 577.733709 145.576151 606.495529 
C 174.337971 635.257349 208.48557 658.074045 246.064699 673.63983 
C 283.643828 689.205615 323.923667 697.217773 364.599023 697.217773 
C 405.27438 697.217773 445.554219 689.205615 483.133348 673.63983 
C 520.712477 658.074045 554.860076 635.257349 583.621896 606.495529 
C 612.383716 577.733709 635.200413 543.58611 650.766198 506.006981 
C 666.331982 468.427852 674.344141 428.148012 674.344141 387.472656 
M 364.599023 387.472656 
C 364.599023 387.472656 364.599023 387.472656 364.599023 387.472656 
C 364.599023 387.472656 364.599023 387.472656 364.599023 387.472656 
C 364.599023 387.472656 364.599023 387.472656 364.599023 387.472656 
C 364.599023 387.472656 364.599023 387.472656 364.599023 387.472656 
C 364.599023 387.472656 364.599023 387.472656 364.599023 387.472656 
C 364.599023 387.472656 364.599023 387.472656 364.599023 387.472656 
C 364.599023 387.472656 364.599023 387.472656 364.599023 387.472656 
C 364.599023 387.472656 364.599023 387.472656 364.599023 387.472656 
C 364.599023 387.472656 364.599023 387.472656 364.599023 387.472656 
C 364.599023 387.472656 364.599023 387.472656 364.599023 387.472656 
C 364.599023 387.472656 364.599023 387.472656 364.599023 387.472656 
C 364.599023 387.472656 364.599023 387.472656 364.599023 387.472656 
C 364.599023 387.472656 364.599023 387.472656 364.599023 387.472656 
C 364.599023 387.472656 364.599023 387.472656 364.599023 387.472656 
C 364.599023 387.472656 364.599023 387.472656 364.599023 387.472656 
C 364.599023 387.472656 364.599023 387.472656 364.599023 387.472656 
M 674.344141 387.472656 
z
"/>
  </clipPath>
 </defs>
</svg>
