<?xml version="1.0" encoding="utf-8" standalone="no"?>
<!DOCTYPE svg PUBLIC "-//W3C//DTD SVG 1.1//EN"
  "http://www.w3.org/Graphics/SVG/1.1/DTD/svg11.dtd">
<!-- Created with matplotlib (https://matplotlib.org/) -->
<svg height="720pt" version="1.1" viewBox="0 0 720 720" width="720pt" xmlns="http://www.w3.org/2000/svg" xmlns:xlink="http://www.w3.org/1999/xlink">
 <defs>
  <style type="text/css">
*{stroke-linecap:butt;stroke-linejoin:round;}
  </style>
 </defs>
 <g id="figure_1">
  <g id="patch_1">
   <path d="M 0 720 
L 720 720 
L 720 0 
L 0 0 
z
" style="fill:#ffffff;"/>
  </g>
  <g id="axes_1">
   <g id="patch_2">
    <path d="M 674.344141 387.259375 
C 674.344141 346.584019 666.331982 306.304179 650.766198 268.72505 
C 635.200413 231.145921 612.383716 196.998322 583.621896 168.236502 
C 554.860076 139.474682 520.712477 116.657986 483.133348 101.092201 
C 445.554219 85.526416 405.27438 77.514258 364.599023 77.514258 
C 323.923667 77.514258 283.643828 85.526416 246.064699 101.092201 
C 208.48557 116.657986 174.337971 139.474682 145.576151 168.236502 
C 116.814331 196.998322 93.997634 231.145921 78.431849 268.72505 
C 62.866064 306.304179 54.853906 346.584019 54.853906 387.259375 
C 54.853906 427.934731 62.866064 468.214571 78.431849 505.7937 
C 93.997634 543.372829 116.814331 577.520428 145.576151 606.282248 
C 174.337971 635.044068 208.48557 657.860764 246.064699 673.426549 
C 283.643828 688.992334 323.923667 697.004492 364.599023 697.004492 
C 405.27438 697.004492 445.554219 688.992334 483.133348 673.426549 
C 520.712477 657.860764 554.860076 635.044068 583.621896 606.282248 
C 612.383716 577.520428 635.200413 543.372829 650.766198 505.7937 
C 666.331982 468.214571 674.344141 427.934731 674.344141 387.259375 
M 364.599023 387.259375 
C 364.599023 387.259375 364.599023 387.259375 364.599023 387.259375 
C 364.599023 387.259375 364.599023 387.259375 364.599023 387.259375 
C 364.599023 387.259375 364.599023 387.259375 364.599023 387.259375 
C 364.599023 387.259375 364.599023 387.259375 364.599023 387.259375 
C 364.599023 387.259375 364.599023 387.259375 364.599023 387.259375 
C 364.599023 387.259375 364.599023 387.259375 364.599023 387.259375 
C 364.599023 387.259375 364.599023 387.259375 364.599023 387.259375 
C 364.599023 387.259375 364.599023 387.259375 364.599023 387.259375 
C 364.599023 387.259375 364.599023 387.259375 364.599023 387.259375 
C 364.599023 387.259375 364.599023 387.259375 364.599023 387.259375 
C 364.599023 387.259375 364.599023 387.259375 364.599023 387.259375 
C 364.599023 387.259375 364.599023 387.259375 364.599023 387.259375 
C 364.599023 387.259375 364.599023 387.259375 364.599023 387.259375 
C 364.599023 387.259375 364.599023 387.259375 364.599023 387.259375 
C 364.599023 387.259375 364.599023 387.259375 364.599023 387.259375 
C 364.599023 387.259375 364.599023 387.259375 364.599023 387.259375 
M 674.344141 387.259375 
z
" style="fill:#ffffff;"/>
   </g>
   <g id="patch_3">
    <path clip-path="url(#pf7394db0b9)" d="M 528.599935 387.259375 
L 480.637404 186.275004 
L 310.447779 293.466669 
L 64.446412 387.259375 
L 271.768319 548.046872 
L 472.901512 574.844788 
z
" style="fill:#bb87a1;stroke:#bb87a1;stroke-linejoin:miter;"/>
   </g>
   <g id="matplotlib.axis_1">
    <g id="xtick_1">
     <g id="line2d_1">
      <path clip-path="url(#pf7394db0b9)" d="M 364.599023 387.259375 
L 674.344141 387.259375 
" style="fill:none;stroke:#b0b0b0;stroke-linecap:square;stroke-width:0.8;"/>
     </g>
     <g id="text_1">
      <!-- Vida -->
      <defs>
       <path d="M 17.484375 67.671875 
L 39.015625 11.71875 
L 60.5 67.671875 
L 52.296875 67.671875 
L 52.296875 72.90625 
L 73.6875 72.90625 
L 73.6875 67.671875 
L 66.609375 67.671875 
L 40.578125 0 
L 32.171875 0 
L 6.296875 67.671875 
L -0.984375 67.671875 
L -0.984375 72.90625 
L 25.59375 72.90625 
L 25.59375 67.671875 
z
" id="DejaVuSerif-86"/>
       <path d="M 9.71875 68.015625 
Q 9.71875 70.265625 11.34375 71.921875 
Q 12.984375 73.578125 15.28125 73.578125 
Q 17.53125 73.578125 19.15625 71.921875 
Q 20.796875 70.265625 20.796875 68.015625 
Q 20.796875 65.71875 19.1875 64.109375 
Q 17.578125 62.5 15.28125 62.5 
Q 12.984375 62.5 11.34375 64.109375 
Q 9.71875 65.71875 9.71875 68.015625 
z
M 21.1875 5.171875 
L 29.6875 5.171875 
L 29.6875 0 
L 3.609375 0 
L 3.609375 5.171875 
L 12.203125 5.171875 
L 12.203125 46.6875 
L 3.609375 46.6875 
L 3.609375 51.90625 
L 21.1875 51.90625 
z
" id="DejaVuSerif-105"/>
       <path d="M 52.484375 5.171875 
L 61.078125 5.171875 
L 61.078125 0 
L 43.5 0 
L 43.5 8.109375 
Q 40.875 3.21875 36.796875 0.890625 
Q 32.71875 -1.421875 26.703125 -1.421875 
Q 17.140625 -1.421875 11.0625 6.171875 
Q 4.984375 13.765625 4.984375 25.984375 
Q 4.984375 38.1875 11.03125 45.75 
Q 17.09375 53.328125 26.703125 53.328125 
Q 32.71875 53.328125 36.796875 51 
Q 40.875 48.6875 43.5 43.796875 
L 43.5 70.796875 
L 35.015625 70.796875 
L 35.015625 75.984375 
L 52.484375 75.984375 
z
M 43.5 23.390625 
L 43.5 28.515625 
Q 43.5 37.84375 39.90625 42.765625 
Q 36.328125 47.703125 29.5 47.703125 
Q 22.5625 47.703125 19.015625 42.234375 
Q 15.484375 36.765625 15.484375 25.984375 
Q 15.484375 15.234375 19.015625 9.71875 
Q 22.5625 4.203125 29.5 4.203125 
Q 36.328125 4.203125 39.90625 9.109375 
Q 43.5 14.015625 43.5 23.390625 
z
" id="DejaVuSerif-100"/>
       <path d="M 39.796875 16.3125 
L 39.796875 27.296875 
L 28.21875 27.296875 
Q 21.53125 27.296875 18.25 24.40625 
Q 14.984375 21.53125 14.984375 15.578125 
Q 14.984375 10.15625 18.296875 6.984375 
Q 21.625 3.8125 27.296875 3.8125 
Q 32.90625 3.8125 36.34375 7.28125 
Q 39.796875 10.75 39.796875 16.3125 
z
M 48.78125 32.421875 
L 48.78125 5.171875 
L 56.78125 5.171875 
L 56.78125 0 
L 39.796875 0 
L 39.796875 5.609375 
Q 36.8125 2 32.90625 0.28125 
Q 29 -1.421875 23.78125 -1.421875 
Q 15.140625 -1.421875 10.0625 3.171875 
Q 4.984375 7.765625 4.984375 15.578125 
Q 4.984375 23.640625 10.796875 28.078125 
Q 16.609375 32.515625 27.203125 32.515625 
L 39.796875 32.515625 
L 39.796875 36.078125 
Q 39.796875 42 36.203125 45.234375 
Q 32.625 48.484375 26.125 48.484375 
Q 20.75 48.484375 17.578125 46.046875 
Q 14.40625 43.609375 13.625 38.8125 
L 8.984375 38.8125 
L 8.984375 49.3125 
Q 13.671875 51.3125 18.09375 52.3125 
Q 22.515625 53.328125 26.703125 53.328125 
Q 37.5 53.328125 43.140625 47.96875 
Q 48.78125 42.625 48.78125 32.421875 
z
" id="DejaVuSerif-97"/>
      </defs>
      <g transform="translate(677.757031 391.398438)scale(0.15 -0.15)">
       <use xlink:href="#DejaVuSerif-86"/>
       <use x="72.201172" xlink:href="#DejaVuSerif-105"/>
       <use x="104.183594" xlink:href="#DejaVuSerif-100"/>
       <use x="168.197266" xlink:href="#DejaVuSerif-97"/>
      </g>
     </g>
    </g>
    <g id="xtick_2">
     <g id="line2d_2">
      <path clip-path="url(#pf7394db0b9)" d="M 364.599023 387.259375 
L 519.471582 119.012235 
" style="fill:none;stroke:#b0b0b0;stroke-linecap:square;stroke-width:0.8;"/>
     </g>
     <g id="text_2">
      <!-- Ataque -->
      <defs>
       <path d="M 20.015625 26.421875 
L 46.78125 26.421875 
L 33.40625 61.078125 
z
M -0.59375 0 
L -0.59375 5.171875 
L 5.8125 5.171875 
L 31.78125 72.90625 
L 39.984375 72.90625 
L 66.015625 5.171875 
L 73.1875 5.171875 
L 73.1875 0 
L 46.6875 0 
L 46.6875 5.171875 
L 54.78125 5.171875 
L 48.6875 21.1875 
L 18.015625 21.1875 
L 11.921875 5.171875 
L 19.921875 5.171875 
L 19.921875 0 
z
" id="DejaVuSerif-65"/>
       <path d="M 10.796875 46.6875 
L 2.875 46.6875 
L 2.875 51.90625 
L 10.796875 51.90625 
L 10.796875 68.015625 
L 19.828125 68.015625 
L 19.828125 51.90625 
L 36.71875 51.90625 
L 36.71875 46.6875 
L 19.828125 46.6875 
L 19.828125 13.71875 
Q 19.828125 7.125 21.09375 5.265625 
Q 22.359375 3.421875 25.78125 3.421875 
Q 29.296875 3.421875 30.90625 5.484375 
Q 32.515625 7.5625 32.625 12.203125 
L 39.40625 12.203125 
Q 39.015625 5.125 35.546875 1.84375 
Q 32.078125 -1.421875 25 -1.421875 
Q 17.234375 -1.421875 14.015625 2.015625 
Q 10.796875 5.46875 10.796875 13.71875 
z
" id="DejaVuSerif-116"/>
       <path d="M 52.484375 46.6875 
L 52.484375 -15.578125 
L 61.078125 -15.578125 
L 61.078125 -20.796875 
L 35.015625 -20.796875 
L 35.015625 -15.578125 
L 43.5 -15.578125 
L 43.5 8.109375 
Q 40.875 3.21875 36.796875 0.890625 
Q 32.71875 -1.421875 26.703125 -1.421875 
Q 17.140625 -1.421875 11.0625 6.171875 
Q 4.984375 13.765625 4.984375 25.984375 
Q 4.984375 38.1875 11.03125 45.75 
Q 17.09375 53.328125 26.703125 53.328125 
Q 32.71875 53.328125 36.796875 51 
Q 40.875 48.6875 43.5 43.796875 
L 43.5 51.90625 
L 61.078125 51.90625 
L 61.078125 46.6875 
z
M 43.5 28.515625 
Q 43.5 37.84375 39.90625 42.765625 
Q 36.328125 47.703125 29.5 47.703125 
Q 22.5625 47.703125 19.015625 42.234375 
Q 15.484375 36.765625 15.484375 25.984375 
Q 15.484375 15.234375 19.015625 9.71875 
Q 22.5625 4.203125 29.5 4.203125 
Q 36.328125 4.203125 39.90625 9.109375 
Q 43.5 14.015625 43.5 23.390625 
z
" id="DejaVuSerif-113"/>
       <path d="M 35.40625 51.90625 
L 52.203125 51.90625 
L 52.203125 5.171875 
L 60.6875 5.171875 
L 60.6875 0 
L 43.21875 0 
L 43.21875 9.1875 
Q 40.71875 4 36.765625 1.28125 
Q 32.8125 -1.421875 27.59375 -1.421875 
Q 18.953125 -1.421875 14.875 3.484375 
Q 10.796875 8.40625 10.796875 18.890625 
L 10.796875 46.6875 
L 2.6875 46.6875 
L 2.6875 51.90625 
L 19.828125 51.90625 
L 19.828125 21.6875 
Q 19.828125 12.203125 22.140625 8.6875 
Q 24.46875 5.171875 30.421875 5.171875 
Q 36.671875 5.171875 39.9375 9.765625 
Q 43.21875 14.359375 43.21875 23.09375 
L 43.21875 46.6875 
L 35.40625 46.6875 
z
" id="DejaVuSerif-117"/>
       <path d="M 54.203125 25 
L 15.484375 25 
L 15.484375 24.609375 
Q 15.484375 14.109375 19.4375 8.765625 
Q 23.390625 3.421875 31.109375 3.421875 
Q 37.015625 3.421875 40.796875 6.515625 
Q 44.578125 9.625 46.09375 15.71875 
L 53.328125 15.71875 
Q 51.171875 7.171875 45.375 2.875 
Q 39.59375 -1.421875 30.171875 -1.421875 
Q 18.796875 -1.421875 11.890625 6.078125 
Q 4.984375 13.578125 4.984375 25.984375 
Q 4.984375 38.28125 11.765625 45.796875 
Q 18.5625 53.328125 29.59375 53.328125 
Q 41.359375 53.328125 47.65625 46.0625 
Q 53.953125 38.8125 54.203125 25 
z
M 43.609375 30.171875 
Q 43.3125 39.265625 39.765625 43.875 
Q 36.234375 48.484375 29.59375 48.484375 
Q 23.390625 48.484375 19.828125 43.84375 
Q 16.265625 39.203125 15.484375 30.171875 
z
" id="DejaVuSerif-101"/>
      </defs>
      <g transform="translate(502.749707 105.397777)scale(0.15 -0.15)">
       <use xlink:href="#DejaVuSerif-65"/>
       <use x="72.201172" xlink:href="#DejaVuSerif-116"/>
       <use x="112.386719" xlink:href="#DejaVuSerif-97"/>
       <use x="172.005859" xlink:href="#DejaVuSerif-113"/>
       <use x="236.019531" xlink:href="#DejaVuSerif-117"/>
       <use x="300.423828" xlink:href="#DejaVuSerif-101"/>
      </g>
     </g>
    </g>
    <g id="xtick_3">
     <g id="line2d_3">
      <path clip-path="url(#pf7394db0b9)" d="M 364.599023 387.259375 
L 209.726465 119.012235 
" style="fill:none;stroke:#b0b0b0;stroke-linecap:square;stroke-width:0.8;"/>
     </g>
     <g id="text_3">
      <!-- Defensa -->
      <defs>
       <path d="M 24.703125 5.171875 
L 33.796875 5.171875 
Q 48 5.171875 55.59375 13.28125 
Q 63.1875 21.390625 63.1875 36.53125 
Q 63.1875 51.65625 55.609375 59.65625 
Q 48.046875 67.671875 33.796875 67.671875 
L 24.703125 67.671875 
z
M 5.515625 0 
L 5.515625 5.171875 
L 14.796875 5.171875 
L 14.796875 67.671875 
L 5.515625 67.671875 
L 5.515625 72.90625 
L 34.515625 72.90625 
Q 53.375 72.90625 63.890625 63.28125 
Q 74.421875 53.65625 74.421875 36.53125 
Q 74.421875 19.34375 63.875 9.671875 
Q 53.328125 0 34.515625 0 
z
" id="DejaVuSerif-68"/>
       <path d="M 43.015625 63.71875 
L 38.28125 63.71875 
Q 38.234375 67.390625 36.203125 69.28125 
Q 34.1875 71.1875 30.328125 71.1875 
Q 25.296875 71.1875 23.234375 68.421875 
Q 21.1875 65.671875 21.1875 58.59375 
L 21.1875 51.90625 
L 35.6875 51.90625 
L 35.6875 46.6875 
L 21.1875 46.6875 
L 21.1875 5.171875 
L 32.71875 5.171875 
L 32.71875 0 
L 3.609375 0 
L 3.609375 5.171875 
L 12.203125 5.171875 
L 12.203125 46.6875 
L 3.609375 46.6875 
L 3.609375 51.90625 
L 12.203125 51.90625 
L 12.203125 58.40625 
Q 12.203125 67.09375 16.71875 71.53125 
Q 21.234375 75.984375 29.984375 75.984375 
Q 33.25 75.984375 36.515625 75.390625 
Q 39.796875 74.8125 43.015625 73.578125 
z
" id="DejaVuSerif-102"/>
       <path d="M 4.109375 0 
L 4.109375 5.171875 
L 12.203125 5.171875 
L 12.203125 46.6875 
L 3.609375 46.6875 
L 3.609375 51.90625 
L 21.1875 51.90625 
L 21.1875 42.671875 
Q 23.6875 47.953125 27.65625 50.640625 
Q 31.640625 53.328125 36.921875 53.328125 
Q 45.515625 53.328125 49.5625 48.390625 
Q 53.609375 43.453125 53.609375 33.015625 
L 53.609375 5.171875 
L 61.625 5.171875 
L 61.625 0 
L 36.8125 0 
L 36.8125 5.171875 
L 44.578125 5.171875 
L 44.578125 30.171875 
Q 44.578125 39.703125 42.234375 43.234375 
Q 39.890625 46.78125 33.984375 46.78125 
Q 27.734375 46.78125 24.453125 42.203125 
Q 21.1875 37.640625 21.1875 28.90625 
L 21.1875 5.171875 
L 29 5.171875 
L 29 0 
z
" id="DejaVuSerif-110"/>
       <path d="M 5.609375 2.875 
L 5.609375 14.984375 
L 10.796875 14.984375 
Q 10.984375 9.1875 14.421875 6.296875 
Q 17.875 3.421875 24.609375 3.421875 
Q 30.671875 3.421875 33.84375 5.6875 
Q 37.015625 7.953125 37.015625 12.3125 
Q 37.015625 15.71875 34.6875 17.8125 
Q 32.375 19.921875 24.90625 22.3125 
L 18.40625 24.515625 
Q 11.71875 26.65625 8.71875 29.875 
Q 5.71875 33.109375 5.71875 38.09375 
Q 5.71875 45.21875 10.9375 49.265625 
Q 16.15625 53.328125 25.390625 53.328125 
Q 29.5 53.328125 34.03125 52.25 
Q 38.578125 51.171875 43.40625 49.125 
L 43.40625 37.796875 
L 38.234375 37.796875 
Q 38.03125 42.828125 34.703125 45.65625 
Q 31.390625 48.484375 25.6875 48.484375 
Q 20.015625 48.484375 17.109375 46.484375 
Q 14.203125 44.484375 14.203125 40.484375 
Q 14.203125 37.203125 16.40625 35.21875 
Q 18.609375 33.25 25.203125 31.203125 
L 32.328125 29 
Q 39.703125 26.703125 42.9375 23.265625 
Q 46.1875 19.828125 46.1875 14.40625 
Q 46.1875 7.03125 40.546875 2.796875 
Q 34.90625 -1.421875 25 -1.421875 
Q 19.96875 -1.421875 15.1875 -0.34375 
Q 10.40625 0.734375 5.609375 2.875 
z
" id="DejaVuSerif-115"/>
      </defs>
      <g transform="translate(168.658496 105.397777)scale(0.15 -0.15)">
       <use xlink:href="#DejaVuSerif-68"/>
       <use x="80.175781" xlink:href="#DejaVuSerif-101"/>
       <use x="139.355469" xlink:href="#DejaVuSerif-102"/>
       <use x="176.367188" xlink:href="#DejaVuSerif-101"/>
       <use x="235.546875" xlink:href="#DejaVuSerif-110"/>
       <use x="299.951172" xlink:href="#DejaVuSerif-115"/>
       <use x="351.269531" xlink:href="#DejaVuSerif-97"/>
      </g>
     </g>
    </g>
    <g id="xtick_4">
     <g id="line2d_4">
      <path clip-path="url(#pf7394db0b9)" d="M 364.599023 387.259375 
L 54.853906 387.259375 
" style="fill:none;stroke:#b0b0b0;stroke-linecap:square;stroke-width:0.8;"/>
     </g>
     <g id="text_4">
      <!-- At esp. -->
      <defs>
       <path id="DejaVuSerif-32"/>
       <path d="M 20.515625 28.515625 
L 20.515625 23.390625 
Q 20.515625 14.015625 24.09375 9.109375 
Q 27.6875 4.203125 34.515625 4.203125 
Q 41.40625 4.203125 44.9375 9.71875 
Q 48.484375 15.234375 48.484375 25.984375 
Q 48.484375 36.765625 44.9375 42.234375 
Q 41.40625 47.703125 34.515625 47.703125 
Q 27.6875 47.703125 24.09375 42.765625 
Q 20.515625 37.84375 20.515625 28.515625 
z
M 11.53125 46.6875 
L 2.875 46.6875 
L 2.875 51.90625 
L 20.515625 51.90625 
L 20.515625 43.796875 
Q 23.140625 48.6875 27.21875 51 
Q 31.296875 53.328125 37.3125 53.328125 
Q 46.875 53.328125 52.921875 45.75 
Q 58.984375 38.1875 58.984375 25.984375 
Q 58.984375 13.765625 52.921875 6.171875 
Q 46.875 -1.421875 37.3125 -1.421875 
Q 31.296875 -1.421875 27.21875 0.890625 
Q 23.140625 3.21875 20.515625 8.109375 
L 20.515625 -15.578125 
L 29 -15.578125 
L 29 -20.796875 
L 2.875 -20.796875 
L 2.875 -15.578125 
L 11.53125 -15.578125 
z
" id="DejaVuSerif-112"/>
       <path d="M 9.421875 5.078125 
Q 9.421875 7.8125 11.28125 9.71875 
Q 13.140625 11.625 15.921875 11.625 
Q 18.609375 11.625 20.5 9.71875 
Q 22.40625 7.8125 22.40625 5.078125 
Q 22.40625 2.390625 20.5 0.484375 
Q 18.609375 -1.421875 15.921875 -1.421875 
Q 13.140625 -1.421875 11.28125 0.453125 
Q 9.421875 2.34375 9.421875 5.078125 
z
" id="DejaVuSerif-46"/>
      </defs>
      <g transform="translate(8.06875 391.398438)scale(0.15 -0.15)">
       <use xlink:href="#DejaVuSerif-65"/>
       <use x="72.201172" xlink:href="#DejaVuSerif-116"/>
       <use x="112.386719" xlink:href="#DejaVuSerif-32"/>
       <use x="144.173828" xlink:href="#DejaVuSerif-101"/>
       <use x="203.353516" xlink:href="#DejaVuSerif-115"/>
       <use x="254.671875" xlink:href="#DejaVuSerif-112"/>
       <use x="318.685547" xlink:href="#DejaVuSerif-46"/>
      </g>
     </g>
    </g>
    <g id="xtick_5">
     <g id="line2d_5">
      <path clip-path="url(#pf7394db0b9)" d="M 364.599023 387.259375 
L 209.726465 655.506515 
" style="fill:none;stroke:#b0b0b0;stroke-linecap:square;stroke-width:0.8;"/>
     </g>
     <g id="text_5">
      <!-- Def esp. -->
      <g transform="translate(168.39248 677.399098)scale(0.15 -0.15)">
       <use xlink:href="#DejaVuSerif-68"/>
       <use x="80.175781" xlink:href="#DejaVuSerif-101"/>
       <use x="139.355469" xlink:href="#DejaVuSerif-102"/>
       <use x="176.367188" xlink:href="#DejaVuSerif-32"/>
       <use x="208.154297" xlink:href="#DejaVuSerif-101"/>
       <use x="267.333984" xlink:href="#DejaVuSerif-115"/>
       <use x="318.652344" xlink:href="#DejaVuSerif-112"/>
       <use x="382.666016" xlink:href="#DejaVuSerif-46"/>
      </g>
     </g>
    </g>
    <g id="xtick_6">
     <g id="line2d_6">
      <path clip-path="url(#pf7394db0b9)" d="M 364.599023 387.259375 
L 519.471582 655.506515 
" style="fill:none;stroke:#b0b0b0;stroke-linecap:square;stroke-width:0.8;"/>
     </g>
     <g id="text_6">
      <!-- Velocidad -->
      <defs>
       <path d="M 20.515625 5.171875 
L 29 5.171875 
L 29 0 
L 2.875 0 
L 2.875 5.171875 
L 11.53125 5.171875 
L 11.53125 70.796875 
L 2.875 70.796875 
L 2.875 75.984375 
L 20.515625 75.984375 
z
" id="DejaVuSerif-108"/>
       <path d="M 30.078125 3.421875 
Q 37.3125 3.421875 40.984375 9.125 
Q 44.671875 14.84375 44.671875 25.984375 
Q 44.671875 37.109375 40.984375 42.796875 
Q 37.3125 48.484375 30.078125 48.484375 
Q 22.859375 48.484375 19.171875 42.796875 
Q 15.484375 37.109375 15.484375 25.984375 
Q 15.484375 14.84375 19.1875 9.125 
Q 22.90625 3.421875 30.078125 3.421875 
z
M 30.078125 -1.421875 
Q 18.75 -1.421875 11.859375 6.078125 
Q 4.984375 13.578125 4.984375 25.984375 
Q 4.984375 38.375 11.84375 45.84375 
Q 18.703125 53.328125 30.078125 53.328125 
Q 41.453125 53.328125 48.3125 45.84375 
Q 55.171875 38.375 55.171875 25.984375 
Q 55.171875 13.578125 48.3125 6.078125 
Q 41.453125 -1.421875 30.078125 -1.421875 
z
" id="DejaVuSerif-111"/>
       <path d="M 51.421875 15.578125 
Q 49.515625 7.28125 44.09375 2.921875 
Q 38.671875 -1.421875 30.078125 -1.421875 
Q 18.75 -1.421875 11.859375 6.078125 
Q 4.984375 13.578125 4.984375 25.984375 
Q 4.984375 38.421875 11.859375 45.875 
Q 18.75 53.328125 30.078125 53.328125 
Q 35.015625 53.328125 39.890625 52.171875 
Q 44.78125 51.03125 49.703125 48.6875 
L 49.703125 35.40625 
L 44.484375 35.40625 
Q 43.453125 42.234375 40.015625 45.359375 
Q 36.578125 48.484375 30.171875 48.484375 
Q 22.90625 48.484375 19.1875 42.84375 
Q 15.484375 37.203125 15.484375 25.984375 
Q 15.484375 14.75 19.171875 9.078125 
Q 22.859375 3.421875 30.171875 3.421875 
Q 35.984375 3.421875 39.453125 6.4375 
Q 42.921875 9.46875 44.1875 15.578125 
z
" id="DejaVuSerif-99"/>
      </defs>
      <g transform="translate(492.289551 677.399098)scale(0.15 -0.15)">
       <use xlink:href="#DejaVuSerif-86"/>
       <use x="72.076172" xlink:href="#DejaVuSerif-101"/>
       <use x="131.255859" xlink:href="#DejaVuSerif-108"/>
       <use x="163.238281" xlink:href="#DejaVuSerif-111"/>
       <use x="223.443359" xlink:href="#DejaVuSerif-99"/>
       <use x="279.449219" xlink:href="#DejaVuSerif-105"/>
       <use x="311.431641" xlink:href="#DejaVuSerif-100"/>
       <use x="375.445312" xlink:href="#DejaVuSerif-97"/>
       <use x="435.064453" xlink:href="#DejaVuSerif-100"/>
      </g>
     </g>
    </g>
   </g>
   <g id="matplotlib.axis_2">
    <g id="ytick_1">
     <g id="line2d_7">
      <path clip-path="url(#pf7394db0b9)" d="M 528.599935 387.259375 
L 528.50003 381.535826 
L 528.200437 375.81925 
L 527.70152 370.116612 
L 527.003889 364.43486 
L 526.108392 358.780916 
L 525.016121 353.161668 
L 523.728407 347.583964 
L 522.246817 342.054597 
L 520.573159 336.580306 
L 518.709469 331.16776 
L 516.65802 325.823552 
L 514.421311 320.554195 
L 512.002066 315.366107 
L 509.403233 310.265611 
L 506.627979 305.258919 
L 503.679684 300.352133 
L 500.561941 295.551229 
L 497.278548 290.862058 
L 493.833505 286.290332 
L 490.23101 281.841621 
L 486.475452 277.521346 
L 482.571406 273.334769 
L 478.523629 269.286992 
L 474.337053 265.382946 
L 470.016777 261.627388 
L 465.568066 258.024893 
L 460.99634 254.579851 
L 456.307169 251.296458 
L 451.506266 248.178714 
L 446.599479 245.23042 
L 441.592788 242.455165 
L 436.492291 239.856332 
L 431.304204 237.437088 
L 426.034846 235.200378 
L 420.690639 233.148929 
L 415.278092 231.28524 
L 409.803801 229.611581 
L 404.274435 228.129992 
L 398.69673 226.842277 
L 393.077483 225.750006 
L 387.423539 224.854509 
L 381.741787 224.156878 
L 376.039149 223.657962 
L 370.322573 223.358369 
L 364.599023 223.258464 
L 358.875474 223.358369 
L 353.158898 223.657962 
L 347.45626 224.156878 
L 341.774508 224.854509 
L 336.120564 225.750006 
L 330.501317 226.842277 
L 324.923612 228.129992 
L 319.394246 229.611581 
L 313.919955 231.28524 
L 308.507408 233.148929 
L 303.163201 235.200378 
L 297.893843 237.437088 
L 292.705756 239.856332 
L 287.605259 242.455165 
L 282.598568 245.23042 
L 277.691781 248.178714 
L 272.890878 251.296458 
L 268.201706 254.579851 
L 263.62998 258.024893 
L 259.18127 261.627388 
L 254.860994 265.382946 
L 250.674418 269.286992 
L 246.626641 273.334769 
L 242.722595 277.521346 
L 238.967037 281.841621 
L 235.364542 286.290332 
L 231.919499 290.862058 
L 228.636106 295.551229 
L 225.518363 300.352133 
L 222.570068 305.258919 
L 219.794814 310.265611 
L 217.195981 315.366107 
L 214.776736 320.554195 
L 212.540026 325.823552 
L 210.488577 331.16776 
L 208.624888 336.580306 
L 206.951229 342.054597 
L 205.46964 347.583964 
L 204.181926 353.161668 
L 203.089655 358.780916 
L 202.194158 364.43486 
L 201.496526 370.116612 
L 200.99761 375.81925 
L 200.698017 381.535826 
L 200.598112 387.259375 
L 200.698017 392.982924 
L 200.99761 398.6995 
L 201.496526 404.402138 
L 202.194158 410.08389 
L 203.089655 415.737834 
L 204.181926 421.357082 
L 205.46964 426.934786 
L 206.951229 432.464153 
L 208.624888 437.938444 
L 210.488577 443.35099 
L 212.540026 448.695198 
L 214.776736 453.964555 
L 217.195981 459.152643 
L 219.794814 464.253139 
L 222.570068 469.259831 
L 225.518363 474.166617 
L 228.636106 478.967521 
L 231.919499 483.656692 
L 235.364542 488.228418 
L 238.967037 492.677129 
L 242.722595 496.997404 
L 246.626641 501.183981 
L 250.674418 505.231758 
L 254.860994 509.135804 
L 259.18127 512.891362 
L 263.62998 516.493857 
L 268.201706 519.938899 
L 272.890878 523.222292 
L 277.691781 526.340036 
L 282.598568 529.28833 
L 287.605259 532.063585 
L 292.705756 534.662418 
L 297.893843 537.081662 
L 303.163201 539.318372 
L 308.507408 541.369821 
L 313.919955 543.23351 
L 319.394246 544.907169 
L 324.923612 546.388758 
L 330.501317 547.676473 
L 336.120564 548.768744 
L 341.774508 549.664241 
L 347.45626 550.361872 
L 353.158898 550.860788 
L 358.875474 551.160381 
L 364.599023 551.260286 
L 370.322573 551.160381 
L 376.039149 550.860788 
L 381.741787 550.361872 
L 387.423539 549.664241 
L 393.077483 548.768744 
L 398.69673 547.676473 
L 404.274435 546.388758 
L 409.803801 544.907169 
L 415.278092 543.23351 
L 420.690639 541.369821 
L 426.034846 539.318372 
L 431.304204 537.081662 
L 436.492291 534.662418 
L 441.592788 532.063585 
L 446.599479 529.28833 
L 451.506266 526.340036 
L 456.307169 523.222292 
L 460.99634 519.938899 
L 465.568066 516.493857 
L 470.016777 512.891362 
L 474.337053 509.135804 
L 478.523629 505.231758 
L 482.571406 501.183981 
L 486.475452 496.997404 
L 490.23101 492.677129 
L 493.833505 488.228418 
L 497.278548 483.656692 
L 500.561941 478.967521 
L 503.679684 474.166617 
L 506.627979 469.259831 
L 509.403233 464.253139 
L 512.002066 459.152643 
L 514.421311 453.964555 
L 516.65802 448.695198 
L 518.709469 443.35099 
L 520.573159 437.938444 
L 522.246817 432.464153 
L 523.728407 426.934786 
L 525.016121 421.357082 
L 526.108392 415.737834 
L 527.003889 410.08389 
L 527.70152 404.402138 
L 528.200437 398.6995 
L 528.50003 392.982924 
L 528.599935 387.259375 
L 528.599935 387.259375 
" style="fill:none;stroke:#b0b0b0;stroke-linecap:square;stroke-width:0.8;"/>
     </g>
     <g id="text_7">
      <!-- 106 -->
      <defs>
       <path d="M 14.203125 0 
L 14.203125 5.171875 
L 26.90625 5.171875 
L 26.90625 65.828125 
L 12.203125 56.296875 
L 12.203125 62.703125 
L 29.984375 74.21875 
L 36.71875 74.21875 
L 36.71875 5.171875 
L 49.421875 5.171875 
L 49.421875 0 
z
" id="DejaVuSerif-49"/>
       <path d="M 31.78125 3.421875 
Q 39.265625 3.421875 42.96875 11.625 
Q 46.6875 19.828125 46.6875 36.375 
Q 46.6875 52.984375 42.96875 61.1875 
Q 39.265625 69.390625 31.78125 69.390625 
Q 24.3125 69.390625 20.59375 61.1875 
Q 16.890625 52.984375 16.890625 36.375 
Q 16.890625 19.828125 20.59375 11.625 
Q 24.3125 3.421875 31.78125 3.421875 
z
M 31.78125 -1.421875 
Q 19.921875 -1.421875 13.25 8.53125 
Q 6.59375 18.5 6.59375 36.375 
Q 6.59375 54.296875 13.25 64.25 
Q 19.921875 74.21875 31.78125 74.21875 
Q 43.703125 74.21875 50.34375 64.25 
Q 56.984375 54.296875 56.984375 36.375 
Q 56.984375 18.5 50.34375 8.53125 
Q 43.703125 -1.421875 31.78125 -1.421875 
z
" id="DejaVuSerif-48"/>
       <path d="M 32.71875 3.421875 
Q 39.59375 3.421875 43.296875 8.46875 
Q 47.015625 13.53125 47.015625 23 
Q 47.015625 32.46875 43.296875 37.515625 
Q 39.59375 42.578125 32.71875 42.578125 
Q 25.734375 42.578125 22.0625 37.6875 
Q 18.40625 32.8125 18.40625 23.578125 
Q 18.40625 13.875 22.109375 8.640625 
Q 25.828125 3.421875 32.71875 3.421875 
z
M 16.796875 40.140625 
Q 20.125 43.796875 24.3125 45.59375 
Q 28.515625 47.40625 33.796875 47.40625 
Q 44.671875 47.40625 51 40.859375 
Q 57.328125 34.328125 57.328125 23 
Q 57.328125 11.921875 50.515625 5.25 
Q 43.703125 -1.421875 32.328125 -1.421875 
Q 19.96875 -1.421875 13.328125 7.78125 
Q 6.6875 17 6.6875 34.078125 
Q 6.6875 53.21875 14.546875 63.71875 
Q 22.40625 74.21875 36.71875 74.21875 
Q 40.578125 74.21875 44.828125 73.484375 
Q 49.078125 72.75 53.515625 71.296875 
L 53.515625 59.28125 
L 48 59.28125 
Q 47.40625 64.203125 44.234375 66.796875 
Q 41.0625 69.390625 35.6875 69.390625 
Q 26.21875 69.390625 21.578125 62.203125 
Q 16.9375 55.03125 16.796875 40.140625 
z
" id="DejaVuSerif-54"/>
      </defs>
      <g transform="translate(516.116109 322.419256)scale(0.1 -0.1)">
       <use xlink:href="#DejaVuSerif-49"/>
       <use x="63.623047" xlink:href="#DejaVuSerif-48"/>
       <use x="127.246094" xlink:href="#DejaVuSerif-54"/>
      </g>
     </g>
    </g>
    <g id="ytick_2">
     <g id="line2d_8">
      <path clip-path="url(#pf7394db0b9)" d="M 596.675785 387.259375 
L 596.53441 379.160013 
L 596.110457 371.070519 
L 595.404444 363.000748 
L 594.417229 354.960532 
L 593.150017 346.959668 
L 591.604351 339.007903 
L 589.782113 331.114925 
L 587.685524 323.29035 
L 585.317139 315.543712 
L 582.679843 307.884448 
L 579.776849 300.32189 
L 576.611694 292.865252 
L 573.188235 285.523619 
L 569.510641 278.305935 
L 565.583394 271.220994 
L 561.411279 264.277428 
L 556.999378 257.483697 
L 552.353067 250.848077 
L 547.478007 244.378654 
L 542.380137 238.083308 
L 537.065668 231.969711 
L 531.541074 226.04531 
L 525.813088 220.317324 
L 519.888687 214.792731 
L 513.77509 209.478262 
L 507.479745 204.380392 
L 501.010321 199.505331 
L 494.374701 194.85902 
L 487.58097 190.44712 
L 480.637404 186.275004 
L 473.552463 182.347757 
L 466.334779 178.670164 
L 458.993146 175.246704 
L 451.536508 172.081549 
L 443.973951 169.178555 
L 436.314687 166.541259 
L 428.568048 164.172874 
L 420.743473 162.076286 
L 412.850495 160.254048 
L 404.89873 158.708381 
L 396.897866 157.441169 
L 388.857651 156.453955 
L 380.78788 155.747941 
L 372.698386 155.323989 
L 364.599023 155.182614 
L 356.499661 155.323989 
L 348.410167 155.747941 
L 340.340396 156.453955 
L 332.300181 157.441169 
L 324.299317 158.708381 
L 316.347552 160.254048 
L 308.454573 162.076286 
L 300.629999 164.172874 
L 292.88336 166.541259 
L 285.224096 169.178555 
L 277.661539 172.081549 
L 270.204901 175.246704 
L 262.863268 178.670164 
L 255.645584 182.347757 
L 248.560643 186.275004 
L 241.617077 190.44712 
L 234.823346 194.85902 
L 228.187726 199.505331 
L 221.718302 204.380392 
L 215.422957 209.478262 
L 209.30936 214.792731 
L 203.384959 220.317324 
L 197.656972 226.04531 
L 192.132379 231.969711 
L 186.81791 238.083308 
L 181.72004 244.378654 
L 176.84498 250.848077 
L 172.198669 257.483697 
L 167.786768 264.277428 
L 163.614653 271.220994 
L 159.687406 278.305935 
L 156.009812 285.523619 
L 152.586352 292.865252 
L 149.421197 300.32189 
L 146.518204 307.884448 
L 143.880907 315.543712 
L 141.512522 323.29035 
L 139.415934 331.114925 
L 137.593696 339.007903 
L 136.04803 346.959668 
L 134.780817 354.960532 
L 133.793603 363.000748 
L 133.08759 371.070519 
L 132.663637 379.160013 
L 132.522262 387.259375 
L 132.663637 395.358737 
L 133.08759 403.448231 
L 133.793603 411.518002 
L 134.780817 419.558218 
L 136.04803 427.559082 
L 137.593696 435.510847 
L 139.415934 443.403825 
L 141.512522 451.2284 
L 143.880907 458.975038 
L 146.518204 466.634302 
L 149.421197 474.19686 
L 152.586352 481.653498 
L 156.009812 488.995131 
L 159.687406 496.212815 
L 163.614653 503.297756 
L 167.786768 510.241322 
L 172.198669 517.035053 
L 176.84498 523.670673 
L 181.72004 530.140096 
L 186.81791 536.435442 
L 192.132379 542.549039 
L 197.656972 548.47344 
L 203.384959 554.201426 
L 209.30936 559.726019 
L 215.422957 565.040488 
L 221.718302 570.138358 
L 228.187726 575.013419 
L 234.823346 579.65973 
L 241.617077 584.07163 
L 248.560643 588.243746 
L 255.645584 592.170993 
L 262.863268 595.848586 
L 270.204901 599.272046 
L 277.661539 602.437201 
L 285.224096 605.340195 
L 292.88336 607.977491 
L 300.629999 610.345876 
L 308.454573 612.442464 
L 316.347552 614.264702 
L 324.299317 615.810369 
L 332.300181 617.077581 
L 340.340396 618.064795 
L 348.410167 618.770809 
L 356.499661 619.194761 
L 364.599023 619.336136 
L 372.698386 619.194761 
L 380.78788 618.770809 
L 388.857651 618.064795 
L 396.897866 617.077581 
L 404.89873 615.810369 
L 412.850495 614.264702 
L 420.743473 612.442464 
L 428.568048 610.345876 
L 436.314687 607.977491 
L 443.973951 605.340195 
L 451.536508 602.437201 
L 458.993146 599.272046 
L 466.334779 595.848586 
L 473.552463 592.170993 
L 480.637404 588.243746 
L 487.58097 584.07163 
L 494.374701 579.65973 
L 501.010321 575.013419 
L 507.479745 570.138358 
L 513.77509 565.040488 
L 519.888687 559.726019 
L 525.813088 554.201426 
L 531.541074 548.47344 
L 537.065668 542.549039 
L 542.380137 536.435442 
L 547.478007 530.140096 
L 552.353067 523.670673 
L 556.999378 517.035053 
L 561.411279 510.241322 
L 565.583394 503.297756 
L 569.510641 496.212815 
L 573.188235 488.995131 
L 576.611694 481.653498 
L 579.776849 474.19686 
L 582.679843 466.634302 
L 585.317139 458.975038 
L 587.685524 451.2284 
L 589.782113 443.403825 
L 591.604351 435.510847 
L 593.150017 427.559082 
L 594.417229 419.558218 
L 595.404444 411.518002 
L 596.110457 403.448231 
L 596.53441 395.358737 
L 596.675785 387.259375 
L 596.675785 387.259375 
" style="fill:none;stroke:#b0b0b0;stroke-linecap:square;stroke-width:0.8;"/>
     </g>
     <g id="text_8">
      <!-- 150 -->
      <defs>
       <path d="M 50.296875 72.90625 
L 50.296875 64.890625 
L 16.890625 64.890625 
L 16.890625 44 
Q 19.4375 45.75 22.828125 46.625 
Q 26.21875 47.515625 30.421875 47.515625 
Q 42.234375 47.515625 49.0625 40.96875 
Q 55.90625 34.421875 55.90625 23.09375 
Q 55.90625 11.53125 49 5.046875 
Q 42.09375 -1.421875 29.59375 -1.421875 
Q 24.5625 -1.421875 19.28125 -0.1875 
Q 14.015625 1.03125 8.5 3.515625 
L 8.5 17.671875 
L 14.015625 17.671875 
Q 14.453125 10.75 18.421875 7.078125 
Q 22.40625 3.421875 29.59375 3.421875 
Q 37.3125 3.421875 41.453125 8.5 
Q 45.609375 13.578125 45.609375 23.09375 
Q 45.609375 32.5625 41.484375 37.609375 
Q 37.359375 42.671875 29.59375 42.671875 
Q 25.203125 42.671875 21.84375 41.109375 
Q 18.5 39.546875 15.921875 36.28125 
L 11.71875 36.28125 
L 11.71875 72.90625 
z
" id="DejaVuSerif-53"/>
      </defs>
      <g transform="translate(579.009993 296.367756)scale(0.1 -0.1)">
       <use xlink:href="#DejaVuSerif-49"/>
       <use x="63.623047" xlink:href="#DejaVuSerif-53"/>
       <use x="127.246094" xlink:href="#DejaVuSerif-48"/>
      </g>
     </g>
    </g>
    <g id="ytick_3">
     <g id="line2d_9">
      <path clip-path="url(#pf7394db0b9)" d="M 472.901512 387.259375 
L 472.835537 383.479673 
L 472.637693 379.704575 
L 472.30822 375.938682 
L 471.84752 372.186582 
L 471.256154 368.452845 
L 470.534843 364.742021 
L 469.684465 361.058632 
L 468.706057 357.407163 
L 467.600811 353.792066 
L 466.370073 350.217742 
L 465.015342 346.688549 
L 463.53827 343.208784 
L 461.940655 339.782689 
L 460.224445 336.414436 
L 458.39173 333.108131 
L 456.444743 329.8678 
L 454.385856 326.697392 
L 452.217577 323.600769 
L 449.942549 320.581705 
L 447.563543 317.643877 
L 445.083457 314.790865 
L 442.505314 312.026145 
L 439.832254 309.353085 
L 437.067533 306.774941 
L 434.214521 304.294855 
L 431.276693 301.915849 
L 428.257629 299.640821 
L 425.161006 297.472543 
L 421.990598 295.413656 
L 418.750268 293.466669 
L 415.443962 291.633953 
L 412.07571 289.917743 
L 408.649614 288.320129 
L 405.16985 286.843056 
L 401.640656 285.488326 
L 398.066333 284.257588 
L 394.451235 283.152341 
L 390.799767 282.173933 
L 387.116377 281.323556 
L 383.405553 280.602245 
L 379.671817 280.010879 
L 375.919716 279.550179 
L 372.153823 279.220706 
L 368.378726 279.022861 
L 364.599023 278.956886 
L 360.819321 279.022861 
L 357.044224 279.220706 
L 353.278331 279.550179 
L 349.52623 280.010879 
L 345.792494 280.602245 
L 342.08167 281.323556 
L 338.39828 282.173933 
L 334.746812 283.152341 
L 331.131714 284.257588 
L 327.557391 285.488326 
L 324.028197 286.843056 
L 320.548433 288.320129 
L 317.122337 289.917743 
L 313.754085 291.633953 
L 310.447779 293.466669 
L 307.207448 295.413656 
L 304.03704 297.472543 
L 300.940418 299.640821 
L 297.921354 301.915849 
L 294.983526 304.294855 
L 292.130514 306.774941 
L 289.365793 309.353085 
L 286.692733 312.026145 
L 284.11459 314.790865 
L 281.634504 317.643877 
L 279.255498 320.581705 
L 276.98047 323.600769 
L 274.812191 326.697392 
L 272.753304 329.8678 
L 270.806317 333.108131 
L 268.973602 336.414436 
L 267.257392 339.782689 
L 265.659777 343.208784 
L 264.182705 346.688549 
L 262.827974 350.217742 
L 261.597236 353.792066 
L 260.49199 357.407163 
L 259.513582 361.058632 
L 258.663204 364.742021 
L 257.941893 368.452845 
L 257.350527 372.186582 
L 256.889827 375.938682 
L 256.560354 379.704575 
L 256.36251 383.479673 
L 256.296535 387.259375 
L 256.36251 391.039077 
L 256.560354 394.814175 
L 256.889827 398.580068 
L 257.350527 402.332168 
L 257.941893 406.065905 
L 258.663204 409.776729 
L 259.513582 413.460118 
L 260.49199 417.111587 
L 261.597236 420.726684 
L 262.827974 424.301008 
L 264.182705 427.830201 
L 265.659777 431.309966 
L 267.257392 434.736061 
L 268.973602 438.104314 
L 270.806317 441.410619 
L 272.753304 444.65095 
L 274.812191 447.821358 
L 276.98047 450.917981 
L 279.255498 453.937045 
L 281.634504 456.874873 
L 284.11459 459.727885 
L 286.692733 462.492605 
L 289.365793 465.165665 
L 292.130514 467.743809 
L 294.983526 470.223895 
L 297.921354 472.602901 
L 300.940418 474.877929 
L 304.03704 477.046207 
L 307.207448 479.105094 
L 310.447779 481.052081 
L 313.754085 482.884797 
L 317.122337 484.601007 
L 320.548433 486.198621 
L 324.028197 487.675694 
L 327.557391 489.030424 
L 331.131714 490.261162 
L 334.746812 491.366409 
L 338.39828 492.344817 
L 342.08167 493.195194 
L 345.792494 493.916505 
L 349.52623 494.507871 
L 353.278331 494.968571 
L 357.044224 495.298044 
L 360.819321 495.495889 
L 364.599023 495.561864 
L 368.378726 495.495889 
L 372.153823 495.298044 
L 375.919716 494.968571 
L 379.671817 494.507871 
L 383.405553 493.916505 
L 387.116377 493.195194 
L 390.799767 492.344817 
L 394.451235 491.366409 
L 398.066333 490.261162 
L 401.640656 489.030424 
L 405.16985 487.675694 
L 408.649614 486.198621 
L 412.07571 484.601007 
L 415.443962 482.884797 
L 418.750268 481.052081 
L 421.990598 479.105094 
L 425.161006 477.046207 
L 428.257629 474.877929 
L 431.276693 472.602901 
L 434.214521 470.223895 
L 437.067533 467.743809 
L 439.832254 465.165665 
L 442.505314 462.492605 
L 445.083457 459.727885 
L 447.563543 456.874873 
L 449.942549 453.937045 
L 452.217577 450.917981 
L 454.385856 447.821358 
L 456.444743 444.65095 
L 458.39173 441.410619 
L 460.224445 438.104314 
L 461.940655 434.736061 
L 463.53827 431.309966 
L 465.015342 427.830201 
L 466.370073 424.301008 
L 467.600811 420.726684 
L 468.706057 417.111587 
L 469.684465 413.460118 
L 470.534843 409.776729 
L 471.256154 406.065905 
L 471.84752 402.332168 
L 472.30822 398.580068 
L 472.637693 394.814175 
L 472.835537 391.039077 
L 472.901512 387.259375 
L 472.901512 387.259375 
" style="fill:none;stroke:#b0b0b0;stroke-linecap:square;stroke-width:0.8;"/>
     </g>
     <g id="text_9">
      <!-- 70 -->
      <defs>
       <path d="M 56.390625 67.921875 
L 27.875 0 
L 20.609375 0 
L 47.796875 64.890625 
L 14.109375 64.890625 
L 14.109375 55.90625 
L 8.40625 55.90625 
L 8.40625 72.90625 
L 56.390625 72.90625 
z
" id="DejaVuSerif-55"/>
      </defs>
      <g transform="translate(464.657476 343.734119)scale(0.1 -0.1)">
       <use xlink:href="#DejaVuSerif-55"/>
       <use x="63.623047" xlink:href="#DejaVuSerif-48"/>
      </g>
     </g>
    </g>
    <g id="ytick_4">
     <g id="line2d_10">
      <path clip-path="url(#pf7394db0b9)" d="M 664.751634 387.259375 
L 664.56879 376.7842 
L 664.020478 366.321787 
L 663.107367 355.884884 
L 661.83057 345.486205 
L 660.191642 335.138421 
L 658.19258 324.854138 
L 655.835819 314.645886 
L 653.124231 304.526103 
L 650.06112 294.507117 
L 646.650217 284.601136 
L 642.895678 274.820228 
L 638.802078 265.17631 
L 634.374403 255.681131 
L 629.618049 246.34626 
L 624.53881 237.183069 
L 619.142874 228.202724 
L 613.436816 219.416165 
L 607.427587 210.834097 
L 601.122509 202.466976 
L 594.529263 194.324996 
L 587.655883 186.418076 
L 580.510743 178.755851 
L 573.102547 171.347656 
L 565.440322 164.202515 
L 557.533403 157.329135 
L 549.391423 150.73589 
L 541.024302 144.430812 
L 532.442234 138.421583 
L 523.655674 132.715525 
L 514.675329 127.319589 
L 505.512139 122.24035 
L 496.177268 117.483995 
L 486.682089 113.056321 
L 477.038171 108.96272 
L 467.257262 105.208181 
L 457.351281 101.797278 
L 447.332295 98.734167 
L 437.212512 96.022579 
L 427.00426 93.665819 
L 416.719977 91.666757 
L 406.372193 90.027829 
L 395.973515 88.751031 
L 385.536611 87.837921 
L 375.074198 87.289609 
L 364.599023 87.106764 
L 354.123848 87.289609 
L 343.661436 87.837921 
L 333.224532 88.751031 
L 322.825854 90.027829 
L 312.47807 91.666757 
L 302.193787 93.665819 
L 291.985535 96.022579 
L 281.865751 98.734167 
L 271.846766 101.797278 
L 261.940784 105.208181 
L 252.159876 108.96272 
L 242.515958 113.056321 
L 233.020779 117.483995 
L 223.685908 122.24035 
L 214.522718 127.319589 
L 205.542373 132.715525 
L 196.755813 138.421583 
L 188.173745 144.430812 
L 179.806624 150.73589 
L 171.664644 157.329135 
L 163.757725 164.202515 
L 156.0955 171.347656 
L 148.687304 178.755851 
L 141.542164 186.418076 
L 134.668784 194.324996 
L 128.075538 202.466976 
L 121.77046 210.834097 
L 115.761231 219.416165 
L 110.055173 228.202724 
L 104.659237 237.183069 
L 99.579998 246.34626 
L 94.823644 255.681131 
L 90.395969 265.17631 
L 86.302369 274.820228 
L 82.54783 284.601136 
L 79.136927 294.507117 
L 76.073815 304.526103 
L 73.362228 314.645886 
L 71.005467 324.854138 
L 69.006405 335.138421 
L 67.367477 345.486205 
L 66.09068 355.884884 
L 65.177569 366.321787 
L 64.629257 376.7842 
L 64.446412 387.259375 
L 64.629257 397.73455 
L 65.177569 408.196963 
L 66.09068 418.633866 
L 67.367477 429.032545 
L 69.006405 439.380329 
L 71.005467 449.664612 
L 73.362228 459.872864 
L 76.073815 469.992647 
L 79.136927 480.011633 
L 82.54783 489.917614 
L 86.302369 499.698522 
L 90.395969 509.34244 
L 94.823644 518.837619 
L 99.579998 528.17249 
L 104.659237 537.335681 
L 110.055173 546.316026 
L 115.761231 555.102585 
L 121.77046 563.684653 
L 128.075538 572.051774 
L 134.668784 580.193754 
L 141.542164 588.100674 
L 148.687304 595.762899 
L 156.0955 603.171094 
L 163.757725 610.316235 
L 171.664644 617.189615 
L 179.806624 623.78286 
L 188.173745 630.087938 
L 196.755813 636.097167 
L 205.542373 641.803225 
L 214.522718 647.199161 
L 223.685908 652.2784 
L 233.020779 657.034755 
L 242.515958 661.462429 
L 252.159876 665.55603 
L 261.940784 669.310569 
L 271.846766 672.721472 
L 281.865751 675.784583 
L 291.985535 678.496171 
L 302.193787 680.852931 
L 312.47807 682.851993 
L 322.825854 684.490921 
L 333.224532 685.767719 
L 343.661436 686.680829 
L 354.123848 687.229141 
L 364.599023 687.411986 
L 375.074198 687.229141 
L 385.536611 686.680829 
L 395.973515 685.767719 
L 406.372193 684.490921 
L 416.719977 682.851993 
L 427.00426 680.852931 
L 437.212512 678.496171 
L 447.332295 675.784583 
L 457.351281 672.721472 
L 467.257262 669.310569 
L 477.038171 665.55603 
L 486.682089 661.462429 
L 496.177268 657.034755 
L 505.512139 652.2784 
L 514.675329 647.199161 
L 523.655674 641.803225 
L 532.442234 636.097167 
L 541.024302 630.087938 
L 549.391423 623.78286 
L 557.533403 617.189615 
L 565.440322 610.316235 
L 573.102547 603.171094 
L 580.510743 595.762899 
L 587.655883 588.100674 
L 594.529263 580.193754 
L 601.122509 572.051774 
L 607.427587 563.684653 
L 613.436816 555.102585 
L 619.142874 546.316026 
L 624.53881 537.335681 
L 629.618049 528.17249 
L 634.374403 518.837619 
L 638.802078 509.34244 
L 642.895678 499.698522 
L 646.650217 489.917614 
L 650.06112 480.011633 
L 653.124231 469.992647 
L 655.835819 459.872864 
L 658.19258 449.664612 
L 660.191642 439.380329 
L 661.83057 429.032545 
L 663.107367 418.633866 
L 664.020478 408.196963 
L 664.56879 397.73455 
L 664.751634 387.259375 
L 664.751634 387.259375 
" style="fill:none;stroke:#b0b0b0;stroke-linecap:square;stroke-width:0.8;"/>
     </g>
     <g id="text_10">
      <!-- 194 -->
      <defs>
       <path d="M 46.78125 32.671875 
Q 43.5 29 39.25 27.1875 
Q 35.015625 25.390625 29.6875 25.390625 
Q 18.84375 25.390625 12.5625 31.9375 
Q 6.296875 38.484375 6.296875 49.8125 
Q 6.296875 60.890625 13.109375 67.546875 
Q 19.921875 74.21875 31.296875 74.21875 
Q 43.65625 74.21875 50.265625 65.015625 
Q 56.890625 55.8125 56.890625 38.71875 
Q 56.890625 19.578125 49.015625 9.078125 
Q 41.15625 -1.421875 26.90625 -1.421875 
Q 23.046875 -1.421875 18.796875 -0.6875 
Q 14.546875 0.046875 10.109375 1.515625 
L 10.109375 13.625 
L 15.578125 13.625 
Q 16.21875 8.6875 19.390625 6.046875 
Q 22.5625 3.421875 27.875 3.421875 
Q 37.359375 3.421875 41.984375 10.5625 
Q 46.625 17.71875 46.78125 32.671875 
z
M 30.90625 69.390625 
Q 23.96875 69.390625 20.28125 64.328125 
Q 16.609375 59.28125 16.609375 49.8125 
Q 16.609375 40.328125 20.28125 35.25 
Q 23.96875 30.171875 30.90625 30.171875 
Q 37.84375 30.171875 41.53125 35.078125 
Q 45.21875 39.984375 45.21875 49.21875 
Q 45.21875 58.9375 41.5 64.15625 
Q 37.796875 69.390625 30.90625 69.390625 
z
" id="DejaVuSerif-57"/>
       <path d="M 34.90625 24.703125 
L 34.90625 63.484375 
L 10.015625 24.703125 
z
M 56.390625 0 
L 23.1875 0 
L 23.1875 5.171875 
L 34.90625 5.171875 
L 34.90625 19.484375 
L 3.078125 19.484375 
L 3.078125 24.8125 
L 35.015625 74.21875 
L 44.671875 74.21875 
L 44.671875 24.703125 
L 58.59375 24.703125 
L 58.59375 19.484375 
L 44.671875 19.484375 
L 44.671875 5.171875 
L 56.390625 5.171875 
z
" id="DejaVuSerif-52"/>
      </defs>
      <g transform="translate(641.903877 270.316256)scale(0.1 -0.1)">
       <use xlink:href="#DejaVuSerif-49"/>
       <use x="63.623047" xlink:href="#DejaVuSerif-57"/>
       <use x="127.246094" xlink:href="#DejaVuSerif-52"/>
      </g>
     </g>
    </g>
    <g id="ytick_5">
     <g id="line2d_11">
      <path clip-path="url(#pf7394db0b9)" d="M 550.260432 387.259375 
L 550.147332 380.779885 
L 549.80817 374.30829 
L 549.24336 367.852473 
L 548.453588 361.420301 
L 547.439818 355.01961 
L 546.203285 348.658198 
L 544.745495 342.343815 
L 543.068224 336.084155 
L 541.173516 329.886844 
L 539.063679 323.759433 
L 536.741284 317.709387 
L 534.20916 311.744077 
L 531.470392 305.87077 
L 528.528318 300.096623 
L 525.38652 294.428671 
L 522.048828 288.873818 
L 518.519307 283.438833 
L 514.802258 278.130337 
L 510.90221 272.954798 
L 506.823914 267.918522 
L 502.572339 263.027644 
L 498.152664 258.288123 
L 493.570275 253.705734 
L 488.830755 249.28606 
L 483.939877 245.034484 
L 478.9036 240.956188 
L 473.728062 237.05614 
L 468.419566 233.339091 
L 462.984581 229.809571 
L 457.429728 226.471878 
L 451.761775 223.330081 
L 445.987628 220.388006 
L 440.114322 217.649238 
L 434.149011 215.117114 
L 428.098965 212.794719 
L 421.971554 210.684882 
L 415.774243 208.790174 
L 409.514583 207.112903 
L 403.200201 205.655113 
L 396.838789 204.41858 
L 390.438097 203.40481 
L 384.005925 202.615039 
L 377.550109 202.050228 
L 371.078513 201.711066 
L 364.599023 201.597966 
L 358.119534 201.711066 
L 351.647938 202.050228 
L 345.192122 202.615039 
L 338.759949 203.40481 
L 332.359258 204.41858 
L 325.997846 205.655113 
L 319.683463 207.112903 
L 313.423804 208.790174 
L 307.226493 210.684882 
L 301.099082 212.794719 
L 295.049036 215.117114 
L 289.083725 217.649238 
L 283.210419 220.388006 
L 277.436272 223.330081 
L 271.768319 226.471878 
L 266.213466 229.809571 
L 260.778481 233.339091 
L 255.469985 237.05614 
L 250.294447 240.956188 
L 245.25817 245.034484 
L 240.367292 249.28606 
L 235.627772 253.705734 
L 231.045383 258.288123 
L 226.625708 263.027644 
L 222.374133 267.918522 
L 218.295837 272.954798 
L 214.395788 278.130337 
L 210.67874 283.438833 
L 207.149219 288.873818 
L 203.811527 294.428671 
L 200.669729 300.096623 
L 197.727654 305.87077 
L 194.988887 311.744077 
L 192.456763 317.709387 
L 190.134368 323.759433 
L 188.024531 329.886844 
L 186.129823 336.084155 
L 184.452552 342.343815 
L 182.994762 348.658198 
L 181.758229 355.01961 
L 180.744459 361.420301 
L 179.954687 367.852473 
L 179.389876 374.30829 
L 179.050714 380.779885 
L 178.937615 387.259375 
L 179.050714 393.738865 
L 179.389876 400.21046 
L 179.954687 406.666277 
L 180.744459 413.098449 
L 181.758229 419.49914 
L 182.994762 425.860552 
L 184.452552 432.174935 
L 186.129823 438.434595 
L 188.024531 444.631906 
L 190.134368 450.759317 
L 192.456763 456.809363 
L 194.988887 462.774673 
L 197.727654 468.64798 
L 200.669729 474.422127 
L 203.811527 480.090079 
L 207.149219 485.644932 
L 210.67874 491.079917 
L 214.395788 496.388413 
L 218.295837 501.563952 
L 222.374133 506.600228 
L 226.625708 511.491106 
L 231.045383 516.230627 
L 235.627772 520.813016 
L 240.367292 525.23269 
L 245.25817 529.484266 
L 250.294447 533.562562 
L 255.469985 537.46261 
L 260.778481 541.179659 
L 266.213466 544.709179 
L 271.768319 548.046872 
L 277.436272 551.188669 
L 283.210419 554.130744 
L 289.083725 556.869512 
L 295.049036 559.401636 
L 301.099082 561.724031 
L 307.226493 563.833868 
L 313.423804 565.728576 
L 319.683463 567.405847 
L 325.997846 568.863637 
L 332.359258 570.10017 
L 338.759949 571.11394 
L 345.192122 571.903711 
L 351.647938 572.468522 
L 358.119534 572.807684 
L 364.599023 572.920784 
L 371.078513 572.807684 
L 377.550109 572.468522 
L 384.005925 571.903711 
L 390.438097 571.11394 
L 396.838789 570.10017 
L 403.200201 568.863637 
L 409.514583 567.405847 
L 415.774243 565.728576 
L 421.971554 563.833868 
L 428.098965 561.724031 
L 434.149011 559.401636 
L 440.114322 556.869512 
L 445.987628 554.130744 
L 451.761775 551.188669 
L 457.429728 548.046872 
L 462.984581 544.709179 
L 468.419566 541.179659 
L 473.728062 537.46261 
L 478.9036 533.562562 
L 483.939877 529.484266 
L 488.830755 525.23269 
L 493.570275 520.813016 
L 498.152664 516.230627 
L 502.572339 511.491106 
L 506.823914 506.600228 
L 510.90221 501.563952 
L 514.802258 496.388413 
L 518.519307 491.079917 
L 522.048828 485.644932 
L 525.38652 480.090079 
L 528.528318 474.422127 
L 531.470392 468.64798 
L 534.20916 462.774673 
L 536.741284 456.809363 
L 539.063679 450.759317 
L 541.173516 444.631906 
L 543.068224 438.434595 
L 544.745495 432.174935 
L 546.203285 425.860552 
L 547.439818 419.49914 
L 548.453588 413.098449 
L 549.24336 406.666277 
L 549.80817 400.21046 
L 550.147332 393.738865 
L 550.260432 387.259375 
L 550.260432 387.259375 
" style="fill:none;stroke:#b0b0b0;stroke-linecap:square;stroke-width:0.8;"/>
     </g>
     <g id="text_11">
      <!-- 120 -->
      <defs>
       <path d="M 12.796875 55.515625 
L 7.328125 55.515625 
L 7.328125 68.5 
Q 12.546875 71.296875 17.84375 72.75 
Q 23.140625 74.21875 28.21875 74.21875 
Q 39.59375 74.21875 46.1875 68.703125 
Q 52.78125 63.1875 52.78125 53.71875 
Q 52.78125 43.015625 37.84375 28.125 
Q 36.671875 27 36.078125 26.421875 
L 17.671875 8.015625 
L 48.09375 8.015625 
L 48.09375 17 
L 53.8125 17 
L 53.8125 0 
L 6.78125 0 
L 6.78125 5.328125 
L 28.90625 27.390625 
Q 36.234375 34.71875 39.359375 40.84375 
Q 42.484375 46.96875 42.484375 53.71875 
Q 42.484375 61.078125 38.640625 65.234375 
Q 34.8125 69.390625 28.078125 69.390625 
Q 21.09375 69.390625 17.28125 65.921875 
Q 13.484375 62.453125 12.796875 55.515625 
z
" id="DejaVuSerif-50"/>
      </defs>
      <g transform="translate(536.127799 314.130142)scale(0.1 -0.1)">
       <use xlink:href="#DejaVuSerif-49"/>
       <use x="63.623047" xlink:href="#DejaVuSerif-50"/>
       <use x="127.246094" xlink:href="#DejaVuSerif-48"/>
      </g>
     </g>
    </g>
    <g id="ytick_6">
     <g id="line2d_12">
      <path clip-path="url(#pf7394db0b9)" d="M 581.204 387.259375 
L 581.072051 379.69997 
L 580.676362 372.149776 
L 580.017416 364.61799 
L 579.096016 357.113789 
L 577.913284 349.646315 
L 576.470662 342.224668 
L 574.769907 334.857888 
L 572.813091 327.554952 
L 570.602598 320.324756 
L 568.141122 313.17611 
L 565.431661 306.117722 
L 562.477516 299.158194 
L 559.282287 292.306003 
L 555.849867 285.569498 
L 552.184436 278.956886 
L 548.290462 272.476225 
L 544.172688 266.135409 
L 539.836131 259.942164 
L 535.286075 253.904035 
L 530.528062 248.02838 
L 525.567891 242.322355 
L 520.411604 236.792915 
L 515.065484 231.446794 
L 509.536043 226.290507 
L 503.830019 221.330336 
L 497.954363 216.572324 
L 491.916235 212.022267 
L 485.722989 207.685711 
L 479.382174 203.567937 
L 472.901512 199.673962 
L 466.288901 196.008532 
L 459.552396 192.576111 
L 452.700205 189.380882 
L 445.740676 186.426737 
L 438.682289 183.717276 
L 431.533642 181.2558 
L 424.303447 179.045307 
L 417.00051 177.088491 
L 409.63373 175.387736 
L 402.212083 173.945114 
L 394.74461 172.762383 
L 387.240409 171.840983 
L 379.708623 171.182037 
L 372.158428 170.786348 
L 364.599023 170.654398 
L 357.039619 170.786348 
L 349.489424 171.182037 
L 341.957638 171.840983 
L 334.453437 172.762383 
L 326.985964 173.945114 
L 319.564316 175.387736 
L 312.197537 177.088491 
L 304.8946 179.045307 
L 297.664404 181.2558 
L 290.515758 183.717276 
L 283.457371 186.426737 
L 276.497842 189.380882 
L 269.645651 192.576111 
L 262.909146 196.008532 
L 256.296535 199.673962 
L 249.815873 203.567937 
L 243.475057 207.685711 
L 237.281812 212.022267 
L 231.243684 216.572324 
L 225.368028 221.330336 
L 219.662004 226.290507 
L 214.132563 231.446794 
L 208.786442 236.792915 
L 203.630156 242.322355 
L 198.669984 248.02838 
L 193.911972 253.904035 
L 189.361916 259.942164 
L 185.025359 266.135409 
L 180.907585 272.476225 
L 177.013611 278.956886 
L 173.34818 285.569498 
L 169.91576 292.306003 
L 166.720531 299.158194 
L 163.766386 306.117722 
L 161.056925 313.17611 
L 158.595449 320.324756 
L 156.384956 327.554952 
L 154.42814 334.857888 
L 152.727385 342.224668 
L 151.284763 349.646315 
L 150.102031 357.113789 
L 149.180631 364.61799 
L 148.521685 372.149776 
L 148.125996 379.69997 
L 147.994046 387.259375 
L 148.125996 394.81878 
L 148.521685 402.368974 
L 149.180631 409.90076 
L 150.102031 417.404961 
L 151.284763 424.872435 
L 152.727385 432.294082 
L 154.42814 439.660862 
L 156.384956 446.963798 
L 158.595449 454.193994 
L 161.056925 461.34264 
L 163.766386 468.401028 
L 166.720531 475.360556 
L 169.91576 482.212747 
L 173.34818 488.949252 
L 177.013611 495.561864 
L 180.907585 502.042525 
L 185.025359 508.383341 
L 189.361916 514.576586 
L 193.911972 520.614715 
L 198.669984 526.49037 
L 203.630156 532.196395 
L 208.786442 537.725835 
L 214.132563 543.071956 
L 219.662004 548.228243 
L 225.368028 553.188414 
L 231.243684 557.946426 
L 237.281812 562.496483 
L 243.475057 566.833039 
L 249.815873 570.950813 
L 256.296535 574.844788 
L 262.909146 578.510218 
L 269.645651 581.942639 
L 276.497842 585.137868 
L 283.457371 588.092013 
L 290.515758 590.801474 
L 297.664404 593.26295 
L 304.8946 595.473443 
L 312.197537 597.430259 
L 319.564316 599.131014 
L 326.985964 600.573636 
L 334.453437 601.756367 
L 341.957638 602.677767 
L 349.489424 603.336713 
L 357.039619 603.732402 
L 364.599023 603.864352 
L 372.158428 603.732402 
L 379.708623 603.336713 
L 387.240409 602.677767 
L 394.74461 601.756367 
L 402.212083 600.573636 
L 409.63373 599.131014 
L 417.00051 597.430259 
L 424.303447 595.473443 
L 431.533642 593.26295 
L 438.682289 590.801474 
L 445.740676 588.092013 
L 452.700205 585.137868 
L 459.552396 581.942639 
L 466.288901 578.510218 
L 472.901512 574.844788 
L 479.382174 570.950813 
L 485.722989 566.833039 
L 491.916235 562.496483 
L 497.954363 557.946426 
L 503.830019 553.188414 
L 509.536043 548.228243 
L 515.065484 543.071956 
L 520.411604 537.725835 
L 525.567891 532.196395 
L 530.528062 526.49037 
L 535.286075 520.614715 
L 539.836131 514.576586 
L 544.172688 508.383341 
L 548.290462 502.042525 
L 552.184436 495.561864 
L 555.849867 488.949252 
L 559.282287 482.212747 
L 562.477516 475.360556 
L 565.431661 468.401028 
L 568.141122 461.34264 
L 570.602598 454.193994 
L 572.813091 446.963798 
L 574.769907 439.660862 
L 576.470662 432.294082 
L 577.913284 424.872435 
L 579.096016 417.404961 
L 580.017416 409.90076 
L 580.676362 402.368974 
L 581.072051 394.81878 
L 581.204 387.259375 
L 581.204 387.259375 
" style="fill:none;stroke:#b0b0b0;stroke-linecap:square;stroke-width:0.8;"/>
     </g>
     <g id="text_12">
      <!-- 140 -->
      <g transform="translate(564.715928 302.288551)scale(0.1 -0.1)">
       <use xlink:href="#DejaVuSerif-49"/>
       <use x="63.623047" xlink:href="#DejaVuSerif-52"/>
       <use x="127.246094" xlink:href="#DejaVuSerif-48"/>
      </g>
     </g>
    </g>
    <g id="ytick_7">
     <g id="line2d_13">
      <path clip-path="url(#pf7394db0b9)" d="M 528.599935 387.259375 
L 528.50003 381.535826 
L 528.200437 375.81925 
L 527.70152 370.116612 
L 527.003889 364.43486 
L 526.108392 358.780916 
L 525.016121 353.161668 
L 523.728407 347.583964 
L 522.246817 342.054597 
L 520.573159 336.580306 
L 518.709469 331.16776 
L 516.65802 325.823552 
L 514.421311 320.554195 
L 512.002066 315.366107 
L 509.403233 310.265611 
L 506.627979 305.258919 
L 503.679684 300.352133 
L 500.561941 295.551229 
L 497.278548 290.862058 
L 493.833505 286.290332 
L 490.23101 281.841621 
L 486.475452 277.521346 
L 482.571406 273.334769 
L 478.523629 269.286992 
L 474.337053 265.382946 
L 470.016777 261.627388 
L 465.568066 258.024893 
L 460.99634 254.579851 
L 456.307169 251.296458 
L 451.506266 248.178714 
L 446.599479 245.23042 
L 441.592788 242.455165 
L 436.492291 239.856332 
L 431.304204 237.437088 
L 426.034846 235.200378 
L 420.690639 233.148929 
L 415.278092 231.28524 
L 409.803801 229.611581 
L 404.274435 228.129992 
L 398.69673 226.842277 
L 393.077483 225.750006 
L 387.423539 224.854509 
L 381.741787 224.156878 
L 376.039149 223.657962 
L 370.322573 223.358369 
L 364.599023 223.258464 
L 358.875474 223.358369 
L 353.158898 223.657962 
L 347.45626 224.156878 
L 341.774508 224.854509 
L 336.120564 225.750006 
L 330.501317 226.842277 
L 324.923612 228.129992 
L 319.394246 229.611581 
L 313.919955 231.28524 
L 308.507408 233.148929 
L 303.163201 235.200378 
L 297.893843 237.437088 
L 292.705756 239.856332 
L 287.605259 242.455165 
L 282.598568 245.23042 
L 277.691781 248.178714 
L 272.890878 251.296458 
L 268.201706 254.579851 
L 263.62998 258.024893 
L 259.18127 261.627388 
L 254.860994 265.382946 
L 250.674418 269.286992 
L 246.626641 273.334769 
L 242.722595 277.521346 
L 238.967037 281.841621 
L 235.364542 286.290332 
L 231.919499 290.862058 
L 228.636106 295.551229 
L 225.518363 300.352133 
L 222.570068 305.258919 
L 219.794814 310.265611 
L 217.195981 315.366107 
L 214.776736 320.554195 
L 212.540026 325.823552 
L 210.488577 331.16776 
L 208.624888 336.580306 
L 206.951229 342.054597 
L 205.46964 347.583964 
L 204.181926 353.161668 
L 203.089655 358.780916 
L 202.194158 364.43486 
L 201.496526 370.116612 
L 200.99761 375.81925 
L 200.698017 381.535826 
L 200.598112 387.259375 
L 200.698017 392.982924 
L 200.99761 398.6995 
L 201.496526 404.402138 
L 202.194158 410.08389 
L 203.089655 415.737834 
L 204.181926 421.357082 
L 205.46964 426.934786 
L 206.951229 432.464153 
L 208.624888 437.938444 
L 210.488577 443.35099 
L 212.540026 448.695198 
L 214.776736 453.964555 
L 217.195981 459.152643 
L 219.794814 464.253139 
L 222.570068 469.259831 
L 225.518363 474.166617 
L 228.636106 478.967521 
L 231.919499 483.656692 
L 235.364542 488.228418 
L 238.967037 492.677129 
L 242.722595 496.997404 
L 246.626641 501.183981 
L 250.674418 505.231758 
L 254.860994 509.135804 
L 259.18127 512.891362 
L 263.62998 516.493857 
L 268.201706 519.938899 
L 272.890878 523.222292 
L 277.691781 526.340036 
L 282.598568 529.28833 
L 287.605259 532.063585 
L 292.705756 534.662418 
L 297.893843 537.081662 
L 303.163201 539.318372 
L 308.507408 541.369821 
L 313.919955 543.23351 
L 319.394246 544.907169 
L 324.923612 546.388758 
L 330.501317 547.676473 
L 336.120564 548.768744 
L 341.774508 549.664241 
L 347.45626 550.361872 
L 353.158898 550.860788 
L 358.875474 551.160381 
L 364.599023 551.260286 
L 370.322573 551.160381 
L 376.039149 550.860788 
L 381.741787 550.361872 
L 387.423539 549.664241 
L 393.077483 548.768744 
L 398.69673 547.676473 
L 404.274435 546.388758 
L 409.803801 544.907169 
L 415.278092 543.23351 
L 420.690639 541.369821 
L 426.034846 539.318372 
L 431.304204 537.081662 
L 436.492291 534.662418 
L 441.592788 532.063585 
L 446.599479 529.28833 
L 451.506266 526.340036 
L 456.307169 523.222292 
L 460.99634 519.938899 
L 465.568066 516.493857 
L 470.016777 512.891362 
L 474.337053 509.135804 
L 478.523629 505.231758 
L 482.571406 501.183981 
L 486.475452 496.997404 
L 490.23101 492.677129 
L 493.833505 488.228418 
L 497.278548 483.656692 
L 500.561941 478.967521 
L 503.679684 474.166617 
L 506.627979 469.259831 
L 509.403233 464.253139 
L 512.002066 459.152643 
L 514.421311 453.964555 
L 516.65802 448.695198 
L 518.709469 443.35099 
L 520.573159 437.938444 
L 522.246817 432.464153 
L 523.728407 426.934786 
L 525.016121 421.357082 
L 526.108392 415.737834 
L 527.003889 410.08389 
L 527.70152 404.402138 
L 528.200437 398.6995 
L 528.50003 392.982924 
L 528.599935 387.259375 
L 528.599935 387.259375 
" style="fill:none;stroke:#b0b0b0;stroke-linecap:square;stroke-width:0.8;"/>
     </g>
     <g id="text_13">
      <!-- 106 -->
      <g transform="translate(516.116109 322.419256)scale(0.1 -0.1)">
       <use xlink:href="#DejaVuSerif-49"/>
       <use x="63.623047" xlink:href="#DejaVuSerif-48"/>
       <use x="127.246094" xlink:href="#DejaVuSerif-54"/>
      </g>
     </g>
    </g>
   </g>
   <g id="line2d_14">
    <path clip-path="url(#pf7394db0b9)" d="M 528.599935 387.259375 
L 480.637404 186.275004 
L 310.447779 293.466669 
L 64.446412 387.259375 
L 271.768319 548.046872 
L 472.901512 574.844788 
L 528.599935 387.259375 
" style="fill:none;stroke:#714f6e;stroke-linecap:square;stroke-width:4;"/>
   </g>
   <g id="patch_4">
    <path d="M 674.344141 387.259375 
C 674.344141 346.584019 666.331982 306.304179 650.766198 268.72505 
C 635.200413 231.145921 612.383716 196.998322 583.621896 168.236502 
C 554.860076 139.474682 520.712477 116.657986 483.133348 101.092201 
C 445.554219 85.526416 405.27438 77.514258 364.599023 77.514258 
C 323.923667 77.514258 283.643828 85.526416 246.064699 101.092201 
C 208.48557 116.657986 174.337971 139.474682 145.576151 168.236502 
C 116.814331 196.998322 93.997634 231.145921 78.431849 268.72505 
C 62.866064 306.304179 54.853906 346.584019 54.853906 387.259375 
C 54.853906 427.934731 62.866064 468.214571 78.431849 505.7937 
C 93.997634 543.372829 116.814331 577.520428 145.576151 606.282248 
C 174.337971 635.044068 208.48557 657.860764 246.064699 673.426549 
C 283.643828 688.992334 323.923667 697.004492 364.599023 697.004492 
C 405.27438 697.004492 445.554219 688.992334 483.133348 673.426549 
C 520.712477 657.860764 554.860076 635.044068 583.621896 606.282248 
C 612.383716 577.520428 635.200413 543.372829 650.766198 505.7937 
C 666.331982 468.214571 674.344141 427.934731 674.344141 387.259375 
" style="fill:none;stroke:#000000;stroke-linecap:square;stroke-linejoin:miter;stroke-width:0.8;"/>
   </g>
   <g id="text_14">
    <!-- MegaMewtwoY -->
    <defs>
     <path d="M 5.515625 0 
L 5.515625 5.171875 
L 14.796875 5.171875 
L 14.796875 67.671875 
L 4.984375 67.671875 
L 4.984375 72.90625 
L 26.21875 72.90625 
L 51.8125 21 
L 77.390625 72.90625 
L 97.3125 72.90625 
L 97.3125 67.671875 
L 87.59375 67.671875 
L 87.59375 5.171875 
L 96.921875 5.171875 
L 96.921875 0 
L 68.40625 0 
L 68.40625 5.171875 
L 77.6875 5.171875 
L 77.6875 61.53125 
L 52.6875 10.6875 
L 45.796875 10.6875 
L 20.796875 61.53125 
L 20.796875 5.171875 
L 30.078125 5.171875 
L 30.078125 0 
z
" id="DejaVuSerif-77"/>
     <path d="M 52.484375 46.6875 
L 52.484375 1.125 
Q 52.484375 -10.0625 46.328125 -16.140625 
Q 40.1875 -22.21875 28.8125 -22.21875 
Q 23.6875 -22.21875 19 -21.28125 
Q 14.3125 -20.359375 10.015625 -18.5 
L 10.015625 -7.625 
L 14.703125 -7.625 
Q 15.578125 -12.703125 18.84375 -15.046875 
Q 22.125 -17.390625 28.21875 -17.390625 
Q 36.140625 -17.390625 39.8125 -12.921875 
Q 43.5 -8.453125 43.5 1.125 
L 43.5 8.109375 
Q 40.875 3.21875 36.796875 0.890625 
Q 32.71875 -1.421875 26.703125 -1.421875 
Q 17.140625 -1.421875 11.0625 6.171875 
Q 4.984375 13.765625 4.984375 25.984375 
Q 4.984375 38.1875 11.03125 45.75 
Q 17.09375 53.328125 26.703125 53.328125 
Q 32.71875 53.328125 36.796875 51 
Q 40.875 48.6875 43.5 43.796875 
L 43.5 51.90625 
L 61.078125 51.90625 
L 61.078125 46.6875 
z
M 43.5 28.515625 
Q 43.5 37.84375 39.90625 42.765625 
Q 36.328125 47.703125 29.5 47.703125 
Q 22.5625 47.703125 19.015625 42.234375 
Q 15.484375 36.765625 15.484375 25.984375 
Q 15.484375 15.234375 19.015625 9.71875 
Q 22.5625 4.203125 29.5 4.203125 
Q 36.328125 4.203125 39.90625 9.109375 
Q 43.5 14.015625 43.5 23.390625 
z
" id="DejaVuSerif-103"/>
     <path d="M 48 51.90625 
L 61.28125 11.375 
L 73 46.6875 
L 65.484375 46.6875 
L 65.484375 51.90625 
L 84.28125 51.90625 
L 84.28125 46.6875 
L 78.515625 46.6875 
L 63.09375 0 
L 55.609375 0 
L 42.828125 38.8125 
L 29.984375 0 
L 22.796875 0 
L 7.421875 46.6875 
L 1.609375 46.6875 
L 1.609375 51.90625 
L 25.09375 51.90625 
L 25.09375 46.6875 
L 16.703125 46.6875 
L 28.328125 11.375 
L 41.703125 51.90625 
z
" id="DejaVuSerif-119"/>
     <path d="M 18.890625 0 
L 18.890625 5.171875 
L 28.21875 5.171875 
L 28.21875 31.390625 
L 5.71875 67.671875 
L -1.125 67.671875 
L -1.125 72.90625 
L 25.984375 72.90625 
L 25.984375 67.671875 
L 17.484375 67.671875 
L 35.6875 38.1875 
L 53.90625 67.671875 
L 45.703125 67.671875 
L 45.703125 72.90625 
L 66.890625 72.90625 
L 66.890625 67.671875 
L 60.015625 67.671875 
L 38.09375 32.328125 
L 38.09375 5.171875 
L 47.40625 5.171875 
L 47.40625 0 
z
" id="DejaVuSerif-89"/>
    </defs>
    <g transform="translate(246.94043 40.539746)scale(0.3 -0.3)">
     <use xlink:href="#DejaVuSerif-77"/>
     <use x="102.392578" xlink:href="#DejaVuSerif-101"/>
     <use x="161.572266" xlink:href="#DejaVuSerif-103"/>
     <use x="225.585938" xlink:href="#DejaVuSerif-97"/>
     <use x="285.205078" xlink:href="#DejaVuSerif-77"/>
     <use x="387.597656" xlink:href="#DejaVuSerif-101"/>
     <use x="446.777344" xlink:href="#DejaVuSerif-119"/>
     <use x="532.373047" xlink:href="#DejaVuSerif-116"/>
     <use x="572.558594" xlink:href="#DejaVuSerif-119"/>
     <use x="658.154297" xlink:href="#DejaVuSerif-111"/>
     <use x="718.359375" xlink:href="#DejaVuSerif-89"/>
    </g>
   </g>
  </g>
 </g>
 <defs>
  <clipPath id="pf7394db0b9">
   <path d="M 674.344141 387.259375 
C 674.344141 346.584019 666.331982 306.304179 650.766198 268.72505 
C 635.200413 231.145921 612.383716 196.998322 583.621896 168.236502 
C 554.860076 139.474682 520.712477 116.657986 483.133348 101.092201 
C 445.554219 85.526416 405.27438 77.514258 364.599023 77.514258 
C 323.923667 77.514258 283.643828 85.526416 246.064699 101.092201 
C 208.48557 116.657986 174.337971 139.474682 145.576151 168.236502 
C 116.814331 196.998322 93.997634 231.145921 78.431849 268.72505 
C 62.866064 306.304179 54.853906 346.584019 54.853906 387.259375 
C 54.853906 427.934731 62.866064 468.214571 78.431849 505.7937 
C 93.997634 543.372829 116.814331 577.520428 145.576151 606.282248 
C 174.337971 635.044068 208.48557 657.860764 246.064699 673.426549 
C 283.643828 688.992334 323.923667 697.004492 364.599023 697.004492 
C 405.27438 697.004492 445.554219 688.992334 483.133348 673.426549 
C 520.712477 657.860764 554.860076 635.044068 583.621896 606.282248 
C 612.383716 577.520428 635.200413 543.372829 650.766198 505.7937 
C 666.331982 468.214571 674.344141 427.934731 674.344141 387.259375 
M 364.599023 387.259375 
C 364.599023 387.259375 364.599023 387.259375 364.599023 387.259375 
C 364.599023 387.259375 364.599023 387.259375 364.599023 387.259375 
C 364.599023 387.259375 364.599023 387.259375 364.599023 387.259375 
C 364.599023 387.259375 364.599023 387.259375 364.599023 387.259375 
C 364.599023 387.259375 364.599023 387.259375 364.599023 387.259375 
C 364.599023 387.259375 364.599023 387.259375 364.599023 387.259375 
C 364.599023 387.259375 364.599023 387.259375 364.599023 387.259375 
C 364.599023 387.259375 364.599023 387.259375 364.599023 387.259375 
C 364.599023 387.259375 364.599023 387.259375 364.599023 387.259375 
C 364.599023 387.259375 364.599023 387.259375 364.599023 387.259375 
C 364.599023 387.259375 364.599023 387.259375 364.599023 387.259375 
C 364.599023 387.259375 364.599023 387.259375 364.599023 387.259375 
C 364.599023 387.259375 364.599023 387.259375 364.599023 387.259375 
C 364.599023 387.259375 364.599023 387.259375 364.599023 387.259375 
C 364.599023 387.259375 364.599023 387.259375 364.599023 387.259375 
C 364.599023 387.259375 364.599023 387.259375 364.599023 387.259375 
M 674.344141 387.259375 
z
"/>
  </clipPath>
 </defs>
</svg>
