<?xml version="1.0" encoding="utf-8" standalone="no"?>
<!DOCTYPE svg PUBLIC "-//W3C//DTD SVG 1.1//EN"
  "http://www.w3.org/Graphics/SVG/1.1/DTD/svg11.dtd">
<!-- Created with matplotlib (https://matplotlib.org/) -->
<svg height="720pt" version="1.1" viewBox="0 0 720 720" width="720pt" xmlns="http://www.w3.org/2000/svg" xmlns:xlink="http://www.w3.org/1999/xlink">
 <defs>
  <style type="text/css">
*{stroke-linecap:butt;stroke-linejoin:round;}
  </style>
 </defs>
 <g id="figure_1">
  <g id="patch_1">
   <path d="M 0 720 
L 720 720 
L 720 0 
L 0 0 
z
" style="fill:#ffffff;"/>
  </g>
  <g id="axes_1">
   <g id="patch_2">
    <path d="M 674.344141 387.259375 
C 674.344141 346.584019 666.331982 306.304179 650.766198 268.72505 
C 635.200413 231.145921 612.383716 196.998322 583.621896 168.236502 
C 554.860076 139.474682 520.712477 116.657986 483.133348 101.092201 
C 445.554219 85.526416 405.27438 77.514258 364.599023 77.514258 
C 323.923667 77.514258 283.643828 85.526416 246.064699 101.092201 
C 208.48557 116.657986 174.337971 139.474682 145.576151 168.236502 
C 116.814331 196.998322 93.997634 231.145921 78.431849 268.72505 
C 62.866064 306.304179 54.853906 346.584019 54.853906 387.259375 
C 54.853906 427.934731 62.866064 468.214571 78.431849 505.7937 
C 93.997634 543.372829 116.814331 577.520428 145.576151 606.282248 
C 174.337971 635.044068 208.48557 657.860764 246.064699 673.426549 
C 283.643828 688.992334 323.923667 697.004492 364.599023 697.004492 
C 405.27438 697.004492 445.554219 688.992334 483.133348 673.426549 
C 520.712477 657.860764 554.860076 635.044068 583.621896 606.282248 
C 612.383716 577.520428 635.200413 543.372829 650.766198 505.7937 
C 666.331982 468.214571 674.344141 427.934731 674.344141 387.259375 
M 364.599023 387.259375 
C 364.599023 387.259375 364.599023 387.259375 364.599023 387.259375 
C 364.599023 387.259375 364.599023 387.259375 364.599023 387.259375 
C 364.599023 387.259375 364.599023 387.259375 364.599023 387.259375 
C 364.599023 387.259375 364.599023 387.259375 364.599023 387.259375 
C 364.599023 387.259375 364.599023 387.259375 364.599023 387.259375 
C 364.599023 387.259375 364.599023 387.259375 364.599023 387.259375 
C 364.599023 387.259375 364.599023 387.259375 364.599023 387.259375 
C 364.599023 387.259375 364.599023 387.259375 364.599023 387.259375 
C 364.599023 387.259375 364.599023 387.259375 364.599023 387.259375 
C 364.599023 387.259375 364.599023 387.259375 364.599023 387.259375 
C 364.599023 387.259375 364.599023 387.259375 364.599023 387.259375 
C 364.599023 387.259375 364.599023 387.259375 364.599023 387.259375 
C 364.599023 387.259375 364.599023 387.259375 364.599023 387.259375 
C 364.599023 387.259375 364.599023 387.259375 364.599023 387.259375 
C 364.599023 387.259375 364.599023 387.259375 364.599023 387.259375 
C 364.599023 387.259375 364.599023 387.259375 364.599023 387.259375 
M 674.344141 387.259375 
z
" style="fill:#ffffff;"/>
   </g>
   <g id="patch_3">
    <path clip-path="url(#pc4fe8aa110)" d="M 533.406131 387.259375 
L 515.888412 125.218467 
L 284.973029 249.343108 
L 119.350961 387.259375 
L 284.973029 525.175642 
L 468.112816 566.550523 
z
" style="fill:#bb87a1;stroke:#bb87a1;stroke-linejoin:miter;"/>
   </g>
   <g id="matplotlib.axis_1">
    <g id="xtick_1">
     <g id="line2d_1">
      <path clip-path="url(#pc4fe8aa110)" d="M 364.599023 387.259375 
L 674.344141 387.259375 
" style="fill:none;stroke:#b0b0b0;stroke-linecap:square;stroke-width:0.8;"/>
     </g>
     <g id="text_1">
      <!-- Vida -->
      <defs>
       <path d="M 17.484375 67.671875 
L 39.015625 11.71875 
L 60.5 67.671875 
L 52.296875 67.671875 
L 52.296875 72.90625 
L 73.6875 72.90625 
L 73.6875 67.671875 
L 66.609375 67.671875 
L 40.578125 0 
L 32.171875 0 
L 6.296875 67.671875 
L -0.984375 67.671875 
L -0.984375 72.90625 
L 25.59375 72.90625 
L 25.59375 67.671875 
z
" id="DejaVuSerif-86"/>
       <path d="M 9.71875 68.015625 
Q 9.71875 70.265625 11.34375 71.921875 
Q 12.984375 73.578125 15.28125 73.578125 
Q 17.53125 73.578125 19.15625 71.921875 
Q 20.796875 70.265625 20.796875 68.015625 
Q 20.796875 65.71875 19.1875 64.109375 
Q 17.578125 62.5 15.28125 62.5 
Q 12.984375 62.5 11.34375 64.109375 
Q 9.71875 65.71875 9.71875 68.015625 
z
M 21.1875 5.171875 
L 29.6875 5.171875 
L 29.6875 0 
L 3.609375 0 
L 3.609375 5.171875 
L 12.203125 5.171875 
L 12.203125 46.6875 
L 3.609375 46.6875 
L 3.609375 51.90625 
L 21.1875 51.90625 
z
" id="DejaVuSerif-105"/>
       <path d="M 52.484375 5.171875 
L 61.078125 5.171875 
L 61.078125 0 
L 43.5 0 
L 43.5 8.109375 
Q 40.875 3.21875 36.796875 0.890625 
Q 32.71875 -1.421875 26.703125 -1.421875 
Q 17.140625 -1.421875 11.0625 6.171875 
Q 4.984375 13.765625 4.984375 25.984375 
Q 4.984375 38.1875 11.03125 45.75 
Q 17.09375 53.328125 26.703125 53.328125 
Q 32.71875 53.328125 36.796875 51 
Q 40.875 48.6875 43.5 43.796875 
L 43.5 70.796875 
L 35.015625 70.796875 
L 35.015625 75.984375 
L 52.484375 75.984375 
z
M 43.5 23.390625 
L 43.5 28.515625 
Q 43.5 37.84375 39.90625 42.765625 
Q 36.328125 47.703125 29.5 47.703125 
Q 22.5625 47.703125 19.015625 42.234375 
Q 15.484375 36.765625 15.484375 25.984375 
Q 15.484375 15.234375 19.015625 9.71875 
Q 22.5625 4.203125 29.5 4.203125 
Q 36.328125 4.203125 39.90625 9.109375 
Q 43.5 14.015625 43.5 23.390625 
z
" id="DejaVuSerif-100"/>
       <path d="M 39.796875 16.3125 
L 39.796875 27.296875 
L 28.21875 27.296875 
Q 21.53125 27.296875 18.25 24.40625 
Q 14.984375 21.53125 14.984375 15.578125 
Q 14.984375 10.15625 18.296875 6.984375 
Q 21.625 3.8125 27.296875 3.8125 
Q 32.90625 3.8125 36.34375 7.28125 
Q 39.796875 10.75 39.796875 16.3125 
z
M 48.78125 32.421875 
L 48.78125 5.171875 
L 56.78125 5.171875 
L 56.78125 0 
L 39.796875 0 
L 39.796875 5.609375 
Q 36.8125 2 32.90625 0.28125 
Q 29 -1.421875 23.78125 -1.421875 
Q 15.140625 -1.421875 10.0625 3.171875 
Q 4.984375 7.765625 4.984375 15.578125 
Q 4.984375 23.640625 10.796875 28.078125 
Q 16.609375 32.515625 27.203125 32.515625 
L 39.796875 32.515625 
L 39.796875 36.078125 
Q 39.796875 42 36.203125 45.234375 
Q 32.625 48.484375 26.125 48.484375 
Q 20.75 48.484375 17.578125 46.046875 
Q 14.40625 43.609375 13.625 38.8125 
L 8.984375 38.8125 
L 8.984375 49.3125 
Q 13.671875 51.3125 18.09375 52.3125 
Q 22.515625 53.328125 26.703125 53.328125 
Q 37.5 53.328125 43.140625 47.96875 
Q 48.78125 42.625 48.78125 32.421875 
z
" id="DejaVuSerif-97"/>
      </defs>
      <g transform="translate(677.757031 391.398438)scale(0.15 -0.15)">
       <use xlink:href="#DejaVuSerif-86"/>
       <use x="72.201172" xlink:href="#DejaVuSerif-105"/>
       <use x="104.183594" xlink:href="#DejaVuSerif-100"/>
       <use x="168.197266" xlink:href="#DejaVuSerif-97"/>
      </g>
     </g>
    </g>
    <g id="xtick_2">
     <g id="line2d_2">
      <path clip-path="url(#pc4fe8aa110)" d="M 364.599023 387.259375 
L 519.471582 119.012235 
" style="fill:none;stroke:#b0b0b0;stroke-linecap:square;stroke-width:0.8;"/>
     </g>
     <g id="text_2">
      <!-- Ataque -->
      <defs>
       <path d="M 20.015625 26.421875 
L 46.78125 26.421875 
L 33.40625 61.078125 
z
M -0.59375 0 
L -0.59375 5.171875 
L 5.8125 5.171875 
L 31.78125 72.90625 
L 39.984375 72.90625 
L 66.015625 5.171875 
L 73.1875 5.171875 
L 73.1875 0 
L 46.6875 0 
L 46.6875 5.171875 
L 54.78125 5.171875 
L 48.6875 21.1875 
L 18.015625 21.1875 
L 11.921875 5.171875 
L 19.921875 5.171875 
L 19.921875 0 
z
" id="DejaVuSerif-65"/>
       <path d="M 10.796875 46.6875 
L 2.875 46.6875 
L 2.875 51.90625 
L 10.796875 51.90625 
L 10.796875 68.015625 
L 19.828125 68.015625 
L 19.828125 51.90625 
L 36.71875 51.90625 
L 36.71875 46.6875 
L 19.828125 46.6875 
L 19.828125 13.71875 
Q 19.828125 7.125 21.09375 5.265625 
Q 22.359375 3.421875 25.78125 3.421875 
Q 29.296875 3.421875 30.90625 5.484375 
Q 32.515625 7.5625 32.625 12.203125 
L 39.40625 12.203125 
Q 39.015625 5.125 35.546875 1.84375 
Q 32.078125 -1.421875 25 -1.421875 
Q 17.234375 -1.421875 14.015625 2.015625 
Q 10.796875 5.46875 10.796875 13.71875 
z
" id="DejaVuSerif-116"/>
       <path d="M 52.484375 46.6875 
L 52.484375 -15.578125 
L 61.078125 -15.578125 
L 61.078125 -20.796875 
L 35.015625 -20.796875 
L 35.015625 -15.578125 
L 43.5 -15.578125 
L 43.5 8.109375 
Q 40.875 3.21875 36.796875 0.890625 
Q 32.71875 -1.421875 26.703125 -1.421875 
Q 17.140625 -1.421875 11.0625 6.171875 
Q 4.984375 13.765625 4.984375 25.984375 
Q 4.984375 38.1875 11.03125 45.75 
Q 17.09375 53.328125 26.703125 53.328125 
Q 32.71875 53.328125 36.796875 51 
Q 40.875 48.6875 43.5 43.796875 
L 43.5 51.90625 
L 61.078125 51.90625 
L 61.078125 46.6875 
z
M 43.5 28.515625 
Q 43.5 37.84375 39.90625 42.765625 
Q 36.328125 47.703125 29.5 47.703125 
Q 22.5625 47.703125 19.015625 42.234375 
Q 15.484375 36.765625 15.484375 25.984375 
Q 15.484375 15.234375 19.015625 9.71875 
Q 22.5625 4.203125 29.5 4.203125 
Q 36.328125 4.203125 39.90625 9.109375 
Q 43.5 14.015625 43.5 23.390625 
z
" id="DejaVuSerif-113"/>
       <path d="M 35.40625 51.90625 
L 52.203125 51.90625 
L 52.203125 5.171875 
L 60.6875 5.171875 
L 60.6875 0 
L 43.21875 0 
L 43.21875 9.1875 
Q 40.71875 4 36.765625 1.28125 
Q 32.8125 -1.421875 27.59375 -1.421875 
Q 18.953125 -1.421875 14.875 3.484375 
Q 10.796875 8.40625 10.796875 18.890625 
L 10.796875 46.6875 
L 2.6875 46.6875 
L 2.6875 51.90625 
L 19.828125 51.90625 
L 19.828125 21.6875 
Q 19.828125 12.203125 22.140625 8.6875 
Q 24.46875 5.171875 30.421875 5.171875 
Q 36.671875 5.171875 39.9375 9.765625 
Q 43.21875 14.359375 43.21875 23.09375 
L 43.21875 46.6875 
L 35.40625 46.6875 
z
" id="DejaVuSerif-117"/>
       <path d="M 54.203125 25 
L 15.484375 25 
L 15.484375 24.609375 
Q 15.484375 14.109375 19.4375 8.765625 
Q 23.390625 3.421875 31.109375 3.421875 
Q 37.015625 3.421875 40.796875 6.515625 
Q 44.578125 9.625 46.09375 15.71875 
L 53.328125 15.71875 
Q 51.171875 7.171875 45.375 2.875 
Q 39.59375 -1.421875 30.171875 -1.421875 
Q 18.796875 -1.421875 11.890625 6.078125 
Q 4.984375 13.578125 4.984375 25.984375 
Q 4.984375 38.28125 11.765625 45.796875 
Q 18.5625 53.328125 29.59375 53.328125 
Q 41.359375 53.328125 47.65625 46.0625 
Q 53.953125 38.8125 54.203125 25 
z
M 43.609375 30.171875 
Q 43.3125 39.265625 39.765625 43.875 
Q 36.234375 48.484375 29.59375 48.484375 
Q 23.390625 48.484375 19.828125 43.84375 
Q 16.265625 39.203125 15.484375 30.171875 
z
" id="DejaVuSerif-101"/>
      </defs>
      <g transform="translate(502.749707 105.397777)scale(0.15 -0.15)">
       <use xlink:href="#DejaVuSerif-65"/>
       <use x="72.201172" xlink:href="#DejaVuSerif-116"/>
       <use x="112.386719" xlink:href="#DejaVuSerif-97"/>
       <use x="172.005859" xlink:href="#DejaVuSerif-113"/>
       <use x="236.019531" xlink:href="#DejaVuSerif-117"/>
       <use x="300.423828" xlink:href="#DejaVuSerif-101"/>
      </g>
     </g>
    </g>
    <g id="xtick_3">
     <g id="line2d_3">
      <path clip-path="url(#pc4fe8aa110)" d="M 364.599023 387.259375 
L 209.726465 119.012235 
" style="fill:none;stroke:#b0b0b0;stroke-linecap:square;stroke-width:0.8;"/>
     </g>
     <g id="text_3">
      <!-- Defensa -->
      <defs>
       <path d="M 24.703125 5.171875 
L 33.796875 5.171875 
Q 48 5.171875 55.59375 13.28125 
Q 63.1875 21.390625 63.1875 36.53125 
Q 63.1875 51.65625 55.609375 59.65625 
Q 48.046875 67.671875 33.796875 67.671875 
L 24.703125 67.671875 
z
M 5.515625 0 
L 5.515625 5.171875 
L 14.796875 5.171875 
L 14.796875 67.671875 
L 5.515625 67.671875 
L 5.515625 72.90625 
L 34.515625 72.90625 
Q 53.375 72.90625 63.890625 63.28125 
Q 74.421875 53.65625 74.421875 36.53125 
Q 74.421875 19.34375 63.875 9.671875 
Q 53.328125 0 34.515625 0 
z
" id="DejaVuSerif-68"/>
       <path d="M 43.015625 63.71875 
L 38.28125 63.71875 
Q 38.234375 67.390625 36.203125 69.28125 
Q 34.1875 71.1875 30.328125 71.1875 
Q 25.296875 71.1875 23.234375 68.421875 
Q 21.1875 65.671875 21.1875 58.59375 
L 21.1875 51.90625 
L 35.6875 51.90625 
L 35.6875 46.6875 
L 21.1875 46.6875 
L 21.1875 5.171875 
L 32.71875 5.171875 
L 32.71875 0 
L 3.609375 0 
L 3.609375 5.171875 
L 12.203125 5.171875 
L 12.203125 46.6875 
L 3.609375 46.6875 
L 3.609375 51.90625 
L 12.203125 51.90625 
L 12.203125 58.40625 
Q 12.203125 67.09375 16.71875 71.53125 
Q 21.234375 75.984375 29.984375 75.984375 
Q 33.25 75.984375 36.515625 75.390625 
Q 39.796875 74.8125 43.015625 73.578125 
z
" id="DejaVuSerif-102"/>
       <path d="M 4.109375 0 
L 4.109375 5.171875 
L 12.203125 5.171875 
L 12.203125 46.6875 
L 3.609375 46.6875 
L 3.609375 51.90625 
L 21.1875 51.90625 
L 21.1875 42.671875 
Q 23.6875 47.953125 27.65625 50.640625 
Q 31.640625 53.328125 36.921875 53.328125 
Q 45.515625 53.328125 49.5625 48.390625 
Q 53.609375 43.453125 53.609375 33.015625 
L 53.609375 5.171875 
L 61.625 5.171875 
L 61.625 0 
L 36.8125 0 
L 36.8125 5.171875 
L 44.578125 5.171875 
L 44.578125 30.171875 
Q 44.578125 39.703125 42.234375 43.234375 
Q 39.890625 46.78125 33.984375 46.78125 
Q 27.734375 46.78125 24.453125 42.203125 
Q 21.1875 37.640625 21.1875 28.90625 
L 21.1875 5.171875 
L 29 5.171875 
L 29 0 
z
" id="DejaVuSerif-110"/>
       <path d="M 5.609375 2.875 
L 5.609375 14.984375 
L 10.796875 14.984375 
Q 10.984375 9.1875 14.421875 6.296875 
Q 17.875 3.421875 24.609375 3.421875 
Q 30.671875 3.421875 33.84375 5.6875 
Q 37.015625 7.953125 37.015625 12.3125 
Q 37.015625 15.71875 34.6875 17.8125 
Q 32.375 19.921875 24.90625 22.3125 
L 18.40625 24.515625 
Q 11.71875 26.65625 8.71875 29.875 
Q 5.71875 33.109375 5.71875 38.09375 
Q 5.71875 45.21875 10.9375 49.265625 
Q 16.15625 53.328125 25.390625 53.328125 
Q 29.5 53.328125 34.03125 52.25 
Q 38.578125 51.171875 43.40625 49.125 
L 43.40625 37.796875 
L 38.234375 37.796875 
Q 38.03125 42.828125 34.703125 45.65625 
Q 31.390625 48.484375 25.6875 48.484375 
Q 20.015625 48.484375 17.109375 46.484375 
Q 14.203125 44.484375 14.203125 40.484375 
Q 14.203125 37.203125 16.40625 35.21875 
Q 18.609375 33.25 25.203125 31.203125 
L 32.328125 29 
Q 39.703125 26.703125 42.9375 23.265625 
Q 46.1875 19.828125 46.1875 14.40625 
Q 46.1875 7.03125 40.546875 2.796875 
Q 34.90625 -1.421875 25 -1.421875 
Q 19.96875 -1.421875 15.1875 -0.34375 
Q 10.40625 0.734375 5.609375 2.875 
z
" id="DejaVuSerif-115"/>
      </defs>
      <g transform="translate(168.658496 105.397777)scale(0.15 -0.15)">
       <use xlink:href="#DejaVuSerif-68"/>
       <use x="80.175781" xlink:href="#DejaVuSerif-101"/>
       <use x="139.355469" xlink:href="#DejaVuSerif-102"/>
       <use x="176.367188" xlink:href="#DejaVuSerif-101"/>
       <use x="235.546875" xlink:href="#DejaVuSerif-110"/>
       <use x="299.951172" xlink:href="#DejaVuSerif-115"/>
       <use x="351.269531" xlink:href="#DejaVuSerif-97"/>
      </g>
     </g>
    </g>
    <g id="xtick_4">
     <g id="line2d_4">
      <path clip-path="url(#pc4fe8aa110)" d="M 364.599023 387.259375 
L 54.853906 387.259375 
" style="fill:none;stroke:#b0b0b0;stroke-linecap:square;stroke-width:0.8;"/>
     </g>
     <g id="text_4">
      <!-- At esp. -->
      <defs>
       <path id="DejaVuSerif-32"/>
       <path d="M 20.515625 28.515625 
L 20.515625 23.390625 
Q 20.515625 14.015625 24.09375 9.109375 
Q 27.6875 4.203125 34.515625 4.203125 
Q 41.40625 4.203125 44.9375 9.71875 
Q 48.484375 15.234375 48.484375 25.984375 
Q 48.484375 36.765625 44.9375 42.234375 
Q 41.40625 47.703125 34.515625 47.703125 
Q 27.6875 47.703125 24.09375 42.765625 
Q 20.515625 37.84375 20.515625 28.515625 
z
M 11.53125 46.6875 
L 2.875 46.6875 
L 2.875 51.90625 
L 20.515625 51.90625 
L 20.515625 43.796875 
Q 23.140625 48.6875 27.21875 51 
Q 31.296875 53.328125 37.3125 53.328125 
Q 46.875 53.328125 52.921875 45.75 
Q 58.984375 38.1875 58.984375 25.984375 
Q 58.984375 13.765625 52.921875 6.171875 
Q 46.875 -1.421875 37.3125 -1.421875 
Q 31.296875 -1.421875 27.21875 0.890625 
Q 23.140625 3.21875 20.515625 8.109375 
L 20.515625 -15.578125 
L 29 -15.578125 
L 29 -20.796875 
L 2.875 -20.796875 
L 2.875 -15.578125 
L 11.53125 -15.578125 
z
" id="DejaVuSerif-112"/>
       <path d="M 9.421875 5.078125 
Q 9.421875 7.8125 11.28125 9.71875 
Q 13.140625 11.625 15.921875 11.625 
Q 18.609375 11.625 20.5 9.71875 
Q 22.40625 7.8125 22.40625 5.078125 
Q 22.40625 2.390625 20.5 0.484375 
Q 18.609375 -1.421875 15.921875 -1.421875 
Q 13.140625 -1.421875 11.28125 0.453125 
Q 9.421875 2.34375 9.421875 5.078125 
z
" id="DejaVuSerif-46"/>
      </defs>
      <g transform="translate(8.06875 391.398438)scale(0.15 -0.15)">
       <use xlink:href="#DejaVuSerif-65"/>
       <use x="72.201172" xlink:href="#DejaVuSerif-116"/>
       <use x="112.386719" xlink:href="#DejaVuSerif-32"/>
       <use x="144.173828" xlink:href="#DejaVuSerif-101"/>
       <use x="203.353516" xlink:href="#DejaVuSerif-115"/>
       <use x="254.671875" xlink:href="#DejaVuSerif-112"/>
       <use x="318.685547" xlink:href="#DejaVuSerif-46"/>
      </g>
     </g>
    </g>
    <g id="xtick_5">
     <g id="line2d_5">
      <path clip-path="url(#pc4fe8aa110)" d="M 364.599023 387.259375 
L 209.726465 655.506515 
" style="fill:none;stroke:#b0b0b0;stroke-linecap:square;stroke-width:0.8;"/>
     </g>
     <g id="text_5">
      <!-- Def esp. -->
      <g transform="translate(168.39248 677.399098)scale(0.15 -0.15)">
       <use xlink:href="#DejaVuSerif-68"/>
       <use x="80.175781" xlink:href="#DejaVuSerif-101"/>
       <use x="139.355469" xlink:href="#DejaVuSerif-102"/>
       <use x="176.367188" xlink:href="#DejaVuSerif-32"/>
       <use x="208.154297" xlink:href="#DejaVuSerif-101"/>
       <use x="267.333984" xlink:href="#DejaVuSerif-115"/>
       <use x="318.652344" xlink:href="#DejaVuSerif-112"/>
       <use x="382.666016" xlink:href="#DejaVuSerif-46"/>
      </g>
     </g>
    </g>
    <g id="xtick_6">
     <g id="line2d_6">
      <path clip-path="url(#pc4fe8aa110)" d="M 364.599023 387.259375 
L 519.471582 655.506515 
" style="fill:none;stroke:#b0b0b0;stroke-linecap:square;stroke-width:0.8;"/>
     </g>
     <g id="text_6">
      <!-- Velocidad -->
      <defs>
       <path d="M 20.515625 5.171875 
L 29 5.171875 
L 29 0 
L 2.875 0 
L 2.875 5.171875 
L 11.53125 5.171875 
L 11.53125 70.796875 
L 2.875 70.796875 
L 2.875 75.984375 
L 20.515625 75.984375 
z
" id="DejaVuSerif-108"/>
       <path d="M 30.078125 3.421875 
Q 37.3125 3.421875 40.984375 9.125 
Q 44.671875 14.84375 44.671875 25.984375 
Q 44.671875 37.109375 40.984375 42.796875 
Q 37.3125 48.484375 30.078125 48.484375 
Q 22.859375 48.484375 19.171875 42.796875 
Q 15.484375 37.109375 15.484375 25.984375 
Q 15.484375 14.84375 19.1875 9.125 
Q 22.90625 3.421875 30.078125 3.421875 
z
M 30.078125 -1.421875 
Q 18.75 -1.421875 11.859375 6.078125 
Q 4.984375 13.578125 4.984375 25.984375 
Q 4.984375 38.375 11.84375 45.84375 
Q 18.703125 53.328125 30.078125 53.328125 
Q 41.453125 53.328125 48.3125 45.84375 
Q 55.171875 38.375 55.171875 25.984375 
Q 55.171875 13.578125 48.3125 6.078125 
Q 41.453125 -1.421875 30.078125 -1.421875 
z
" id="DejaVuSerif-111"/>
       <path d="M 51.421875 15.578125 
Q 49.515625 7.28125 44.09375 2.921875 
Q 38.671875 -1.421875 30.078125 -1.421875 
Q 18.75 -1.421875 11.859375 6.078125 
Q 4.984375 13.578125 4.984375 25.984375 
Q 4.984375 38.421875 11.859375 45.875 
Q 18.75 53.328125 30.078125 53.328125 
Q 35.015625 53.328125 39.890625 52.171875 
Q 44.78125 51.03125 49.703125 48.6875 
L 49.703125 35.40625 
L 44.484375 35.40625 
Q 43.453125 42.234375 40.015625 45.359375 
Q 36.578125 48.484375 30.171875 48.484375 
Q 22.90625 48.484375 19.1875 42.84375 
Q 15.484375 37.203125 15.484375 25.984375 
Q 15.484375 14.75 19.171875 9.078125 
Q 22.859375 3.421875 30.171875 3.421875 
Q 35.984375 3.421875 39.453125 6.4375 
Q 42.921875 9.46875 44.1875 15.578125 
z
" id="DejaVuSerif-99"/>
      </defs>
      <g transform="translate(492.289551 677.399098)scale(0.15 -0.15)">
       <use xlink:href="#DejaVuSerif-86"/>
       <use x="72.076172" xlink:href="#DejaVuSerif-101"/>
       <use x="131.255859" xlink:href="#DejaVuSerif-108"/>
       <use x="163.238281" xlink:href="#DejaVuSerif-111"/>
       <use x="223.443359" xlink:href="#DejaVuSerif-99"/>
       <use x="279.449219" xlink:href="#DejaVuSerif-105"/>
       <use x="311.431641" xlink:href="#DejaVuSerif-100"/>
       <use x="375.445312" xlink:href="#DejaVuSerif-97"/>
       <use x="435.064453" xlink:href="#DejaVuSerif-100"/>
      </g>
     </g>
    </g>
   </g>
   <g id="matplotlib.axis_2">
    <g id="ytick_1">
     <g id="line2d_7">
      <path clip-path="url(#pc4fe8aa110)" d="M 533.406131 387.259375 
L 533.303298 381.368092 
L 532.994925 375.483986 
L 532.481388 369.614227 
L 531.763312 363.765966 
L 530.841572 357.946328 
L 529.717291 352.162404 
L 528.391838 346.42124 
L 526.86683 340.72983 
L 525.144123 335.09511 
L 523.225817 329.523944 
L 521.114248 324.023119 
L 518.81199 318.599339 
L 516.321847 313.25921 
L 513.646853 308.009238 
L 510.790267 302.855821 
L 507.75557 297.805237 
L 504.546458 292.863638 
L 501.166842 288.037047 
L 497.620839 283.331342 
L 493.91277 278.752258 
L 490.047152 274.305373 
L 486.028694 269.996105 
L 481.862294 265.829704 
L 477.553026 261.811247 
L 473.106141 257.945628 
L 468.527056 254.237559 
L 463.821352 250.691556 
L 458.99476 247.31194 
L 454.053162 244.102829 
L 449.002577 241.068132 
L 443.84916 238.211546 
L 438.599189 235.536552 
L 433.25906 233.046409 
L 427.835279 230.74415 
L 422.334455 228.632582 
L 416.763288 226.714275 
L 411.128568 224.991568 
L 405.437159 223.46656 
L 399.695995 222.141108 
L 393.91207 221.016827 
L 388.092432 220.095087 
L 382.244171 219.37701 
L 376.374412 218.863473 
L 370.490307 218.5551 
L 364.599023 218.452267 
L 358.70774 218.5551 
L 352.823635 218.863473 
L 346.953876 219.37701 
L 341.105615 220.095087 
L 335.285977 221.016827 
L 329.502052 222.141108 
L 323.760888 223.46656 
L 318.069479 224.991568 
L 312.434758 226.714275 
L 306.863592 228.632582 
L 301.362768 230.74415 
L 295.938987 233.046409 
L 290.598858 235.536552 
L 285.348887 238.211546 
L 280.19547 241.068132 
L 275.144885 244.102829 
L 270.203287 247.31194 
L 265.376695 250.691556 
L 260.670991 254.237559 
L 256.091906 257.945628 
L 251.645021 261.811247 
L 247.335753 265.829704 
L 243.169352 269.996105 
L 239.150895 274.305373 
L 235.285277 278.752258 
L 231.577207 283.331342 
L 228.031205 288.037047 
L 224.651589 292.863638 
L 221.442477 297.805237 
L 218.40778 302.855821 
L 215.551194 308.009238 
L 212.8762 313.25921 
L 210.386057 318.599339 
L 208.083799 324.023119 
L 205.97223 329.523944 
L 204.053924 335.09511 
L 202.331217 340.72983 
L 200.806208 346.42124 
L 199.480756 352.162404 
L 198.356475 357.946328 
L 197.434735 363.765966 
L 196.716659 369.614227 
L 196.203121 375.483986 
L 195.894749 381.368092 
L 195.791916 387.259375 
L 195.894749 393.150658 
L 196.203121 399.034764 
L 196.716659 404.904523 
L 197.434735 410.752784 
L 198.356475 416.572422 
L 199.480756 422.356346 
L 200.806208 428.09751 
L 202.331217 433.78892 
L 204.053924 439.42364 
L 205.97223 444.994806 
L 208.083799 450.495631 
L 210.386057 455.919411 
L 212.8762 461.25954 
L 215.551194 466.509512 
L 218.40778 471.662929 
L 221.442477 476.713513 
L 224.651589 481.655112 
L 228.031205 486.481703 
L 231.577207 491.187408 
L 235.285277 495.766492 
L 239.150895 500.213377 
L 243.169352 504.522645 
L 247.335753 508.689046 
L 251.645021 512.707503 
L 256.091906 516.573122 
L 260.670991 520.281191 
L 265.376695 523.827194 
L 270.203287 527.20681 
L 275.144885 530.415921 
L 280.19547 533.450618 
L 285.348887 536.307204 
L 290.598858 538.982198 
L 295.938987 541.472341 
L 301.362768 543.7746 
L 306.863592 545.886168 
L 312.434758 547.804475 
L 318.069479 549.527182 
L 323.760888 551.05219 
L 329.502052 552.377642 
L 335.285977 553.501923 
L 341.105615 554.423663 
L 346.953876 555.14174 
L 352.823635 555.655277 
L 358.70774 555.96365 
L 364.599023 556.066483 
L 370.490307 555.96365 
L 376.374412 555.655277 
L 382.244171 555.14174 
L 388.092432 554.423663 
L 393.91207 553.501923 
L 399.695995 552.377642 
L 405.437159 551.05219 
L 411.128568 549.527182 
L 416.763288 547.804475 
L 422.334455 545.886168 
L 427.835279 543.7746 
L 433.25906 541.472341 
L 438.599189 538.982198 
L 443.84916 536.307204 
L 449.002577 533.450618 
L 454.053162 530.415921 
L 458.99476 527.20681 
L 463.821352 523.827194 
L 468.527056 520.281191 
L 473.106141 516.573122 
L 477.553026 512.707503 
L 481.862294 508.689046 
L 486.028694 504.522645 
L 490.047152 500.213377 
L 493.91277 495.766492 
L 497.620839 491.187408 
L 501.166842 486.481703 
L 504.546458 481.655112 
L 507.75557 476.713513 
L 510.790267 471.662929 
L 513.646853 466.509512 
L 516.321847 461.25954 
L 518.81199 455.919411 
L 521.114248 450.495631 
L 523.225817 444.994806 
L 525.144123 439.42364 
L 526.86683 433.78892 
L 528.391838 428.09751 
L 529.717291 422.356346 
L 530.841572 416.572422 
L 531.763312 410.752784 
L 532.481388 404.904523 
L 532.994925 399.034764 
L 533.303298 393.150658 
L 533.406131 387.259375 
L 533.406131 387.259375 
" style="fill:none;stroke:#b0b0b0;stroke-linecap:square;stroke-width:0.8;"/>
     </g>
     <g id="text_7">
      <!-- 106 -->
      <defs>
       <path d="M 14.203125 0 
L 14.203125 5.171875 
L 26.90625 5.171875 
L 26.90625 65.828125 
L 12.203125 56.296875 
L 12.203125 62.703125 
L 29.984375 74.21875 
L 36.71875 74.21875 
L 36.71875 5.171875 
L 49.421875 5.171875 
L 49.421875 0 
z
" id="DejaVuSerif-49"/>
       <path d="M 31.78125 3.421875 
Q 39.265625 3.421875 42.96875 11.625 
Q 46.6875 19.828125 46.6875 36.375 
Q 46.6875 52.984375 42.96875 61.1875 
Q 39.265625 69.390625 31.78125 69.390625 
Q 24.3125 69.390625 20.59375 61.1875 
Q 16.890625 52.984375 16.890625 36.375 
Q 16.890625 19.828125 20.59375 11.625 
Q 24.3125 3.421875 31.78125 3.421875 
z
M 31.78125 -1.421875 
Q 19.921875 -1.421875 13.25 8.53125 
Q 6.59375 18.5 6.59375 36.375 
Q 6.59375 54.296875 13.25 64.25 
Q 19.921875 74.21875 31.78125 74.21875 
Q 43.703125 74.21875 50.34375 64.25 
Q 56.984375 54.296875 56.984375 36.375 
Q 56.984375 18.5 50.34375 8.53125 
Q 43.703125 -1.421875 31.78125 -1.421875 
z
" id="DejaVuSerif-48"/>
       <path d="M 32.71875 3.421875 
Q 39.59375 3.421875 43.296875 8.46875 
Q 47.015625 13.53125 47.015625 23 
Q 47.015625 32.46875 43.296875 37.515625 
Q 39.59375 42.578125 32.71875 42.578125 
Q 25.734375 42.578125 22.0625 37.6875 
Q 18.40625 32.8125 18.40625 23.578125 
Q 18.40625 13.875 22.109375 8.640625 
Q 25.828125 3.421875 32.71875 3.421875 
z
M 16.796875 40.140625 
Q 20.125 43.796875 24.3125 45.59375 
Q 28.515625 47.40625 33.796875 47.40625 
Q 44.671875 47.40625 51 40.859375 
Q 57.328125 34.328125 57.328125 23 
Q 57.328125 11.921875 50.515625 5.25 
Q 43.703125 -1.421875 32.328125 -1.421875 
Q 19.96875 -1.421875 13.328125 7.78125 
Q 6.6875 17 6.6875 34.078125 
Q 6.6875 53.21875 14.546875 63.71875 
Q 22.40625 74.21875 36.71875 74.21875 
Q 40.578125 74.21875 44.828125 73.484375 
Q 49.078125 72.75 53.515625 71.296875 
L 53.515625 59.28125 
L 48 59.28125 
Q 47.40625 64.203125 44.234375 66.796875 
Q 41.0625 69.390625 35.6875 69.390625 
Q 26.21875 69.390625 21.578125 62.203125 
Q 16.9375 55.03125 16.796875 40.140625 
z
" id="DejaVuSerif-54"/>
      </defs>
      <g transform="translate(520.556455 320.580004)scale(0.1 -0.1)">
       <use xlink:href="#DejaVuSerif-49"/>
       <use x="63.623047" xlink:href="#DejaVuSerif-48"/>
       <use x="127.246094" xlink:href="#DejaVuSerif-54"/>
      </g>
     </g>
    </g>
    <g id="ytick_2">
     <g id="line2d_8">
      <path clip-path="url(#pc4fe8aa110)" d="M 667.177801 387.259375 
L 666.993478 376.699528 
L 666.440734 366.152546 
L 665.520243 355.63128 
L 664.233125 345.148548 
L 662.58095 334.717122 
L 660.565729 324.34971 
L 658.189918 314.058944 
L 655.456412 303.857361 
L 652.368542 293.757391 
L 648.930068 283.771338 
L 645.145181 273.91137 
L 641.018491 264.189499 
L 636.555027 254.617569 
L 631.760227 245.207243 
L 626.639932 235.969986 
L 621.20038 226.917052 
L 615.448199 218.05947 
L 609.390397 209.408032 
L 603.034354 200.973278 
L 596.387815 192.765486 
L 589.458876 184.794654 
L 582.255981 177.070494 
L 574.787904 169.602417 
L 567.063744 162.399522 
L 559.092913 155.470584 
L 550.88512 148.824044 
L 542.450367 142.468002 
L 533.798929 136.4102 
L 524.941347 130.658019 
L 515.888412 125.218467 
L 506.651155 120.098172 
L 497.240829 115.303371 
L 487.6689 110.839907 
L 477.947029 106.713218 
L 468.08706 102.92833 
L 458.101008 99.489857 
L 448.001038 96.401986 
L 437.799455 93.66848 
L 427.508689 91.29267 
L 417.141277 89.277449 
L 406.70985 87.625273 
L 396.227118 86.338155 
L 385.705852 85.417664 
L 375.15887 84.86492 
L 364.599023 84.680597 
L 354.039176 84.86492 
L 343.492195 85.417664 
L 332.970929 86.338155 
L 322.488197 87.625273 
L 312.05677 89.277449 
L 301.689358 91.29267 
L 291.398592 93.66848 
L 281.197009 96.401986 
L 271.097039 99.489857 
L 261.110987 102.92833 
L 251.251018 106.713218 
L 241.529147 110.839907 
L 231.957218 115.303371 
L 222.546892 120.098172 
L 213.309635 125.218467 
L 204.2567 130.658019 
L 195.399118 136.4102 
L 186.74768 142.468002 
L 178.312927 148.824044 
L 170.105134 155.470584 
L 162.134302 162.399522 
L 154.410143 169.602417 
L 146.942066 177.070494 
L 139.73917 184.794654 
L 132.810232 192.765486 
L 126.163693 200.973278 
L 119.80765 209.408032 
L 113.749848 218.05947 
L 107.997667 226.917052 
L 102.558115 235.969986 
L 97.43782 245.207243 
L 92.643019 254.617569 
L 88.179555 264.189499 
L 84.052866 273.91137 
L 80.267979 283.771338 
L 76.829505 293.757391 
L 73.741634 303.857361 
L 71.008129 314.058944 
L 68.632318 324.34971 
L 66.617097 334.717122 
L 64.964922 345.148548 
L 63.677804 355.63128 
L 62.757312 366.152546 
L 62.204569 376.699528 
L 62.020246 387.259375 
L 62.204569 397.819222 
L 62.757312 408.366204 
L 63.677804 418.88747 
L 64.964922 429.370202 
L 66.617097 439.801628 
L 68.632318 450.16904 
L 71.008129 460.459806 
L 73.741634 470.661389 
L 76.829505 480.761359 
L 80.267979 490.747412 
L 84.052866 500.60738 
L 88.179555 510.329251 
L 92.643019 519.901181 
L 97.43782 529.311507 
L 102.558115 538.548764 
L 107.997667 547.601698 
L 113.749848 556.45928 
L 119.80765 565.110718 
L 126.163693 573.545472 
L 132.810232 581.753264 
L 139.73917 589.724096 
L 146.942066 597.448256 
L 154.410143 604.916333 
L 162.134302 612.119228 
L 170.105134 619.048166 
L 178.312927 625.694706 
L 186.74768 632.050748 
L 195.399118 638.10855 
L 204.2567 643.860731 
L 213.309635 649.300283 
L 222.546892 654.420578 
L 231.957218 659.215379 
L 241.529147 663.678843 
L 251.251018 667.805532 
L 261.110987 671.59042 
L 271.097039 675.028893 
L 281.197009 678.116764 
L 291.398592 680.85027 
L 301.689358 683.22608 
L 312.05677 685.241301 
L 322.488197 686.893477 
L 332.970929 688.180595 
L 343.492195 689.101086 
L 354.039176 689.65383 
L 364.599023 689.838153 
L 375.15887 689.65383 
L 385.705852 689.101086 
L 396.227118 688.180595 
L 406.70985 686.893477 
L 417.141277 685.241301 
L 427.508689 683.22608 
L 437.799455 680.85027 
L 448.001038 678.116764 
L 458.101008 675.028893 
L 468.08706 671.59042 
L 477.947029 667.805532 
L 487.6689 663.678843 
L 497.240829 659.215379 
L 506.651155 654.420578 
L 515.888412 649.300283 
L 524.941347 643.860731 
L 533.798929 638.10855 
L 542.450367 632.050748 
L 550.88512 625.694706 
L 559.092913 619.048166 
L 567.063744 612.119228 
L 574.787904 604.916333 
L 582.255981 597.448256 
L 589.458876 589.724096 
L 596.387815 581.753264 
L 603.034354 573.545472 
L 609.390397 565.110718 
L 615.448199 556.45928 
L 621.20038 547.601698 
L 626.639932 538.548764 
L 631.760227 529.311507 
L 636.555027 519.901181 
L 641.018491 510.329251 
L 645.145181 500.60738 
L 648.930068 490.747412 
L 652.368542 480.761359 
L 655.456412 470.661389 
L 658.189918 460.459806 
L 660.565729 450.16904 
L 662.58095 439.801628 
L 664.233125 429.370202 
L 665.520243 418.88747 
L 666.440734 408.366204 
L 666.993478 397.819222 
L 667.177801 387.259375 
L 667.177801 387.259375 
" style="fill:none;stroke:#b0b0b0;stroke-linecap:square;stroke-width:0.8;"/>
     </g>
     <g id="text_8">
      <!-- 190 -->
      <defs>
       <path d="M 46.78125 32.671875 
Q 43.5 29 39.25 27.1875 
Q 35.015625 25.390625 29.6875 25.390625 
Q 18.84375 25.390625 12.5625 31.9375 
Q 6.296875 38.484375 6.296875 49.8125 
Q 6.296875 60.890625 13.109375 67.546875 
Q 19.921875 74.21875 31.296875 74.21875 
Q 43.65625 74.21875 50.265625 65.015625 
Q 56.890625 55.8125 56.890625 38.71875 
Q 56.890625 19.578125 49.015625 9.078125 
Q 41.15625 -1.421875 26.90625 -1.421875 
Q 23.046875 -1.421875 18.796875 -0.6875 
Q 14.546875 0.046875 10.109375 1.515625 
L 10.109375 13.625 
L 15.578125 13.625 
Q 16.21875 8.6875 19.390625 6.046875 
Q 22.5625 3.421875 27.875 3.421875 
Q 37.359375 3.421875 41.984375 10.5625 
Q 46.625 17.71875 46.78125 32.671875 
z
M 30.90625 69.390625 
Q 23.96875 69.390625 20.28125 64.328125 
Q 16.609375 59.28125 16.609375 49.8125 
Q 16.609375 40.328125 20.28125 35.25 
Q 23.96875 30.171875 30.90625 30.171875 
Q 37.84375 30.171875 41.53125 35.078125 
Q 45.21875 39.984375 45.21875 49.21875 
Q 45.21875 58.9375 41.5 64.15625 
Q 37.796875 69.390625 30.90625 69.390625 
z
" id="DejaVuSerif-57"/>
      </defs>
      <g transform="translate(644.145363 269.387802)scale(0.1 -0.1)">
       <use xlink:href="#DejaVuSerif-49"/>
       <use x="63.623047" xlink:href="#DejaVuSerif-57"/>
       <use x="127.246094" xlink:href="#DejaVuSerif-48"/>
      </g>
     </g>
    </g>
    <g id="ytick_3">
     <g id="line2d_9">
      <path clip-path="url(#pc4fe8aa110)" d="M 523.851012 387.259375 
L 523.754 381.701561 
L 523.463082 376.150518 
L 522.978613 370.613009 
L 522.301182 365.095782 
L 521.431616 359.605557 
L 520.370974 354.149025 
L 519.120547 348.732832 
L 517.68186 343.363578 
L 516.056665 338.047804 
L 514.246942 332.791987 
L 512.254896 327.60253 
L 510.082954 322.485756 
L 507.733762 317.447898 
L 505.210183 312.495095 
L 502.515291 307.633381 
L 499.652369 302.868679 
L 496.624905 298.206793 
L 493.436588 293.653405 
L 490.091303 289.214061 
L 486.593124 284.89417 
L 482.946314 280.698996 
L 479.155317 276.633648 
L 475.22475 272.703082 
L 471.159403 268.912084 
L 466.964228 265.265274 
L 462.644337 261.767096 
L 458.204994 258.42181 
L 453.651605 255.233493 
L 448.98972 252.20603 
L 444.225018 249.343108 
L 439.363303 246.648215 
L 434.4105 244.124636 
L 429.372643 241.775444 
L 424.255868 239.603503 
L 419.066411 237.611457 
L 413.810594 235.801734 
L 408.49482 234.176539 
L 403.125566 232.737851 
L 397.709374 231.487425 
L 392.252841 230.426782 
L 386.762616 229.557216 
L 381.245389 228.879786 
L 375.707881 228.395317 
L 370.156838 228.104399 
L 364.599023 228.007387 
L 359.041209 228.104399 
L 353.490166 228.395317 
L 347.952658 228.879786 
L 342.43543 229.557216 
L 336.945206 230.426782 
L 331.488673 231.487425 
L 326.072481 232.737851 
L 320.703226 234.176539 
L 315.387453 235.801734 
L 310.131636 237.611457 
L 304.942179 239.603503 
L 299.825404 241.775444 
L 294.787547 244.124636 
L 289.834744 246.648215 
L 284.973029 249.343108 
L 280.208327 252.20603 
L 275.546442 255.233493 
L 270.993053 258.42181 
L 266.553709 261.767096 
L 262.233819 265.265274 
L 258.038644 268.912084 
L 253.973297 272.703082 
L 250.04273 276.633648 
L 246.251732 280.698996 
L 242.604923 284.89417 
L 239.106744 289.214061 
L 235.761459 293.653405 
L 232.573142 298.206793 
L 229.545678 302.868679 
L 226.682756 307.633381 
L 223.987864 312.495095 
L 221.464285 317.447898 
L 219.115093 322.485756 
L 216.943151 327.60253 
L 214.951105 332.791987 
L 213.141382 338.047804 
L 211.516187 343.363578 
L 210.0775 348.732832 
L 208.827073 354.149025 
L 207.766431 359.605557 
L 206.896865 365.095782 
L 206.219434 370.613009 
L 205.734965 376.150518 
L 205.444047 381.701561 
L 205.347035 387.259375 
L 205.444047 392.817189 
L 205.734965 398.368232 
L 206.219434 403.905741 
L 206.896865 409.422968 
L 207.766431 414.913193 
L 208.827073 420.369725 
L 210.0775 425.785918 
L 211.516187 431.155172 
L 213.141382 436.470946 
L 214.951105 441.726763 
L 216.943151 446.91622 
L 219.115093 452.032994 
L 221.464285 457.070852 
L 223.987864 462.023655 
L 226.682756 466.885369 
L 229.545678 471.650071 
L 232.573142 476.311957 
L 235.761459 480.865345 
L 239.106744 485.304689 
L 242.604923 489.62458 
L 246.251732 493.819754 
L 250.04273 497.885102 
L 253.973297 501.815668 
L 258.038644 505.606666 
L 262.233819 509.253476 
L 266.553709 512.751654 
L 270.993053 516.09694 
L 275.546442 519.285257 
L 280.208327 522.31272 
L 284.973029 525.175642 
L 289.834744 527.870535 
L 294.787547 530.394114 
L 299.825404 532.743306 
L 304.942179 534.915247 
L 310.131636 536.907293 
L 315.387453 538.717016 
L 320.703226 540.342211 
L 326.072481 541.780899 
L 331.488673 543.031325 
L 336.945206 544.091968 
L 342.43543 544.961534 
L 347.952658 545.638964 
L 353.490166 546.123433 
L 359.041209 546.414351 
L 364.599023 546.511363 
L 370.156838 546.414351 
L 375.707881 546.123433 
L 381.245389 545.638964 
L 386.762616 544.961534 
L 392.252841 544.091968 
L 397.709374 543.031325 
L 403.125566 541.780899 
L 408.49482 540.342211 
L 413.810594 538.717016 
L 419.066411 536.907293 
L 424.255868 534.915247 
L 429.372643 532.743306 
L 434.4105 530.394114 
L 439.363303 527.870535 
L 444.225018 525.175642 
L 448.98972 522.31272 
L 453.651605 519.285257 
L 458.204994 516.09694 
L 462.644337 512.751654 
L 466.964228 509.253476 
L 471.159403 505.606666 
L 475.22475 501.815668 
L 479.155317 497.885102 
L 482.946314 493.819754 
L 486.593124 489.62458 
L 490.091303 485.304689 
L 493.436588 480.865345 
L 496.624905 476.311957 
L 499.652369 471.650071 
L 502.515291 466.885369 
L 505.210183 462.023655 
L 507.733762 457.070852 
L 510.082954 452.032994 
L 512.254896 446.91622 
L 514.246942 441.726763 
L 516.056665 436.470946 
L 517.68186 431.155172 
L 519.120547 425.785918 
L 520.370974 420.369725 
L 521.431616 414.913193 
L 522.301182 409.422968 
L 522.978613 403.905741 
L 523.463082 398.368232 
L 523.754 392.817189 
L 523.851012 387.259375 
L 523.851012 387.259375 
" style="fill:none;stroke:#b0b0b0;stroke-linecap:square;stroke-width:0.8;"/>
     </g>
     <g id="text_9">
      <!-- 100 -->
      <g transform="translate(511.728676 324.23659)scale(0.1 -0.1)">
       <use xlink:href="#DejaVuSerif-49"/>
       <use x="63.623047" xlink:href="#DejaVuSerif-48"/>
       <use x="127.246094" xlink:href="#DejaVuSerif-48"/>
      </g>
     </g>
    </g>
    <g id="ytick_4">
     <g id="line2d_10">
      <path clip-path="url(#pc4fe8aa110)" d="M 609.847085 387.259375 
L 609.697687 378.700341 
L 609.249673 370.151735 
L 608.503591 361.623972 
L 607.460348 353.127442 
L 606.121216 344.672496 
L 604.487827 336.269436 
L 602.56217 327.928499 
L 600.346591 319.659848 
L 597.843791 311.473556 
L 595.056818 303.379598 
L 591.989067 295.387834 
L 588.644276 287.508002 
L 585.026521 279.749701 
L 581.140209 272.122384 
L 576.990075 264.635344 
L 572.581175 257.297702 
L 567.918881 250.118399 
L 563.008873 243.106181 
L 557.857134 236.269591 
L 552.469938 229.616959 
L 546.853852 223.156391 
L 541.015715 216.895756 
L 534.962643 210.842683 
L 528.702008 205.004547 
L 522.241439 199.38846 
L 515.588807 194.001265 
L 508.752217 188.849525 
L 501.739999 183.939517 
L 494.560696 179.277223 
L 487.223054 174.868323 
L 479.736014 170.718189 
L 472.108698 166.831877 
L 464.350397 163.214122 
L 456.470564 159.869332 
L 448.478801 156.801581 
L 440.384842 154.014608 
L 432.198551 151.511807 
L 423.929899 149.296229 
L 415.588963 147.370572 
L 407.185902 145.737182 
L 398.730957 144.39805 
L 390.234426 143.354808 
L 381.706663 142.608725 
L 373.158057 142.160712 
L 364.599023 142.011313 
L 356.03999 142.160712 
L 347.491383 142.608725 
L 338.96362 143.354808 
L 330.46709 144.39805 
L 322.012144 145.737182 
L 313.609084 147.370572 
L 305.268147 149.296229 
L 296.999496 151.511807 
L 288.813204 154.014608 
L 280.719246 156.801581 
L 272.727482 159.869332 
L 264.84765 163.214122 
L 257.089349 166.831877 
L 249.462033 170.718189 
L 241.974992 174.868323 
L 234.637351 179.277223 
L 227.458048 183.939517 
L 220.445829 188.849525 
L 213.60924 194.001265 
L 206.956608 199.38846 
L 200.496039 205.004547 
L 194.235404 210.842683 
L 188.182332 216.895756 
L 182.344195 223.156391 
L 176.728108 229.616959 
L 171.340913 236.269591 
L 166.189173 243.106181 
L 161.279165 250.118399 
L 156.616871 257.297702 
L 152.207972 264.635344 
L 148.057837 272.122384 
L 144.171526 279.749701 
L 140.55377 287.508002 
L 137.20898 295.387834 
L 134.141229 303.379598 
L 131.354256 311.473556 
L 128.851455 319.659848 
L 126.635877 327.928499 
L 124.71022 336.269436 
L 123.076831 344.672496 
L 121.737699 353.127442 
L 120.694456 361.623972 
L 119.948373 370.151735 
L 119.50036 378.700341 
L 119.350961 387.259375 
L 119.50036 395.818409 
L 119.948373 404.367015 
L 120.694456 412.894778 
L 121.737699 421.391308 
L 123.076831 429.846254 
L 124.71022 438.249314 
L 126.635877 446.590251 
L 128.851455 454.858902 
L 131.354256 463.045194 
L 134.141229 471.139152 
L 137.20898 479.130916 
L 140.55377 487.010748 
L 144.171526 494.769049 
L 148.057837 502.396366 
L 152.207972 509.883406 
L 156.616871 517.221048 
L 161.279165 524.400351 
L 166.189173 531.412569 
L 171.340913 538.249159 
L 176.728108 544.901791 
L 182.344195 551.362359 
L 188.182332 557.622994 
L 194.235404 563.676067 
L 200.496039 569.514203 
L 206.956608 575.13029 
L 213.60924 580.517485 
L 220.445829 585.669225 
L 227.458048 590.579233 
L 234.637351 595.241527 
L 241.974992 599.650427 
L 249.462033 603.800561 
L 257.089349 607.686873 
L 264.84765 611.304628 
L 272.727482 614.649418 
L 280.719246 617.717169 
L 288.813204 620.504142 
L 296.999496 623.006943 
L 305.268147 625.222521 
L 313.609084 627.148178 
L 322.012144 628.781568 
L 330.46709 630.1207 
L 338.96362 631.163942 
L 347.491383 631.910025 
L 356.03999 632.358038 
L 364.599023 632.507437 
L 373.158057 632.358038 
L 381.706663 631.910025 
L 390.234426 631.163942 
L 398.730957 630.1207 
L 407.185902 628.781568 
L 415.588963 627.148178 
L 423.929899 625.222521 
L 432.198551 623.006943 
L 440.384842 620.504142 
L 448.478801 617.717169 
L 456.470564 614.649418 
L 464.350397 611.304628 
L 472.108698 607.686873 
L 479.736014 603.800561 
L 487.223054 599.650427 
L 494.560696 595.241527 
L 501.739999 590.579233 
L 508.752217 585.669225 
L 515.588807 580.517485 
L 522.241439 575.13029 
L 528.702008 569.514203 
L 534.962643 563.676067 
L 541.015715 557.622994 
L 546.853852 551.362359 
L 552.469938 544.901791 
L 557.857134 538.249159 
L 563.008873 531.412569 
L 567.918881 524.400351 
L 572.581175 517.221048 
L 576.990075 509.883406 
L 581.140209 502.396366 
L 585.026521 494.769049 
L 588.644276 487.010748 
L 591.989067 479.130916 
L 595.056818 471.139152 
L 597.843791 463.045194 
L 600.346591 454.858902 
L 602.56217 446.590251 
L 604.487827 438.249314 
L 606.121216 429.846254 
L 607.460348 421.391308 
L 608.503591 412.894778 
L 609.249673 404.367015 
L 609.697687 395.818409 
L 609.847085 387.259375 
L 609.847085 387.259375 
" style="fill:none;stroke:#b0b0b0;stroke-linecap:square;stroke-width:0.8;"/>
     </g>
     <g id="text_10">
      <!-- 154 -->
      <defs>
       <path d="M 50.296875 72.90625 
L 50.296875 64.890625 
L 16.890625 64.890625 
L 16.890625 44 
Q 19.4375 45.75 22.828125 46.625 
Q 26.21875 47.515625 30.421875 47.515625 
Q 42.234375 47.515625 49.0625 40.96875 
Q 55.90625 34.421875 55.90625 23.09375 
Q 55.90625 11.53125 49 5.046875 
Q 42.09375 -1.421875 29.59375 -1.421875 
Q 24.5625 -1.421875 19.28125 -0.1875 
Q 14.015625 1.03125 8.5 3.515625 
L 8.5 17.671875 
L 14.015625 17.671875 
Q 14.453125 10.75 18.421875 7.078125 
Q 22.40625 3.421875 29.59375 3.421875 
Q 37.3125 3.421875 41.453125 8.5 
Q 45.609375 13.578125 45.609375 23.09375 
Q 45.609375 32.5625 41.484375 37.609375 
Q 37.359375 42.671875 29.59375 42.671875 
Q 25.203125 42.671875 21.84375 41.109375 
Q 18.5 39.546875 15.921875 36.28125 
L 11.71875 36.28125 
L 11.71875 72.90625 
z
" id="DejaVuSerif-53"/>
       <path d="M 34.90625 24.703125 
L 34.90625 63.484375 
L 10.015625 24.703125 
z
M 56.390625 0 
L 23.1875 0 
L 23.1875 5.171875 
L 34.90625 5.171875 
L 34.90625 19.484375 
L 3.078125 19.484375 
L 3.078125 24.8125 
L 35.015625 74.21875 
L 44.671875 74.21875 
L 44.671875 24.703125 
L 58.59375 24.703125 
L 58.59375 19.484375 
L 44.671875 19.484375 
L 44.671875 5.171875 
L 56.390625 5.171875 
z
" id="DejaVuSerif-52"/>
      </defs>
      <g transform="translate(591.178688 291.327317)scale(0.1 -0.1)">
       <use xlink:href="#DejaVuSerif-49"/>
       <use x="63.623047" xlink:href="#DejaVuSerif-53"/>
       <use x="127.246094" xlink:href="#DejaVuSerif-52"/>
      </g>
     </g>
    </g>
    <g id="ytick_5">
     <g id="line2d_11">
      <path clip-path="url(#pc4fe8aa110)" d="M 523.851012 387.259375 
L 523.754 381.701561 
L 523.463082 376.150518 
L 522.978613 370.613009 
L 522.301182 365.095782 
L 521.431616 359.605557 
L 520.370974 354.149025 
L 519.120547 348.732832 
L 517.68186 343.363578 
L 516.056665 338.047804 
L 514.246942 332.791987 
L 512.254896 327.60253 
L 510.082954 322.485756 
L 507.733762 317.447898 
L 505.210183 312.495095 
L 502.515291 307.633381 
L 499.652369 302.868679 
L 496.624905 298.206793 
L 493.436588 293.653405 
L 490.091303 289.214061 
L 486.593124 284.89417 
L 482.946314 280.698996 
L 479.155317 276.633648 
L 475.22475 272.703082 
L 471.159403 268.912084 
L 466.964228 265.265274 
L 462.644337 261.767096 
L 458.204994 258.42181 
L 453.651605 255.233493 
L 448.98972 252.20603 
L 444.225018 249.343108 
L 439.363303 246.648215 
L 434.4105 244.124636 
L 429.372643 241.775444 
L 424.255868 239.603503 
L 419.066411 237.611457 
L 413.810594 235.801734 
L 408.49482 234.176539 
L 403.125566 232.737851 
L 397.709374 231.487425 
L 392.252841 230.426782 
L 386.762616 229.557216 
L 381.245389 228.879786 
L 375.707881 228.395317 
L 370.156838 228.104399 
L 364.599023 228.007387 
L 359.041209 228.104399 
L 353.490166 228.395317 
L 347.952658 228.879786 
L 342.43543 229.557216 
L 336.945206 230.426782 
L 331.488673 231.487425 
L 326.072481 232.737851 
L 320.703226 234.176539 
L 315.387453 235.801734 
L 310.131636 237.611457 
L 304.942179 239.603503 
L 299.825404 241.775444 
L 294.787547 244.124636 
L 289.834744 246.648215 
L 284.973029 249.343108 
L 280.208327 252.20603 
L 275.546442 255.233493 
L 270.993053 258.42181 
L 266.553709 261.767096 
L 262.233819 265.265274 
L 258.038644 268.912084 
L 253.973297 272.703082 
L 250.04273 276.633648 
L 246.251732 280.698996 
L 242.604923 284.89417 
L 239.106744 289.214061 
L 235.761459 293.653405 
L 232.573142 298.206793 
L 229.545678 302.868679 
L 226.682756 307.633381 
L 223.987864 312.495095 
L 221.464285 317.447898 
L 219.115093 322.485756 
L 216.943151 327.60253 
L 214.951105 332.791987 
L 213.141382 338.047804 
L 211.516187 343.363578 
L 210.0775 348.732832 
L 208.827073 354.149025 
L 207.766431 359.605557 
L 206.896865 365.095782 
L 206.219434 370.613009 
L 205.734965 376.150518 
L 205.444047 381.701561 
L 205.347035 387.259375 
L 205.444047 392.817189 
L 205.734965 398.368232 
L 206.219434 403.905741 
L 206.896865 409.422968 
L 207.766431 414.913193 
L 208.827073 420.369725 
L 210.0775 425.785918 
L 211.516187 431.155172 
L 213.141382 436.470946 
L 214.951105 441.726763 
L 216.943151 446.91622 
L 219.115093 452.032994 
L 221.464285 457.070852 
L 223.987864 462.023655 
L 226.682756 466.885369 
L 229.545678 471.650071 
L 232.573142 476.311957 
L 235.761459 480.865345 
L 239.106744 485.304689 
L 242.604923 489.62458 
L 246.251732 493.819754 
L 250.04273 497.885102 
L 253.973297 501.815668 
L 258.038644 505.606666 
L 262.233819 509.253476 
L 266.553709 512.751654 
L 270.993053 516.09694 
L 275.546442 519.285257 
L 280.208327 522.31272 
L 284.973029 525.175642 
L 289.834744 527.870535 
L 294.787547 530.394114 
L 299.825404 532.743306 
L 304.942179 534.915247 
L 310.131636 536.907293 
L 315.387453 538.717016 
L 320.703226 540.342211 
L 326.072481 541.780899 
L 331.488673 543.031325 
L 336.945206 544.091968 
L 342.43543 544.961534 
L 347.952658 545.638964 
L 353.490166 546.123433 
L 359.041209 546.414351 
L 364.599023 546.511363 
L 370.156838 546.414351 
L 375.707881 546.123433 
L 381.245389 545.638964 
L 386.762616 544.961534 
L 392.252841 544.091968 
L 397.709374 543.031325 
L 403.125566 541.780899 
L 408.49482 540.342211 
L 413.810594 538.717016 
L 419.066411 536.907293 
L 424.255868 534.915247 
L 429.372643 532.743306 
L 434.4105 530.394114 
L 439.363303 527.870535 
L 444.225018 525.175642 
L 448.98972 522.31272 
L 453.651605 519.285257 
L 458.204994 516.09694 
L 462.644337 512.751654 
L 466.964228 509.253476 
L 471.159403 505.606666 
L 475.22475 501.815668 
L 479.155317 497.885102 
L 482.946314 493.819754 
L 486.593124 489.62458 
L 490.091303 485.304689 
L 493.436588 480.865345 
L 496.624905 476.311957 
L 499.652369 471.650071 
L 502.515291 466.885369 
L 505.210183 462.023655 
L 507.733762 457.070852 
L 510.082954 452.032994 
L 512.254896 446.91622 
L 514.246942 441.726763 
L 516.056665 436.470946 
L 517.68186 431.155172 
L 519.120547 425.785918 
L 520.370974 420.369725 
L 521.431616 414.913193 
L 522.301182 409.422968 
L 522.978613 403.905741 
L 523.463082 398.368232 
L 523.754 392.817189 
L 523.851012 387.259375 
L 523.851012 387.259375 
" style="fill:none;stroke:#b0b0b0;stroke-linecap:square;stroke-width:0.8;"/>
     </g>
     <g id="text_11">
      <!-- 100 -->
      <g transform="translate(511.728676 324.23659)scale(0.1 -0.1)">
       <use xlink:href="#DejaVuSerif-49"/>
       <use x="63.623047" xlink:href="#DejaVuSerif-48"/>
       <use x="127.246094" xlink:href="#DejaVuSerif-48"/>
      </g>
     </g>
    </g>
    <g id="ytick_6">
     <g id="line2d_12">
      <path clip-path="url(#pc4fe8aa110)" d="M 571.626608 387.259375 
L 571.500493 380.034216 
L 571.122299 372.817861 
L 570.492489 365.6191 
L 569.61183 358.446704 
L 568.481394 351.309412 
L 567.102559 344.21592 
L 565.477004 337.174869 
L 563.606711 330.194839 
L 561.493957 323.284333 
L 559.141317 316.451771 
L 556.551657 309.705477 
L 553.728133 303.05367 
L 550.674184 296.504455 
L 547.393531 290.065811 
L 543.890171 283.745583 
L 540.168373 277.55147 
L 536.23267 271.491019 
L 532.087858 265.571614 
L 527.738987 259.800467 
L 523.191354 254.184609 
L 518.450502 248.730882 
L 513.522205 243.44593 
L 508.412468 238.336194 
L 503.127517 233.407897 
L 497.67379 228.667044 
L 492.057932 224.119412 
L 486.286785 219.770541 
L 480.36738 215.625729 
L 474.306929 211.690026 
L 468.112816 207.968227 
L 461.792587 204.464867 
L 455.353943 201.184214 
L 448.804728 198.130265 
L 442.152922 195.306741 
L 435.406628 192.717081 
L 428.574065 190.364441 
L 421.663559 188.251688 
L 414.683529 186.381394 
L 407.642479 184.75584 
L 400.548986 183.377004 
L 393.411694 182.246568 
L 386.239299 181.365909 
L 379.040538 180.736099 
L 371.824182 180.357906 
L 364.599023 180.23179 
L 357.373865 180.357906 
L 350.157509 180.736099 
L 342.958748 181.365909 
L 335.786352 182.246568 
L 328.649061 183.377004 
L 321.555568 184.75584 
L 314.514518 186.381394 
L 307.534487 188.251688 
L 300.623981 190.364441 
L 293.791419 192.717081 
L 287.045125 195.306741 
L 280.393319 198.130265 
L 273.844104 201.184214 
L 267.40546 204.464867 
L 261.085231 207.968227 
L 254.891118 211.690026 
L 248.830667 215.625729 
L 242.911262 219.770541 
L 237.140115 224.119412 
L 231.524257 228.667044 
L 226.07053 233.407897 
L 220.785579 238.336194 
L 215.675842 243.44593 
L 210.747545 248.730882 
L 206.006693 254.184609 
L 201.45906 259.800467 
L 197.110189 265.571614 
L 192.965377 271.491019 
L 189.029674 277.55147 
L 185.307876 283.745583 
L 181.804516 290.065811 
L 178.523863 296.504455 
L 175.469914 303.05367 
L 172.646389 309.705477 
L 170.05673 316.451771 
L 167.70409 323.284333 
L 165.591336 330.194839 
L 163.721043 337.174869 
L 162.095488 344.21592 
L 160.716653 351.309412 
L 159.586217 358.446704 
L 158.705557 365.6191 
L 158.075747 372.817861 
L 157.697554 380.034216 
L 157.571439 387.259375 
L 157.697554 394.484534 
L 158.075747 401.700889 
L 158.705557 408.89965 
L 159.586217 416.072046 
L 160.716653 423.209338 
L 162.095488 430.30283 
L 163.721043 437.343881 
L 165.591336 444.323911 
L 167.70409 451.234417 
L 170.05673 458.066979 
L 172.646389 464.813273 
L 175.469914 471.46508 
L 178.523863 478.014295 
L 181.804516 484.452939 
L 185.307876 490.773167 
L 189.029674 496.96728 
L 192.965377 503.027731 
L 197.110189 508.947136 
L 201.45906 514.718283 
L 206.006693 520.334141 
L 210.747545 525.787868 
L 215.675842 531.07282 
L 220.785579 536.182556 
L 226.07053 541.110853 
L 231.524257 545.851706 
L 237.140115 550.399338 
L 242.911262 554.748209 
L 248.830667 558.893021 
L 254.891118 562.828724 
L 261.085231 566.550523 
L 267.40546 570.053883 
L 273.844104 573.334536 
L 280.393319 576.388485 
L 287.045125 579.212009 
L 293.791419 581.801669 
L 300.623981 584.154309 
L 307.534487 586.267062 
L 314.514518 588.137356 
L 321.555568 589.76291 
L 328.649061 591.141746 
L 335.786352 592.272182 
L 342.958748 593.152841 
L 350.157509 593.782651 
L 357.373865 594.160844 
L 364.599023 594.28696 
L 371.824182 594.160844 
L 379.040538 593.782651 
L 386.239299 593.152841 
L 393.411694 592.272182 
L 400.548986 591.141746 
L 407.642479 589.76291 
L 414.683529 588.137356 
L 421.663559 586.267062 
L 428.574065 584.154309 
L 435.406628 581.801669 
L 442.152922 579.212009 
L 448.804728 576.388485 
L 455.353943 573.334536 
L 461.792587 570.053883 
L 468.112816 566.550523 
L 474.306929 562.828724 
L 480.36738 558.893021 
L 486.286785 554.748209 
L 492.057932 550.399338 
L 497.67379 545.851706 
L 503.127517 541.110853 
L 508.412468 536.182556 
L 513.522205 531.07282 
L 518.450502 525.787868 
L 523.191354 520.334141 
L 527.738987 514.718283 
L 532.087858 508.947136 
L 536.23267 503.027731 
L 540.168373 496.96728 
L 543.890171 490.773167 
L 547.393531 484.452939 
L 550.674184 478.014295 
L 553.728133 471.46508 
L 556.551657 464.813273 
L 559.141317 458.066979 
L 561.493957 451.234417 
L 563.606711 444.323911 
L 565.477004 437.343881 
L 567.102559 430.30283 
L 568.481394 423.209338 
L 569.61183 416.072046 
L 570.492489 408.89965 
L 571.122299 401.700889 
L 571.500493 394.484534 
L 571.626608 387.259375 
L 571.626608 387.259375 
" style="fill:none;stroke:#b0b0b0;stroke-linecap:square;stroke-width:0.8;"/>
     </g>
     <g id="text_12">
      <!-- 130 -->
      <defs>
       <path d="M 9.71875 69.828125 
Q 15.4375 71.96875 20.671875 73.09375 
Q 25.921875 74.21875 30.515625 74.21875 
Q 41.21875 74.21875 47.21875 69.59375 
Q 53.21875 64.984375 53.21875 56.78125 
Q 53.21875 50.203125 49.0625 45.78125 
Q 44.921875 41.359375 37.3125 39.796875 
Q 46.296875 38.53125 51.25 33.28125 
Q 56.203125 28.03125 56.203125 19.671875 
Q 56.203125 9.46875 49.34375 4.015625 
Q 42.484375 -1.421875 29.59375 -1.421875 
Q 23.875 -1.421875 18.421875 -0.1875 
Q 12.984375 1.03125 7.625 3.515625 
L 7.625 17.671875 
L 13.09375 17.671875 
Q 13.578125 10.640625 17.828125 7.03125 
Q 22.078125 3.421875 29.78125 3.421875 
Q 37.25 3.421875 41.578125 7.734375 
Q 45.90625 12.0625 45.90625 19.578125 
Q 45.90625 28.171875 41.453125 32.59375 
Q 37.015625 37.015625 28.421875 37.015625 
L 23.78125 37.015625 
L 23.78125 42 
L 26.21875 42 
Q 34.765625 42 39.03125 45.53125 
Q 43.3125 49.078125 43.3125 56.203125 
Q 43.3125 62.59375 39.796875 65.984375 
Q 36.28125 69.390625 29.6875 69.390625 
Q 23.09375 69.390625 19.453125 66.265625 
Q 15.828125 63.140625 15.1875 56.984375 
L 9.71875 56.984375 
z
" id="DejaVuSerif-51"/>
      </defs>
      <g transform="translate(555.867572 305.953661)scale(0.1 -0.1)">
       <use xlink:href="#DejaVuSerif-49"/>
       <use x="63.623047" xlink:href="#DejaVuSerif-51"/>
       <use x="127.246094" xlink:href="#DejaVuSerif-48"/>
      </g>
     </g>
    </g>
    <g id="ytick_7">
     <g id="line2d_13">
      <path clip-path="url(#pc4fe8aa110)" d="M 533.406131 387.259375 
L 533.303298 381.368092 
L 532.994925 375.483986 
L 532.481388 369.614227 
L 531.763312 363.765966 
L 530.841572 357.946328 
L 529.717291 352.162404 
L 528.391838 346.42124 
L 526.86683 340.72983 
L 525.144123 335.09511 
L 523.225817 329.523944 
L 521.114248 324.023119 
L 518.81199 318.599339 
L 516.321847 313.25921 
L 513.646853 308.009238 
L 510.790267 302.855821 
L 507.75557 297.805237 
L 504.546458 292.863638 
L 501.166842 288.037047 
L 497.620839 283.331342 
L 493.91277 278.752258 
L 490.047152 274.305373 
L 486.028694 269.996105 
L 481.862294 265.829704 
L 477.553026 261.811247 
L 473.106141 257.945628 
L 468.527056 254.237559 
L 463.821352 250.691556 
L 458.99476 247.31194 
L 454.053162 244.102829 
L 449.002577 241.068132 
L 443.84916 238.211546 
L 438.599189 235.536552 
L 433.25906 233.046409 
L 427.835279 230.74415 
L 422.334455 228.632582 
L 416.763288 226.714275 
L 411.128568 224.991568 
L 405.437159 223.46656 
L 399.695995 222.141108 
L 393.91207 221.016827 
L 388.092432 220.095087 
L 382.244171 219.37701 
L 376.374412 218.863473 
L 370.490307 218.5551 
L 364.599023 218.452267 
L 358.70774 218.5551 
L 352.823635 218.863473 
L 346.953876 219.37701 
L 341.105615 220.095087 
L 335.285977 221.016827 
L 329.502052 222.141108 
L 323.760888 223.46656 
L 318.069479 224.991568 
L 312.434758 226.714275 
L 306.863592 228.632582 
L 301.362768 230.74415 
L 295.938987 233.046409 
L 290.598858 235.536552 
L 285.348887 238.211546 
L 280.19547 241.068132 
L 275.144885 244.102829 
L 270.203287 247.31194 
L 265.376695 250.691556 
L 260.670991 254.237559 
L 256.091906 257.945628 
L 251.645021 261.811247 
L 247.335753 265.829704 
L 243.169352 269.996105 
L 239.150895 274.305373 
L 235.285277 278.752258 
L 231.577207 283.331342 
L 228.031205 288.037047 
L 224.651589 292.863638 
L 221.442477 297.805237 
L 218.40778 302.855821 
L 215.551194 308.009238 
L 212.8762 313.25921 
L 210.386057 318.599339 
L 208.083799 324.023119 
L 205.97223 329.523944 
L 204.053924 335.09511 
L 202.331217 340.72983 
L 200.806208 346.42124 
L 199.480756 352.162404 
L 198.356475 357.946328 
L 197.434735 363.765966 
L 196.716659 369.614227 
L 196.203121 375.483986 
L 195.894749 381.368092 
L 195.791916 387.259375 
L 195.894749 393.150658 
L 196.203121 399.034764 
L 196.716659 404.904523 
L 197.434735 410.752784 
L 198.356475 416.572422 
L 199.480756 422.356346 
L 200.806208 428.09751 
L 202.331217 433.78892 
L 204.053924 439.42364 
L 205.97223 444.994806 
L 208.083799 450.495631 
L 210.386057 455.919411 
L 212.8762 461.25954 
L 215.551194 466.509512 
L 218.40778 471.662929 
L 221.442477 476.713513 
L 224.651589 481.655112 
L 228.031205 486.481703 
L 231.577207 491.187408 
L 235.285277 495.766492 
L 239.150895 500.213377 
L 243.169352 504.522645 
L 247.335753 508.689046 
L 251.645021 512.707503 
L 256.091906 516.573122 
L 260.670991 520.281191 
L 265.376695 523.827194 
L 270.203287 527.20681 
L 275.144885 530.415921 
L 280.19547 533.450618 
L 285.348887 536.307204 
L 290.598858 538.982198 
L 295.938987 541.472341 
L 301.362768 543.7746 
L 306.863592 545.886168 
L 312.434758 547.804475 
L 318.069479 549.527182 
L 323.760888 551.05219 
L 329.502052 552.377642 
L 335.285977 553.501923 
L 341.105615 554.423663 
L 346.953876 555.14174 
L 352.823635 555.655277 
L 358.70774 555.96365 
L 364.599023 556.066483 
L 370.490307 555.96365 
L 376.374412 555.655277 
L 382.244171 555.14174 
L 388.092432 554.423663 
L 393.91207 553.501923 
L 399.695995 552.377642 
L 405.437159 551.05219 
L 411.128568 549.527182 
L 416.763288 547.804475 
L 422.334455 545.886168 
L 427.835279 543.7746 
L 433.25906 541.472341 
L 438.599189 538.982198 
L 443.84916 536.307204 
L 449.002577 533.450618 
L 454.053162 530.415921 
L 458.99476 527.20681 
L 463.821352 523.827194 
L 468.527056 520.281191 
L 473.106141 516.573122 
L 477.553026 512.707503 
L 481.862294 508.689046 
L 486.028694 504.522645 
L 490.047152 500.213377 
L 493.91277 495.766492 
L 497.620839 491.187408 
L 501.166842 486.481703 
L 504.546458 481.655112 
L 507.75557 476.713513 
L 510.790267 471.662929 
L 513.646853 466.509512 
L 516.321847 461.25954 
L 518.81199 455.919411 
L 521.114248 450.495631 
L 523.225817 444.994806 
L 525.144123 439.42364 
L 526.86683 433.78892 
L 528.391838 428.09751 
L 529.717291 422.356346 
L 530.841572 416.572422 
L 531.763312 410.752784 
L 532.481388 404.904523 
L 532.994925 399.034764 
L 533.303298 393.150658 
L 533.406131 387.259375 
L 533.406131 387.259375 
" style="fill:none;stroke:#b0b0b0;stroke-linecap:square;stroke-width:0.8;"/>
     </g>
     <g id="text_13">
      <!-- 106 -->
      <g transform="translate(520.556455 320.580004)scale(0.1 -0.1)">
       <use xlink:href="#DejaVuSerif-49"/>
       <use x="63.623047" xlink:href="#DejaVuSerif-48"/>
       <use x="127.246094" xlink:href="#DejaVuSerif-54"/>
      </g>
     </g>
    </g>
   </g>
   <g id="line2d_14">
    <path clip-path="url(#pc4fe8aa110)" d="M 533.406131 387.259375 
L 515.888412 125.218467 
L 284.973029 249.343108 
L 119.350961 387.259375 
L 284.973029 525.175642 
L 468.112816 566.550523 
L 533.406131 387.259375 
" style="fill:none;stroke:#714f6e;stroke-linecap:square;stroke-width:4;"/>
   </g>
   <g id="patch_4">
    <path d="M 674.344141 387.259375 
C 674.344141 346.584019 666.331982 306.304179 650.766198 268.72505 
C 635.200413 231.145921 612.383716 196.998322 583.621896 168.236502 
C 554.860076 139.474682 520.712477 116.657986 483.133348 101.092201 
C 445.554219 85.526416 405.27438 77.514258 364.599023 77.514258 
C 323.923667 77.514258 283.643828 85.526416 246.064699 101.092201 
C 208.48557 116.657986 174.337971 139.474682 145.576151 168.236502 
C 116.814331 196.998322 93.997634 231.145921 78.431849 268.72505 
C 62.866064 306.304179 54.853906 346.584019 54.853906 387.259375 
C 54.853906 427.934731 62.866064 468.214571 78.431849 505.7937 
C 93.997634 543.372829 116.814331 577.520428 145.576151 606.282248 
C 174.337971 635.044068 208.48557 657.860764 246.064699 673.426549 
C 283.643828 688.992334 323.923667 697.004492 364.599023 697.004492 
C 405.27438 697.004492 445.554219 688.992334 483.133348 673.426549 
C 520.712477 657.860764 554.860076 635.044068 583.621896 606.282248 
C 612.383716 577.520428 635.200413 543.372829 650.766198 505.7937 
C 666.331982 468.214571 674.344141 427.934731 674.344141 387.259375 
" style="fill:none;stroke:#000000;stroke-linecap:square;stroke-linejoin:miter;stroke-width:0.8;"/>
   </g>
   <g id="text_14">
    <!-- MegaMewtwoX -->
    <defs>
     <path d="M 5.515625 0 
L 5.515625 5.171875 
L 14.796875 5.171875 
L 14.796875 67.671875 
L 4.984375 67.671875 
L 4.984375 72.90625 
L 26.21875 72.90625 
L 51.8125 21 
L 77.390625 72.90625 
L 97.3125 72.90625 
L 97.3125 67.671875 
L 87.59375 67.671875 
L 87.59375 5.171875 
L 96.921875 5.171875 
L 96.921875 0 
L 68.40625 0 
L 68.40625 5.171875 
L 77.6875 5.171875 
L 77.6875 61.53125 
L 52.6875 10.6875 
L 45.796875 10.6875 
L 20.796875 61.53125 
L 20.796875 5.171875 
L 30.078125 5.171875 
L 30.078125 0 
z
" id="DejaVuSerif-77"/>
     <path d="M 52.484375 46.6875 
L 52.484375 1.125 
Q 52.484375 -10.0625 46.328125 -16.140625 
Q 40.1875 -22.21875 28.8125 -22.21875 
Q 23.6875 -22.21875 19 -21.28125 
Q 14.3125 -20.359375 10.015625 -18.5 
L 10.015625 -7.625 
L 14.703125 -7.625 
Q 15.578125 -12.703125 18.84375 -15.046875 
Q 22.125 -17.390625 28.21875 -17.390625 
Q 36.140625 -17.390625 39.8125 -12.921875 
Q 43.5 -8.453125 43.5 1.125 
L 43.5 8.109375 
Q 40.875 3.21875 36.796875 0.890625 
Q 32.71875 -1.421875 26.703125 -1.421875 
Q 17.140625 -1.421875 11.0625 6.171875 
Q 4.984375 13.765625 4.984375 25.984375 
Q 4.984375 38.1875 11.03125 45.75 
Q 17.09375 53.328125 26.703125 53.328125 
Q 32.71875 53.328125 36.796875 51 
Q 40.875 48.6875 43.5 43.796875 
L 43.5 51.90625 
L 61.078125 51.90625 
L 61.078125 46.6875 
z
M 43.5 28.515625 
Q 43.5 37.84375 39.90625 42.765625 
Q 36.328125 47.703125 29.5 47.703125 
Q 22.5625 47.703125 19.015625 42.234375 
Q 15.484375 36.765625 15.484375 25.984375 
Q 15.484375 15.234375 19.015625 9.71875 
Q 22.5625 4.203125 29.5 4.203125 
Q 36.328125 4.203125 39.90625 9.109375 
Q 43.5 14.015625 43.5 23.390625 
z
" id="DejaVuSerif-103"/>
     <path d="M 48 51.90625 
L 61.28125 11.375 
L 73 46.6875 
L 65.484375 46.6875 
L 65.484375 51.90625 
L 84.28125 51.90625 
L 84.28125 46.6875 
L 78.515625 46.6875 
L 63.09375 0 
L 55.609375 0 
L 42.828125 38.8125 
L 29.984375 0 
L 22.796875 0 
L 7.421875 46.6875 
L 1.609375 46.6875 
L 1.609375 51.90625 
L 25.09375 51.90625 
L 25.09375 46.6875 
L 16.703125 46.6875 
L 28.328125 11.375 
L 41.703125 51.90625 
z
" id="DejaVuSerif-119"/>
     <path d="M 33.109375 31.203125 
L 15.28125 5.171875 
L 24.703125 5.171875 
L 24.703125 0 
L 0.59375 0 
L 0.59375 5.171875 
L 8.984375 5.171875 
L 29.984375 35.796875 
L 8.6875 67.671875 
L 0.875 67.671875 
L 0.875 72.90625 
L 29.78125 72.90625 
L 29.78125 67.671875 
L 21.1875 67.671875 
L 36.8125 44.1875 
L 52.875 67.671875 
L 43.5 67.671875 
L 43.5 72.90625 
L 67.390625 72.90625 
L 67.390625 67.671875 
L 59.1875 67.671875 
L 39.890625 39.59375 
L 62.890625 5.171875 
L 70.703125 5.171875 
L 70.703125 0 
L 41.796875 0 
L 41.796875 5.171875 
L 50.484375 5.171875 
z
" id="DejaVuSerif-88"/>
    </defs>
    <g transform="translate(246.164648 40.539746)scale(0.3 -0.3)">
     <use xlink:href="#DejaVuSerif-77"/>
     <use x="102.392578" xlink:href="#DejaVuSerif-101"/>
     <use x="161.572266" xlink:href="#DejaVuSerif-103"/>
     <use x="225.585938" xlink:href="#DejaVuSerif-97"/>
     <use x="285.205078" xlink:href="#DejaVuSerif-77"/>
     <use x="387.597656" xlink:href="#DejaVuSerif-101"/>
     <use x="446.777344" xlink:href="#DejaVuSerif-119"/>
     <use x="532.373047" xlink:href="#DejaVuSerif-116"/>
     <use x="572.558594" xlink:href="#DejaVuSerif-119"/>
     <use x="658.154297" xlink:href="#DejaVuSerif-111"/>
     <use x="718.359375" xlink:href="#DejaVuSerif-88"/>
    </g>
   </g>
  </g>
 </g>
 <defs>
  <clipPath id="pc4fe8aa110">
   <path d="M 674.344141 387.259375 
C 674.344141 346.584019 666.331982 306.304179 650.766198 268.72505 
C 635.200413 231.145921 612.383716 196.998322 583.621896 168.236502 
C 554.860076 139.474682 520.712477 116.657986 483.133348 101.092201 
C 445.554219 85.526416 405.27438 77.514258 364.599023 77.514258 
C 323.923667 77.514258 283.643828 85.526416 246.064699 101.092201 
C 208.48557 116.657986 174.337971 139.474682 145.576151 168.236502 
C 116.814331 196.998322 93.997634 231.145921 78.431849 268.72505 
C 62.866064 306.304179 54.853906 346.584019 54.853906 387.259375 
C 54.853906 427.934731 62.866064 468.214571 78.431849 505.7937 
C 93.997634 543.372829 116.814331 577.520428 145.576151 606.282248 
C 174.337971 635.044068 208.48557 657.860764 246.064699 673.426549 
C 283.643828 688.992334 323.923667 697.004492 364.599023 697.004492 
C 405.27438 697.004492 445.554219 688.992334 483.133348 673.426549 
C 520.712477 657.860764 554.860076 635.044068 583.621896 606.282248 
C 612.383716 577.520428 635.200413 543.372829 650.766198 505.7937 
C 666.331982 468.214571 674.344141 427.934731 674.344141 387.259375 
M 364.599023 387.259375 
C 364.599023 387.259375 364.599023 387.259375 364.599023 387.259375 
C 364.599023 387.259375 364.599023 387.259375 364.599023 387.259375 
C 364.599023 387.259375 364.599023 387.259375 364.599023 387.259375 
C 364.599023 387.259375 364.599023 387.259375 364.599023 387.259375 
C 364.599023 387.259375 364.599023 387.259375 364.599023 387.259375 
C 364.599023 387.259375 364.599023 387.259375 364.599023 387.259375 
C 364.599023 387.259375 364.599023 387.259375 364.599023 387.259375 
C 364.599023 387.259375 364.599023 387.259375 364.599023 387.259375 
C 364.599023 387.259375 364.599023 387.259375 364.599023 387.259375 
C 364.599023 387.259375 364.599023 387.259375 364.599023 387.259375 
C 364.599023 387.259375 364.599023 387.259375 364.599023 387.259375 
C 364.599023 387.259375 364.599023 387.259375 364.599023 387.259375 
C 364.599023 387.259375 364.599023 387.259375 364.599023 387.259375 
C 364.599023 387.259375 364.599023 387.259375 364.599023 387.259375 
C 364.599023 387.259375 364.599023 387.259375 364.599023 387.259375 
C 364.599023 387.259375 364.599023 387.259375 364.599023 387.259375 
M 674.344141 387.259375 
z
"/>
  </clipPath>
 </defs>
</svg>
