<?xml version="1.0" encoding="utf-8" standalone="no"?>
<!DOCTYPE svg PUBLIC "-//W3C//DTD SVG 1.1//EN"
  "http://www.w3.org/Graphics/SVG/1.1/DTD/svg11.dtd">
<!-- Created with matplotlib (https://matplotlib.org/) -->
<svg height="720pt" version="1.1" viewBox="0 0 720 720" width="720pt" xmlns="http://www.w3.org/2000/svg" xmlns:xlink="http://www.w3.org/1999/xlink">
 <defs>
  <style type="text/css">
*{stroke-linecap:butt;stroke-linejoin:round;}
  </style>
 </defs>
 <g id="figure_1">
  <g id="patch_1">
   <path d="M 0 720 
L 720 720 
L 720 0 
L 0 0 
z
" style="fill:#ffffff;"/>
  </g>
  <g id="axes_1">
   <g id="patch_2">
    <path d="M 590.916077 277.667836 
L 562.310915 290.083776 
" style="fill:none;stroke:#000000;stroke-linecap:round;stroke-width:3;"/>
   </g>
   <g id="text_1">
    <g id="patch_3">
     <path d="M 577.744827 276.372751 
L 664.236233 276.372751 
L 664.236233 252.855563 
L 577.744827 252.855563 
z
" style="fill:#ffffff;stroke:#000000;stroke-linejoin:miter;"/>
    </g>
    <!-- Agua: 134 -->
    <defs>
     <path d="M 20.015625 26.421875 
L 46.78125 26.421875 
L 33.40625 61.078125 
z
M -0.59375 0 
L -0.59375 5.171875 
L 5.8125 5.171875 
L 31.78125 72.90625 
L 39.984375 72.90625 
L 66.015625 5.171875 
L 73.1875 5.171875 
L 73.1875 0 
L 46.6875 0 
L 46.6875 5.171875 
L 54.78125 5.171875 
L 48.6875 21.1875 
L 18.015625 21.1875 
L 11.921875 5.171875 
L 19.921875 5.171875 
L 19.921875 0 
z
" id="DejaVuSerif-65"/>
     <path d="M 52.484375 46.6875 
L 52.484375 1.125 
Q 52.484375 -10.0625 46.328125 -16.140625 
Q 40.1875 -22.21875 28.8125 -22.21875 
Q 23.6875 -22.21875 19 -21.28125 
Q 14.3125 -20.359375 10.015625 -18.5 
L 10.015625 -7.625 
L 14.703125 -7.625 
Q 15.578125 -12.703125 18.84375 -15.046875 
Q 22.125 -17.390625 28.21875 -17.390625 
Q 36.140625 -17.390625 39.8125 -12.921875 
Q 43.5 -8.453125 43.5 1.125 
L 43.5 8.109375 
Q 40.875 3.21875 36.796875 0.890625 
Q 32.71875 -1.421875 26.703125 -1.421875 
Q 17.140625 -1.421875 11.0625 6.171875 
Q 4.984375 13.765625 4.984375 25.984375 
Q 4.984375 38.1875 11.03125 45.75 
Q 17.09375 53.328125 26.703125 53.328125 
Q 32.71875 53.328125 36.796875 51 
Q 40.875 48.6875 43.5 43.796875 
L 43.5 51.90625 
L 61.078125 51.90625 
L 61.078125 46.6875 
z
M 43.5 28.515625 
Q 43.5 37.84375 39.90625 42.765625 
Q 36.328125 47.703125 29.5 47.703125 
Q 22.5625 47.703125 19.015625 42.234375 
Q 15.484375 36.765625 15.484375 25.984375 
Q 15.484375 15.234375 19.015625 9.71875 
Q 22.5625 4.203125 29.5 4.203125 
Q 36.328125 4.203125 39.90625 9.109375 
Q 43.5 14.015625 43.5 23.390625 
z
" id="DejaVuSerif-103"/>
     <path d="M 35.40625 51.90625 
L 52.203125 51.90625 
L 52.203125 5.171875 
L 60.6875 5.171875 
L 60.6875 0 
L 43.21875 0 
L 43.21875 9.1875 
Q 40.71875 4 36.765625 1.28125 
Q 32.8125 -1.421875 27.59375 -1.421875 
Q 18.953125 -1.421875 14.875 3.484375 
Q 10.796875 8.40625 10.796875 18.890625 
L 10.796875 46.6875 
L 2.6875 46.6875 
L 2.6875 51.90625 
L 19.828125 51.90625 
L 19.828125 21.6875 
Q 19.828125 12.203125 22.140625 8.6875 
Q 24.46875 5.171875 30.421875 5.171875 
Q 36.671875 5.171875 39.9375 9.765625 
Q 43.21875 14.359375 43.21875 23.09375 
L 43.21875 46.6875 
L 35.40625 46.6875 
z
" id="DejaVuSerif-117"/>
     <path d="M 39.796875 16.3125 
L 39.796875 27.296875 
L 28.21875 27.296875 
Q 21.53125 27.296875 18.25 24.40625 
Q 14.984375 21.53125 14.984375 15.578125 
Q 14.984375 10.15625 18.296875 6.984375 
Q 21.625 3.8125 27.296875 3.8125 
Q 32.90625 3.8125 36.34375 7.28125 
Q 39.796875 10.75 39.796875 16.3125 
z
M 48.78125 32.421875 
L 48.78125 5.171875 
L 56.78125 5.171875 
L 56.78125 0 
L 39.796875 0 
L 39.796875 5.609375 
Q 36.8125 2 32.90625 0.28125 
Q 29 -1.421875 23.78125 -1.421875 
Q 15.140625 -1.421875 10.0625 3.171875 
Q 4.984375 7.765625 4.984375 15.578125 
Q 4.984375 23.640625 10.796875 28.078125 
Q 16.609375 32.515625 27.203125 32.515625 
L 39.796875 32.515625 
L 39.796875 36.078125 
Q 39.796875 42 36.203125 45.234375 
Q 32.625 48.484375 26.125 48.484375 
Q 20.75 48.484375 17.578125 46.046875 
Q 14.40625 43.609375 13.625 38.8125 
L 8.984375 38.8125 
L 8.984375 49.3125 
Q 13.671875 51.3125 18.09375 52.3125 
Q 22.515625 53.328125 26.703125 53.328125 
Q 37.5 53.328125 43.140625 47.96875 
Q 48.78125 42.625 48.78125 32.421875 
z
" id="DejaVuSerif-97"/>
     <path d="M 10.40625 5.078125 
Q 10.40625 7.8125 12.28125 9.71875 
Q 14.15625 11.625 16.890625 11.625 
Q 19.625 11.625 21.5 9.71875 
Q 23.390625 7.8125 23.390625 5.078125 
Q 23.390625 2.34375 21.53125 0.453125 
Q 19.671875 -1.421875 16.890625 -1.421875 
Q 14.109375 -1.421875 12.25 0.453125 
Q 10.40625 2.34375 10.40625 5.078125 
z
M 10.40625 36.921875 
Q 10.40625 39.65625 12.28125 41.53125 
Q 14.15625 43.40625 16.890625 43.40625 
Q 19.671875 43.40625 21.53125 41.546875 
Q 23.390625 39.703125 23.390625 36.921875 
Q 23.390625 34.125 21.53125 32.265625 
Q 19.671875 30.421875 16.890625 30.421875 
Q 14.15625 30.421875 12.28125 32.296875 
Q 10.40625 34.1875 10.40625 36.921875 
z
" id="DejaVuSerif-58"/>
     <path id="DejaVuSerif-32"/>
     <path d="M 14.203125 0 
L 14.203125 5.171875 
L 26.90625 5.171875 
L 26.90625 65.828125 
L 12.203125 56.296875 
L 12.203125 62.703125 
L 29.984375 74.21875 
L 36.71875 74.21875 
L 36.71875 5.171875 
L 49.421875 5.171875 
L 49.421875 0 
z
" id="DejaVuSerif-49"/>
     <path d="M 9.71875 69.828125 
Q 15.4375 71.96875 20.671875 73.09375 
Q 25.921875 74.21875 30.515625 74.21875 
Q 41.21875 74.21875 47.21875 69.59375 
Q 53.21875 64.984375 53.21875 56.78125 
Q 53.21875 50.203125 49.0625 45.78125 
Q 44.921875 41.359375 37.3125 39.796875 
Q 46.296875 38.53125 51.25 33.28125 
Q 56.203125 28.03125 56.203125 19.671875 
Q 56.203125 9.46875 49.34375 4.015625 
Q 42.484375 -1.421875 29.59375 -1.421875 
Q 23.875 -1.421875 18.421875 -0.1875 
Q 12.984375 1.03125 7.625 3.515625 
L 7.625 17.671875 
L 13.09375 17.671875 
Q 13.578125 10.640625 17.828125 7.03125 
Q 22.078125 3.421875 29.78125 3.421875 
Q 37.25 3.421875 41.578125 7.734375 
Q 45.90625 12.0625 45.90625 19.578125 
Q 45.90625 28.171875 41.453125 32.59375 
Q 37.015625 37.015625 28.421875 37.015625 
L 23.78125 37.015625 
L 23.78125 42 
L 26.21875 42 
Q 34.765625 42 39.03125 45.53125 
Q 43.3125 49.078125 43.3125 56.203125 
Q 43.3125 62.59375 39.796875 65.984375 
Q 36.28125 69.390625 29.6875 69.390625 
Q 23.09375 69.390625 19.453125 66.265625 
Q 15.828125 63.140625 15.1875 56.984375 
L 9.71875 56.984375 
z
" id="DejaVuSerif-51"/>
     <path d="M 34.90625 24.703125 
L 34.90625 63.484375 
L 10.015625 24.703125 
z
M 56.390625 0 
L 23.1875 0 
L 23.1875 5.171875 
L 34.90625 5.171875 
L 34.90625 19.484375 
L 3.078125 19.484375 
L 3.078125 24.8125 
L 35.015625 74.21875 
L 44.671875 74.21875 
L 44.671875 24.703125 
L 58.59375 24.703125 
L 58.59375 19.484375 
L 44.671875 19.484375 
L 44.671875 5.171875 
L 56.390625 5.171875 
z
" id="DejaVuSerif-52"/>
    </defs>
    <g transform="translate(582.244827 268.539938)scale(0.15 -0.15)">
     <use xlink:href="#DejaVuSerif-65"/>
     <use x="72.216797" xlink:href="#DejaVuSerif-103"/>
     <use x="136.230469" xlink:href="#DejaVuSerif-117"/>
     <use x="200.634766" xlink:href="#DejaVuSerif-97"/>
     <use x="260.253906" xlink:href="#DejaVuSerif-58"/>
     <use x="293.945312" xlink:href="#DejaVuSerif-32"/>
     <use x="325.732422" xlink:href="#DejaVuSerif-49"/>
     <use x="389.355469" xlink:href="#DejaVuSerif-51"/>
     <use x="452.978516" xlink:href="#DejaVuSerif-52"/>
    </g>
   </g>
   <g id="patch_4">
    <path d="M 477.06607 98.906865 
L 445.249656 174.088654 
" style="fill:none;stroke:#000000;stroke-linecap:round;stroke-width:3;"/>
   </g>
   <g id="text_2">
    <g id="patch_5">
     <path d="M 430.66289 96.563353 
L 535.405078 96.563353 
L 535.405078 73.046165 
L 430.66289 73.046165 
z
" style="fill:#ffffff;stroke:#000000;stroke-linejoin:miter;"/>
    </g>
    <!-- Normal: 115 -->
    <defs>
     <path d="M 4.890625 0 
L 4.890625 5.171875 
L 14.703125 5.171875 
L 14.703125 67.671875 
L 4.890625 67.671875 
L 4.890625 72.90625 
L 23.578125 72.90625 
L 67.28125 15.375 
L 67.28125 67.671875 
L 57.515625 67.671875 
L 57.515625 72.90625 
L 83.109375 72.90625 
L 83.109375 67.671875 
L 73.296875 67.671875 
L 73.296875 -1.421875 
L 67.390625 -1.421875 
L 20.703125 60.015625 
L 20.703125 5.171875 
L 30.515625 5.171875 
L 30.515625 0 
z
" id="DejaVuSerif-78"/>
     <path d="M 30.078125 3.421875 
Q 37.3125 3.421875 40.984375 9.125 
Q 44.671875 14.84375 44.671875 25.984375 
Q 44.671875 37.109375 40.984375 42.796875 
Q 37.3125 48.484375 30.078125 48.484375 
Q 22.859375 48.484375 19.171875 42.796875 
Q 15.484375 37.109375 15.484375 25.984375 
Q 15.484375 14.84375 19.1875 9.125 
Q 22.90625 3.421875 30.078125 3.421875 
z
M 30.078125 -1.421875 
Q 18.75 -1.421875 11.859375 6.078125 
Q 4.984375 13.578125 4.984375 25.984375 
Q 4.984375 38.375 11.84375 45.84375 
Q 18.703125 53.328125 30.078125 53.328125 
Q 41.453125 53.328125 48.3125 45.84375 
Q 55.171875 38.375 55.171875 25.984375 
Q 55.171875 13.578125 48.3125 6.078125 
Q 41.453125 -1.421875 30.078125 -1.421875 
z
" id="DejaVuSerif-111"/>
     <path d="M 47.796875 52 
L 47.796875 39.015625 
L 42.625 39.015625 
Q 42.390625 42.875 40.484375 44.78125 
Q 38.578125 46.6875 34.90625 46.6875 
Q 28.265625 46.6875 24.71875 42.09375 
Q 21.1875 37.5 21.1875 28.90625 
L 21.1875 5.171875 
L 31.59375 5.171875 
L 31.59375 0 
L 4.109375 0 
L 4.109375 5.171875 
L 12.203125 5.171875 
L 12.203125 46.78125 
L 3.609375 46.78125 
L 3.609375 51.90625 
L 21.1875 51.90625 
L 21.1875 42.671875 
Q 23.828125 48.09375 27.96875 50.703125 
Q 32.125 53.328125 38.09375 53.328125 
Q 40.28125 53.328125 42.703125 52.984375 
Q 45.125 52.640625 47.796875 52 
z
" id="DejaVuSerif-114"/>
     <path d="M 51.8125 41.796875 
Q 54.390625 47.515625 58.421875 50.421875 
Q 62.453125 53.328125 67.828125 53.328125 
Q 75.984375 53.328125 79.984375 48.265625 
Q 83.984375 43.21875 83.984375 33.015625 
L 83.984375 5.171875 
L 92.09375 5.171875 
L 92.09375 0 
L 67.1875 0 
L 67.1875 5.171875 
L 75 5.171875 
L 75 31.984375 
Q 75 39.9375 72.65625 43.3125 
Q 70.3125 46.6875 64.890625 46.6875 
Q 58.890625 46.6875 55.734375 42.140625 
Q 52.59375 37.59375 52.59375 28.90625 
L 52.59375 5.171875 
L 60.40625 5.171875 
L 60.40625 0 
L 35.796875 0 
L 35.796875 5.171875 
L 43.609375 5.171875 
L 43.609375 32.328125 
Q 43.609375 40.09375 41.265625 43.390625 
Q 38.921875 46.6875 33.5 46.6875 
Q 27.484375 46.6875 24.328125 42.140625 
Q 21.1875 37.59375 21.1875 28.90625 
L 21.1875 5.171875 
L 29 5.171875 
L 29 0 
L 4.109375 0 
L 4.109375 5.171875 
L 12.203125 5.171875 
L 12.203125 46.78125 
L 3.609375 46.78125 
L 3.609375 51.90625 
L 21.1875 51.90625 
L 21.1875 42.671875 
Q 23.6875 47.859375 27.53125 50.59375 
Q 31.390625 53.328125 36.28125 53.328125 
Q 42.328125 53.328125 46.375 50.3125 
Q 50.4375 47.3125 51.8125 41.796875 
z
" id="DejaVuSerif-109"/>
     <path d="M 20.515625 5.171875 
L 29 5.171875 
L 29 0 
L 2.875 0 
L 2.875 5.171875 
L 11.53125 5.171875 
L 11.53125 70.796875 
L 2.875 70.796875 
L 2.875 75.984375 
L 20.515625 75.984375 
z
" id="DejaVuSerif-108"/>
     <path d="M 50.296875 72.90625 
L 50.296875 64.890625 
L 16.890625 64.890625 
L 16.890625 44 
Q 19.4375 45.75 22.828125 46.625 
Q 26.21875 47.515625 30.421875 47.515625 
Q 42.234375 47.515625 49.0625 40.96875 
Q 55.90625 34.421875 55.90625 23.09375 
Q 55.90625 11.53125 49 5.046875 
Q 42.09375 -1.421875 29.59375 -1.421875 
Q 24.5625 -1.421875 19.28125 -0.1875 
Q 14.015625 1.03125 8.5 3.515625 
L 8.5 17.671875 
L 14.015625 17.671875 
Q 14.453125 10.75 18.421875 7.078125 
Q 22.40625 3.421875 29.59375 3.421875 
Q 37.3125 3.421875 41.453125 8.5 
Q 45.609375 13.578125 45.609375 23.09375 
Q 45.609375 32.5625 41.484375 37.609375 
Q 37.359375 42.671875 29.59375 42.671875 
Q 25.203125 42.671875 21.84375 41.109375 
Q 18.5 39.546875 15.921875 36.28125 
L 11.71875 36.28125 
L 11.71875 72.90625 
z
" id="DejaVuSerif-53"/>
    </defs>
    <g transform="translate(435.16289 88.943822)scale(0.15 -0.15)">
     <use xlink:href="#DejaVuSerif-78"/>
     <use x="87.5" xlink:href="#DejaVuSerif-111"/>
     <use x="147.705078" xlink:href="#DejaVuSerif-114"/>
     <use x="195.507812" xlink:href="#DejaVuSerif-109"/>
     <use x="290.332031" xlink:href="#DejaVuSerif-97"/>
     <use x="349.951172" xlink:href="#DejaVuSerif-108"/>
     <use x="381.933594" xlink:href="#DejaVuSerif-58"/>
     <use x="415.625" xlink:href="#DejaVuSerif-32"/>
     <use x="447.412109" xlink:href="#DejaVuSerif-49"/>
     <use x="511.035156" xlink:href="#DejaVuSerif-49"/>
     <use x="574.658203" xlink:href="#DejaVuSerif-53"/>
    </g>
   </g>
   <g id="patch_6">
    <path d="M 297.143611 114.258078 
L 308.362979 162.347645 
" style="fill:none;stroke:#000000;stroke-linecap:round;stroke-width:3;"/>
   </g>
   <g id="text_3">
    <g id="patch_7">
     <path d="M 250.642331 111.811146 
L 337.01655 111.811146 
L 337.01655 88.293958 
L 250.642331 88.293958 
z
" style="fill:#ffffff;stroke:#000000;stroke-linejoin:miter;"/>
    </g>
    <!-- Planta: 91 -->
    <defs>
     <path d="M 24.703125 37.109375 
L 37.59375 37.109375 
Q 44.875 37.109375 48.671875 41.03125 
Q 52.484375 44.96875 52.484375 52.390625 
Q 52.484375 59.859375 48.671875 63.765625 
Q 44.875 67.671875 37.59375 67.671875 
L 24.703125 67.671875 
z
M 5.515625 0 
L 5.515625 5.171875 
L 14.796875 5.171875 
L 14.796875 67.671875 
L 5.515625 67.671875 
L 5.515625 72.90625 
L 39.984375 72.90625 
Q 50.921875 72.90625 57.3125 67.359375 
Q 63.71875 61.8125 63.71875 52.390625 
Q 63.71875 43.015625 57.3125 37.453125 
Q 50.921875 31.890625 39.984375 31.890625 
L 24.703125 31.890625 
L 24.703125 5.171875 
L 35.984375 5.171875 
L 35.984375 0 
z
" id="DejaVuSerif-80"/>
     <path d="M 4.109375 0 
L 4.109375 5.171875 
L 12.203125 5.171875 
L 12.203125 46.6875 
L 3.609375 46.6875 
L 3.609375 51.90625 
L 21.1875 51.90625 
L 21.1875 42.671875 
Q 23.6875 47.953125 27.65625 50.640625 
Q 31.640625 53.328125 36.921875 53.328125 
Q 45.515625 53.328125 49.5625 48.390625 
Q 53.609375 43.453125 53.609375 33.015625 
L 53.609375 5.171875 
L 61.625 5.171875 
L 61.625 0 
L 36.8125 0 
L 36.8125 5.171875 
L 44.578125 5.171875 
L 44.578125 30.171875 
Q 44.578125 39.703125 42.234375 43.234375 
Q 39.890625 46.78125 33.984375 46.78125 
Q 27.734375 46.78125 24.453125 42.203125 
Q 21.1875 37.640625 21.1875 28.90625 
L 21.1875 5.171875 
L 29 5.171875 
L 29 0 
z
" id="DejaVuSerif-110"/>
     <path d="M 10.796875 46.6875 
L 2.875 46.6875 
L 2.875 51.90625 
L 10.796875 51.90625 
L 10.796875 68.015625 
L 19.828125 68.015625 
L 19.828125 51.90625 
L 36.71875 51.90625 
L 36.71875 46.6875 
L 19.828125 46.6875 
L 19.828125 13.71875 
Q 19.828125 7.125 21.09375 5.265625 
Q 22.359375 3.421875 25.78125 3.421875 
Q 29.296875 3.421875 30.90625 5.484375 
Q 32.515625 7.5625 32.625 12.203125 
L 39.40625 12.203125 
Q 39.015625 5.125 35.546875 1.84375 
Q 32.078125 -1.421875 25 -1.421875 
Q 17.234375 -1.421875 14.015625 2.015625 
Q 10.796875 5.46875 10.796875 13.71875 
z
" id="DejaVuSerif-116"/>
     <path d="M 46.78125 32.671875 
Q 43.5 29 39.25 27.1875 
Q 35.015625 25.390625 29.6875 25.390625 
Q 18.84375 25.390625 12.5625 31.9375 
Q 6.296875 38.484375 6.296875 49.8125 
Q 6.296875 60.890625 13.109375 67.546875 
Q 19.921875 74.21875 31.296875 74.21875 
Q 43.65625 74.21875 50.265625 65.015625 
Q 56.890625 55.8125 56.890625 38.71875 
Q 56.890625 19.578125 49.015625 9.078125 
Q 41.15625 -1.421875 26.90625 -1.421875 
Q 23.046875 -1.421875 18.796875 -0.6875 
Q 14.546875 0.046875 10.109375 1.515625 
L 10.109375 13.625 
L 15.578125 13.625 
Q 16.21875 8.6875 19.390625 6.046875 
Q 22.5625 3.421875 27.875 3.421875 
Q 37.359375 3.421875 41.984375 10.5625 
Q 46.625 17.71875 46.78125 32.671875 
z
M 30.90625 69.390625 
Q 23.96875 69.390625 20.28125 64.328125 
Q 16.609375 59.28125 16.609375 49.8125 
Q 16.609375 40.328125 20.28125 35.25 
Q 23.96875 30.171875 30.90625 30.171875 
Q 37.84375 30.171875 41.53125 35.078125 
Q 45.21875 39.984375 45.21875 49.21875 
Q 45.21875 58.9375 41.5 64.15625 
Q 37.796875 69.390625 30.90625 69.390625 
z
" id="DejaVuSerif-57"/>
    </defs>
    <g transform="translate(255.142331 104.191614)scale(0.15 -0.15)">
     <use xlink:href="#DejaVuSerif-80"/>
     <use x="67.285156" xlink:href="#DejaVuSerif-108"/>
     <use x="99.267578" xlink:href="#DejaVuSerif-97"/>
     <use x="158.886719" xlink:href="#DejaVuSerif-110"/>
     <use x="223.291016" xlink:href="#DejaVuSerif-116"/>
     <use x="263.476562" xlink:href="#DejaVuSerif-97"/>
     <use x="323.095703" xlink:href="#DejaVuSerif-58"/>
     <use x="356.787109" xlink:href="#DejaVuSerif-32"/>
     <use x="388.574219" xlink:href="#DejaVuSerif-57"/>
     <use x="452.197266" xlink:href="#DejaVuSerif-49"/>
    </g>
   </g>
   <g id="patch_8">
    <path d="M 153.221883 159.911073 
L 206.745603 216.810407 
" style="fill:none;stroke:#000000;stroke-linecap:round;stroke-width:3;"/>
   </g>
   <g id="text_4">
    <g id="patch_9">
     <path d="M 99.909703 157.953527 
L 180.729234 157.953527 
L 180.729234 134.43634 
L 99.909703 134.43634 
z
" style="fill:#ffffff;stroke:#000000;stroke-linejoin:miter;"/>
    </g>
    <!-- Bicho: 81 -->
    <defs>
     <path d="M 24.703125 5.171875 
L 39.3125 5.171875 
Q 48.09375 5.171875 52.140625 8.984375 
Q 56.203125 12.796875 56.203125 21.09375 
Q 56.203125 29.34375 52.171875 33.125 
Q 48.140625 36.921875 39.3125 36.921875 
L 24.703125 36.921875 
z
M 24.703125 42.09375 
L 37.109375 42.09375 
Q 45.125 42.09375 48.796875 45.171875 
Q 52.484375 48.25 52.484375 54.890625 
Q 52.484375 61.578125 48.796875 64.625 
Q 45.125 67.671875 37.109375 67.671875 
L 24.703125 67.671875 
z
M 5.515625 0 
L 5.515625 5.171875 
L 14.796875 5.171875 
L 14.796875 67.671875 
L 5.515625 67.671875 
L 5.515625 72.90625 
L 41.5 72.90625 
Q 52.546875 72.90625 58.125 68.390625 
Q 63.71875 63.875 63.71875 54.890625 
Q 63.71875 48.390625 59.828125 44.53125 
Q 55.953125 40.671875 48.484375 39.796875 
Q 57.765625 38.625 62.578125 33.859375 
Q 67.390625 29.109375 67.390625 21.09375 
Q 67.390625 10.25 60.546875 5.125 
Q 53.71875 0 39.203125 0 
z
" id="DejaVuSerif-66"/>
     <path d="M 9.71875 68.015625 
Q 9.71875 70.265625 11.34375 71.921875 
Q 12.984375 73.578125 15.28125 73.578125 
Q 17.53125 73.578125 19.15625 71.921875 
Q 20.796875 70.265625 20.796875 68.015625 
Q 20.796875 65.71875 19.1875 64.109375 
Q 17.578125 62.5 15.28125 62.5 
Q 12.984375 62.5 11.34375 64.109375 
Q 9.71875 65.71875 9.71875 68.015625 
z
M 21.1875 5.171875 
L 29.6875 5.171875 
L 29.6875 0 
L 3.609375 0 
L 3.609375 5.171875 
L 12.203125 5.171875 
L 12.203125 46.6875 
L 3.609375 46.6875 
L 3.609375 51.90625 
L 21.1875 51.90625 
z
" id="DejaVuSerif-105"/>
     <path d="M 51.421875 15.578125 
Q 49.515625 7.28125 44.09375 2.921875 
Q 38.671875 -1.421875 30.078125 -1.421875 
Q 18.75 -1.421875 11.859375 6.078125 
Q 4.984375 13.578125 4.984375 25.984375 
Q 4.984375 38.421875 11.859375 45.875 
Q 18.75 53.328125 30.078125 53.328125 
Q 35.015625 53.328125 39.890625 52.171875 
Q 44.78125 51.03125 49.703125 48.6875 
L 49.703125 35.40625 
L 44.484375 35.40625 
Q 43.453125 42.234375 40.015625 45.359375 
Q 36.578125 48.484375 30.171875 48.484375 
Q 22.90625 48.484375 19.1875 42.84375 
Q 15.484375 37.203125 15.484375 25.984375 
Q 15.484375 14.75 19.171875 9.078125 
Q 22.859375 3.421875 30.171875 3.421875 
Q 35.984375 3.421875 39.453125 6.4375 
Q 42.921875 9.46875 44.1875 15.578125 
z
" id="DejaVuSerif-99"/>
     <path d="M 4.109375 0 
L 4.109375 5.171875 
L 12.203125 5.171875 
L 12.203125 70.796875 
L 3.609375 70.796875 
L 3.609375 75.984375 
L 21.1875 75.984375 
L 21.1875 42.671875 
Q 23.6875 47.953125 27.65625 50.640625 
Q 31.640625 53.328125 36.921875 53.328125 
Q 45.515625 53.328125 49.5625 48.390625 
Q 53.609375 43.453125 53.609375 33.015625 
L 53.609375 5.171875 
L 61.625 5.171875 
L 61.625 0 
L 36.8125 0 
L 36.8125 5.171875 
L 44.578125 5.171875 
L 44.578125 30.171875 
Q 44.578125 39.703125 42.25 43.1875 
Q 39.9375 46.6875 33.984375 46.6875 
Q 27.734375 46.6875 24.453125 42.140625 
Q 21.1875 37.59375 21.1875 28.90625 
L 21.1875 5.171875 
L 29 5.171875 
L 29 0 
z
" id="DejaVuSerif-104"/>
     <path d="M 46.578125 19.921875 
Q 46.578125 27.734375 42.6875 32.046875 
Q 38.8125 36.375 31.78125 36.375 
Q 24.75 36.375 20.875 32.046875 
Q 17 27.734375 17 19.921875 
Q 17 12.0625 20.875 7.734375 
Q 24.75 3.421875 31.78125 3.421875 
Q 38.8125 3.421875 42.6875 7.734375 
Q 46.578125 12.0625 46.578125 19.921875 
z
M 44.578125 55.328125 
Q 44.578125 61.96875 41.203125 65.671875 
Q 37.84375 69.390625 31.78125 69.390625 
Q 25.78125 69.390625 22.390625 65.671875 
Q 19 61.96875 19 55.328125 
Q 19 48.640625 22.390625 44.921875 
Q 25.78125 41.21875 31.78125 41.21875 
Q 37.84375 41.21875 41.203125 44.921875 
Q 44.578125 48.640625 44.578125 55.328125 
z
M 39.3125 38.8125 
Q 47.609375 37.703125 52.25 32.6875 
Q 56.890625 27.6875 56.890625 19.921875 
Q 56.890625 9.671875 50.390625 4.125 
Q 43.890625 -1.421875 31.78125 -1.421875 
Q 19.734375 -1.421875 13.203125 4.125 
Q 6.6875 9.671875 6.6875 19.921875 
Q 6.6875 27.6875 11.328125 32.6875 
Q 15.96875 37.703125 24.3125 38.8125 
Q 16.9375 40.140625 13 44.40625 
Q 9.078125 48.6875 9.078125 55.328125 
Q 9.078125 64.109375 15.125 69.15625 
Q 21.1875 74.21875 31.78125 74.21875 
Q 42.390625 74.21875 48.4375 69.15625 
Q 54.5 64.109375 54.5 55.328125 
Q 54.5 48.6875 50.5625 44.40625 
Q 46.625 40.140625 39.3125 38.8125 
z
" id="DejaVuSerif-56"/>
    </defs>
    <g transform="translate(104.409703 150.333996)scale(0.15 -0.15)">
     <use xlink:href="#DejaVuSerif-66"/>
     <use x="73.486328" xlink:href="#DejaVuSerif-105"/>
     <use x="105.46875" xlink:href="#DejaVuSerif-99"/>
     <use x="161.474609" xlink:href="#DejaVuSerif-104"/>
     <use x="225.878906" xlink:href="#DejaVuSerif-111"/>
     <use x="286.083984" xlink:href="#DejaVuSerif-58"/>
     <use x="319.775391" xlink:href="#DejaVuSerif-32"/>
     <use x="351.5625" xlink:href="#DejaVuSerif-56"/>
     <use x="415.185547" xlink:href="#DejaVuSerif-49"/>
    </g>
   </g>
   <g id="patch_10">
    <path d="M 126.748139 297.35173 
L 149.307982 305.234709 
" style="fill:none;stroke:#000000;stroke-linecap:round;stroke-width:3;"/>
   </g>
   <g id="text_5">
    <g id="patch_11">
     <path d="M 37.933263 296.193574 
L 139.914513 296.193574 
L 139.914513 272.076386 
L 37.933263 272.076386 
z
" style="fill:#ffffff;stroke:#000000;stroke-linejoin:miter;"/>
    </g>
    <!-- Psíquico: 76 -->
    <defs>
     <path d="M 5.609375 2.875 
L 5.609375 14.984375 
L 10.796875 14.984375 
Q 10.984375 9.1875 14.421875 6.296875 
Q 17.875 3.421875 24.609375 3.421875 
Q 30.671875 3.421875 33.84375 5.6875 
Q 37.015625 7.953125 37.015625 12.3125 
Q 37.015625 15.71875 34.6875 17.8125 
Q 32.375 19.921875 24.90625 22.3125 
L 18.40625 24.515625 
Q 11.71875 26.65625 8.71875 29.875 
Q 5.71875 33.109375 5.71875 38.09375 
Q 5.71875 45.21875 10.9375 49.265625 
Q 16.15625 53.328125 25.390625 53.328125 
Q 29.5 53.328125 34.03125 52.25 
Q 38.578125 51.171875 43.40625 49.125 
L 43.40625 37.796875 
L 38.234375 37.796875 
Q 38.03125 42.828125 34.703125 45.65625 
Q 31.390625 48.484375 25.6875 48.484375 
Q 20.015625 48.484375 17.109375 46.484375 
Q 14.203125 44.484375 14.203125 40.484375 
Q 14.203125 37.203125 16.40625 35.21875 
Q 18.609375 33.25 25.203125 31.203125 
L 32.328125 29 
Q 39.703125 26.703125 42.9375 23.265625 
Q 46.1875 19.828125 46.1875 14.40625 
Q 46.1875 7.03125 40.546875 2.796875 
Q 34.90625 -1.421875 25 -1.421875 
Q 19.96875 -1.421875 15.1875 -0.34375 
Q 10.40625 0.734375 5.609375 2.875 
z
" id="DejaVuSerif-115"/>
     <path d="M 21.1875 5.171875 
L 29.6875 5.171875 
L 29.6875 0 
L 3.609375 0 
L 3.609375 5.171875 
L 12.203125 5.171875 
L 12.203125 46.6875 
L 3.609375 46.6875 
L 3.609375 51.90625 
L 21.1875 51.90625 
z
M 22.796875 79.984375 
L 32.515625 79.984375 
L 15.921875 61.625 
L 10.203125 61.625 
z
" id="DejaVuSerif-237"/>
     <path d="M 52.484375 46.6875 
L 52.484375 -15.578125 
L 61.078125 -15.578125 
L 61.078125 -20.796875 
L 35.015625 -20.796875 
L 35.015625 -15.578125 
L 43.5 -15.578125 
L 43.5 8.109375 
Q 40.875 3.21875 36.796875 0.890625 
Q 32.71875 -1.421875 26.703125 -1.421875 
Q 17.140625 -1.421875 11.0625 6.171875 
Q 4.984375 13.765625 4.984375 25.984375 
Q 4.984375 38.1875 11.03125 45.75 
Q 17.09375 53.328125 26.703125 53.328125 
Q 32.71875 53.328125 36.796875 51 
Q 40.875 48.6875 43.5 43.796875 
L 43.5 51.90625 
L 61.078125 51.90625 
L 61.078125 46.6875 
z
M 43.5 28.515625 
Q 43.5 37.84375 39.90625 42.765625 
Q 36.328125 47.703125 29.5 47.703125 
Q 22.5625 47.703125 19.015625 42.234375 
Q 15.484375 36.765625 15.484375 25.984375 
Q 15.484375 15.234375 19.015625 9.71875 
Q 22.5625 4.203125 29.5 4.203125 
Q 36.328125 4.203125 39.90625 9.109375 
Q 43.5 14.015625 43.5 23.390625 
z
" id="DejaVuSerif-113"/>
     <path d="M 56.390625 67.921875 
L 27.875 0 
L 20.609375 0 
L 47.796875 64.890625 
L 14.109375 64.890625 
L 14.109375 55.90625 
L 8.40625 55.90625 
L 8.40625 72.90625 
L 56.390625 72.90625 
z
" id="DejaVuSerif-55"/>
     <path d="M 32.71875 3.421875 
Q 39.59375 3.421875 43.296875 8.46875 
Q 47.015625 13.53125 47.015625 23 
Q 47.015625 32.46875 43.296875 37.515625 
Q 39.59375 42.578125 32.71875 42.578125 
Q 25.734375 42.578125 22.0625 37.6875 
Q 18.40625 32.8125 18.40625 23.578125 
Q 18.40625 13.875 22.109375 8.640625 
Q 25.828125 3.421875 32.71875 3.421875 
z
M 16.796875 40.140625 
Q 20.125 43.796875 24.3125 45.59375 
Q 28.515625 47.40625 33.796875 47.40625 
Q 44.671875 47.40625 51 40.859375 
Q 57.328125 34.328125 57.328125 23 
Q 57.328125 11.921875 50.515625 5.25 
Q 43.703125 -1.421875 32.328125 -1.421875 
Q 19.96875 -1.421875 13.328125 7.78125 
Q 6.6875 17 6.6875 34.078125 
Q 6.6875 53.21875 14.546875 63.71875 
Q 22.40625 74.21875 36.71875 74.21875 
Q 40.578125 74.21875 44.828125 73.484375 
Q 49.078125 72.75 53.515625 71.296875 
L 53.515625 59.28125 
L 48 59.28125 
Q 47.40625 64.203125 44.234375 66.796875 
Q 41.0625 69.390625 35.6875 69.390625 
Q 26.21875 69.390625 21.578125 62.203125 
Q 16.9375 55.03125 16.796875 40.140625 
z
" id="DejaVuSerif-54"/>
    </defs>
    <g transform="translate(42.433263 288.574042)scale(0.15 -0.15)">
     <use xlink:href="#DejaVuSerif-80"/>
     <use x="67.253906" xlink:href="#DejaVuSerif-115"/>
     <use x="118.572266" xlink:href="#DejaVuSerif-237"/>
     <use x="150.554688" xlink:href="#DejaVuSerif-113"/>
     <use x="214.568359" xlink:href="#DejaVuSerif-117"/>
     <use x="278.972656" xlink:href="#DejaVuSerif-105"/>
     <use x="310.955078" xlink:href="#DejaVuSerif-99"/>
     <use x="366.960938" xlink:href="#DejaVuSerif-111"/>
     <use x="427.166016" xlink:href="#DejaVuSerif-58"/>
     <use x="460.857422" xlink:href="#DejaVuSerif-32"/>
     <use x="492.644531" xlink:href="#DejaVuSerif-55"/>
     <use x="556.267578" xlink:href="#DejaVuSerif-54"/>
    </g>
   </g>
   <g id="patch_12">
    <path d="M 86.607461 404.289335 
L 137.882623 399.417114 
" style="fill:none;stroke:#000000;stroke-linecap:round;stroke-width:3;"/>
   </g>
   <g id="text_6">
    <g id="patch_13">
     <path d="M -1.373132 420.346345 
L 84.115149 420.346345 
L 84.115149 396.829158 
L -1.373132 396.829158 
z
" style="fill:#ffffff;stroke:#000000;stroke-linejoin:miter;"/>
    </g>
    <!-- Fuego: 65 -->
    <defs>
     <path d="M 5.515625 0 
L 5.515625 5.171875 
L 14.796875 5.171875 
L 14.796875 67.671875 
L 5.515625 67.671875 
L 5.515625 72.90625 
L 65.1875 72.90625 
L 65.1875 56.6875 
L 59.1875 56.6875 
L 59.1875 66.890625 
L 24.703125 66.890625 
L 24.703125 42.484375 
L 49.609375 42.484375 
L 49.609375 51.609375 
L 55.609375 51.609375 
L 55.609375 27.390625 
L 49.609375 27.390625 
L 49.609375 36.53125 
L 24.703125 36.53125 
L 24.703125 5.171875 
L 36.375 5.171875 
L 36.375 0 
z
" id="DejaVuSerif-70"/>
     <path d="M 54.203125 25 
L 15.484375 25 
L 15.484375 24.609375 
Q 15.484375 14.109375 19.4375 8.765625 
Q 23.390625 3.421875 31.109375 3.421875 
Q 37.015625 3.421875 40.796875 6.515625 
Q 44.578125 9.625 46.09375 15.71875 
L 53.328125 15.71875 
Q 51.171875 7.171875 45.375 2.875 
Q 39.59375 -1.421875 30.171875 -1.421875 
Q 18.796875 -1.421875 11.890625 6.078125 
Q 4.984375 13.578125 4.984375 25.984375 
Q 4.984375 38.28125 11.765625 45.796875 
Q 18.5625 53.328125 29.59375 53.328125 
Q 41.359375 53.328125 47.65625 46.0625 
Q 53.953125 38.8125 54.203125 25 
z
M 43.609375 30.171875 
Q 43.3125 39.265625 39.765625 43.875 
Q 36.234375 48.484375 29.59375 48.484375 
Q 23.390625 48.484375 19.828125 43.84375 
Q 16.265625 39.203125 15.484375 30.171875 
z
" id="DejaVuSerif-101"/>
    </defs>
    <g transform="translate(3.126868 412.513533)scale(0.15 -0.15)">
     <use xlink:href="#DejaVuSerif-70"/>
     <use x="69.384766" xlink:href="#DejaVuSerif-117"/>
     <use x="133.789062" xlink:href="#DejaVuSerif-101"/>
     <use x="192.96875" xlink:href="#DejaVuSerif-103"/>
     <use x="256.982422" xlink:href="#DejaVuSerif-111"/>
     <use x="317.1875" xlink:href="#DejaVuSerif-58"/>
     <use x="350.878906" xlink:href="#DejaVuSerif-32"/>
     <use x="382.666016" xlink:href="#DejaVuSerif-54"/>
     <use x="446.289062" xlink:href="#DejaVuSerif-53"/>
    </g>
   </g>
   <g id="patch_14">
    <path d="M 130.525661 497.19739 
L 161.946436 480.847555 
" style="fill:none;stroke:#000000;stroke-linecap:round;stroke-width:3;"/>
   </g>
   <g id="text_7">
    <g id="patch_15">
     <path d="M 52.020004 522.134381 
L 158.379379 522.134381 
L 158.379379 498.617193 
L 52.020004 498.617193 
z
" style="fill:#ffffff;stroke:#000000;stroke-linejoin:miter;"/>
    </g>
    <!-- Eléctrico: 61 -->
    <defs>
     <path d="M 5.515625 0 
L 5.515625 5.171875 
L 14.796875 5.171875 
L 14.796875 67.671875 
L 5.515625 67.671875 
L 5.515625 72.90625 
L 64.203125 72.90625 
L 64.203125 56.6875 
L 58.203125 56.6875 
L 58.203125 66.890625 
L 24.703125 66.890625 
L 24.703125 42.484375 
L 48.578125 42.484375 
L 48.578125 51.609375 
L 54.59375 51.609375 
L 54.59375 27.390625 
L 48.578125 27.390625 
L 48.578125 36.53125 
L 24.703125 36.53125 
L 24.703125 6 
L 58.984375 6 
L 58.984375 16.21875 
L 64.984375 16.21875 
L 64.984375 0 
z
" id="DejaVuSerif-69"/>
     <path d="M 54.203125 25 
L 15.484375 25 
L 15.484375 24.609375 
Q 15.484375 14.109375 19.4375 8.765625 
Q 23.390625 3.421875 31.109375 3.421875 
Q 37.015625 3.421875 40.796875 6.515625 
Q 44.578125 9.625 46.09375 15.71875 
L 53.328125 15.71875 
Q 51.171875 7.171875 45.375 2.875 
Q 39.59375 -1.421875 30.171875 -1.421875 
Q 18.796875 -1.421875 11.890625 6.078125 
Q 4.984375 13.578125 4.984375 25.984375 
Q 4.984375 38.28125 11.765625 45.796875 
Q 18.5625 53.328125 29.59375 53.328125 
Q 41.359375 53.328125 47.65625 46.0625 
Q 53.953125 38.8125 54.203125 25 
z
M 43.609375 30.171875 
Q 43.3125 39.265625 39.765625 43.875 
Q 36.234375 48.484375 29.59375 48.484375 
Q 23.390625 48.484375 19.828125 43.84375 
Q 16.265625 39.203125 15.484375 30.171875 
z
M 36.375 79.984375 
L 46.09375 79.984375 
L 29.5 61.625 
L 23.78125 61.625 
z
" id="DejaVuSerif-233"/>
    </defs>
    <g transform="translate(56.520004 514.51485)scale(0.15 -0.15)">
     <use xlink:href="#DejaVuSerif-69"/>
     <use x="72.998047" xlink:href="#DejaVuSerif-108"/>
     <use x="104.980469" xlink:href="#DejaVuSerif-233"/>
     <use x="164.160156" xlink:href="#DejaVuSerif-99"/>
     <use x="220.166016" xlink:href="#DejaVuSerif-116"/>
     <use x="260.351562" xlink:href="#DejaVuSerif-114"/>
     <use x="308.154297" xlink:href="#DejaVuSerif-105"/>
     <use x="340.136719" xlink:href="#DejaVuSerif-99"/>
     <use x="396.142578" xlink:href="#DejaVuSerif-111"/>
     <use x="456.347656" xlink:href="#DejaVuSerif-58"/>
     <use x="490.039062" xlink:href="#DejaVuSerif-32"/>
     <use x="521.826172" xlink:href="#DejaVuSerif-54"/>
     <use x="585.449219" xlink:href="#DejaVuSerif-49"/>
    </g>
   </g>
   <g id="patch_16">
    <path d="M 160.345504 604.112516 
L 212.261501 545.065524 
" style="fill:none;stroke:#000000;stroke-linecap:round;stroke-width:3;"/>
   </g>
   <g id="text_8">
    <g id="patch_17">
     <path d="M 110.459889 629.63009 
L 186.036452 629.63009 
L 186.036452 606.112902 
L 110.459889 606.112902 
z
" style="fill:#ffffff;stroke:#000000;stroke-linejoin:miter;"/>
    </g>
    <!-- Roca: 60 -->
    <defs>
     <path d="M 47.90625 36.1875 
Q 51.3125 35.25 53.78125 33.03125 
Q 56.25 30.8125 58.203125 26.8125 
L 68.796875 5.171875 
L 77.6875 5.171875 
L 77.6875 0 
L 60.5 0 
L 49.125 23.1875 
Q 45.84375 29.9375 43.109375 31.90625 
Q 40.375 33.890625 35.59375 33.890625 
L 24.703125 33.890625 
L 24.703125 5.171875 
L 35.015625 5.171875 
L 35.015625 0 
L 5.515625 0 
L 5.515625 5.171875 
L 14.796875 5.171875 
L 14.796875 67.671875 
L 5.515625 67.671875 
L 5.515625 72.90625 
L 42.484375 72.90625 
Q 53.125 72.90625 58.90625 67.828125 
Q 64.703125 62.75 64.703125 53.421875 
Q 64.703125 45.90625 60.46875 41.578125 
Q 56.25 37.25 47.90625 36.1875 
z
M 24.703125 39.109375 
L 39.109375 39.109375 
Q 46.484375 39.109375 50 42.59375 
Q 53.515625 46.09375 53.515625 53.421875 
Q 53.515625 60.75 50 64.203125 
Q 46.484375 67.671875 39.109375 67.671875 
L 24.703125 67.671875 
z
" id="DejaVuSerif-82"/>
     <path d="M 31.78125 3.421875 
Q 39.265625 3.421875 42.96875 11.625 
Q 46.6875 19.828125 46.6875 36.375 
Q 46.6875 52.984375 42.96875 61.1875 
Q 39.265625 69.390625 31.78125 69.390625 
Q 24.3125 69.390625 20.59375 61.1875 
Q 16.890625 52.984375 16.890625 36.375 
Q 16.890625 19.828125 20.59375 11.625 
Q 24.3125 3.421875 31.78125 3.421875 
z
M 31.78125 -1.421875 
Q 19.921875 -1.421875 13.25 8.53125 
Q 6.59375 18.5 6.59375 36.375 
Q 6.59375 54.296875 13.25 64.25 
Q 19.921875 74.21875 31.78125 74.21875 
Q 43.703125 74.21875 50.34375 64.25 
Q 56.984375 54.296875 56.984375 36.375 
Q 56.984375 18.5 50.34375 8.53125 
Q 43.703125 -1.421875 31.78125 -1.421875 
z
" id="DejaVuSerif-48"/>
    </defs>
    <g transform="translate(114.959889 622.010559)scale(0.15 -0.15)">
     <use xlink:href="#DejaVuSerif-82"/>
     <use x="75.292969" xlink:href="#DejaVuSerif-111"/>
     <use x="135.498047" xlink:href="#DejaVuSerif-99"/>
     <use x="191.503906" xlink:href="#DejaVuSerif-97"/>
     <use x="251.123047" xlink:href="#DejaVuSerif-58"/>
     <use x="284.814453" xlink:href="#DejaVuSerif-32"/>
     <use x="316.601562" xlink:href="#DejaVuSerif-54"/>
     <use x="380.224609" xlink:href="#DejaVuSerif-48"/>
    </g>
   </g>
   <g id="patch_18">
    <path d="M 252.584553 627.232596 
L 271.675434 582.502449 
" style="fill:none;stroke:#000000;stroke-linecap:round;stroke-width:3;"/>
   </g>
   <g id="text_9">
    <g id="patch_19">
     <path d="M 188.526532 653.092762 
L 304.605438 653.092762 
L 304.605438 629.575574 
L 188.526532 629.575574 
z
" style="fill:#ffffff;stroke:#000000;stroke-linejoin:miter;"/>
    </g>
    <!-- Oscuridad: 44 -->
    <defs>
     <path d="M 41.015625 3.8125 
Q 52.984375 3.8125 59.078125 12.03125 
Q 65.1875 20.265625 65.1875 36.375 
Q 65.1875 52.546875 59.078125 60.765625 
Q 52.984375 69 41.015625 69 
Q 29 69 22.890625 60.765625 
Q 16.796875 52.546875 16.796875 36.375 
Q 16.796875 20.265625 22.890625 12.03125 
Q 29 3.8125 41.015625 3.8125 
z
M 41.015625 -1.421875 
Q 33.59375 -1.421875 27.359375 1.015625 
Q 21.140625 3.46875 16.40625 8.203125 
Q 10.9375 13.671875 8.265625 20.609375 
Q 5.609375 27.546875 5.609375 36.375 
Q 5.609375 45.21875 8.265625 52.171875 
Q 10.9375 59.125 16.40625 64.59375 
Q 21.1875 69.390625 27.34375 71.796875 
Q 33.5 74.21875 41.015625 74.21875 
Q 56.890625 74.21875 66.65625 63.8125 
Q 76.421875 53.421875 76.421875 36.375 
Q 76.421875 27.640625 73.734375 20.625 
Q 71.046875 13.625 65.578125 8.203125 
Q 60.796875 3.421875 54.640625 1 
Q 48.484375 -1.421875 41.015625 -1.421875 
z
" id="DejaVuSerif-79"/>
     <path d="M 52.484375 5.171875 
L 61.078125 5.171875 
L 61.078125 0 
L 43.5 0 
L 43.5 8.109375 
Q 40.875 3.21875 36.796875 0.890625 
Q 32.71875 -1.421875 26.703125 -1.421875 
Q 17.140625 -1.421875 11.0625 6.171875 
Q 4.984375 13.765625 4.984375 25.984375 
Q 4.984375 38.1875 11.03125 45.75 
Q 17.09375 53.328125 26.703125 53.328125 
Q 32.71875 53.328125 36.796875 51 
Q 40.875 48.6875 43.5 43.796875 
L 43.5 70.796875 
L 35.015625 70.796875 
L 35.015625 75.984375 
L 52.484375 75.984375 
z
M 43.5 23.390625 
L 43.5 28.515625 
Q 43.5 37.84375 39.90625 42.765625 
Q 36.328125 47.703125 29.5 47.703125 
Q 22.5625 47.703125 19.015625 42.234375 
Q 15.484375 36.765625 15.484375 25.984375 
Q 15.484375 15.234375 19.015625 9.71875 
Q 22.5625 4.203125 29.5 4.203125 
Q 36.328125 4.203125 39.90625 9.109375 
Q 43.5 14.015625 43.5 23.390625 
z
" id="DejaVuSerif-100"/>
    </defs>
    <g transform="translate(193.026532 645.47323)scale(0.15 -0.15)">
     <use xlink:href="#DejaVuSerif-79"/>
     <use x="81.982422" xlink:href="#DejaVuSerif-115"/>
     <use x="133.300781" xlink:href="#DejaVuSerif-99"/>
     <use x="189.306641" xlink:href="#DejaVuSerif-117"/>
     <use x="253.710938" xlink:href="#DejaVuSerif-114"/>
     <use x="301.513672" xlink:href="#DejaVuSerif-105"/>
     <use x="333.496094" xlink:href="#DejaVuSerif-100"/>
     <use x="397.509766" xlink:href="#DejaVuSerif-97"/>
     <use x="457.128906" xlink:href="#DejaVuSerif-100"/>
     <use x="521.142578" xlink:href="#DejaVuSerif-58"/>
     <use x="554.833984" xlink:href="#DejaVuSerif-32"/>
     <use x="586.621094" xlink:href="#DejaVuSerif-52"/>
     <use x="650.244141" xlink:href="#DejaVuSerif-52"/>
    </g>
   </g>
   <g id="patch_20">
    <path d="M 315.195833 679.742653 
L 327.014154 598.028041 
" style="fill:none;stroke:#000000;stroke-linecap:round;stroke-width:3;"/>
   </g>
   <g id="text_10">
    <g id="patch_21">
     <path d="M 256.765114 705.736572 
L 369.508864 705.736572 
L 369.508864 682.219384 
L 256.765114 682.219384 
z
" style="fill:#ffffff;stroke:#000000;stroke-linejoin:miter;"/>
    </g>
    <!-- Fantasma: 41 -->
    <g transform="translate(261.265114 698.11704)scale(0.15 -0.15)">
     <use xlink:href="#DejaVuSerif-70"/>
     <use x="69.291016" xlink:href="#DejaVuSerif-97"/>
     <use x="128.910156" xlink:href="#DejaVuSerif-110"/>
     <use x="193.314453" xlink:href="#DejaVuSerif-116"/>
     <use x="233.5" xlink:href="#DejaVuSerif-97"/>
     <use x="293.119141" xlink:href="#DejaVuSerif-115"/>
     <use x="344.4375" xlink:href="#DejaVuSerif-109"/>
     <use x="439.261719" xlink:href="#DejaVuSerif-97"/>
     <use x="498.880859" xlink:href="#DejaVuSerif-58"/>
     <use x="532.572266" xlink:href="#DejaVuSerif-32"/>
     <use x="564.359375" xlink:href="#DejaVuSerif-52"/>
     <use x="627.982422" xlink:href="#DejaVuSerif-49"/>
    </g>
   </g>
   <g id="patch_22">
    <path d="M 387.76122 648.394299 
L 382.462668 599.045974 
" style="fill:none;stroke:#000000;stroke-linecap:round;stroke-width:3;"/>
   </g>
   <g id="text_11">
    <g id="patch_23">
     <path d="M 346.855367 674.403405 
L 431.727242 674.403405 
L 431.727242 650.886218 
L 346.855367 650.886218 
z
" style="fill:#ffffff;stroke:#000000;stroke-linejoin:miter;"/>
    </g>
    <!-- Tierra: 41 -->
    <defs>
     <path d="M 19.09375 0 
L 19.09375 5.171875 
L 28.421875 5.171875 
L 28.421875 67.09375 
L 6.984375 67.09375 
L 6.984375 55.71875 
L 0.984375 55.71875 
L 0.984375 72.90625 
L 65.71875 72.90625 
L 65.71875 55.71875 
L 59.71875 55.71875 
L 59.71875 67.09375 
L 38.28125 67.09375 
L 38.28125 5.171875 
L 47.609375 5.171875 
L 47.609375 0 
z
" id="DejaVuSerif-84"/>
    </defs>
    <g transform="translate(351.355367 666.783874)scale(0.15 -0.15)">
     <use xlink:href="#DejaVuSerif-84"/>
     <use x="66.699219" xlink:href="#DejaVuSerif-105"/>
     <use x="98.681641" xlink:href="#DejaVuSerif-101"/>
     <use x="157.861328" xlink:href="#DejaVuSerif-114"/>
     <use x="205.664062" xlink:href="#DejaVuSerif-114"/>
     <use x="253.466797" xlink:href="#DejaVuSerif-97"/>
     <use x="313.085938" xlink:href="#DejaVuSerif-58"/>
     <use x="346.777344" xlink:href="#DejaVuSerif-32"/>
     <use x="378.564453" xlink:href="#DejaVuSerif-52"/>
     <use x="442.1875" xlink:href="#DejaVuSerif-49"/>
    </g>
   </g>
   <g id="patch_24">
    <path d="M 464.065573 662.893647 
L 435.795237 586.515195 
" style="fill:none;stroke:#000000;stroke-linecap:round;stroke-width:3;"/>
   </g>
   <g id="text_12">
    <g id="patch_25">
     <path d="M 422.278011 689.601551 
L 516.618636 689.601551 
L 516.618636 665.271082 
L 422.278011 665.271082 
z
" style="fill:#ffffff;stroke:#000000;stroke-linejoin:miter;"/>
    </g>
    <!-- Dragón: 40 -->
    <defs>
     <path d="M 24.703125 5.171875 
L 33.796875 5.171875 
Q 48 5.171875 55.59375 13.28125 
Q 63.1875 21.390625 63.1875 36.53125 
Q 63.1875 51.65625 55.609375 59.65625 
Q 48.046875 67.671875 33.796875 67.671875 
L 24.703125 67.671875 
z
M 5.515625 0 
L 5.515625 5.171875 
L 14.796875 5.171875 
L 14.796875 67.671875 
L 5.515625 67.671875 
L 5.515625 72.90625 
L 34.515625 72.90625 
Q 53.375 72.90625 63.890625 63.28125 
Q 74.421875 53.65625 74.421875 36.53125 
Q 74.421875 19.34375 63.875 9.671875 
Q 53.328125 0 34.515625 0 
z
" id="DejaVuSerif-68"/>
     <path d="M 30.078125 3.421875 
Q 37.3125 3.421875 40.984375 9.125 
Q 44.671875 14.84375 44.671875 25.984375 
Q 44.671875 37.109375 40.984375 42.796875 
Q 37.3125 48.484375 30.078125 48.484375 
Q 22.859375 48.484375 19.171875 42.796875 
Q 15.484375 37.109375 15.484375 25.984375 
Q 15.484375 14.84375 19.1875 9.125 
Q 22.90625 3.421875 30.078125 3.421875 
z
M 30.078125 -1.421875 
Q 18.75 -1.421875 11.859375 6.078125 
Q 4.984375 13.578125 4.984375 25.984375 
Q 4.984375 38.375 11.84375 45.84375 
Q 18.703125 53.328125 30.078125 53.328125 
Q 41.453125 53.328125 48.3125 45.84375 
Q 55.171875 38.375 55.171875 25.984375 
Q 55.171875 13.578125 48.3125 6.078125 
Q 41.453125 -1.421875 30.078125 -1.421875 
z
M 36.859375 79.984375 
L 46.578125 79.984375 
L 29.984375 61.625 
L 24.265625 61.625 
z
" id="DejaVuSerif-243"/>
    </defs>
    <g transform="translate(426.778011 681.768738)scale(0.15 -0.15)">
     <use xlink:href="#DejaVuSerif-68"/>
     <use x="80.175781" xlink:href="#DejaVuSerif-114"/>
     <use x="127.978516" xlink:href="#DejaVuSerif-97"/>
     <use x="187.597656" xlink:href="#DejaVuSerif-103"/>
     <use x="251.611328" xlink:href="#DejaVuSerif-243"/>
     <use x="311.816406" xlink:href="#DejaVuSerif-110"/>
     <use x="376.220703" xlink:href="#DejaVuSerif-58"/>
     <use x="409.912109" xlink:href="#DejaVuSerif-32"/>
     <use x="441.699219" xlink:href="#DejaVuSerif-52"/>
     <use x="505.322266" xlink:href="#DejaVuSerif-48"/>
    </g>
   </g>
   <g id="patch_26">
    <path d="M 509.778269 601.090746 
L 483.313738 562.067323 
" style="fill:none;stroke:#000000;stroke-linecap:round;stroke-width:3;"/>
   </g>
   <g id="text_13">
    <g id="patch_27">
     <path d="M 475.111873 626.764897 
L 563.318905 626.764897 
L 563.318905 603.24771 
L 475.111873 603.24771 
z
" style="fill:#ffffff;stroke:#000000;stroke-linejoin:miter;"/>
    </g>
    <!-- Posión: 39 -->
    <g transform="translate(479.611873 619.145366)scale(0.15 -0.15)">
     <use xlink:href="#DejaVuSerif-80"/>
     <use x="67.222656" xlink:href="#DejaVuSerif-111"/>
     <use x="127.427734" xlink:href="#DejaVuSerif-115"/>
     <use x="178.746094" xlink:href="#DejaVuSerif-105"/>
     <use x="210.728516" xlink:href="#DejaVuSerif-243"/>
     <use x="270.933594" xlink:href="#DejaVuSerif-110"/>
     <use x="335.337891" xlink:href="#DejaVuSerif-58"/>
     <use x="369.029297" xlink:href="#DejaVuSerif-32"/>
     <use x="400.816406" xlink:href="#DejaVuSerif-51"/>
     <use x="464.439453" xlink:href="#DejaVuSerif-57"/>
    </g>
   </g>
   <g id="patch_28">
    <path d="M 579.407182 579.706078 
L 522.699571 527.972898 
" style="fill:none;stroke:#000000;stroke-linecap:round;stroke-width:3;"/>
   </g>
   <g id="text_14">
    <g id="patch_29">
     <path d="M 539.149922 605.067759 
L 649.486641 605.067759 
L 649.486641 581.550572 
L 539.149922 581.550572 
z
" style="fill:#ffffff;stroke:#000000;stroke-linejoin:miter;"/>
    </g>
    <!-- Luchador: 38 -->
    <defs>
     <path d="M 5.515625 0 
L 5.515625 5.171875 
L 14.796875 5.171875 
L 14.796875 67.671875 
L 5.515625 67.671875 
L 5.515625 72.90625 
L 33.984375 72.90625 
L 33.984375 67.671875 
L 24.703125 67.671875 
L 24.703125 6 
L 58.015625 6 
L 58.015625 18.21875 
L 64.015625 18.21875 
L 64.015625 0 
z
" id="DejaVuSerif-76"/>
    </defs>
    <g transform="translate(543.649922 597.448228)scale(0.15 -0.15)">
     <use xlink:href="#DejaVuSerif-76"/>
     <use x="66.40625" xlink:href="#DejaVuSerif-117"/>
     <use x="130.810547" xlink:href="#DejaVuSerif-99"/>
     <use x="186.816406" xlink:href="#DejaVuSerif-104"/>
     <use x="251.220703" xlink:href="#DejaVuSerif-97"/>
     <use x="310.839844" xlink:href="#DejaVuSerif-100"/>
     <use x="374.853516" xlink:href="#DejaVuSerif-111"/>
     <use x="435.058594" xlink:href="#DejaVuSerif-114"/>
     <use x="482.861328" xlink:href="#DejaVuSerif-58"/>
     <use x="516.552734" xlink:href="#DejaVuSerif-32"/>
     <use x="548.339844" xlink:href="#DejaVuSerif-51"/>
     <use x="611.962891" xlink:href="#DejaVuSerif-56"/>
    </g>
   </g>
   <g id="patch_30">
    <path d="M 584.28912 505.583317 
L 552.05714 487.409408 
" style="fill:none;stroke:#000000;stroke-linecap:round;stroke-width:3;"/>
   </g>
   <g id="text_15">
    <g id="patch_31">
     <path d="M 568.525704 530.582552 
L 647.017892 530.582552 
L 647.017892 507.065364 
L 568.525704 507.065364 
z
" style="fill:#ffffff;stroke:#000000;stroke-linejoin:miter;"/>
    </g>
    <!-- Hielo: 36 -->
    <defs>
     <path d="M 5.515625 0 
L 5.515625 5.171875 
L 14.796875 5.171875 
L 14.796875 67.671875 
L 5.515625 67.671875 
L 5.515625 72.90625 
L 33.984375 72.90625 
L 33.984375 67.671875 
L 24.703125 67.671875 
L 24.703125 42.484375 
L 62.5 42.484375 
L 62.5 67.671875 
L 53.21875 67.671875 
L 53.21875 72.90625 
L 81.6875 72.90625 
L 81.6875 67.671875 
L 72.40625 67.671875 
L 72.40625 5.171875 
L 81.6875 5.171875 
L 81.6875 0 
L 53.21875 0 
L 53.21875 5.171875 
L 62.5 5.171875 
L 62.5 36.53125 
L 24.703125 36.53125 
L 24.703125 5.171875 
L 33.984375 5.171875 
L 33.984375 0 
z
" id="DejaVuSerif-72"/>
    </defs>
    <g transform="translate(573.025704 522.96302)scale(0.15 -0.15)">
     <use xlink:href="#DejaVuSerif-72"/>
     <use x="87.207031" xlink:href="#DejaVuSerif-105"/>
     <use x="119.189453" xlink:href="#DejaVuSerif-101"/>
     <use x="178.369141" xlink:href="#DejaVuSerif-108"/>
     <use x="210.351562" xlink:href="#DejaVuSerif-111"/>
     <use x="270.556641" xlink:href="#DejaVuSerif-58"/>
     <use x="304.248047" xlink:href="#DejaVuSerif-32"/>
     <use x="336.035156" xlink:href="#DejaVuSerif-51"/>
     <use x="399.658203" xlink:href="#DejaVuSerif-54"/>
    </g>
   </g>
   <g id="patch_32">
    <path d="M 621.495893 457.794666 
L 571.180702 442.594654 
" style="fill:none;stroke:#000000;stroke-linecap:round;stroke-width:3;"/>
   </g>
   <g id="text_16">
    <g id="patch_33">
     <path d="M 622.875864 482.389115 
L 705.094614 482.389115 
L 705.094614 458.871928 
L 622.875864 458.871928 
z
" style="fill:#ffffff;stroke:#000000;stroke-linejoin:miter;"/>
    </g>
    <!-- Acero: 36 -->
    <g transform="translate(627.375864 474.769584)scale(0.15 -0.15)">
     <use xlink:href="#DejaVuSerif-65"/>
     <use x="72.216797" xlink:href="#DejaVuSerif-99"/>
     <use x="128.222656" xlink:href="#DejaVuSerif-101"/>
     <use x="187.402344" xlink:href="#DejaVuSerif-114"/>
     <use x="235.205078" xlink:href="#DejaVuSerif-111"/>
     <use x="295.410156" xlink:href="#DejaVuSerif-58"/>
     <use x="329.101562" xlink:href="#DejaVuSerif-32"/>
     <use x="360.888672" xlink:href="#DejaVuSerif-51"/>
     <use x="424.511719" xlink:href="#DejaVuSerif-54"/>
    </g>
   </g>
   <g id="patch_34">
    <path d="M 600.975202 406.681347 
L 579.16291 404.136857 
" style="fill:none;stroke:#000000;stroke-linecap:round;stroke-width:3;"/>
   </g>
   <g id="text_17">
    <g id="patch_35">
     <path d="M 603.461096 423.307323 
L 681.939221 423.307323 
L 681.939221 399.790136 
L 603.461096 399.790136 
z
" style="fill:#ffffff;stroke:#000000;stroke-linejoin:miter;"/>
    </g>
    <!-- Hada: 22 -->
    <defs>
     <path d="M 12.796875 55.515625 
L 7.328125 55.515625 
L 7.328125 68.5 
Q 12.546875 71.296875 17.84375 72.75 
Q 23.140625 74.21875 28.21875 74.21875 
Q 39.59375 74.21875 46.1875 68.703125 
Q 52.78125 63.1875 52.78125 53.71875 
Q 52.78125 43.015625 37.84375 28.125 
Q 36.671875 27 36.078125 26.421875 
L 17.671875 8.015625 
L 48.09375 8.015625 
L 48.09375 17 
L 53.8125 17 
L 53.8125 0 
L 6.78125 0 
L 6.78125 5.328125 
L 28.90625 27.390625 
Q 36.234375 34.71875 39.359375 40.84375 
Q 42.484375 46.96875 42.484375 53.71875 
Q 42.484375 61.078125 38.640625 65.234375 
Q 34.8125 69.390625 28.078125 69.390625 
Q 21.09375 69.390625 17.28125 65.921875 
Q 13.484375 62.453125 12.796875 55.515625 
z
" id="DejaVuSerif-50"/>
    </defs>
    <g transform="translate(607.961096 415.687792)scale(0.15 -0.15)">
     <use xlink:href="#DejaVuSerif-72"/>
     <use x="87.207031" xlink:href="#DejaVuSerif-97"/>
     <use x="146.826172" xlink:href="#DejaVuSerif-100"/>
     <use x="210.839844" xlink:href="#DejaVuSerif-97"/>
     <use x="270.458984" xlink:href="#DejaVuSerif-58"/>
     <use x="304.150391" xlink:href="#DejaVuSerif-32"/>
     <use x="335.9375" xlink:href="#DejaVuSerif-50"/>
     <use x="399.560547" xlink:href="#DejaVuSerif-50"/>
    </g>
   </g>
   <g id="patch_36">
    <path d="M 631.139346 385.087907 
L 580.592246 383.851866 
" style="fill:none;stroke:#000000;stroke-linecap:round;stroke-width:3;"/>
   </g>
   <g id="text_18">
    <g id="patch_37">
     <path d="M 633.637971 397.980488 
L 721.387971 397.980488 
L 721.387971 374.4633 
L 633.637971 374.4633 
z
" style="fill:#ffffff;stroke:#000000;stroke-linejoin:miter;"/>
    </g>
    <!-- Volador: 8 -->
    <defs>
     <path d="M 17.484375 67.671875 
L 39.015625 11.71875 
L 60.5 67.671875 
L 52.296875 67.671875 
L 52.296875 72.90625 
L 73.6875 72.90625 
L 73.6875 67.671875 
L 66.609375 67.671875 
L 40.578125 0 
L 32.171875 0 
L 6.296875 67.671875 
L -0.984375 67.671875 
L -0.984375 72.90625 
L 25.59375 72.90625 
L 25.59375 67.671875 
z
" id="DejaVuSerif-86"/>
    </defs>
    <g transform="translate(638.137971 390.360956)scale(0.15 -0.15)">
     <use xlink:href="#DejaVuSerif-86"/>
     <use x="72.076172" xlink:href="#DejaVuSerif-111"/>
     <use x="132.28125" xlink:href="#DejaVuSerif-108"/>
     <use x="164.263672" xlink:href="#DejaVuSerif-97"/>
     <use x="223.882812" xlink:href="#DejaVuSerif-100"/>
     <use x="287.896484" xlink:href="#DejaVuSerif-111"/>
     <use x="348.101562" xlink:href="#DejaVuSerif-114"/>
     <use x="395.904297" xlink:href="#DejaVuSerif-58"/>
     <use x="429.595703" xlink:href="#DejaVuSerif-32"/>
     <use x="461.382812" xlink:href="#DejaVuSerif-56"/>
    </g>
   </g>
   <g id="patch_38">
    <path d="M 576.841861 369.672816 
C 576.841861 342.565428 571.272208 315.744893 560.479203 290.878822 
C 549.686199 266.01275 533.898268 243.627412 514.097051 225.114652 
L 378.945223 369.672816 
L 576.841861 369.672816 
z
" style="fill:#4592c4;"/>
   </g>
   <g id="patch_39">
    <path d="M 502.496209 213.619682 
C 485.518113 197.746343 465.875567 184.987478 444.470783 175.929121 
C 423.065999 166.870764 400.23179 161.65376 377.016966 160.517732 
L 367.344381 358.177846 
L 502.496209 213.619682 
z
" style="fill:#a4acaf;"/>
   </g>
   <g id="patch_40">
    <path d="M 363.45157 159.354117 
C 345.099126 158.456032 326.710706 160.118303 308.816827 164.292972 
C 290.922948 168.46764 273.697363 175.11417 257.637041 184.040805 
L 353.778986 357.014231 
L 363.45157 159.354117 
z
" style="fill:#9bcc50;"/>
   </g>
   <g id="patch_41">
    <path d="M 247.566953 189.438225 
C 233.276263 197.381265 220.024849 207.064777 208.115945 218.267173 
C 196.20704 229.469569 185.732179 242.104744 176.93106 255.883568 
L 343.708897 362.411651 
L 247.566953 189.438225 
z
" style="fill:#729f3f;"/>
   </g>
   <g id="patch_42">
    <path d="M 171.239183 264.646335 
C 162.982598 277.572647 156.256741 291.415148 151.197171 305.894839 
C 146.1376 320.374531 142.778539 335.393475 141.18769 350.648964 
L 338.01702 371.174418 
L 171.239183 264.646335 
z
" style="fill:#f366b9;"/>
   </g>
   <g id="patch_43">
    <path d="M 140.055536 359.982253 
C 138.69535 373.025785 138.635084 386.172283 139.875627 399.227737 
C 141.116171 412.283191 143.651391 425.183063 147.443873 437.736982 
L 336.884866 380.507707 
L 140.055536 359.982253 
z
" style="fill:#fd7d24;"/>
   </g>
   <g id="patch_44">
    <path d="M 149.828013 445.806832 
C 153.386764 457.587051 158.036584 469.009686 163.71702 479.926229 
C 169.397456 490.842773 176.083782 501.20571 183.68907 510.880309 
L 339.269005 388.577557 
L 149.828013 445.806832 
z
" style="fill:#eed535;"/>
   </g>
   <g id="patch_45">
    <path d="M 188.675769 517.243822 
C 196.156204 526.759597 204.493914 535.569047 213.584015 543.561354 
C 222.674116 551.55366 232.478332 558.695169 242.873332 564.896046 
L 344.255704 394.941069 
L 188.675769 517.243822 
z
" style="fill:#a38c21;"/>
   </g>
   <g id="patch_46">
    <path d="M 248.760963 568.606255 
C 256.3815 573.152094 264.299159 577.180251 272.460323 580.663445 
C 280.621486 584.14664 289.00769 587.076992 297.562142 589.434657 
L 350.143335 398.651278 
L 248.760963 568.606255 
z
" style="fill:#707070;"/>
   </g>
   <g id="patch_47">
    <path d="M 303.046154 590.973171 
C 311.016953 593.169977 319.117595 594.865104 327.300442 596.048582 
C 335.483288 597.232061 343.732265 597.901567 351.998861 598.053163 
L 355.627347 400.189792 
L 303.046154 590.973171 
z
" style="fill:#7b62a3;"/>
   </g>
   <g id="patch_48">
    <path d="M 357.49372 598.153929 
C 365.760316 598.305525 374.028294 597.938913 382.24903 597.056248 
C 390.469766 596.173584 398.627112 594.776602 406.673096 592.873517 
L 361.122206 400.290558 
L 357.49372 598.153929 
z
" style="fill:#d79877;"/>
   </g>
   <g id="patch_49">
    <path d="M 411.95833 591.631946 
C 419.807947 589.775307 427.536712 587.440482 435.101362 584.64054 
C 442.666012 581.840599 450.052403 578.580776 457.219189 574.879319 
L 366.407439 399.048988 
L 411.95833 591.631946 
z
" style="fill:#a2535f;"/>
   </g>
   <g id="patch_50">
    <path d="M 461.928116 572.456389 
C 468.915625 568.847525 475.6818 564.825341 482.190633 560.411242 
C 488.699467 555.997144 494.939393 551.198975 500.877202 546.042271 
L 371.116366 396.626058 
L 461.928116 572.456389 
z
" style="fill:#b97fc9;"/>
   </g>
   <g id="patch_51">
    <path d="M 504.779996 542.663329 
C 510.565468 537.638923 516.054238 532.282731 521.218575 526.621816 
C 526.382911 520.9609 531.2141 515.004811 535.687733 508.783642 
L 375.01916 393.247115 
L 504.779996 542.663329 
z
" style="fill:#d56723;"/>
   </g>
   <g id="patch_52">
    <path d="M 538.596971 504.763943 
C 542.835027 498.870374 546.745598 492.748078 550.310948 486.424822 
C 553.876297 480.101567 557.091028 473.586924 559.94056 466.910439 
L 377.928398 389.227416 
L 538.596971 504.763943 
z
" style="fill:#51c4e7;"/>
   </g>
   <g id="patch_53">
    <path d="M 561.835941 462.469542 
C 564.685473 455.793057 567.165492 448.964839 569.264752 442.015854 
C 571.364012 435.066869 573.079333 428.007638 574.402937 420.870177 
L 379.823778 384.786519 
L 561.835941 462.469542 
z
" style="fill:#9eb7b8;"/>
   </g>
   <g id="patch_54">
    <path d="M 575.194353 417.059133 
C 576.003095 412.69804 576.66499 408.310989 577.178918 403.905416 
C 577.692845 399.499843 578.058515 395.078236 578.275307 390.64809 
L 380.615195 380.975475 
L 575.194353 417.059133 
z
" style="fill:#fdb9e9;"/>
   </g>
   <g id="patch_55">
    <path d="M 578.416837 388.637849 
C 578.495664 387.027018 578.554797 385.415284 578.594222 383.803007 
C 578.633648 382.190731 578.653363 380.578033 578.653363 378.965274 
L 380.756725 378.965234 
L 578.416837 388.637849 
z
" style="fill:#8ca8d7;"/>
   </g>
   <g id="patch_56">
    <path clip-path="url(#pf068bcd164)" d="M 358.774781 543.341569 
C 402.510449 543.341569 444.460706 525.965204 475.386493 495.039416 
C 506.312281 464.113629 523.688646 422.163372 523.688646 378.427704 
C 523.688646 334.692036 506.312281 292.741779 475.386493 261.815992 
C 444.460706 230.890204 402.510449 213.513839 358.774781 213.513839 
C 315.039113 213.513839 273.088856 230.890204 242.163069 261.815992 
C 211.237281 292.741779 193.860916 334.692036 193.860916 378.427704 
C 193.860916 422.163372 211.237281 464.113629 242.163069 495.039416 
C 273.088856 525.965204 315.039113 543.341569 358.774781 543.341569 
z
" style="fill:#ffffff;"/>
   </g>
   <g id="matplotlib.axis_1"/>
   <g id="matplotlib.axis_2"/>
   <g id="text_19">
    <!-- # de Pokémon por primer tipo -->
    <defs>
     <path d="M 50.875 44 
L 37.109375 44 
L 33.015625 27.6875 
L 46.921875 27.6875 
z
M 44 71.78125 
L 39.015625 51.515625 
L 52.78125 51.515625 
L 57.8125 71.78125 
L 66.21875 71.78125 
L 61.078125 51.515625 
L 76.125 51.515625 
L 76.125 44 
L 59.1875 44 
L 55.171875 27.6875 
L 70.515625 27.6875 
L 70.515625 20.21875 
L 53.328125 20.21875 
L 48.296875 0 
L 39.890625 0 
L 45.015625 20.21875 
L 31.203125 20.21875 
L 26.125 0 
L 17.828125 0 
L 22.796875 20.21875 
L 7.71875 20.21875 
L 7.71875 27.6875 
L 24.703125 27.6875 
L 28.71875 44 
L 13.28125 44 
L 13.28125 51.515625 
L 30.609375 51.515625 
L 35.6875 71.78125 
z
" id="DejaVuSerif-35"/>
     <path d="M 28.609375 0 
L 3.421875 0 
L 3.421875 5.171875 
L 11.53125 5.171875 
L 11.53125 70.796875 
L 2.875 70.796875 
L 2.875 75.984375 
L 20.515625 75.984375 
L 20.515625 26.515625 
L 42.390625 46.6875 
L 34.90625 46.6875 
L 34.90625 51.90625 
L 58.40625 51.90625 
L 58.40625 46.6875 
L 49.515625 46.6875 
L 34.078125 32.421875 
L 53.8125 5.171875 
L 61.28125 5.171875 
L 61.28125 0 
L 35.6875 0 
L 35.6875 5.171875 
L 43.109375 5.171875 
L 27.59375 26.515625 
L 20.515625 19.921875 
L 20.515625 5.171875 
L 28.609375 5.171875 
z
" id="DejaVuSerif-107"/>
     <path d="M 20.515625 28.515625 
L 20.515625 23.390625 
Q 20.515625 14.015625 24.09375 9.109375 
Q 27.6875 4.203125 34.515625 4.203125 
Q 41.40625 4.203125 44.9375 9.71875 
Q 48.484375 15.234375 48.484375 25.984375 
Q 48.484375 36.765625 44.9375 42.234375 
Q 41.40625 47.703125 34.515625 47.703125 
Q 27.6875 47.703125 24.09375 42.765625 
Q 20.515625 37.84375 20.515625 28.515625 
z
M 11.53125 46.6875 
L 2.875 46.6875 
L 2.875 51.90625 
L 20.515625 51.90625 
L 20.515625 43.796875 
Q 23.140625 48.6875 27.21875 51 
Q 31.296875 53.328125 37.3125 53.328125 
Q 46.875 53.328125 52.921875 45.75 
Q 58.984375 38.1875 58.984375 25.984375 
Q 58.984375 13.765625 52.921875 6.171875 
Q 46.875 -1.421875 37.3125 -1.421875 
Q 31.296875 -1.421875 27.21875 0.890625 
Q 23.140625 3.21875 20.515625 8.109375 
L 20.515625 -15.578125 
L 29 -15.578125 
L 29 -20.796875 
L 2.875 -20.796875 
L 2.875 -15.578125 
L 11.53125 -15.578125 
z
" id="DejaVuSerif-112"/>
    </defs>
    <g transform="translate(126.790406 42.599974)scale(0.3 -0.3)">
     <use xlink:href="#DejaVuSerif-35"/>
     <use x="83.789062" xlink:href="#DejaVuSerif-32"/>
     <use x="115.576172" xlink:href="#DejaVuSerif-100"/>
     <use x="179.589844" xlink:href="#DejaVuSerif-101"/>
     <use x="238.769531" xlink:href="#DejaVuSerif-32"/>
     <use x="270.556641" xlink:href="#DejaVuSerif-80"/>
     <use x="337.779297" xlink:href="#DejaVuSerif-111"/>
     <use x="397.984375" xlink:href="#DejaVuSerif-107"/>
     <use x="458.580078" xlink:href="#DejaVuSerif-233"/>
     <use x="517.759766" xlink:href="#DejaVuSerif-109"/>
     <use x="612.583984" xlink:href="#DejaVuSerif-111"/>
     <use x="672.789062" xlink:href="#DejaVuSerif-110"/>
     <use x="737.193359" xlink:href="#DejaVuSerif-32"/>
     <use x="768.980469" xlink:href="#DejaVuSerif-112"/>
     <use x="832.994141" xlink:href="#DejaVuSerif-111"/>
     <use x="893.199219" xlink:href="#DejaVuSerif-114"/>
     <use x="941.001953" xlink:href="#DejaVuSerif-32"/>
     <use x="972.789062" xlink:href="#DejaVuSerif-112"/>
     <use x="1036.802734" xlink:href="#DejaVuSerif-114"/>
     <use x="1084.605469" xlink:href="#DejaVuSerif-105"/>
     <use x="1116.587891" xlink:href="#DejaVuSerif-109"/>
     <use x="1211.412109" xlink:href="#DejaVuSerif-101"/>
     <use x="1270.591797" xlink:href="#DejaVuSerif-114"/>
     <use x="1318.394531" xlink:href="#DejaVuSerif-32"/>
     <use x="1350.181641" xlink:href="#DejaVuSerif-116"/>
     <use x="1390.367188" xlink:href="#DejaVuSerif-105"/>
     <use x="1422.349609" xlink:href="#DejaVuSerif-112"/>
     <use x="1486.363281" xlink:href="#DejaVuSerif-111"/>
    </g>
   </g>
  </g>
 </g>
 <defs>
  <clipPath id="pf068bcd164">
   <rect height="549.712884" width="549.712884" x="83.918339" y="103.571262"/>
  </clipPath>
 </defs>
</svg>
