<?xml version="1.0" encoding="utf-8" standalone="no"?>
<!DOCTYPE svg PUBLIC "-//W3C//DTD SVG 1.1//EN"
  "http://www.w3.org/Graphics/SVG/1.1/DTD/svg11.dtd">
<!-- Created with matplotlib (https://matplotlib.org/) -->
<svg height="720pt" version="1.1" viewBox="0 0 720 720" width="720pt" xmlns="http://www.w3.org/2000/svg" xmlns:xlink="http://www.w3.org/1999/xlink">
 <defs>
  <style type="text/css">
*{stroke-linecap:butt;stroke-linejoin:round;}
  </style>
 </defs>
 <g id="figure_1">
  <g id="patch_1">
   <path d="M 0 720 
L 720 720 
L 720 0 
L 0 0 
z
" style="fill:none;"/>
  </g>
  <g id="axes_1">
   <g id="patch_2">
    <path d="M 637.050172 348.877077 
C 637.050172 314.437645 629.974031 280.362654 616.261719 248.770773 
C 602.549407 217.178891 582.491135 188.738735 557.334057 165.218617 
L 385.626172 348.877077 
L 637.050172 348.877077 
z
" style="fill:#4592c4;"/>
   </g>
   <g id="patch_3">
    <path d="M 542.595403 150.614472 
C 521.025048 130.44769 496.069558 114.237789 468.875178 102.729315 
C 441.680797 91.220841 412.670359 84.592734 383.176356 83.149432 
L 370.887518 334.272932 
L 542.595403 150.614472 
z
" style="fill:#a4acaf;"/>
   </g>
   <g id="patch_4">
    <path d="M 365.941774 81.67108 
C 342.625334 80.53008 319.263189 82.641964 296.529348 87.945803 
C 273.795508 93.249642 251.910723 101.693935 231.506382 113.035059 
L 353.652935 332.79458 
L 365.941774 81.67108 
z
" style="fill:#9bcc50;"/>
   </g>
   <g id="patch_5">
    <path d="M 218.712522 119.892381 
C 200.556466 129.983864 183.720791 142.286586 168.590749 156.519022 
C 153.460707 170.751458 140.152592 186.804214 128.970933 204.309954 
L 340.859075 339.651902 
L 218.712522 119.892381 
z
" style="fill:#729f3f;"/>
   </g>
   <g id="patch_6">
    <path d="M 121.739508 215.442886 
C 111.249672 231.865525 102.704595 249.452165 96.276505 267.848344 
C 89.848415 286.244523 85.58079 305.325813 83.559646 324.707627 
L 333.62765 350.784834 
L 121.739508 215.442886 
z
" style="fill:#fd7d24;"/>
   </g>
   <g id="patch_7">
    <path d="M 82.121265 336.565398 
C 80.393174 353.136963 80.316608 369.839343 81.892695 386.426055 
C 83.468782 403.012767 86.689732 419.401814 91.508011 435.351336 
L 332.189269 362.642605 
L 82.121265 336.565398 
z
" style="fill:#f366b9;"/>
   </g>
   <g id="patch_8">
    <path d="M 94.537015 445.603929 
C 99.058343 460.570478 104.965853 475.082724 112.182741 488.95199 
C 119.399629 502.821255 127.894483 515.987174 137.556859 528.278572 
L 335.218274 372.895199 
L 94.537015 445.603929 
z
" style="fill:#a38c21;"/>
   </g>
   <g id="patch_9">
    <path d="M 143.892368 536.363297 
C 153.396122 548.452913 163.989027 559.645155 175.537831 569.799232 
C 187.086635 579.953309 199.54271 589.026464 212.749364 596.904562 
L 341.553783 380.979923 
L 143.892368 536.363297 
z
" style="fill:#eed535;"/>
   </g>
   <g id="patch_10">
    <path d="M 220.22949 601.618313 
C 229.91124 607.393718 239.970479 612.511416 250.339085 616.93675 
C 260.707692 621.362084 271.362208 625.085041 282.23048 628.080411 
L 349.033909 385.693675 
L 220.22949 601.618313 
z
" style="fill:#d79877;"/>
   </g>
   <g id="patch_11">
    <path d="M 289.197815 630.035064 
C 299.324567 632.826065 309.616283 634.979693 320.012437 636.483281 
C 330.408591 637.986868 340.888763 638.837463 351.39132 639.030062 
L 356.001244 387.648328 
L 289.197815 630.035064 
z
" style="fill:#707070;"/>
   </g>
   <g id="patch_12">
    <path d="M 358.372436 639.158085 
C 368.874993 639.350684 379.379305 638.88491 389.823597 637.763501 
C 400.267889 636.642093 410.631646 634.867253 420.853919 632.449418 
L 362.98236 387.77635 
L 358.372436 639.158085 
z
" style="fill:#b97fc9;"/>
   </g>
   <g id="patch_13">
    <path d="M 427.56871 630.872026 
C 437.541502 628.5132 447.360756 625.546848 456.971502 621.989575 
C 466.582249 618.432301 475.966522 614.290757 485.07179 609.588125 
L 369.69715 386.198957 
L 427.56871 630.872026 
z
" style="fill:#d56723;"/>
   </g>
   <g id="patch_14">
    <path d="M 491.054395 606.509838 
C 499.931894 601.924842 508.528194 596.814732 516.797546 591.206702 
C 525.066898 585.598672 532.994608 579.502688 540.538485 572.951192 
L 375.679755 383.12067 
L 491.054395 606.509838 
z
" style="fill:#a2535f;"/>
   </g>
   <g id="patch_15">
    <path d="M 545.496912 568.658308 
C 552.847246 562.274894 559.820627 555.469952 566.38182 548.277864 
C 572.943013 541.085776 579.08095 533.518675 584.764617 525.614796 
L 380.638182 378.827786 
L 545.496912 568.658308 
z
" style="fill:#7b62a3;"/>
   </g>
   <g id="patch_16">
    <path d="M 588.460749 520.507843 
C 593.845121 513.020173 598.813429 505.24191 603.343139 497.208331 
C 607.87285 489.174752 611.957105 480.89802 615.577383 472.41567 
L 384.334314 373.720833 
L 588.460749 520.507843 
z
" style="fill:#9eb7b8;"/>
   </g>
   <g id="patch_17">
    <path d="M 617.985429 466.773593 
C 621.605706 458.291243 624.756525 449.616119 627.423595 440.787562 
C 630.090666 431.959006 632.26995 422.990385 633.951564 413.922373 
L 386.74236 368.078756 
L 617.985429 466.773593 
z
" style="fill:#51c4e7;"/>
   </g>
   <g id="patch_18">
    <path d="M 634.957044 409.080513 
C 635.984534 403.539824 636.82546 397.966158 637.478396 392.368959 
C 638.131331 386.77176 638.595908 381.154192 638.871338 375.525773 
L 387.74784 363.236896 
L 634.957044 409.080513 
z
" style="fill:#fdb9e9;"/>
   </g>
   <g id="patch_19">
    <path d="M 639.051149 372.971799 
C 639.151298 370.925269 639.226425 368.87759 639.276514 366.829223 
C 639.326603 364.780856 639.351651 362.731953 639.351651 360.682973 
L 387.927651 360.682922 
L 639.051149 372.971799 
z
" style="fill:#8ca8d7;"/>
   </g>
   <g id="patch_20">
    <path clip-path="url(#p301462d73b)" d="M 360 569.52 
C 415.565354 569.52 468.862375 547.443651 508.153013 508.153013 
C 547.443651 468.862375 569.52 415.565354 569.52 360 
C 569.52 304.434646 547.443651 251.137625 508.153013 211.846987 
C 468.862375 172.556349 415.565354 150.48 360 150.48 
C 304.434646 150.48 251.137625 172.556349 211.846987 211.846987 
C 172.556349 251.137625 150.48 304.434646 150.48 360 
C 150.48 415.565354 172.556349 468.862375 211.846987 508.153013 
C 251.137625 547.443651 304.434646 569.52 360 569.52 
z
" style="fill:#ffffff;"/>
   </g>
   <g id="matplotlib.axis_1"/>
   <g id="matplotlib.axis_2"/>
  </g>
 </g>
 <defs>
  <clipPath id="p301462d73b">
   <rect height="698.4" width="698.4" x="10.8" y="10.8"/>
  </clipPath>
 </defs>
</svg>
