<?xml version="1.0" encoding="utf-8" standalone="no"?>
<!DOCTYPE svg PUBLIC "-//W3C//DTD SVG 1.1//EN"
  "http://www.w3.org/Graphics/SVG/1.1/DTD/svg11.dtd">
<!-- Created with matplotlib (https://matplotlib.org/) -->
<svg height="720pt" version="1.1" viewBox="0 0 720 720" width="720pt" xmlns="http://www.w3.org/2000/svg" xmlns:xlink="http://www.w3.org/1999/xlink">
 <defs>
  <style type="text/css">
*{stroke-linecap:butt;stroke-linejoin:round;}
  </style>
 </defs>
 <g id="figure_1">
  <g id="patch_1">
   <path d="M 0 720 
L 720 720 
L 720 0 
L 0 0 
z
" style="fill:none;"/>
  </g>
  <g id="axes_1">
   <g id="patch_2">
    <path d="M 633.967456 343.501131 
C 633.967456 290.11526 616.964001 238.09199 585.434558 195.011305 
C 553.905116 151.93062 509.459175 119.99167 458.572678 103.848079 
L 382.543456 343.501131 
L 633.967456 343.501131 
z
" style="fill:#4592c4;"/>
   </g>
   <g id="patch_3">
    <path d="M 437.97076 92.478498 
C 418.964082 86.448686 399.307381 82.701331 379.415375 81.315496 
C 359.523369 79.929661 339.53694 80.91516 319.877762 84.251202 
L 361.941537 332.13155 
L 437.97076 92.478498 
z
" style="fill:#a4acaf;"/>
   </g>
   <g id="patch_4">
    <path d="M 307.208191 86.325673 
C 288.510085 89.498627 270.230886 94.77707 252.719667 102.060201 
C 235.208448 109.343332 218.577392 118.584494 203.144098 129.607208 
L 349.271967 334.20602 
L 307.208191 86.325673 
z
" style="fill:#9bcc50;"/>
   </g>
   <g id="patch_5">
    <path d="M 193.061151 136.76458 
C 178.02439 147.504084 164.217281 159.868599 151.890191 173.633917 
C 139.563101 187.399235 128.790992 202.481647 119.769197 218.607661 
L 339.189019 341.363392 
L 193.061151 136.76458 
z
" style="fill:#729f3f;"/>
   </g>
   <g id="patch_6">
    <path d="M 113.809198 229.260865 
C 104.787403 245.38688 97.570784 262.458432 92.290202 280.165961 
C 87.00962 297.87349 83.697187 316.109313 82.412967 334.542759 
L 333.22902 352.016596 
L 113.809198 229.260865 
z
" style="fill:#fd7d24;"/>
   </g>
   <g id="patch_7">
    <path d="M 81.49583 346.239423 
C 80.313176 363.215001 80.856968 380.266875 83.118836 397.132605 
C 85.380703 413.998336 89.348983 430.590951 94.9626 446.655079 
L 332.311884 363.713261 
L 81.49583 346.239423 
z
" style="fill:#f366b9;"/>
   </g>
   <g id="patch_8">
    <path d="M 98.430488 456.863048 
C 103.562218 471.548191 110.045778 485.725434 117.797717 499.212298 
C 125.549657 512.699162 134.536572 525.437534 144.642791 537.263455 
L 335.779772 373.92123 
L 98.430488 456.863048 
z
" style="fill:#a38c21;"/>
   </g>
   <g id="patch_9">
    <path d="M 151.336911 545.096664 
C 161.44313 556.922585 172.625106 567.785097 184.738912 577.544388 
C 196.852719 587.303679 209.846159 595.917696 223.551991 603.275565 
L 342.473891 381.754439 
L 151.336911 545.096664 
z
" style="fill:#eed535;"/>
   </g>
   <g id="patch_10">
    <path d="M 231.709636 607.839409 
C 242.842918 613.816225 254.410952 618.945235 266.315368 623.182825 
C 278.219784 627.420415 290.426741 630.754537 302.832434 633.15684 
L 350.631537 386.318282 
L 231.709636 607.839409 
z
" style="fill:#d79877;"/>
   </g>
   <g id="patch_11">
    <path d="M 311.067731 634.751566 
C 323.473424 637.153869 336.042588 638.617523 348.668338 639.130083 
C 361.294088 639.642642 373.940533 639.202649 386.500132 637.813846 
L 358.866834 387.913008 
L 311.067731 634.751566 
z
" style="fill:#707070;"/>
   </g>
   <g id="patch_12">
    <path d="M 394.681027 636.933218 
C 406.757133 635.597878 418.720578 633.388951 430.477293 630.323807 
C 442.234008 627.258663 453.753097 623.345356 464.943984 618.614658 
L 367.047729 387.032381 
L 394.681027 636.933218 
z
" style="fill:#b97fc9;"/>
   </g>
   <g id="patch_13">
    <path d="M 471.535781 615.962257 
C 480.039285 612.36759 488.33835 608.307287 496.395259 603.799801 
C 504.452169 599.292315 512.2547 594.344483 519.767394 588.978792 
L 373.639526 384.37998 
L 471.535781 615.962257 
z
" style="fill:#d56723;"/>
   </g>
   <g id="patch_14">
    <path d="M 524.764477 585.409793 
C 532.277172 580.044101 539.488632 574.268691 546.366086 568.109807 
C 553.243539 561.950923 559.776553 555.417909 565.935437 548.540456 
L 378.636609 380.810981 
L 524.764477 585.409793 
z
" style="fill:#a2535f;"/>
   </g>
   <g id="patch_15">
    <path d="M 569.842284 544.228344 
C 575.352587 538.075143 580.556323 531.654139 585.434558 524.988695 
C 590.312794 518.323251 594.859604 511.421463 599.058446 504.308443 
L 382.543456 376.498869 
L 569.842284 544.228344 
z
" style="fill:#7b62a3;"/>
   </g>
   <g id="patch_16">
    <path d="M 601.714488 499.867988 
C 605.419182 493.592075 608.849255 487.158051 611.994986 480.584147 
C 615.140718 474.010242 617.999136 467.302672 620.562141 460.48044 
L 385.199499 372.058415 
L 601.714488 499.867988 
z
" style="fill:#9eb7b8;"/>
   </g>
   <g id="patch_17">
    <path d="M 622.086898 456.560467 
C 623.966298 451.55786 625.685726 446.496606 627.242561 441.384417 
C 628.799396 436.272227 630.192846 431.111702 631.420789 425.910705 
L 386.724256 368.138442 
L 622.086898 456.560467 
z
" style="fill:#51c4e7;"/>
   </g>
   <g id="patch_18">
    <path d="M 632.238794 422.446016 
C 633.466737 417.245019 634.528548 412.006194 635.422609 406.737525 
C 636.316669 401.468856 637.042525 396.173022 637.599071 390.858093 
L 387.542261 364.673753 
L 632.238794 422.446016 
z
" style="fill:#fdb9e9;"/>
   </g>
   <g id="patch_19">
    <path d="M 637.954806 387.641008 
C 638.410149 383.292551 638.751985 378.932956 638.979966 374.566672 
C 639.207948 370.200388 639.321997 365.828899 639.321997 361.456667 
L 387.897997 361.456667 
L 637.954806 387.641008 
z
" style="fill:#8ca8d7;"/>
   </g>
   <g id="patch_20">
    <path clip-path="url(#p3c92b8ed09)" d="M 360 569.52 
C 415.565354 569.52 468.862375 547.443651 508.153013 508.153013 
C 547.443651 468.862375 569.52 415.565354 569.52 360 
C 569.52 304.434646 547.443651 251.137625 508.153013 211.846987 
C 468.862375 172.556349 415.565354 150.48 360 150.48 
C 304.434646 150.48 251.137625 172.556349 211.846987 211.846987 
C 172.556349 251.137625 150.48 304.434646 150.48 360 
C 150.48 415.565354 172.556349 468.862375 211.846987 508.153013 
C 251.137625 547.443651 304.434646 569.52 360 569.52 
z
" style="fill:#ffffff;"/>
   </g>
   <g id="matplotlib.axis_1"/>
   <g id="matplotlib.axis_2"/>
  </g>
 </g>
 <defs>
  <clipPath id="p3c92b8ed09">
   <rect height="698.4" width="698.4" x="10.8" y="10.8"/>
  </clipPath>
 </defs>
</svg>
