<?xml version="1.0" encoding="utf-8" standalone="no"?>
<!DOCTYPE svg PUBLIC "-//W3C//DTD SVG 1.1//EN"
  "http://www.w3.org/Graphics/SVG/1.1/DTD/svg11.dtd">
<!-- Created with matplotlib (https://matplotlib.org/) -->
<svg height="720pt" version="1.1" viewBox="0 0 720 720" width="720pt" xmlns="http://www.w3.org/2000/svg" xmlns:xlink="http://www.w3.org/1999/xlink">
 <defs>
  <style type="text/css">
*{stroke-linecap:butt;stroke-linejoin:round;}
  </style>
 </defs>
 <g id="figure_1">
  <g id="patch_1">
   <path d="M 0 720 
L 720 720 
L 720 0 
L 0 0 
z
" style="fill:#ffffff;"/>
  </g>
  <g id="axes_1">
   <g id="patch_2">
    <path d="M 578.723592 217.992367 
L 544.347449 243.151221 
" style="fill:none;stroke:#000000;stroke-linecap:round;stroke-width:3;"/>
   </g>
   <g id="text_1">
    <g id="patch_3">
     <path d="M 543.668574 216.311104 
L 650.506074 216.311104 
L 650.506074 192.793917 
L 543.668574 192.793917 
z
" style="fill:#ffffff;stroke:#000000;stroke-linejoin:miter;"/>
    </g>
    <!-- Volador: 109 -->
    <defs>
     <path d="M 17.484375 67.671875 
L 39.015625 11.71875 
L 60.5 67.671875 
L 52.296875 67.671875 
L 52.296875 72.90625 
L 73.6875 72.90625 
L 73.6875 67.671875 
L 66.609375 67.671875 
L 40.578125 0 
L 32.171875 0 
L 6.296875 67.671875 
L -0.984375 67.671875 
L -0.984375 72.90625 
L 25.59375 72.90625 
L 25.59375 67.671875 
z
" id="DejaVuSerif-86"/>
     <path d="M 30.078125 3.421875 
Q 37.3125 3.421875 40.984375 9.125 
Q 44.671875 14.84375 44.671875 25.984375 
Q 44.671875 37.109375 40.984375 42.796875 
Q 37.3125 48.484375 30.078125 48.484375 
Q 22.859375 48.484375 19.171875 42.796875 
Q 15.484375 37.109375 15.484375 25.984375 
Q 15.484375 14.84375 19.1875 9.125 
Q 22.90625 3.421875 30.078125 3.421875 
z
M 30.078125 -1.421875 
Q 18.75 -1.421875 11.859375 6.078125 
Q 4.984375 13.578125 4.984375 25.984375 
Q 4.984375 38.375 11.84375 45.84375 
Q 18.703125 53.328125 30.078125 53.328125 
Q 41.453125 53.328125 48.3125 45.84375 
Q 55.171875 38.375 55.171875 25.984375 
Q 55.171875 13.578125 48.3125 6.078125 
Q 41.453125 -1.421875 30.078125 -1.421875 
z
" id="DejaVuSerif-111"/>
     <path d="M 20.515625 5.171875 
L 29 5.171875 
L 29 0 
L 2.875 0 
L 2.875 5.171875 
L 11.53125 5.171875 
L 11.53125 70.796875 
L 2.875 70.796875 
L 2.875 75.984375 
L 20.515625 75.984375 
z
" id="DejaVuSerif-108"/>
     <path d="M 39.796875 16.3125 
L 39.796875 27.296875 
L 28.21875 27.296875 
Q 21.53125 27.296875 18.25 24.40625 
Q 14.984375 21.53125 14.984375 15.578125 
Q 14.984375 10.15625 18.296875 6.984375 
Q 21.625 3.8125 27.296875 3.8125 
Q 32.90625 3.8125 36.34375 7.28125 
Q 39.796875 10.75 39.796875 16.3125 
z
M 48.78125 32.421875 
L 48.78125 5.171875 
L 56.78125 5.171875 
L 56.78125 0 
L 39.796875 0 
L 39.796875 5.609375 
Q 36.8125 2 32.90625 0.28125 
Q 29 -1.421875 23.78125 -1.421875 
Q 15.140625 -1.421875 10.0625 3.171875 
Q 4.984375 7.765625 4.984375 15.578125 
Q 4.984375 23.640625 10.796875 28.078125 
Q 16.609375 32.515625 27.203125 32.515625 
L 39.796875 32.515625 
L 39.796875 36.078125 
Q 39.796875 42 36.203125 45.234375 
Q 32.625 48.484375 26.125 48.484375 
Q 20.75 48.484375 17.578125 46.046875 
Q 14.40625 43.609375 13.625 38.8125 
L 8.984375 38.8125 
L 8.984375 49.3125 
Q 13.671875 51.3125 18.09375 52.3125 
Q 22.515625 53.328125 26.703125 53.328125 
Q 37.5 53.328125 43.140625 47.96875 
Q 48.78125 42.625 48.78125 32.421875 
z
" id="DejaVuSerif-97"/>
     <path d="M 52.484375 5.171875 
L 61.078125 5.171875 
L 61.078125 0 
L 43.5 0 
L 43.5 8.109375 
Q 40.875 3.21875 36.796875 0.890625 
Q 32.71875 -1.421875 26.703125 -1.421875 
Q 17.140625 -1.421875 11.0625 6.171875 
Q 4.984375 13.765625 4.984375 25.984375 
Q 4.984375 38.1875 11.03125 45.75 
Q 17.09375 53.328125 26.703125 53.328125 
Q 32.71875 53.328125 36.796875 51 
Q 40.875 48.6875 43.5 43.796875 
L 43.5 70.796875 
L 35.015625 70.796875 
L 35.015625 75.984375 
L 52.484375 75.984375 
z
M 43.5 23.390625 
L 43.5 28.515625 
Q 43.5 37.84375 39.90625 42.765625 
Q 36.328125 47.703125 29.5 47.703125 
Q 22.5625 47.703125 19.015625 42.234375 
Q 15.484375 36.765625 15.484375 25.984375 
Q 15.484375 15.234375 19.015625 9.71875 
Q 22.5625 4.203125 29.5 4.203125 
Q 36.328125 4.203125 39.90625 9.109375 
Q 43.5 14.015625 43.5 23.390625 
z
" id="DejaVuSerif-100"/>
     <path d="M 47.796875 52 
L 47.796875 39.015625 
L 42.625 39.015625 
Q 42.390625 42.875 40.484375 44.78125 
Q 38.578125 46.6875 34.90625 46.6875 
Q 28.265625 46.6875 24.71875 42.09375 
Q 21.1875 37.5 21.1875 28.90625 
L 21.1875 5.171875 
L 31.59375 5.171875 
L 31.59375 0 
L 4.109375 0 
L 4.109375 5.171875 
L 12.203125 5.171875 
L 12.203125 46.78125 
L 3.609375 46.78125 
L 3.609375 51.90625 
L 21.1875 51.90625 
L 21.1875 42.671875 
Q 23.828125 48.09375 27.96875 50.703125 
Q 32.125 53.328125 38.09375 53.328125 
Q 40.28125 53.328125 42.703125 52.984375 
Q 45.125 52.640625 47.796875 52 
z
" id="DejaVuSerif-114"/>
     <path d="M 10.40625 5.078125 
Q 10.40625 7.8125 12.28125 9.71875 
Q 14.15625 11.625 16.890625 11.625 
Q 19.625 11.625 21.5 9.71875 
Q 23.390625 7.8125 23.390625 5.078125 
Q 23.390625 2.34375 21.53125 0.453125 
Q 19.671875 -1.421875 16.890625 -1.421875 
Q 14.109375 -1.421875 12.25 0.453125 
Q 10.40625 2.34375 10.40625 5.078125 
z
M 10.40625 36.921875 
Q 10.40625 39.65625 12.28125 41.53125 
Q 14.15625 43.40625 16.890625 43.40625 
Q 19.671875 43.40625 21.53125 41.546875 
Q 23.390625 39.703125 23.390625 36.921875 
Q 23.390625 34.125 21.53125 32.265625 
Q 19.671875 30.421875 16.890625 30.421875 
Q 14.15625 30.421875 12.28125 32.296875 
Q 10.40625 34.1875 10.40625 36.921875 
z
" id="DejaVuSerif-58"/>
     <path id="DejaVuSerif-32"/>
     <path d="M 14.203125 0 
L 14.203125 5.171875 
L 26.90625 5.171875 
L 26.90625 65.828125 
L 12.203125 56.296875 
L 12.203125 62.703125 
L 29.984375 74.21875 
L 36.71875 74.21875 
L 36.71875 5.171875 
L 49.421875 5.171875 
L 49.421875 0 
z
" id="DejaVuSerif-49"/>
     <path d="M 31.78125 3.421875 
Q 39.265625 3.421875 42.96875 11.625 
Q 46.6875 19.828125 46.6875 36.375 
Q 46.6875 52.984375 42.96875 61.1875 
Q 39.265625 69.390625 31.78125 69.390625 
Q 24.3125 69.390625 20.59375 61.1875 
Q 16.890625 52.984375 16.890625 36.375 
Q 16.890625 19.828125 20.59375 11.625 
Q 24.3125 3.421875 31.78125 3.421875 
z
M 31.78125 -1.421875 
Q 19.921875 -1.421875 13.25 8.53125 
Q 6.59375 18.5 6.59375 36.375 
Q 6.59375 54.296875 13.25 64.25 
Q 19.921875 74.21875 31.78125 74.21875 
Q 43.703125 74.21875 50.34375 64.25 
Q 56.984375 54.296875 56.984375 36.375 
Q 56.984375 18.5 50.34375 8.53125 
Q 43.703125 -1.421875 31.78125 -1.421875 
z
" id="DejaVuSerif-48"/>
     <path d="M 46.78125 32.671875 
Q 43.5 29 39.25 27.1875 
Q 35.015625 25.390625 29.6875 25.390625 
Q 18.84375 25.390625 12.5625 31.9375 
Q 6.296875 38.484375 6.296875 49.8125 
Q 6.296875 60.890625 13.109375 67.546875 
Q 19.921875 74.21875 31.296875 74.21875 
Q 43.65625 74.21875 50.265625 65.015625 
Q 56.890625 55.8125 56.890625 38.71875 
Q 56.890625 19.578125 49.015625 9.078125 
Q 41.15625 -1.421875 26.90625 -1.421875 
Q 23.046875 -1.421875 18.796875 -0.6875 
Q 14.546875 0.046875 10.109375 1.515625 
L 10.109375 13.625 
L 15.578125 13.625 
Q 16.21875 8.6875 19.390625 6.046875 
Q 22.5625 3.421875 27.875 3.421875 
Q 37.359375 3.421875 41.984375 10.5625 
Q 46.625 17.71875 46.78125 32.671875 
z
M 30.90625 69.390625 
Q 23.96875 69.390625 20.28125 64.328125 
Q 16.609375 59.28125 16.609375 49.8125 
Q 16.609375 40.328125 20.28125 35.25 
Q 23.96875 30.171875 30.90625 30.171875 
Q 37.84375 30.171875 41.53125 35.078125 
Q 45.21875 39.984375 45.21875 49.21875 
Q 45.21875 58.9375 41.5 64.15625 
Q 37.796875 69.390625 30.90625 69.390625 
z
" id="DejaVuSerif-57"/>
    </defs>
    <g transform="translate(548.168574 208.691573)scale(0.15 -0.15)">
     <use xlink:href="#DejaVuSerif-86"/>
     <use x="72.076172" xlink:href="#DejaVuSerif-111"/>
     <use x="132.28125" xlink:href="#DejaVuSerif-108"/>
     <use x="164.263672" xlink:href="#DejaVuSerif-97"/>
     <use x="223.882812" xlink:href="#DejaVuSerif-100"/>
     <use x="287.896484" xlink:href="#DejaVuSerif-111"/>
     <use x="348.101562" xlink:href="#DejaVuSerif-114"/>
     <use x="395.904297" xlink:href="#DejaVuSerif-58"/>
     <use x="429.595703" xlink:href="#DejaVuSerif-32"/>
     <use x="461.382812" xlink:href="#DejaVuSerif-49"/>
     <use x="525.005859" xlink:href="#DejaVuSerif-48"/>
     <use x="588.628906" xlink:href="#DejaVuSerif-57"/>
    </g>
   </g>
   <g id="patch_4">
    <path d="M 383.184299 66.419401 
L 377.294402 150.961824 
" style="fill:none;stroke:#000000;stroke-linecap:round;stroke-width:3;"/>
   </g>
   <g id="text_2">
    <g id="patch_5">
     <path d="M 344.938283 63.923994 
L 423.416408 63.923994 
L 423.416408 40.406806 
L 344.938283 40.406806 
z
" style="fill:#ffffff;stroke:#000000;stroke-linejoin:miter;"/>
    </g>
    <!-- Hada: 41 -->
    <defs>
     <path d="M 5.515625 0 
L 5.515625 5.171875 
L 14.796875 5.171875 
L 14.796875 67.671875 
L 5.515625 67.671875 
L 5.515625 72.90625 
L 33.984375 72.90625 
L 33.984375 67.671875 
L 24.703125 67.671875 
L 24.703125 42.484375 
L 62.5 42.484375 
L 62.5 67.671875 
L 53.21875 67.671875 
L 53.21875 72.90625 
L 81.6875 72.90625 
L 81.6875 67.671875 
L 72.40625 67.671875 
L 72.40625 5.171875 
L 81.6875 5.171875 
L 81.6875 0 
L 53.21875 0 
L 53.21875 5.171875 
L 62.5 5.171875 
L 62.5 36.53125 
L 24.703125 36.53125 
L 24.703125 5.171875 
L 33.984375 5.171875 
L 33.984375 0 
z
" id="DejaVuSerif-72"/>
     <path d="M 34.90625 24.703125 
L 34.90625 63.484375 
L 10.015625 24.703125 
z
M 56.390625 0 
L 23.1875 0 
L 23.1875 5.171875 
L 34.90625 5.171875 
L 34.90625 19.484375 
L 3.078125 19.484375 
L 3.078125 24.8125 
L 35.015625 74.21875 
L 44.671875 74.21875 
L 44.671875 24.703125 
L 58.59375 24.703125 
L 58.59375 19.484375 
L 44.671875 19.484375 
L 44.671875 5.171875 
L 56.390625 5.171875 
z
" id="DejaVuSerif-52"/>
    </defs>
    <g transform="translate(349.438283 56.304462)scale(0.15 -0.15)">
     <use xlink:href="#DejaVuSerif-72"/>
     <use x="87.207031" xlink:href="#DejaVuSerif-97"/>
     <use x="146.826172" xlink:href="#DejaVuSerif-100"/>
     <use x="210.839844" xlink:href="#DejaVuSerif-97"/>
     <use x="270.458984" xlink:href="#DejaVuSerif-58"/>
     <use x="304.150391" xlink:href="#DejaVuSerif-32"/>
     <use x="335.9375" xlink:href="#DejaVuSerif-52"/>
     <use x="399.560547" xlink:href="#DejaVuSerif-49"/>
    </g>
   </g>
   <g id="patch_6">
    <path d="M 255.32868 121.537227 
L 274.562415 167.781917 
" style="fill:none;stroke:#000000;stroke-linecap:round;stroke-width:3;"/>
   </g>
   <g id="text_3">
    <g id="patch_7">
     <path d="M 207.028038 119.195 
L 291.899913 119.195 
L 291.899913 95.677813 
L 207.028038 95.677813 
z
" style="fill:#ffffff;stroke:#000000;stroke-linejoin:miter;"/>
    </g>
    <!-- Tierra: 39 -->
    <defs>
     <path d="M 19.09375 0 
L 19.09375 5.171875 
L 28.421875 5.171875 
L 28.421875 67.09375 
L 6.984375 67.09375 
L 6.984375 55.71875 
L 0.984375 55.71875 
L 0.984375 72.90625 
L 65.71875 72.90625 
L 65.71875 55.71875 
L 59.71875 55.71875 
L 59.71875 67.09375 
L 38.28125 67.09375 
L 38.28125 5.171875 
L 47.609375 5.171875 
L 47.609375 0 
z
" id="DejaVuSerif-84"/>
     <path d="M 9.71875 68.015625 
Q 9.71875 70.265625 11.34375 71.921875 
Q 12.984375 73.578125 15.28125 73.578125 
Q 17.53125 73.578125 19.15625 71.921875 
Q 20.796875 70.265625 20.796875 68.015625 
Q 20.796875 65.71875 19.1875 64.109375 
Q 17.578125 62.5 15.28125 62.5 
Q 12.984375 62.5 11.34375 64.109375 
Q 9.71875 65.71875 9.71875 68.015625 
z
M 21.1875 5.171875 
L 29.6875 5.171875 
L 29.6875 0 
L 3.609375 0 
L 3.609375 5.171875 
L 12.203125 5.171875 
L 12.203125 46.6875 
L 3.609375 46.6875 
L 3.609375 51.90625 
L 21.1875 51.90625 
z
" id="DejaVuSerif-105"/>
     <path d="M 54.203125 25 
L 15.484375 25 
L 15.484375 24.609375 
Q 15.484375 14.109375 19.4375 8.765625 
Q 23.390625 3.421875 31.109375 3.421875 
Q 37.015625 3.421875 40.796875 6.515625 
Q 44.578125 9.625 46.09375 15.71875 
L 53.328125 15.71875 
Q 51.171875 7.171875 45.375 2.875 
Q 39.59375 -1.421875 30.171875 -1.421875 
Q 18.796875 -1.421875 11.890625 6.078125 
Q 4.984375 13.578125 4.984375 25.984375 
Q 4.984375 38.28125 11.765625 45.796875 
Q 18.5625 53.328125 29.59375 53.328125 
Q 41.359375 53.328125 47.65625 46.0625 
Q 53.953125 38.8125 54.203125 25 
z
M 43.609375 30.171875 
Q 43.3125 39.265625 39.765625 43.875 
Q 36.234375 48.484375 29.59375 48.484375 
Q 23.390625 48.484375 19.828125 43.84375 
Q 16.265625 39.203125 15.484375 30.171875 
z
" id="DejaVuSerif-101"/>
     <path d="M 9.71875 69.828125 
Q 15.4375 71.96875 20.671875 73.09375 
Q 25.921875 74.21875 30.515625 74.21875 
Q 41.21875 74.21875 47.21875 69.59375 
Q 53.21875 64.984375 53.21875 56.78125 
Q 53.21875 50.203125 49.0625 45.78125 
Q 44.921875 41.359375 37.3125 39.796875 
Q 46.296875 38.53125 51.25 33.28125 
Q 56.203125 28.03125 56.203125 19.671875 
Q 56.203125 9.46875 49.34375 4.015625 
Q 42.484375 -1.421875 29.59375 -1.421875 
Q 23.875 -1.421875 18.421875 -0.1875 
Q 12.984375 1.03125 7.625 3.515625 
L 7.625 17.671875 
L 13.09375 17.671875 
Q 13.578125 10.640625 17.828125 7.03125 
Q 22.078125 3.421875 29.78125 3.421875 
Q 37.25 3.421875 41.578125 7.734375 
Q 45.90625 12.0625 45.90625 19.578125 
Q 45.90625 28.171875 41.453125 32.59375 
Q 37.015625 37.015625 28.421875 37.015625 
L 23.78125 37.015625 
L 23.78125 42 
L 26.21875 42 
Q 34.765625 42 39.03125 45.53125 
Q 43.3125 49.078125 43.3125 56.203125 
Q 43.3125 62.59375 39.796875 65.984375 
Q 36.28125 69.390625 29.6875 69.390625 
Q 23.09375 69.390625 19.453125 66.265625 
Q 15.828125 63.140625 15.1875 56.984375 
L 9.71875 56.984375 
z
" id="DejaVuSerif-51"/>
    </defs>
    <g transform="translate(211.528038 111.575469)scale(0.15 -0.15)">
     <use xlink:href="#DejaVuSerif-84"/>
     <use x="66.699219" xlink:href="#DejaVuSerif-105"/>
     <use x="98.681641" xlink:href="#DejaVuSerif-101"/>
     <use x="157.861328" xlink:href="#DejaVuSerif-114"/>
     <use x="205.664062" xlink:href="#DejaVuSerif-114"/>
     <use x="253.466797" xlink:href="#DejaVuSerif-97"/>
     <use x="313.085938" xlink:href="#DejaVuSerif-58"/>
     <use x="346.777344" xlink:href="#DejaVuSerif-32"/>
     <use x="378.564453" xlink:href="#DejaVuSerif-51"/>
     <use x="442.1875" xlink:href="#DejaVuSerif-57"/>
    </g>
   </g>
   <g id="patch_8">
    <path d="M 134.205494 173.341766 
L 192.801094 225.815182 
" style="fill:none;stroke:#000000;stroke-linecap:round;stroke-width:3;"/>
   </g>
   <g id="text_4">
    <g id="patch_9">
     <path d="M 74.924323 171.508496 
L 163.131354 171.508496 
L 163.131354 147.991309 
L 74.924323 147.991309 
z
" style="fill:#ffffff;stroke:#000000;stroke-linejoin:miter;"/>
    </g>
    <!-- Posión: 38 -->
    <defs>
     <path d="M 24.703125 37.109375 
L 37.59375 37.109375 
Q 44.875 37.109375 48.671875 41.03125 
Q 52.484375 44.96875 52.484375 52.390625 
Q 52.484375 59.859375 48.671875 63.765625 
Q 44.875 67.671875 37.59375 67.671875 
L 24.703125 67.671875 
z
M 5.515625 0 
L 5.515625 5.171875 
L 14.796875 5.171875 
L 14.796875 67.671875 
L 5.515625 67.671875 
L 5.515625 72.90625 
L 39.984375 72.90625 
Q 50.921875 72.90625 57.3125 67.359375 
Q 63.71875 61.8125 63.71875 52.390625 
Q 63.71875 43.015625 57.3125 37.453125 
Q 50.921875 31.890625 39.984375 31.890625 
L 24.703125 31.890625 
L 24.703125 5.171875 
L 35.984375 5.171875 
L 35.984375 0 
z
" id="DejaVuSerif-80"/>
     <path d="M 5.609375 2.875 
L 5.609375 14.984375 
L 10.796875 14.984375 
Q 10.984375 9.1875 14.421875 6.296875 
Q 17.875 3.421875 24.609375 3.421875 
Q 30.671875 3.421875 33.84375 5.6875 
Q 37.015625 7.953125 37.015625 12.3125 
Q 37.015625 15.71875 34.6875 17.8125 
Q 32.375 19.921875 24.90625 22.3125 
L 18.40625 24.515625 
Q 11.71875 26.65625 8.71875 29.875 
Q 5.71875 33.109375 5.71875 38.09375 
Q 5.71875 45.21875 10.9375 49.265625 
Q 16.15625 53.328125 25.390625 53.328125 
Q 29.5 53.328125 34.03125 52.25 
Q 38.578125 51.171875 43.40625 49.125 
L 43.40625 37.796875 
L 38.234375 37.796875 
Q 38.03125 42.828125 34.703125 45.65625 
Q 31.390625 48.484375 25.6875 48.484375 
Q 20.015625 48.484375 17.109375 46.484375 
Q 14.203125 44.484375 14.203125 40.484375 
Q 14.203125 37.203125 16.40625 35.21875 
Q 18.609375 33.25 25.203125 31.203125 
L 32.328125 29 
Q 39.703125 26.703125 42.9375 23.265625 
Q 46.1875 19.828125 46.1875 14.40625 
Q 46.1875 7.03125 40.546875 2.796875 
Q 34.90625 -1.421875 25 -1.421875 
Q 19.96875 -1.421875 15.1875 -0.34375 
Q 10.40625 0.734375 5.609375 2.875 
z
" id="DejaVuSerif-115"/>
     <path d="M 30.078125 3.421875 
Q 37.3125 3.421875 40.984375 9.125 
Q 44.671875 14.84375 44.671875 25.984375 
Q 44.671875 37.109375 40.984375 42.796875 
Q 37.3125 48.484375 30.078125 48.484375 
Q 22.859375 48.484375 19.171875 42.796875 
Q 15.484375 37.109375 15.484375 25.984375 
Q 15.484375 14.84375 19.1875 9.125 
Q 22.90625 3.421875 30.078125 3.421875 
z
M 30.078125 -1.421875 
Q 18.75 -1.421875 11.859375 6.078125 
Q 4.984375 13.578125 4.984375 25.984375 
Q 4.984375 38.375 11.84375 45.84375 
Q 18.703125 53.328125 30.078125 53.328125 
Q 41.453125 53.328125 48.3125 45.84375 
Q 55.171875 38.375 55.171875 25.984375 
Q 55.171875 13.578125 48.3125 6.078125 
Q 41.453125 -1.421875 30.078125 -1.421875 
z
M 36.859375 79.984375 
L 46.578125 79.984375 
L 29.984375 61.625 
L 24.265625 61.625 
z
" id="DejaVuSerif-243"/>
     <path d="M 4.109375 0 
L 4.109375 5.171875 
L 12.203125 5.171875 
L 12.203125 46.6875 
L 3.609375 46.6875 
L 3.609375 51.90625 
L 21.1875 51.90625 
L 21.1875 42.671875 
Q 23.6875 47.953125 27.65625 50.640625 
Q 31.640625 53.328125 36.921875 53.328125 
Q 45.515625 53.328125 49.5625 48.390625 
Q 53.609375 43.453125 53.609375 33.015625 
L 53.609375 5.171875 
L 61.625 5.171875 
L 61.625 0 
L 36.8125 0 
L 36.8125 5.171875 
L 44.578125 5.171875 
L 44.578125 30.171875 
Q 44.578125 39.703125 42.234375 43.234375 
Q 39.890625 46.78125 33.984375 46.78125 
Q 27.734375 46.78125 24.453125 42.203125 
Q 21.1875 37.640625 21.1875 28.90625 
L 21.1875 5.171875 
L 29 5.171875 
L 29 0 
z
" id="DejaVuSerif-110"/>
     <path d="M 46.578125 19.921875 
Q 46.578125 27.734375 42.6875 32.046875 
Q 38.8125 36.375 31.78125 36.375 
Q 24.75 36.375 20.875 32.046875 
Q 17 27.734375 17 19.921875 
Q 17 12.0625 20.875 7.734375 
Q 24.75 3.421875 31.78125 3.421875 
Q 38.8125 3.421875 42.6875 7.734375 
Q 46.578125 12.0625 46.578125 19.921875 
z
M 44.578125 55.328125 
Q 44.578125 61.96875 41.203125 65.671875 
Q 37.84375 69.390625 31.78125 69.390625 
Q 25.78125 69.390625 22.390625 65.671875 
Q 19 61.96875 19 55.328125 
Q 19 48.640625 22.390625 44.921875 
Q 25.78125 41.21875 31.78125 41.21875 
Q 37.84375 41.21875 41.203125 44.921875 
Q 44.578125 48.640625 44.578125 55.328125 
z
M 39.3125 38.8125 
Q 47.609375 37.703125 52.25 32.6875 
Q 56.890625 27.6875 56.890625 19.921875 
Q 56.890625 9.671875 50.390625 4.125 
Q 43.890625 -1.421875 31.78125 -1.421875 
Q 19.734375 -1.421875 13.203125 4.125 
Q 6.6875 9.671875 6.6875 19.921875 
Q 6.6875 27.6875 11.328125 32.6875 
Q 15.96875 37.703125 24.3125 38.8125 
Q 16.9375 40.140625 13 44.40625 
Q 9.078125 48.6875 9.078125 55.328125 
Q 9.078125 64.109375 15.125 69.15625 
Q 21.1875 74.21875 31.78125 74.21875 
Q 42.390625 74.21875 48.4375 69.15625 
Q 54.5 64.109375 54.5 55.328125 
Q 54.5 48.6875 50.5625 44.40625 
Q 46.625 40.140625 39.3125 38.8125 
z
" id="DejaVuSerif-56"/>
    </defs>
    <g transform="translate(79.424323 163.888965)scale(0.15 -0.15)">
     <use xlink:href="#DejaVuSerif-80"/>
     <use x="67.222656" xlink:href="#DejaVuSerif-111"/>
     <use x="127.427734" xlink:href="#DejaVuSerif-115"/>
     <use x="178.746094" xlink:href="#DejaVuSerif-105"/>
     <use x="210.728516" xlink:href="#DejaVuSerif-243"/>
     <use x="270.933594" xlink:href="#DejaVuSerif-110"/>
     <use x="335.337891" xlink:href="#DejaVuSerif-58"/>
     <use x="369.029297" xlink:href="#DejaVuSerif-32"/>
     <use x="400.816406" xlink:href="#DejaVuSerif-51"/>
     <use x="464.439453" xlink:href="#DejaVuSerif-56"/>
    </g>
   </g>
   <g id="patch_10">
    <path d="M 125.871381 306.651706 
L 144.476906 312.20008 
" style="fill:none;stroke:#000000;stroke-linecap:round;stroke-width:3;"/>
   </g>
   <g id="text_5">
    <g id="patch_11">
     <path d="M 30.855281 305.581413 
L 132.836531 305.581413 
L 132.836531 281.464226 
L 30.855281 281.464226 
z
" style="fill:#ffffff;stroke:#000000;stroke-linejoin:miter;"/>
    </g>
    <!-- Psíquico: 38 -->
    <defs>
     <path d="M 21.1875 5.171875 
L 29.6875 5.171875 
L 29.6875 0 
L 3.609375 0 
L 3.609375 5.171875 
L 12.203125 5.171875 
L 12.203125 46.6875 
L 3.609375 46.6875 
L 3.609375 51.90625 
L 21.1875 51.90625 
z
M 22.796875 79.984375 
L 32.515625 79.984375 
L 15.921875 61.625 
L 10.203125 61.625 
z
" id="DejaVuSerif-237"/>
     <path d="M 52.484375 46.6875 
L 52.484375 -15.578125 
L 61.078125 -15.578125 
L 61.078125 -20.796875 
L 35.015625 -20.796875 
L 35.015625 -15.578125 
L 43.5 -15.578125 
L 43.5 8.109375 
Q 40.875 3.21875 36.796875 0.890625 
Q 32.71875 -1.421875 26.703125 -1.421875 
Q 17.140625 -1.421875 11.0625 6.171875 
Q 4.984375 13.765625 4.984375 25.984375 
Q 4.984375 38.1875 11.03125 45.75 
Q 17.09375 53.328125 26.703125 53.328125 
Q 32.71875 53.328125 36.796875 51 
Q 40.875 48.6875 43.5 43.796875 
L 43.5 51.90625 
L 61.078125 51.90625 
L 61.078125 46.6875 
z
M 43.5 28.515625 
Q 43.5 37.84375 39.90625 42.765625 
Q 36.328125 47.703125 29.5 47.703125 
Q 22.5625 47.703125 19.015625 42.234375 
Q 15.484375 36.765625 15.484375 25.984375 
Q 15.484375 15.234375 19.015625 9.71875 
Q 22.5625 4.203125 29.5 4.203125 
Q 36.328125 4.203125 39.90625 9.109375 
Q 43.5 14.015625 43.5 23.390625 
z
" id="DejaVuSerif-113"/>
     <path d="M 35.40625 51.90625 
L 52.203125 51.90625 
L 52.203125 5.171875 
L 60.6875 5.171875 
L 60.6875 0 
L 43.21875 0 
L 43.21875 9.1875 
Q 40.71875 4 36.765625 1.28125 
Q 32.8125 -1.421875 27.59375 -1.421875 
Q 18.953125 -1.421875 14.875 3.484375 
Q 10.796875 8.40625 10.796875 18.890625 
L 10.796875 46.6875 
L 2.6875 46.6875 
L 2.6875 51.90625 
L 19.828125 51.90625 
L 19.828125 21.6875 
Q 19.828125 12.203125 22.140625 8.6875 
Q 24.46875 5.171875 30.421875 5.171875 
Q 36.671875 5.171875 39.9375 9.765625 
Q 43.21875 14.359375 43.21875 23.09375 
L 43.21875 46.6875 
L 35.40625 46.6875 
z
" id="DejaVuSerif-117"/>
     <path d="M 51.421875 15.578125 
Q 49.515625 7.28125 44.09375 2.921875 
Q 38.671875 -1.421875 30.078125 -1.421875 
Q 18.75 -1.421875 11.859375 6.078125 
Q 4.984375 13.578125 4.984375 25.984375 
Q 4.984375 38.421875 11.859375 45.875 
Q 18.75 53.328125 30.078125 53.328125 
Q 35.015625 53.328125 39.890625 52.171875 
Q 44.78125 51.03125 49.703125 48.6875 
L 49.703125 35.40625 
L 44.484375 35.40625 
Q 43.453125 42.234375 40.015625 45.359375 
Q 36.578125 48.484375 30.171875 48.484375 
Q 22.90625 48.484375 19.1875 42.84375 
Q 15.484375 37.203125 15.484375 25.984375 
Q 15.484375 14.75 19.171875 9.078125 
Q 22.859375 3.421875 30.171875 3.421875 
Q 35.984375 3.421875 39.453125 6.4375 
Q 42.921875 9.46875 44.1875 15.578125 
z
" id="DejaVuSerif-99"/>
    </defs>
    <g transform="translate(35.355281 297.961882)scale(0.15 -0.15)">
     <use xlink:href="#DejaVuSerif-80"/>
     <use x="67.253906" xlink:href="#DejaVuSerif-115"/>
     <use x="118.572266" xlink:href="#DejaVuSerif-237"/>
     <use x="150.554688" xlink:href="#DejaVuSerif-113"/>
     <use x="214.568359" xlink:href="#DejaVuSerif-117"/>
     <use x="278.972656" xlink:href="#DejaVuSerif-105"/>
     <use x="310.955078" xlink:href="#DejaVuSerif-99"/>
     <use x="366.960938" xlink:href="#DejaVuSerif-111"/>
     <use x="427.166016" xlink:href="#DejaVuSerif-58"/>
     <use x="460.857422" xlink:href="#DejaVuSerif-32"/>
     <use x="492.644531" xlink:href="#DejaVuSerif-51"/>
     <use x="556.267578" xlink:href="#DejaVuSerif-56"/>
    </g>
   </g>
   <g id="patch_12">
    <path d="M 82.473988 414.361245 
L 137.03773 407.043687 
" style="fill:none;stroke:#000000;stroke-linecap:round;stroke-width:3;"/>
   </g>
   <g id="text_6">
    <g id="patch_13">
     <path d="M -2.225152 431.965673 
L 79.993598 431.965673 
L 79.993598 408.448486 
L -2.225152 408.448486 
z
" style="fill:#ffffff;stroke:#000000;stroke-linejoin:miter;"/>
    </g>
    <!-- Acero: 35 -->
    <defs>
     <path d="M 20.015625 26.421875 
L 46.78125 26.421875 
L 33.40625 61.078125 
z
M -0.59375 0 
L -0.59375 5.171875 
L 5.8125 5.171875 
L 31.78125 72.90625 
L 39.984375 72.90625 
L 66.015625 5.171875 
L 73.1875 5.171875 
L 73.1875 0 
L 46.6875 0 
L 46.6875 5.171875 
L 54.78125 5.171875 
L 48.6875 21.1875 
L 18.015625 21.1875 
L 11.921875 5.171875 
L 19.921875 5.171875 
L 19.921875 0 
z
" id="DejaVuSerif-65"/>
     <path d="M 50.296875 72.90625 
L 50.296875 64.890625 
L 16.890625 64.890625 
L 16.890625 44 
Q 19.4375 45.75 22.828125 46.625 
Q 26.21875 47.515625 30.421875 47.515625 
Q 42.234375 47.515625 49.0625 40.96875 
Q 55.90625 34.421875 55.90625 23.09375 
Q 55.90625 11.53125 49 5.046875 
Q 42.09375 -1.421875 29.59375 -1.421875 
Q 24.5625 -1.421875 19.28125 -0.1875 
Q 14.015625 1.03125 8.5 3.515625 
L 8.5 17.671875 
L 14.015625 17.671875 
Q 14.453125 10.75 18.421875 7.078125 
Q 22.40625 3.421875 29.59375 3.421875 
Q 37.3125 3.421875 41.453125 8.5 
Q 45.609375 13.578125 45.609375 23.09375 
Q 45.609375 32.5625 41.484375 37.609375 
Q 37.359375 42.671875 29.59375 42.671875 
Q 25.203125 42.671875 21.84375 41.109375 
Q 18.5 39.546875 15.921875 36.28125 
L 11.71875 36.28125 
L 11.71875 72.90625 
z
" id="DejaVuSerif-53"/>
    </defs>
    <g transform="translate(2.274848 424.346142)scale(0.15 -0.15)">
     <use xlink:href="#DejaVuSerif-65"/>
     <use x="72.216797" xlink:href="#DejaVuSerif-99"/>
     <use x="128.222656" xlink:href="#DejaVuSerif-101"/>
     <use x="187.402344" xlink:href="#DejaVuSerif-114"/>
     <use x="235.205078" xlink:href="#DejaVuSerif-111"/>
     <use x="295.410156" xlink:href="#DejaVuSerif-58"/>
     <use x="329.101562" xlink:href="#DejaVuSerif-32"/>
     <use x="360.888672" xlink:href="#DejaVuSerif-51"/>
     <use x="424.511719" xlink:href="#DejaVuSerif-53"/>
    </g>
   </g>
   <g id="patch_14">
    <path d="M 131.55701 509.129573 
L 165.163946 489.81308 
" style="fill:none;stroke:#000000;stroke-linecap:round;stroke-width:3;"/>
   </g>
   <g id="text_7">
    <g id="patch_15">
     <path d="M 53.328015 534.14289 
L 163.664734 534.14289 
L 163.664734 510.625702 
L 53.328015 510.625702 
z
" style="fill:#ffffff;stroke:#000000;stroke-linejoin:miter;"/>
    </g>
    <!-- Luchador: 32 -->
    <defs>
     <path d="M 5.515625 0 
L 5.515625 5.171875 
L 14.796875 5.171875 
L 14.796875 67.671875 
L 5.515625 67.671875 
L 5.515625 72.90625 
L 33.984375 72.90625 
L 33.984375 67.671875 
L 24.703125 67.671875 
L 24.703125 6 
L 58.015625 6 
L 58.015625 18.21875 
L 64.015625 18.21875 
L 64.015625 0 
z
" id="DejaVuSerif-76"/>
     <path d="M 4.109375 0 
L 4.109375 5.171875 
L 12.203125 5.171875 
L 12.203125 70.796875 
L 3.609375 70.796875 
L 3.609375 75.984375 
L 21.1875 75.984375 
L 21.1875 42.671875 
Q 23.6875 47.953125 27.65625 50.640625 
Q 31.640625 53.328125 36.921875 53.328125 
Q 45.515625 53.328125 49.5625 48.390625 
Q 53.609375 43.453125 53.609375 33.015625 
L 53.609375 5.171875 
L 61.625 5.171875 
L 61.625 0 
L 36.8125 0 
L 36.8125 5.171875 
L 44.578125 5.171875 
L 44.578125 30.171875 
Q 44.578125 39.703125 42.25 43.1875 
Q 39.9375 46.6875 33.984375 46.6875 
Q 27.734375 46.6875 24.453125 42.140625 
Q 21.1875 37.59375 21.1875 28.90625 
L 21.1875 5.171875 
L 29 5.171875 
L 29 0 
z
" id="DejaVuSerif-104"/>
     <path d="M 12.796875 55.515625 
L 7.328125 55.515625 
L 7.328125 68.5 
Q 12.546875 71.296875 17.84375 72.75 
Q 23.140625 74.21875 28.21875 74.21875 
Q 39.59375 74.21875 46.1875 68.703125 
Q 52.78125 63.1875 52.78125 53.71875 
Q 52.78125 43.015625 37.84375 28.125 
Q 36.671875 27 36.078125 26.421875 
L 17.671875 8.015625 
L 48.09375 8.015625 
L 48.09375 17 
L 53.8125 17 
L 53.8125 0 
L 6.78125 0 
L 6.78125 5.328125 
L 28.90625 27.390625 
Q 36.234375 34.71875 39.359375 40.84375 
Q 42.484375 46.96875 42.484375 53.71875 
Q 42.484375 61.078125 38.640625 65.234375 
Q 34.8125 69.390625 28.078125 69.390625 
Q 21.09375 69.390625 17.28125 65.921875 
Q 13.484375 62.453125 12.796875 55.515625 
z
" id="DejaVuSerif-50"/>
    </defs>
    <g transform="translate(57.828015 526.523358)scale(0.15 -0.15)">
     <use xlink:href="#DejaVuSerif-76"/>
     <use x="66.40625" xlink:href="#DejaVuSerif-117"/>
     <use x="130.810547" xlink:href="#DejaVuSerif-99"/>
     <use x="186.816406" xlink:href="#DejaVuSerif-104"/>
     <use x="251.220703" xlink:href="#DejaVuSerif-97"/>
     <use x="310.839844" xlink:href="#DejaVuSerif-100"/>
     <use x="374.853516" xlink:href="#DejaVuSerif-111"/>
     <use x="435.058594" xlink:href="#DejaVuSerif-114"/>
     <use x="482.861328" xlink:href="#DejaVuSerif-58"/>
     <use x="516.552734" xlink:href="#DejaVuSerif-32"/>
     <use x="548.339844" xlink:href="#DejaVuSerif-51"/>
     <use x="611.962891" xlink:href="#DejaVuSerif-50"/>
    </g>
   </g>
   <g id="patch_16">
    <path d="M 168.766945 616.229502 
L 219.440751 553.330188 
" style="fill:none;stroke:#000000;stroke-linecap:round;stroke-width:3;"/>
   </g>
   <g id="text_8">
    <g id="patch_17">
     <path d="M 110.138222 642.617591 
L 204.478847 642.617591 
L 204.478847 618.287122 
L 110.138222 618.287122 
z
" style="fill:#ffffff;stroke:#000000;stroke-linejoin:miter;"/>
    </g>
    <!-- Dragón: 32 -->
    <defs>
     <path d="M 24.703125 5.171875 
L 33.796875 5.171875 
Q 48 5.171875 55.59375 13.28125 
Q 63.1875 21.390625 63.1875 36.53125 
Q 63.1875 51.65625 55.609375 59.65625 
Q 48.046875 67.671875 33.796875 67.671875 
L 24.703125 67.671875 
z
M 5.515625 0 
L 5.515625 5.171875 
L 14.796875 5.171875 
L 14.796875 67.671875 
L 5.515625 67.671875 
L 5.515625 72.90625 
L 34.515625 72.90625 
Q 53.375 72.90625 63.890625 63.28125 
Q 74.421875 53.65625 74.421875 36.53125 
Q 74.421875 19.34375 63.875 9.671875 
Q 53.328125 0 34.515625 0 
z
" id="DejaVuSerif-68"/>
     <path d="M 52.484375 46.6875 
L 52.484375 1.125 
Q 52.484375 -10.0625 46.328125 -16.140625 
Q 40.1875 -22.21875 28.8125 -22.21875 
Q 23.6875 -22.21875 19 -21.28125 
Q 14.3125 -20.359375 10.015625 -18.5 
L 10.015625 -7.625 
L 14.703125 -7.625 
Q 15.578125 -12.703125 18.84375 -15.046875 
Q 22.125 -17.390625 28.21875 -17.390625 
Q 36.140625 -17.390625 39.8125 -12.921875 
Q 43.5 -8.453125 43.5 1.125 
L 43.5 8.109375 
Q 40.875 3.21875 36.796875 0.890625 
Q 32.71875 -1.421875 26.703125 -1.421875 
Q 17.140625 -1.421875 11.0625 6.171875 
Q 4.984375 13.765625 4.984375 25.984375 
Q 4.984375 38.1875 11.03125 45.75 
Q 17.09375 53.328125 26.703125 53.328125 
Q 32.71875 53.328125 36.796875 51 
Q 40.875 48.6875 43.5 43.796875 
L 43.5 51.90625 
L 61.078125 51.90625 
L 61.078125 46.6875 
z
M 43.5 28.515625 
Q 43.5 37.84375 39.90625 42.765625 
Q 36.328125 47.703125 29.5 47.703125 
Q 22.5625 47.703125 19.015625 42.234375 
Q 15.484375 36.765625 15.484375 25.984375 
Q 15.484375 15.234375 19.015625 9.71875 
Q 22.5625 4.203125 29.5 4.203125 
Q 36.328125 4.203125 39.90625 9.109375 
Q 43.5 14.015625 43.5 23.390625 
z
" id="DejaVuSerif-103"/>
    </defs>
    <g transform="translate(114.638222 634.784778)scale(0.15 -0.15)">
     <use xlink:href="#DejaVuSerif-68"/>
     <use x="80.175781" xlink:href="#DejaVuSerif-114"/>
     <use x="127.978516" xlink:href="#DejaVuSerif-97"/>
     <use x="187.597656" xlink:href="#DejaVuSerif-103"/>
     <use x="251.611328" xlink:href="#DejaVuSerif-243"/>
     <use x="311.816406" xlink:href="#DejaVuSerif-110"/>
     <use x="376.220703" xlink:href="#DejaVuSerif-58"/>
     <use x="409.912109" xlink:href="#DejaVuSerif-32"/>
     <use x="441.699219" xlink:href="#DejaVuSerif-51"/>
     <use x="505.322266" xlink:href="#DejaVuSerif-50"/>
    </g>
   </g>
   <g id="patch_18">
    <path d="M 268.703144 637.767287 
L 285.585374 590.341015 
" style="fill:none;stroke:#000000;stroke-linecap:round;stroke-width:3;"/>
   </g>
   <g id="text_9">
    <g id="patch_19">
     <path d="M 205.629426 663.668351 
L 321.708332 663.668351 
L 321.708332 640.151163 
L 205.629426 640.151163 
z
" style="fill:#ffffff;stroke:#000000;stroke-linejoin:miter;"/>
    </g>
    <!-- Oscuridad: 26 -->
    <defs>
     <path d="M 41.015625 3.8125 
Q 52.984375 3.8125 59.078125 12.03125 
Q 65.1875 20.265625 65.1875 36.375 
Q 65.1875 52.546875 59.078125 60.765625 
Q 52.984375 69 41.015625 69 
Q 29 69 22.890625 60.765625 
Q 16.796875 52.546875 16.796875 36.375 
Q 16.796875 20.265625 22.890625 12.03125 
Q 29 3.8125 41.015625 3.8125 
z
M 41.015625 -1.421875 
Q 33.59375 -1.421875 27.359375 1.015625 
Q 21.140625 3.46875 16.40625 8.203125 
Q 10.9375 13.671875 8.265625 20.609375 
Q 5.609375 27.546875 5.609375 36.375 
Q 5.609375 45.21875 8.265625 52.171875 
Q 10.9375 59.125 16.40625 64.59375 
Q 21.1875 69.390625 27.34375 71.796875 
Q 33.5 74.21875 41.015625 74.21875 
Q 56.890625 74.21875 66.65625 63.8125 
Q 76.421875 53.421875 76.421875 36.375 
Q 76.421875 27.640625 73.734375 20.625 
Q 71.046875 13.625 65.578125 8.203125 
Q 60.796875 3.421875 54.640625 1 
Q 48.484375 -1.421875 41.015625 -1.421875 
z
" id="DejaVuSerif-79"/>
     <path d="M 32.71875 3.421875 
Q 39.59375 3.421875 43.296875 8.46875 
Q 47.015625 13.53125 47.015625 23 
Q 47.015625 32.46875 43.296875 37.515625 
Q 39.59375 42.578125 32.71875 42.578125 
Q 25.734375 42.578125 22.0625 37.6875 
Q 18.40625 32.8125 18.40625 23.578125 
Q 18.40625 13.875 22.109375 8.640625 
Q 25.828125 3.421875 32.71875 3.421875 
z
M 16.796875 40.140625 
Q 20.125 43.796875 24.3125 45.59375 
Q 28.515625 47.40625 33.796875 47.40625 
Q 44.671875 47.40625 51 40.859375 
Q 57.328125 34.328125 57.328125 23 
Q 57.328125 11.921875 50.515625 5.25 
Q 43.703125 -1.421875 32.328125 -1.421875 
Q 19.96875 -1.421875 13.328125 7.78125 
Q 6.6875 17 6.6875 34.078125 
Q 6.6875 53.21875 14.546875 63.71875 
Q 22.40625 74.21875 36.71875 74.21875 
Q 40.578125 74.21875 44.828125 73.484375 
Q 49.078125 72.75 53.515625 71.296875 
L 53.515625 59.28125 
L 48 59.28125 
Q 47.40625 64.203125 44.234375 66.796875 
Q 41.0625 69.390625 35.6875 69.390625 
Q 26.21875 69.390625 21.578125 62.203125 
Q 16.9375 55.03125 16.796875 40.140625 
z
" id="DejaVuSerif-54"/>
    </defs>
    <g transform="translate(210.129426 656.048819)scale(0.15 -0.15)">
     <use xlink:href="#DejaVuSerif-79"/>
     <use x="81.982422" xlink:href="#DejaVuSerif-115"/>
     <use x="133.300781" xlink:href="#DejaVuSerif-99"/>
     <use x="189.306641" xlink:href="#DejaVuSerif-117"/>
     <use x="253.710938" xlink:href="#DejaVuSerif-114"/>
     <use x="301.513672" xlink:href="#DejaVuSerif-105"/>
     <use x="333.496094" xlink:href="#DejaVuSerif-100"/>
     <use x="397.509766" xlink:href="#DejaVuSerif-97"/>
     <use x="457.128906" xlink:href="#DejaVuSerif-100"/>
     <use x="521.142578" xlink:href="#DejaVuSerif-58"/>
     <use x="554.833984" xlink:href="#DejaVuSerif-32"/>
     <use x="586.621094" xlink:href="#DejaVuSerif-50"/>
     <use x="650.244141" xlink:href="#DejaVuSerif-54"/>
    </g>
   </g>
   <g id="patch_20">
    <path d="M 348.924728 687.963343 
L 352.363046 603.268096 
" style="fill:none;stroke:#000000;stroke-linecap:round;stroke-width:3;"/>
   </g>
   <g id="text_10">
    <g id="patch_21">
     <path d="M 305.158767 713.98066 
L 391.532986 713.98066 
L 391.532986 690.463473 
L 305.158767 690.463473 
z
" style="fill:#ffffff;stroke:#000000;stroke-linejoin:miter;"/>
    </g>
    <!-- Planta: 26 -->
    <defs>
     <path d="M 10.796875 46.6875 
L 2.875 46.6875 
L 2.875 51.90625 
L 10.796875 51.90625 
L 10.796875 68.015625 
L 19.828125 68.015625 
L 19.828125 51.90625 
L 36.71875 51.90625 
L 36.71875 46.6875 
L 19.828125 46.6875 
L 19.828125 13.71875 
Q 19.828125 7.125 21.09375 5.265625 
Q 22.359375 3.421875 25.78125 3.421875 
Q 29.296875 3.421875 30.90625 5.484375 
Q 32.515625 7.5625 32.625 12.203125 
L 39.40625 12.203125 
Q 39.015625 5.125 35.546875 1.84375 
Q 32.078125 -1.421875 25 -1.421875 
Q 17.234375 -1.421875 14.015625 2.015625 
Q 10.796875 5.46875 10.796875 13.71875 
z
" id="DejaVuSerif-116"/>
    </defs>
    <g transform="translate(309.658767 706.361129)scale(0.15 -0.15)">
     <use xlink:href="#DejaVuSerif-80"/>
     <use x="67.285156" xlink:href="#DejaVuSerif-108"/>
     <use x="99.267578" xlink:href="#DejaVuSerif-97"/>
     <use x="158.886719" xlink:href="#DejaVuSerif-110"/>
     <use x="223.291016" xlink:href="#DejaVuSerif-116"/>
     <use x="263.476562" xlink:href="#DejaVuSerif-97"/>
     <use x="323.095703" xlink:href="#DejaVuSerif-58"/>
     <use x="356.787109" xlink:href="#DejaVuSerif-32"/>
     <use x="388.574219" xlink:href="#DejaVuSerif-50"/>
     <use x="452.197266" xlink:href="#DejaVuSerif-54"/>
    </g>
   </g>
   <g id="patch_22">
    <path d="M 431.486749 645.179301 
L 418.697736 596.12556 
" style="fill:none;stroke:#000000;stroke-linecap:round;stroke-width:3;"/>
   </g>
   <g id="text_11">
    <g id="patch_23">
     <path d="M 378.81478 671.12931 
L 491.55853 671.12931 
L 491.55853 647.612122 
L 378.81478 647.612122 
z
" style="fill:#ffffff;stroke:#000000;stroke-linejoin:miter;"/>
    </g>
    <!-- Fantasma: 25 -->
    <defs>
     <path d="M 5.515625 0 
L 5.515625 5.171875 
L 14.796875 5.171875 
L 14.796875 67.671875 
L 5.515625 67.671875 
L 5.515625 72.90625 
L 65.1875 72.90625 
L 65.1875 56.6875 
L 59.1875 56.6875 
L 59.1875 66.890625 
L 24.703125 66.890625 
L 24.703125 42.484375 
L 49.609375 42.484375 
L 49.609375 51.609375 
L 55.609375 51.609375 
L 55.609375 27.390625 
L 49.609375 27.390625 
L 49.609375 36.53125 
L 24.703125 36.53125 
L 24.703125 5.171875 
L 36.375 5.171875 
L 36.375 0 
z
" id="DejaVuSerif-70"/>
     <path d="M 51.8125 41.796875 
Q 54.390625 47.515625 58.421875 50.421875 
Q 62.453125 53.328125 67.828125 53.328125 
Q 75.984375 53.328125 79.984375 48.265625 
Q 83.984375 43.21875 83.984375 33.015625 
L 83.984375 5.171875 
L 92.09375 5.171875 
L 92.09375 0 
L 67.1875 0 
L 67.1875 5.171875 
L 75 5.171875 
L 75 31.984375 
Q 75 39.9375 72.65625 43.3125 
Q 70.3125 46.6875 64.890625 46.6875 
Q 58.890625 46.6875 55.734375 42.140625 
Q 52.59375 37.59375 52.59375 28.90625 
L 52.59375 5.171875 
L 60.40625 5.171875 
L 60.40625 0 
L 35.796875 0 
L 35.796875 5.171875 
L 43.609375 5.171875 
L 43.609375 32.328125 
Q 43.609375 40.09375 41.265625 43.390625 
Q 38.921875 46.6875 33.5 46.6875 
Q 27.484375 46.6875 24.328125 42.140625 
Q 21.1875 37.59375 21.1875 28.90625 
L 21.1875 5.171875 
L 29 5.171875 
L 29 0 
L 4.109375 0 
L 4.109375 5.171875 
L 12.203125 5.171875 
L 12.203125 46.78125 
L 3.609375 46.78125 
L 3.609375 51.90625 
L 21.1875 51.90625 
L 21.1875 42.671875 
Q 23.6875 47.859375 27.53125 50.59375 
Q 31.390625 53.328125 36.28125 53.328125 
Q 42.328125 53.328125 46.375 50.3125 
Q 50.4375 47.3125 51.8125 41.796875 
z
" id="DejaVuSerif-109"/>
    </defs>
    <g transform="translate(383.31478 663.509778)scale(0.15 -0.15)">
     <use xlink:href="#DejaVuSerif-70"/>
     <use x="69.291016" xlink:href="#DejaVuSerif-97"/>
     <use x="128.910156" xlink:href="#DejaVuSerif-110"/>
     <use x="193.314453" xlink:href="#DejaVuSerif-116"/>
     <use x="233.5" xlink:href="#DejaVuSerif-97"/>
     <use x="293.119141" xlink:href="#DejaVuSerif-115"/>
     <use x="344.4375" xlink:href="#DejaVuSerif-109"/>
     <use x="439.261719" xlink:href="#DejaVuSerif-97"/>
     <use x="498.880859" xlink:href="#DejaVuSerif-58"/>
     <use x="532.572266" xlink:href="#DejaVuSerif-32"/>
     <use x="564.359375" xlink:href="#DejaVuSerif-50"/>
     <use x="627.982422" xlink:href="#DejaVuSerif-53"/>
    </g>
   </g>
   <g id="patch_24">
    <path d="M 512.668265 647.048085 
L 472.148458 574.620928 
" style="fill:none;stroke:#000000;stroke-linecap:round;stroke-width:3;"/>
   </g>
   <g id="text_12">
    <g id="patch_25">
     <path d="M 481.25532 672.808045 
L 559.747507 672.808045 
L 559.747507 649.290858 
L 481.25532 649.290858 
z
" style="fill:#ffffff;stroke:#000000;stroke-linejoin:miter;"/>
    </g>
    <!-- Hielo: 19 -->
    <g transform="translate(485.75532 665.188514)scale(0.15 -0.15)">
     <use xlink:href="#DejaVuSerif-72"/>
     <use x="87.207031" xlink:href="#DejaVuSerif-105"/>
     <use x="119.189453" xlink:href="#DejaVuSerif-101"/>
     <use x="178.369141" xlink:href="#DejaVuSerif-108"/>
     <use x="210.351562" xlink:href="#DejaVuSerif-111"/>
     <use x="270.556641" xlink:href="#DejaVuSerif-58"/>
     <use x="304.248047" xlink:href="#DejaVuSerif-32"/>
     <use x="336.035156" xlink:href="#DejaVuSerif-49"/>
     <use x="399.658203" xlink:href="#DejaVuSerif-57"/>
    </g>
   </g>
   <g id="patch_26">
    <path d="M 543.957021 580.621392 
L 512.669668 545.683678 
" style="fill:none;stroke:#000000;stroke-linecap:round;stroke-width:3;"/>
   </g>
   <g id="text_13">
    <g id="patch_27">
     <path d="M 517.794423 606.127593 
L 594.742079 606.127593 
L 594.742079 582.610405 
L 517.794423 582.610405 
z
" style="fill:#ffffff;stroke:#000000;stroke-linejoin:miter;"/>
    </g>
    <!-- Agua: 19 -->
    <g transform="translate(522.294423 598.29478)scale(0.15 -0.15)">
     <use xlink:href="#DejaVuSerif-65"/>
     <use x="72.216797" xlink:href="#DejaVuSerif-103"/>
     <use x="136.230469" xlink:href="#DejaVuSerif-117"/>
     <use x="200.634766" xlink:href="#DejaVuSerif-97"/>
     <use x="260.253906" xlink:href="#DejaVuSerif-58"/>
     <use x="293.945312" xlink:href="#DejaVuSerif-32"/>
     <use x="325.732422" xlink:href="#DejaVuSerif-49"/>
     <use x="389.355469" xlink:href="#DejaVuSerif-57"/>
    </g>
   </g>
   <g id="patch_28">
    <path d="M 605.89959 555.765124 
L 544.348284 510.717596 
" style="fill:none;stroke:#000000;stroke-linecap:round;stroke-width:3;"/>
   </g>
   <g id="text_14">
    <g id="patch_29">
     <path d="M 581.520408 580.964472 
L 667.008689 580.964472 
L 667.008689 557.447285 
L 581.520408 557.447285 
z
" style="fill:#ffffff;stroke:#000000;stroke-linejoin:miter;"/>
    </g>
    <!-- Fuego: 17 -->
    <defs>
     <path d="M 56.390625 67.921875 
L 27.875 0 
L 20.609375 0 
L 47.796875 64.890625 
L 14.109375 64.890625 
L 14.109375 55.90625 
L 8.40625 55.90625 
L 8.40625 72.90625 
L 56.390625 72.90625 
z
" id="DejaVuSerif-55"/>
    </defs>
    <g transform="translate(586.020408 573.13166)scale(0.15 -0.15)">
     <use xlink:href="#DejaVuSerif-70"/>
     <use x="69.384766" xlink:href="#DejaVuSerif-117"/>
     <use x="133.789062" xlink:href="#DejaVuSerif-101"/>
     <use x="192.96875" xlink:href="#DejaVuSerif-103"/>
     <use x="256.982422" xlink:href="#DejaVuSerif-111"/>
     <use x="317.1875" xlink:href="#DejaVuSerif-58"/>
     <use x="350.878906" xlink:href="#DejaVuSerif-32"/>
     <use x="382.666016" xlink:href="#DejaVuSerif-49"/>
     <use x="446.289062" xlink:href="#DejaVuSerif-55"/>
    </g>
   </g>
   <g id="patch_30">
    <path d="M 597.410799 489.797089 
L 565.881924 474.709954 
" style="fill:none;stroke:#000000;stroke-linecap:round;stroke-width:3;"/>
   </g>
   <g id="text_15">
    <g id="patch_31">
     <path d="M 587.049604 514.680039 
L 662.626166 514.680039 
L 662.626166 491.162851 
L 587.049604 491.162851 
z
" style="fill:#ffffff;stroke:#000000;stroke-linejoin:miter;"/>
    </g>
    <!-- Roca: 15 -->
    <defs>
     <path d="M 47.90625 36.1875 
Q 51.3125 35.25 53.78125 33.03125 
Q 56.25 30.8125 58.203125 26.8125 
L 68.796875 5.171875 
L 77.6875 5.171875 
L 77.6875 0 
L 60.5 0 
L 49.125 23.1875 
Q 45.84375 29.9375 43.109375 31.90625 
Q 40.375 33.890625 35.59375 33.890625 
L 24.703125 33.890625 
L 24.703125 5.171875 
L 35.015625 5.171875 
L 35.015625 0 
L 5.515625 0 
L 5.515625 5.171875 
L 14.796875 5.171875 
L 14.796875 67.671875 
L 5.515625 67.671875 
L 5.515625 72.90625 
L 42.484375 72.90625 
Q 53.125 72.90625 58.90625 67.828125 
Q 64.703125 62.75 64.703125 53.421875 
Q 64.703125 45.90625 60.46875 41.578125 
Q 56.25 37.25 47.90625 36.1875 
z
M 24.703125 39.109375 
L 39.109375 39.109375 
Q 46.484375 39.109375 50 42.59375 
Q 53.515625 46.09375 53.515625 53.421875 
Q 53.515625 60.75 50 64.203125 
Q 46.484375 67.671875 39.109375 67.671875 
L 24.703125 67.671875 
z
" id="DejaVuSerif-82"/>
    </defs>
    <g transform="translate(591.549604 507.060507)scale(0.15 -0.15)">
     <use xlink:href="#DejaVuSerif-82"/>
     <use x="75.292969" xlink:href="#DejaVuSerif-111"/>
     <use x="135.498047" xlink:href="#DejaVuSerif-99"/>
     <use x="191.503906" xlink:href="#DejaVuSerif-97"/>
     <use x="251.123047" xlink:href="#DejaVuSerif-58"/>
     <use x="284.814453" xlink:href="#DejaVuSerif-32"/>
     <use x="316.601562" xlink:href="#DejaVuSerif-49"/>
     <use x="380.224609" xlink:href="#DejaVuSerif-53"/>
    </g>
   </g>
   <g id="patch_32">
    <path d="M 630.822524 458.936292 
L 578.246208 442.925022 
" style="fill:none;stroke:#000000;stroke-linecap:round;stroke-width:3;"/>
   </g>
   <g id="text_16">
    <g id="patch_33">
     <path d="M 625.386843 483.535112 
L 720.58528 483.535112 
L 720.58528 460.017924 
L 625.386843 460.017924 
z
" style="fill:#ffffff;stroke:#000000;stroke-linejoin:miter;"/>
    </g>
    <!-- Normal: 11 -->
    <defs>
     <path d="M 4.890625 0 
L 4.890625 5.171875 
L 14.703125 5.171875 
L 14.703125 67.671875 
L 4.890625 67.671875 
L 4.890625 72.90625 
L 23.578125 72.90625 
L 67.28125 15.375 
L 67.28125 67.671875 
L 57.515625 67.671875 
L 57.515625 72.90625 
L 83.109375 72.90625 
L 83.109375 67.671875 
L 73.296875 67.671875 
L 73.296875 -1.421875 
L 67.390625 -1.421875 
L 20.703125 60.015625 
L 20.703125 5.171875 
L 30.515625 5.171875 
L 30.515625 0 
z
" id="DejaVuSerif-78"/>
    </defs>
    <g transform="translate(629.886843 475.91558)scale(0.15 -0.15)">
     <use xlink:href="#DejaVuSerif-78"/>
     <use x="87.5" xlink:href="#DejaVuSerif-111"/>
     <use x="147.705078" xlink:href="#DejaVuSerif-114"/>
     <use x="195.507812" xlink:href="#DejaVuSerif-109"/>
     <use x="290.332031" xlink:href="#DejaVuSerif-97"/>
     <use x="349.951172" xlink:href="#DejaVuSerif-108"/>
     <use x="381.933594" xlink:href="#DejaVuSerif-58"/>
     <use x="415.625" xlink:href="#DejaVuSerif-32"/>
     <use x="447.412109" xlink:href="#DejaVuSerif-49"/>
     <use x="511.035156" xlink:href="#DejaVuSerif-49"/>
    </g>
   </g>
   <g id="patch_34">
    <path d="M 593.665528 416.322448 
L 584.880563 414.831693 
" style="fill:none;stroke:#000000;stroke-linecap:round;stroke-width:3;"/>
   </g>
   <g id="text_17">
    <g id="patch_35">
     <path d="M 596.135576 437.52446 
L 702.494951 437.52446 
L 702.494951 414.007273 
L 596.135576 414.007273 
z
" style="fill:#ffffff;stroke:#000000;stroke-linejoin:miter;"/>
    </g>
    <!-- Eléctrico: 11 -->
    <defs>
     <path d="M 5.515625 0 
L 5.515625 5.171875 
L 14.796875 5.171875 
L 14.796875 67.671875 
L 5.515625 67.671875 
L 5.515625 72.90625 
L 64.203125 72.90625 
L 64.203125 56.6875 
L 58.203125 56.6875 
L 58.203125 66.890625 
L 24.703125 66.890625 
L 24.703125 42.484375 
L 48.578125 42.484375 
L 48.578125 51.609375 
L 54.59375 51.609375 
L 54.59375 27.390625 
L 48.578125 27.390625 
L 48.578125 36.53125 
L 24.703125 36.53125 
L 24.703125 6 
L 58.984375 6 
L 58.984375 16.21875 
L 64.984375 16.21875 
L 64.984375 0 
z
" id="DejaVuSerif-69"/>
     <path d="M 54.203125 25 
L 15.484375 25 
L 15.484375 24.609375 
Q 15.484375 14.109375 19.4375 8.765625 
Q 23.390625 3.421875 31.109375 3.421875 
Q 37.015625 3.421875 40.796875 6.515625 
Q 44.578125 9.625 46.09375 15.71875 
L 53.328125 15.71875 
Q 51.171875 7.171875 45.375 2.875 
Q 39.59375 -1.421875 30.171875 -1.421875 
Q 18.796875 -1.421875 11.890625 6.078125 
Q 4.984375 13.578125 4.984375 25.984375 
Q 4.984375 38.28125 11.765625 45.796875 
Q 18.5625 53.328125 29.59375 53.328125 
Q 41.359375 53.328125 47.65625 46.0625 
Q 53.953125 38.8125 54.203125 25 
z
M 43.609375 30.171875 
Q 43.3125 39.265625 39.765625 43.875 
Q 36.234375 48.484375 29.59375 48.484375 
Q 23.390625 48.484375 19.828125 43.84375 
Q 16.265625 39.203125 15.484375 30.171875 
z
M 36.375 79.984375 
L 46.09375 79.984375 
L 29.5 61.625 
L 23.78125 61.625 
z
" id="DejaVuSerif-233"/>
    </defs>
    <g transform="translate(600.635576 429.904929)scale(0.15 -0.15)">
     <use xlink:href="#DejaVuSerif-69"/>
     <use x="72.998047" xlink:href="#DejaVuSerif-108"/>
     <use x="104.980469" xlink:href="#DejaVuSerif-233"/>
     <use x="164.160156" xlink:href="#DejaVuSerif-99"/>
     <use x="220.166016" xlink:href="#DejaVuSerif-116"/>
     <use x="260.351562" xlink:href="#DejaVuSerif-114"/>
     <use x="308.154297" xlink:href="#DejaVuSerif-105"/>
     <use x="340.136719" xlink:href="#DejaVuSerif-99"/>
     <use x="396.142578" xlink:href="#DejaVuSerif-111"/>
     <use x="456.347656" xlink:href="#DejaVuSerif-58"/>
     <use x="490.039062" xlink:href="#DejaVuSerif-32"/>
     <use x="521.826172" xlink:href="#DejaVuSerif-49"/>
     <use x="585.449219" xlink:href="#DejaVuSerif-49"/>
    </g>
   </g>
   <g id="patch_36">
    <path d="M 648.528579 391.918342 
L 587.763025 388.745527 
" style="fill:none;stroke:#000000;stroke-linecap:round;stroke-width:3;"/>
   </g>
   <g id="text_18">
    <g id="patch_37">
     <path d="M 651.026513 405.668162 
L 722.302294 405.668162 
L 722.302294 382.150974 
L 651.026513 382.150974 
z
" style="fill:#ffffff;stroke:#000000;stroke-linejoin:miter;"/>
    </g>
    <!-- Bicho: 9 -->
    <defs>
     <path d="M 24.703125 5.171875 
L 39.3125 5.171875 
Q 48.09375 5.171875 52.140625 8.984375 
Q 56.203125 12.796875 56.203125 21.09375 
Q 56.203125 29.34375 52.171875 33.125 
Q 48.140625 36.921875 39.3125 36.921875 
L 24.703125 36.921875 
z
M 24.703125 42.09375 
L 37.109375 42.09375 
Q 45.125 42.09375 48.796875 45.171875 
Q 52.484375 48.25 52.484375 54.890625 
Q 52.484375 61.578125 48.796875 64.625 
Q 45.125 67.671875 37.109375 67.671875 
L 24.703125 67.671875 
z
M 5.515625 0 
L 5.515625 5.171875 
L 14.796875 5.171875 
L 14.796875 67.671875 
L 5.515625 67.671875 
L 5.515625 72.90625 
L 41.5 72.90625 
Q 52.546875 72.90625 58.125 68.390625 
Q 63.71875 63.875 63.71875 54.890625 
Q 63.71875 48.390625 59.828125 44.53125 
Q 55.953125 40.671875 48.484375 39.796875 
Q 57.765625 38.625 62.578125 33.859375 
Q 67.390625 29.109375 67.390625 21.09375 
Q 67.390625 10.25 60.546875 5.125 
Q 53.71875 0 39.203125 0 
z
" id="DejaVuSerif-66"/>
    </defs>
    <g transform="translate(655.526513 398.048631)scale(0.15 -0.15)">
     <use xlink:href="#DejaVuSerif-66"/>
     <use x="73.486328" xlink:href="#DejaVuSerif-105"/>
     <use x="105.46875" xlink:href="#DejaVuSerif-99"/>
     <use x="161.474609" xlink:href="#DejaVuSerif-104"/>
     <use x="225.878906" xlink:href="#DejaVuSerif-111"/>
     <use x="286.083984" xlink:href="#DejaVuSerif-58"/>
     <use x="319.775391" xlink:href="#DejaVuSerif-32"/>
     <use x="351.5625" xlink:href="#DejaVuSerif-57"/>
    </g>
   </g>
   <g id="patch_38">
    <path d="M 581.738709 363.67398 
C 581.738709 320.767818 568.073052 278.956775 542.732875 244.332878 
C 517.392699 209.708981 481.671547 184.039683 440.774128 171.065098 
L 379.669529 363.67398 
L 581.738709 363.67398 
z
" style="fill:#8ca8d7;"/>
   </g>
   <g id="patch_39">
    <path d="M 424.21639 161.927379 
C 408.940744 157.081226 393.142677 154.069481 377.155494 152.955687 
C 361.168311 151.841893 345.105242 152.633938 329.305183 155.315111 
L 363.111791 354.536261 
L 424.21639 161.927379 
z
" style="fill:#fdb9e9;"/>
   </g>
   <g id="patch_40">
    <path d="M 319.122664 156.98236 
C 304.095017 159.53246 289.404046 163.774738 275.330299 169.628183 
C 261.256553 175.481627 247.890192 182.908737 235.486472 191.767681 
L 352.929272 356.203511 
L 319.122664 156.98236 
z
" style="fill:#d79877;"/>
   </g>
   <g id="patch_41">
    <path d="M 227.382818 197.520052 
C 215.297791 206.151379 204.201033 216.088726 194.293765 227.151896 
C 184.386497 238.215066 175.728966 250.336783 168.478159 263.297242 
L 344.825618 361.955882 
L 227.382818 197.520052 
z
" style="fill:#b97fc9;"/>
   </g>
   <g id="patch_42">
    <path d="M 163.688115 271.85921 
C 156.437309 284.81967 150.63732 298.540056 146.393323 312.771577 
C 142.149325 327.003098 139.487126 341.659208 138.455 356.474147 
L 340.035574 370.51785 
L 163.688115 271.85921 
z
" style="fill:#f366b9;"/>
   </g>
   <g id="patch_43">
    <path d="M 137.717898 365.874743 
C 136.767401 379.517995 137.204445 393.222567 139.022306 406.777535 
C 140.840166 420.332503 144.029468 433.667969 148.541125 446.57869 
L 339.298472 379.918446 
L 137.717898 365.874743 
z
" style="fill:#9eb7b8;"/>
   </g>
   <g id="patch_44">
    <path d="M 151.328263 454.782823 
C 155.452629 466.585256 160.663459 477.979489 166.893683 488.818867 
C 173.123908 499.658244 180.346682 509.896059 188.469038 519.400538 
L 342.08561 388.122579 
L 151.328263 454.782823 
z
" style="fill:#d56723;"/>
   </g>
   <g id="patch_45">
    <path d="M 193.849094 525.696079 
C 201.971451 535.200558 210.958392 543.930747 220.694245 551.774277 
C 230.430097 559.617808 240.87291 566.540884 251.888271 572.454395 
L 347.465666 394.41812 
L 193.849094 525.696079 
z
" style="fill:#a2535f;"/>
   </g>
   <g id="patch_46">
    <path d="M 258.444562 576.122351 
C 267.392367 580.925911 276.689583 585.048091 286.257148 588.453837 
C 295.824714 591.859583 305.635431 594.539213 315.605872 596.469941 
L 354.021956 398.086076 
L 258.444562 576.122351 
z
" style="fill:#707070;"/>
   </g>
   <g id="patch_47">
    <path d="M 322.224571 597.751621 
C 332.195012 599.682349 342.296835 600.858686 352.444136 601.270629 
C 362.591437 601.682573 372.75537 601.328951 382.849505 600.212771 
L 360.640655 399.367755 
L 322.224571 597.751621 
z
" style="fill:#9bcc50;"/>
   </g>
   <g id="patch_48">
    <path d="M 389.424481 599.505012 
C 399.130033 598.431801 408.745041 596.656489 418.193899 594.193036 
C 427.642758 591.729583 436.900636 588.584463 445.894739 584.782406 
L 367.215632 398.659996 
L 389.424481 599.505012 
z
" style="fill:#7b62a3;"/>
   </g>
   <g id="patch_49">
    <path d="M 451.192559 582.650675 
C 458.026815 579.761645 464.696764 576.498384 471.172093 572.875722 
C 477.647422 569.253061 483.918307 565.276495 489.956251 560.964095 
L 372.513451 396.528265 
L 451.192559 582.650675 
z
" style="fill:#51c4e7;"/>
   </g>
   <g id="patch_50">
    <path d="M 493.9724 558.095694 
C 500.010344 553.783294 505.806187 549.141603 511.333589 544.191715 
C 516.86099 539.241827 522.111566 533.991252 527.061453 528.46385 
L 376.5296 393.659864 
L 493.9724 558.095694 
z
" style="fill:#4592c4;"/>
   </g>
   <g id="patch_51">
    <path d="M 530.201382 524.998211 
C 534.630006 520.052891 538.812243 514.892337 542.732875 509.535327 
C 546.653507 504.178318 550.307774 498.631358 553.682378 492.914632 
L 379.669529 390.194225 
L 530.201382 524.998211 
z
" style="fill:#fd7d24;"/>
   </g>
   <g id="patch_52">
    <path d="M 555.817036 489.345844 
C 558.794495 484.3019 561.55124 479.130882 564.079461 473.847443 
C 566.607682 468.564004 568.904989 463.173137 570.964873 457.690117 
L 381.804188 386.625437 
L 555.817036 489.345844 
z
" style="fill:#a38c21;"/>
   </g>
   <g id="patch_53">
    <path d="M 572.190318 454.539639 
C 573.70079 450.51905 575.082692 446.451326 576.333919 442.342665 
C 577.585145 438.234004 578.70506 434.086496 579.691956 429.90646 
L 383.029633 383.474959 
L 572.190318 454.539639 
z
" style="fill:#a4acaf;"/>
   </g>
   <g id="patch_54">
    <path d="M 580.349386 427.121894 
C 581.336282 422.941858 582.189658 418.731421 582.908214 414.496998 
C 583.626769 410.262575 584.210139 406.006319 584.657434 401.734717 
L 383.687063 380.690392 
L 580.349386 427.121894 
z
" style="fill:#eed535;"/>
   </g>
   <g id="patch_55">
    <path d="M 584.943338 399.149149 
C 585.309296 395.654299 585.58403 392.150498 585.767258 388.64132 
C 585.950486 385.132143 586.042147 381.618782 586.042147 378.104824 
L 383.972967 378.104824 
L 584.943338 399.149149 
z
" style="fill:#729f3f;"/>
   </g>
   <g id="patch_56">
    <path clip-path="url(#pe1efb039ed)" d="M 361.55138 545.325086 
C 406.20919 545.325086 449.043945 527.58235 480.621786 496.004509 
C 512.199627 464.426668 529.942363 421.591913 529.942363 376.934103 
C 529.942363 332.276292 512.199627 289.441537 480.621786 257.863697 
C 449.043945 226.285856 406.20919 208.543119 361.55138 208.543119 
C 316.893569 208.543119 274.058814 226.285856 242.480973 257.863697 
C 210.903133 289.441537 193.160396 332.276292 193.160396 376.934103 
C 193.160396 421.591913 210.903133 464.426668 242.480973 496.004509 
C 274.058814 527.58235 316.893569 545.325086 361.55138 545.325086 
z
" style="fill:#ffffff;"/>
   </g>
   <g id="matplotlib.axis_1"/>
   <g id="matplotlib.axis_2"/>
   <g id="text_19">
    <!-- # de Pokémon por segundo tipo -->
    <defs>
     <path d="M 50.875 44 
L 37.109375 44 
L 33.015625 27.6875 
L 46.921875 27.6875 
z
M 44 71.78125 
L 39.015625 51.515625 
L 52.78125 51.515625 
L 57.8125 71.78125 
L 66.21875 71.78125 
L 61.078125 51.515625 
L 76.125 51.515625 
L 76.125 44 
L 59.1875 44 
L 55.171875 27.6875 
L 70.515625 27.6875 
L 70.515625 20.21875 
L 53.328125 20.21875 
L 48.296875 0 
L 39.890625 0 
L 45.015625 20.21875 
L 31.203125 20.21875 
L 26.125 0 
L 17.828125 0 
L 22.796875 20.21875 
L 7.71875 20.21875 
L 7.71875 27.6875 
L 24.703125 27.6875 
L 28.71875 44 
L 13.28125 44 
L 13.28125 51.515625 
L 30.609375 51.515625 
L 35.6875 71.78125 
z
" id="DejaVuSerif-35"/>
     <path d="M 28.609375 0 
L 3.421875 0 
L 3.421875 5.171875 
L 11.53125 5.171875 
L 11.53125 70.796875 
L 2.875 70.796875 
L 2.875 75.984375 
L 20.515625 75.984375 
L 20.515625 26.515625 
L 42.390625 46.6875 
L 34.90625 46.6875 
L 34.90625 51.90625 
L 58.40625 51.90625 
L 58.40625 46.6875 
L 49.515625 46.6875 
L 34.078125 32.421875 
L 53.8125 5.171875 
L 61.28125 5.171875 
L 61.28125 0 
L 35.6875 0 
L 35.6875 5.171875 
L 43.109375 5.171875 
L 27.59375 26.515625 
L 20.515625 19.921875 
L 20.515625 5.171875 
L 28.609375 5.171875 
z
" id="DejaVuSerif-107"/>
     <path d="M 20.515625 28.515625 
L 20.515625 23.390625 
Q 20.515625 14.015625 24.09375 9.109375 
Q 27.6875 4.203125 34.515625 4.203125 
Q 41.40625 4.203125 44.9375 9.71875 
Q 48.484375 15.234375 48.484375 25.984375 
Q 48.484375 36.765625 44.9375 42.234375 
Q 41.40625 47.703125 34.515625 47.703125 
Q 27.6875 47.703125 24.09375 42.765625 
Q 20.515625 37.84375 20.515625 28.515625 
z
M 11.53125 46.6875 
L 2.875 46.6875 
L 2.875 51.90625 
L 20.515625 51.90625 
L 20.515625 43.796875 
Q 23.140625 48.6875 27.21875 51 
Q 31.296875 53.328125 37.3125 53.328125 
Q 46.875 53.328125 52.921875 45.75 
Q 58.984375 38.1875 58.984375 25.984375 
Q 58.984375 13.765625 52.921875 6.171875 
Q 46.875 -1.421875 37.3125 -1.421875 
Q 31.296875 -1.421875 27.21875 0.890625 
Q 23.140625 3.21875 20.515625 8.109375 
L 20.515625 -15.578125 
L 29 -15.578125 
L 29 -20.796875 
L 2.875 -20.796875 
L 2.875 -15.578125 
L 11.53125 -15.578125 
z
" id="DejaVuSerif-112"/>
    </defs>
    <g transform="translate(117.27638 34.152136)scale(0.3 -0.3)">
     <use xlink:href="#DejaVuSerif-35"/>
     <use x="83.789062" xlink:href="#DejaVuSerif-32"/>
     <use x="115.576172" xlink:href="#DejaVuSerif-100"/>
     <use x="179.589844" xlink:href="#DejaVuSerif-101"/>
     <use x="238.769531" xlink:href="#DejaVuSerif-32"/>
     <use x="270.556641" xlink:href="#DejaVuSerif-80"/>
     <use x="337.779297" xlink:href="#DejaVuSerif-111"/>
     <use x="397.984375" xlink:href="#DejaVuSerif-107"/>
     <use x="458.580078" xlink:href="#DejaVuSerif-233"/>
     <use x="517.759766" xlink:href="#DejaVuSerif-109"/>
     <use x="612.583984" xlink:href="#DejaVuSerif-111"/>
     <use x="672.789062" xlink:href="#DejaVuSerif-110"/>
     <use x="737.193359" xlink:href="#DejaVuSerif-32"/>
     <use x="768.980469" xlink:href="#DejaVuSerif-112"/>
     <use x="832.994141" xlink:href="#DejaVuSerif-111"/>
     <use x="893.199219" xlink:href="#DejaVuSerif-114"/>
     <use x="941.001953" xlink:href="#DejaVuSerif-32"/>
     <use x="972.789062" xlink:href="#DejaVuSerif-115"/>
     <use x="1024.107422" xlink:href="#DejaVuSerif-101"/>
     <use x="1083.287109" xlink:href="#DejaVuSerif-103"/>
     <use x="1147.300781" xlink:href="#DejaVuSerif-117"/>
     <use x="1211.705078" xlink:href="#DejaVuSerif-110"/>
     <use x="1276.109375" xlink:href="#DejaVuSerif-100"/>
     <use x="1340.123047" xlink:href="#DejaVuSerif-111"/>
     <use x="1400.328125" xlink:href="#DejaVuSerif-32"/>
     <use x="1432.115234" xlink:href="#DejaVuSerif-116"/>
     <use x="1472.300781" xlink:href="#DejaVuSerif-105"/>
     <use x="1504.283203" xlink:href="#DejaVuSerif-112"/>
     <use x="1568.296875" xlink:href="#DejaVuSerif-111"/>
    </g>
   </g>
  </g>
 </g>
 <defs>
  <clipPath id="pe1efb039ed">
   <rect height="561.303278" width="561.303278" x="80.899741" y="96.282464"/>
  </clipPath>
 </defs>
</svg>
